<?xml version="1.0" encoding="UTF-8" standalone="no"?>
<!DOCTYPE svg PUBLIC "-//W3C//DTD SVG 1.1//EN" "http://www.w3.org/Graphics/SVG/1.1/DTD/svg11.dtd">
<svg width="100%" height="100%" viewBox="0 0 1436 1252" version="1.1" xmlns="http://www.w3.org/2000/svg" xmlns:xlink="http://www.w3.org/1999/xlink" xml:space="preserve" xmlns:serif="http://www.serif.com/" style="fill-rule:evenodd;clip-rule:evenodd;stroke-linejoin:round;stroke-miterlimit:2;">
    <g transform="matrix(1,0,0,1,-325.755,-431.833)">
        <g id="OBJECTS" transform="matrix(4.16667,0,0,4.16667,0,0)">
            <g transform="matrix(1,0,0,1,366.08,203.53)">
                <path d="M0,97.5L-5.93,97.5C-9.72,93.71 -15.77,93.39 -19.94,96.77C-20.52,97.23 -21.16,97.5 -21.72,97.5L-30.83,97.5C-31.04,97.5 -31.18,97.46 -31.22,97.42C-34.28,94.44 -38.74,93.67 -42.52,95.21C-42.84,95.33 -43.15,95.48 -43.45,95.65C-43.75,95.8 -44.05,95.97 -44.33,96.17C-44.65,96.37 -44.96,96.6 -45.26,96.85C-45.33,96.91 -45.41,96.96 -45.49,97.02C-45.51,97.04 -45.54,97.05 -45.56,97.07C-46.28,97.57 -46.92,98.15 -47.47,98.8C-47.94,99.34 -48.35,99.93 -48.7,100.56C-49.08,101.26 -49.39,102 -49.6,102.77C-49.74,103.23 -49.84,103.71 -49.91,104.19C-50.32,107.09 -49.5,110.03 -47.64,112.3C-45.76,114.61 -43.98,116.82 -42.32,118.92C-41.79,119.59 -41.27,120.25 -40.77,120.9C-34.73,128.62 -30.21,134.93 -26.88,139.96C-36.95,133.32 -52.22,121.83 -73.87,102.77C-74.85,101.91 -75.84,101.03 -76.85,100.14C-78.77,98.44 -81.25,97.5 -83.82,97.5L-92.6,97.5C-94.36,97.5 -95.94,97.13 -97.41,96.36C-98.93,95.58 -100.58,95.2 -102.23,95.2C-104.39,95.2 -106.54,95.86 -108.36,97.17C-108.81,97.5 -109.18,97.5 -109.31,97.5L-141.21,97.5C-141.56,97.5 -141.93,97.49 -142.29,97.49C-142.77,97.49 -143.26,97.48 -143.75,97.47L-143.9,97.47C-147.48,97.42 -151.18,97.28 -152.89,97.12C-152.97,97.11 -153.05,97.1 -153.12,97.09L-153.13,97.09C-153.22,97.08 -153.3,97.07 -153.37,97.06C-153.48,97.03 -153.59,97.01 -153.7,96.99C-153.88,96.94 -154.06,96.91 -154.24,96.88L-154.25,96.88C-154.41,96.85 -154.56,96.82 -154.72,96.81C-154.98,96.77 -155.24,96.75 -155.5,96.74C-155.61,96.74 -155.71,96.73 -155.82,96.73L-155.84,96.73C-156.04,96.73 -156.23,96.73 -156.43,96.74C-158.8,96.85 -161.11,97.76 -162.95,99.39C-167.33,103.29 -173.36,108.66 -179.96,114.4C-181.53,115.77 -183.12,117.16 -184.75,118.55L-184.79,118.59C-185.3,119.03 -185.81,119.46 -186.32,119.91C-190,123.06 -193.74,126.22 -197.38,129.21C-195.46,126.54 -193.36,123.73 -191.07,120.78C-190.82,120.46 -190.58,120.13 -190.32,119.8C-190.3,119.78 -190.29,119.76 -190.27,119.74C-190.03,119.42 -189.77,119.1 -189.52,118.78C-188.45,117.41 -187.34,116.02 -186.19,114.6C-183.64,111.45 -183.13,107.12 -184.88,103.47C-184.93,103.37 -184.97,103.28 -185.03,103.19C-185.09,103.05 -185.17,102.91 -185.25,102.77C-185.42,102.47 -185.61,102.18 -185.82,101.9C-185.86,101.84 -185.9,101.78 -185.95,101.72C-186.03,101.6 -186.12,101.48 -186.22,101.37C-187.16,100.2 -188.34,99.26 -189.67,98.61C-189.98,98.45 -190.3,98.31 -190.62,98.19C-190.95,98.06 -191.29,97.95 -191.64,97.86C-192.51,97.62 -193.42,97.5 -194.35,97.5L-224.43,97.5C-226.61,97.5 -228.69,96.93 -230.77,95.77C-232.9,94.58 -234.73,92.97 -236.21,90.97C-236.74,90.26 -237.2,89.52 -237.59,88.75C-237.59,88.74 -237.6,88.74 -237.6,88.73C-238.11,87.72 -238.5,86.67 -238.77,85.58C-239.23,83.73 -240.18,82.04 -241.53,80.69C-242.26,79.95 -242.92,79.11 -243.47,78.17C-244.61,76.27 -245.16,74.22 -245.16,71.89L-245.16,49.47C-245.16,47.15 -244.61,45.09 -243.47,43.18C-243.19,42.71 -242.89,42.27 -242.57,41.85C-241.6,40.6 -240.43,39.55 -239.03,38.7C-237.11,37.52 -235.02,36.95 -232.64,36.95L-221.81,36.95C-218.96,36.95 -216.36,35.81 -214.47,33.96C-212.52,32.06 -211.31,29.4 -211.31,26.45L-211.31,25.28C-211.31,23.99 -210.26,22.94 -208.97,22.94L-199.31,22.94C-198.01,22.94 -196.96,23.99 -196.96,25.28L-196.96,26.92C-196.96,30.08 -195.54,33.07 -193.09,35.06C-191.9,36.03 -190.52,36.72 -189.07,37.09C-187.54,37.48 -185.92,37.53 -184.33,37.2C-183.53,37.03 -182.68,36.95 -181.83,36.95L-166.17,36.95C-163.58,36.95 -161.14,36 -159.26,34.36C-158.92,34.06 -158.59,33.73 -158.29,33.39C-157.97,33.03 -157.67,32.64 -157.4,32.22C-157.21,31.93 -157.03,31.63 -156.87,31.32C-156.76,31.12 -156.66,30.91 -156.57,30.7C-156.52,30.58 -156.46,30.45 -156.42,30.33C-156.26,29.94 -156.13,29.54 -156.02,29.14L-156.02,29.13C-155.28,26.3 -155.74,23.3 -157.29,20.84C-157.3,20.84 -157.3,20.83 -157.3,20.83C-157.62,20.33 -157.99,19.84 -158.4,19.39C-183.43,-8.15 -197.68,-26.83 -205.37,-38.53C-201.39,-35.87 -196.74,-32.56 -191.49,-28.57C-190.67,-27.96 -189.84,-27.32 -188.99,-26.66C-181.23,-20.7 -172.25,-13.36 -162.2,-4.63C-161.42,-3.97 -160.63,-3.28 -159.83,-2.57C-151.88,4.37 -143.29,12.16 -134.12,20.8L-134.11,20.81C-131.74,23.04 -129.35,25.31 -126.9,27.65C-126.66,27.89 -126.42,28.12 -126.18,28.35C-125.94,28.58 -125.7,28.81 -125.46,29.04C-125.06,29.43 -124.66,29.81 -124.26,30.2L-124.07,30.39C-123.82,30.63 -123.56,30.88 -123.3,31.13C-123.07,31.35 -122.84,31.56 -122.6,31.75C-121.77,32.42 -120.87,32.95 -119.92,33.33C-119.87,33.35 -119.82,33.37 -119.76,33.39C-119.09,33.65 -118.4,33.84 -117.7,33.95C-116.57,34.13 -115.42,34.13 -114.29,33.95C-114.27,33.95 -114.24,33.94 -114.22,33.93C-113.49,33.81 -112.76,33.61 -112.07,33.33C-111.12,32.95 -110.21,32.42 -109.39,31.75C-109.15,31.56 -108.92,31.35 -108.69,31.13C-108.43,30.88 -108.17,30.63 -107.91,30.38C-107.69,30.16 -107.47,29.95 -107.26,29.75C-107.02,29.51 -106.77,29.28 -106.53,29.04C-106.29,28.81 -106.05,28.58 -105.81,28.35C-105.57,28.12 -105.32,27.88 -105.08,27.65C-102.64,25.31 -100.25,23.04 -97.89,20.81L-97.88,20.8C-88.66,12.11 -80.02,4.28 -72.02,-2.71C-71.22,-3.41 -70.43,-4.09 -69.65,-4.77C-59.6,-13.49 -50.62,-20.82 -42.86,-26.8C-42.42,-27.14 -41.98,-27.48 -41.55,-27.8C-41.53,-27.81 -41.52,-27.83 -41.5,-27.84C-41.12,-28.14 -40.74,-28.42 -40.37,-28.7C-39.39,-29.44 -38.44,-30.16 -37.51,-30.85C-38.51,-29.72 -39.53,-28.57 -40.58,-27.4C-41,-26.92 -41.42,-26.46 -41.86,-25.97L-41.87,-25.96C-41.88,-25.95 -41.89,-25.93 -41.9,-25.92C-42.7,-25.03 -43.52,-24.12 -44.34,-23.21C-50.26,-16.65 -56.61,-9.77 -62.71,-3.15C-66.07,0.5 -69.49,4.21 -72.98,8.02C-76.07,11.39 -79.22,14.83 -82.43,18.36C-83.1,19.1 -83.66,19.92 -84.08,20.8L-84.08,20.81C-84.53,21.71 -84.84,22.66 -85.01,23.64C-85.29,25.26 -85.19,26.95 -84.68,28.56C-84.66,28.65 -84.63,28.74 -84.59,28.83C-84.59,28.85 -84.59,28.86 -84.58,28.88C-84.57,28.91 -84.56,28.95 -84.54,28.98C-84.41,29.34 -84.26,29.7 -84.08,30.04C-84.04,30.15 -83.99,30.25 -83.93,30.36C-83.9,30.43 -83.86,30.49 -83.81,30.56C-83.8,30.57 -83.8,30.59 -83.79,30.6C-83.76,30.67 -83.72,30.73 -83.68,30.8C-83.67,30.81 -83.67,30.82 -83.65,30.84C-83.64,30.86 -83.63,30.88 -83.61,30.91C-83.04,31.85 -82.33,32.68 -81.51,33.39C-81.28,33.59 -81.03,33.78 -80.78,33.96C-80.56,34.12 -80.33,34.28 -80.09,34.42C-80.01,34.47 -79.93,34.51 -79.85,34.56C-79.78,34.6 -79.71,34.64 -79.64,34.68C-79.33,34.84 -79.02,34.99 -78.69,35.12C-78.55,35.18 -78.41,35.24 -78.27,35.28C-78.24,35.3 -78.21,35.31 -78.17,35.32C-78.1,35.35 -78.03,35.38 -77.95,35.4C-77.91,35.41 -77.87,35.43 -77.82,35.44C-77.81,35.44 -77.8,35.45 -77.79,35.45C-77.75,35.46 -77.7,35.48 -77.65,35.49C-77.23,35.62 -76.8,35.72 -76.36,35.79C-76.15,35.82 -75.95,35.86 -75.73,35.9L-75.72,35.9C-74.27,36.13 -72.74,36.39 -71.26,36.66C-70.91,36.72 -70.56,36.78 -70.21,36.85C-69.86,36.91 -69.51,36.97 -69.17,37.03C-68.37,37.18 -67.6,37.32 -66.89,37.46C-66.78,37.47 -66.67,37.5 -66.56,37.52C-66.08,37.61 -65.64,37.69 -65.23,37.78C-64.22,37.98 -63.44,38.15 -62.99,38.27C-62,38.63 -60.98,38.84 -59.95,38.9C-57.81,39.02 -55.64,38.49 -53.77,37.31C-53.39,37.07 -52.99,36.95 -52.55,36.95L0.48,36.95C2.86,36.95 4.95,37.52 6.86,38.69C8.27,39.55 9.44,40.59 10.41,41.85C10.73,42.27 11.03,42.71 11.31,43.18C12.45,45.09 13,47.15 13,49.47L13,82.07C13,83.26 12.14,83.89 11.88,84.06C9.91,85.29 8.42,87.12 7.61,89.26L7.61,89.27C7.36,89.92 7.17,90.59 7.06,91.29L6.77,93.07C4.5,97.5 3.53,97.5 0,97.5M29.34,32.42L29.34,32.41C26.48,27.62 22.61,23.71 17.83,20.79C12.59,17.58 6.75,15.95 0.48,15.95L-51.75,15.95C-51.71,15.9 -51.66,15.86 -51.63,15.81C-51.29,15.45 -50.96,15.08 -50.63,14.73C-50.24,14.3 -49.86,13.9 -49.5,13.5C-48.75,12.69 -48,11.89 -47.26,11.08C-32.38,-5.08 -19.53,-19.03 -10.85,-29.74C-5.89,-35.88 -2.62,-40.54 -0.57,-44.41C5.01,-54.92 1.28,-61.03 -1.45,-63.74C-9.4,-71.64 -21.27,-65.68 -25.73,-63.43C-32.43,-60.07 -41.01,-54.49 -51.25,-46.83C-69.49,-33.21 -92.24,-13.56 -116,9.04C-139.73,-13.53 -162.45,-33.14 -180.66,-46.75C-190.89,-54.39 -199.46,-59.96 -206.15,-63.32C-210.19,-65.35 -222.49,-71.52 -230.43,-63.58C-239.2,-54.81 -232.6,-40.87 -219.97,-22.65C-214.92,-15.36 -208.62,-7.08 -201.26,1.94L-208.97,1.94C-218.52,1.94 -226.76,7.71 -230.37,15.95L-232.64,15.95C-238.91,15.95 -244.76,17.58 -250,20.79C-254.77,23.71 -258.64,27.62 -261.5,32.41C-264.59,37.6 -266.16,43.34 -266.16,49.47L-266.16,71.89C-266.16,78.03 -264.59,83.77 -261.51,88.93C-260.57,90.5 -259.52,91.98 -258.36,93.37C-257.15,96.99 -255.38,100.38 -253.08,103.48C-249.82,107.88 -245.75,111.46 -240.99,114.12C-235.77,117.02 -230.2,118.5 -224.43,118.5L-215.54,118.5C-219.56,124.13 -223.13,129.53 -226.07,134.42C-234.48,148.46 -236.39,155.58 -233.34,161.63C-231.25,165.79 -227,168.27 -222.25,168.05C-211.21,167.58 -196.91,157.55 -154.59,120.07C-154.57,120.05 -154.55,120.03 -154.53,120.01C-153.86,119.41 -153.18,118.81 -152.49,118.2C-151.7,118.25 -150.81,118.3 -149.81,118.34C-149.16,118.36 -148.46,118.38 -147.71,118.4C-146.93,118.43 -146.1,118.45 -145.2,118.46C-143.77,118.49 -142.18,118.5 -140.43,118.5L-109.31,118.5C-106.69,118.5 -104.13,118.05 -101.71,117.18C-98.8,118.06 -95.75,118.5 -92.6,118.5L-87.79,118.5C-69.27,134.79 -52.74,147.92 -39.83,156.59C-30.41,162.91 -20.18,169.14 -11.65,169.14C-7.95,169.14 -4.58,167.96 -1.73,165.12C7.27,156.12 -1.14,141.87 -5.18,135.03C-8.13,130.04 -11.96,124.32 -16.65,117.93C-16.04,117.79 -15.44,117.62 -14.84,117.44C-13.26,118.09 -11.33,118.5 -8.97,118.5L0,118.5C9.26,118.5 18.85,116.36 26.33,100.9C26.69,100.17 26.95,99.4 27.13,98.61C31.5,94.28 34,88.39 34,82.07L34,49.47C34,43.34 32.43,37.6 29.34,32.42" style="fill:rgb(255,142,255);fill-rule:nonzero;"/>
            </g>
            <g transform="matrix(1,0,0,1,121.269,401.862)">
                <path d="M0,-41.966C-1.589,-27.509 -5.102,-23.667 -20.206,-21.975C-21.294,-21.853 -21.289,-20.002 -20.201,-19.885C-5.088,-18.269 -1.556,-14.445 0.105,0.005C0.243,1.199 1.717,1.195 1.848,-0C3.437,-14.457 6.95,-18.299 22.053,-19.991C23.142,-20.113 23.137,-21.964 22.048,-22.081C6.937,-23.697 3.404,-27.521 1.743,-41.97C1.606,-43.165 0.131,-43.161 0,-41.966" style="fill:rgb(0,222,221);fill-rule:nonzero;"/>
            </g>
            <g transform="matrix(1,0,0,1,122.51,401.74)">
                <path d="M0,-41.72L0,-41.71L-1.24,-41.84L0,-41.72ZM19.01,-20.91C5.88,-19.19 1.56,-15.27 -0.27,-2.87C-2.16,-15.25 -6.5,-19.16 -19.64,-20.81C-6.51,-22.54 -2.19,-26.46 -0.36,-38.86C1.53,-26.47 5.86,-22.57 19.01,-20.91M20.94,-23.2C6.59,-24.74 3.36,-27.9 1.74,-41.99C1.61,-43.15 0.72,-43.99 -0.37,-43.99C-1.47,-43.99 -2.36,-43.14 -2.48,-41.98C-4.03,-27.88 -7.25,-24.7 -21.59,-23.1C-22.7,-22.97 -23.51,-22.01 -23.51,-20.8C-23.51,-19.6 -22.69,-18.64 -21.57,-18.52C-7.23,-16.99 -4,-13.83 -2.38,0.27C-2.24,1.43 -1.36,2.27 -0.26,2.27C0.84,2.27 1.72,1.42 1.85,0.26C3.4,-13.84 6.61,-17.02 20.95,-18.63C22.07,-18.75 22.88,-19.72 22.88,-20.92C22.87,-22.12 22.06,-23.08 20.94,-23.2" style="fill:rgb(255,142,255);fill-rule:nonzero;"/>
            </g>
            <g transform="matrix(1,0,0,1,156.458,389.814)">
                <path d="M0,-17.875C-0.677,-11.717 -2.173,-10.081 -8.607,-9.36C-9.07,-9.308 -9.068,-8.519 -8.605,-8.47C-2.168,-7.781 -0.663,-6.152 0.045,0.003C0.103,0.511 0.731,0.51 0.787,0.001C1.464,-6.157 2.96,-7.794 9.394,-8.515C9.857,-8.567 9.855,-9.355 9.391,-9.405C2.955,-10.093 1.45,-11.722 0.742,-17.877C0.684,-18.386 0.056,-18.384 0,-17.875" style="fill:rgb(0,222,221);fill-rule:nonzero;"/>
            </g>
            <g transform="matrix(1,0,0,1,163.36,380.89)">
                <path d="M0,-0.03C-3.98,0.76 -5.67,2.35 -6.49,6.14C-7.34,2.35 -9.04,0.77 -13.02,0C-9.04,-0.78 -7.35,-2.37 -6.52,-6.17C-5.68,-2.38 -3.98,-0.8 0,-0.03M2.57,-1.28C-3.42,-1.92 -4.69,-3.15 -5.36,-9.04C-5.44,-9.68 -5.93,-10.14 -6.53,-10.14C-7.14,-10.13 -7.63,-9.67 -7.7,-9.04C-8.35,-3.14 -9.6,-1.9 -15.6,-1.23C-16.21,-1.16 -16.66,-0.64 -16.66,0.01C-16.66,0.66 -16.21,1.19 -15.59,1.25C-9.59,1.89 -8.33,3.13 -7.65,9.02C-7.58,9.65 -7.09,10.11 -6.49,10.11L-6.48,10.11C-5.88,10.11 -5.39,9.65 -5.32,9.01C-4.67,3.12 -3.41,1.88 2.58,1.21C3.2,1.14 3.64,0.61 3.64,-0.04C3.64,-0.69 3.19,-1.21 2.57,-1.28" style="fill:rgb(255,142,255);fill-rule:nonzero;"/>
            </g>
            <g transform="matrix(1,0,0,1,121.455,355.663)">
                <path d="M0,-17.876C-0.677,-11.718 -2.173,-10.081 -8.607,-9.361C-9.07,-9.309 -9.068,-8.52 -8.604,-8.471C-2.167,-7.782 -0.663,-6.153 0.045,0.002C0.103,0.511 0.731,0.509 0.787,0C1.464,-6.158 2.961,-7.795 9.394,-8.516C9.857,-8.568 9.855,-9.356 9.392,-9.406C2.955,-10.094 1.45,-11.723 0.743,-17.878C0.684,-18.387 0.056,-18.385 0,-17.876" style="fill:rgb(0,222,221);fill-rule:nonzero;"/>
            </g>
            <g transform="matrix(1,0,0,1,128.36,346.74)">
                <path d="M0,-0.03C-3.98,0.76 -5.67,2.34 -6.5,6.14C-7.34,2.35 -9.04,0.77 -13.02,0C-9.04,-0.79 -7.35,-2.37 -6.53,-6.17C-5.68,-2.38 -3.98,-0.8 0,-0.03M2.57,-1.28C-3.43,-1.92 -4.69,-3.16 -5.37,-9.05C-5.44,-9.68 -5.93,-10.14 -6.53,-10.14L-6.54,-10.14C-7.14,-10.14 -7.63,-9.67 -7.7,-9.04C-8.35,-3.15 -9.6,-1.91 -15.6,-1.23C-16.22,-1.17 -16.66,-0.64 -16.66,0.01C-16.66,0.66 -16.21,1.18 -15.59,1.25C-9.6,1.89 -8.33,3.13 -7.66,9.02C-7.58,9.65 -7.09,10.11 -6.49,10.11C-5.88,10.11 -5.39,9.64 -5.32,9.01C-4.67,3.12 -3.42,1.88 2.58,1.2C3.19,1.14 3.64,0.61 3.64,-0.04C3.64,-0.69 3.19,-1.21 2.57,-1.28" style="fill:rgb(255,142,255);fill-rule:nonzero;"/>
            </g>
            <g transform="matrix(1,0,0,1,249.564,202.55)">
                <path d="M0,-19.805C-0.75,-12.982 -2.408,-11.169 -9.536,-10.371C-10.049,-10.313 -10.047,-9.44 -9.533,-9.384C-2.401,-8.622 -0.734,-6.817 0.05,0.002C0.114,0.566 0.81,0.564 0.872,-0C1.622,-6.823 3.28,-8.636 10.408,-9.434C10.921,-9.492 10.919,-10.366 10.405,-10.421C3.274,-11.183 1.606,-12.988 0.823,-19.807C0.758,-20.371 0.062,-20.369 0,-19.805" style="fill:rgb(255,142,255);fill-rule:nonzero;"/>
            </g>
            <g transform="matrix(0.707107,-0.707107,-0.707107,-0.707107,269.736,248.944)">
                <path d="M-13.729,-5.687C-97.243,-5.692 -164.944,3.015 -164.944,13.748C-164.944,24.48 -97.243,33.18 -13.729,33.18C69.785,33.179 137.45,24.477 137.487,13.745C137.523,3.014 69.902,-5.682 -13.729,-5.687" style="fill:rgb(0,222,221);fill-rule:nonzero;"/>
            </g>
            <g transform="matrix(1,0,0,1,211.75,180.12)">
                <path d="M0,130.27C-9.91,138.92 -19.32,146.69 -27.94,153.35C-53.49,173.07 -65.21,177.47 -67.66,175.03C-70.11,172.58 -65.7,160.86 -45.98,135.31C-43.7,132.36 -41.28,129.31 -38.74,126.18C-37.64,124.81 -36.5,123.42 -35.34,122.02C-32.82,118.96 -30.2,115.85 -27.48,112.66L-27.47,112.65C-23.58,108.11 -19.48,103.45 -15.22,98.7C-15.21,98.68 -15.19,98.66 -15.17,98.64C-14.39,97.77 -13.6,96.89 -12.8,96.01C-12.26,95.42 -11.73,94.81 -11.18,94.22C-11.16,94.2 -11.15,94.19 -11.13,94.17C-11.09,94.11 -11.04,94.05 -10.98,94C-7.03,89.65 -2.94,85.23 1.26,80.76C4.42,77.41 7.64,74.03 10.92,70.63L11.08,70.47C11.3,70.24 11.53,70 11.77,69.76C12,69.52 12.23,69.27 12.46,69.03C12.71,68.78 12.95,68.54 13.19,68.29C13.59,67.87 14,67.45 14.41,67.03C15.08,66.34 15.76,65.65 16.44,64.95C16.91,64.47 17.38,63.99 17.85,63.51C18.58,62.77 19.31,62.03 20.04,61.29C20.51,60.82 20.97,60.35 21.45,59.87C22.27,59.04 23.1,58.21 23.93,57.37L25.52,55.78C26.64,54.66 27.76,53.55 28.87,52.45C29.86,51.47 30.84,50.5 31.82,49.53C32.29,49.06 32.77,48.6 33.24,48.13C33.99,47.4 34.74,46.67 35.48,45.94C35.96,45.48 36.43,45.01 36.91,44.55C36.98,44.48 37.04,44.42 37.11,44.36L37.12,44.35C37.28,44.19 37.44,44.03 37.6,43.89C37.84,43.64 38.09,43.4 38.34,43.17C38.58,42.93 38.82,42.7 39.06,42.47C39.29,42.23 39.53,42 39.77,41.78C63.33,18.99 86.1,-1.07 105.05,-15.71C126.46,-32.24 138.16,-38.02 142.83,-38.02C143.74,-38.02 144.38,-37.8 144.78,-37.4C145.18,-37.01 145.38,-36.36 145.38,-35.47C145.4,-25.43 122.7,5.47 88.79,42.87C88.76,42.89 88.74,42.91 88.72,42.93C88.52,43.15 88.32,43.37 88.11,43.6C87.9,43.83 87.69,44.06 87.48,44.29L87.47,44.3C83.74,48.4 79.89,52.57 75.9,56.8C75.72,56.99 75.54,57.18 75.36,57.37C75.14,57.61 74.91,57.85 74.69,58.09C71.89,61.05 69.05,64.03 66.14,67.03C65.96,67.22 65.78,67.41 65.6,67.6C65.37,67.84 65.14,68.08 64.9,68.32C64.67,68.56 64.44,68.8 64.21,69.04C63.97,69.28 63.73,69.53 63.49,69.78C63.27,70.01 63.04,70.24 62.82,70.47C62.35,70.95 61.89,71.43 61.42,71.9C60.77,72.57 60.12,73.23 59.47,73.89C59.39,73.97 59.32,74.05 59.23,74.13C58.77,74.61 58.3,75.08 57.83,75.56C56.03,77.39 54.21,79.23 52.37,81.07C52.11,81.33 51.85,81.59 51.59,81.85C50.22,83.22 48.86,84.58 47.5,85.92C47.03,86.39 46.56,86.86 46.09,87.32C45.34,88.05 44.6,88.79 43.86,89.52C43.5,89.87 43.15,90.22 42.79,90.56L42.43,90.92C41.31,92.01 40.2,93.1 39.09,94.18L38.34,94.9C38.1,95.13 37.86,95.37 37.62,95.6C37.38,95.83 37.14,96.06 36.9,96.29C35.56,97.59 34.23,98.87 32.9,100.15C28.42,104.43 23.97,108.61 19.59,112.67L19.58,112.68C16.54,115.48 13.55,118.21 10.58,120.88C9.57,121.79 8.57,122.69 7.58,123.57C7.54,123.62 7.49,123.66 7.45,123.7C7.05,124.06 6.64,124.42 6.24,124.77C4.14,126.64 2.07,128.46 0.01,130.26L0,130.27ZM146.19,-38.82C137.62,-47.33 86.72,-6.36 38.33,40.38C38.09,40.62 37.85,40.85 37.61,41.07C37.37,41.31 37.14,41.54 36.9,41.77L36.15,42.49C35.92,42.72 35.69,42.94 35.46,43.16C35.11,43.51 34.75,43.86 34.39,44.21L34.38,44.22C34.26,44.33 34.15,44.44 34.03,44.56C33.28,45.29 32.52,46.03 31.77,46.77C31.29,47.24 30.82,47.7 30.35,48.17C29.37,49.13 28.4,50.09 27.43,51.06C26.32,52.16 25.21,53.26 24.11,54.36C23.3,55.17 22.49,55.99 21.68,56.8L21.11,57.37C20.77,57.71 20.43,58.06 20.09,58.4C19.62,58.88 19.15,59.35 18.69,59.83C17.94,60.57 17.21,61.32 16.47,62.06C16.01,62.54 15.54,63.02 15.07,63.5C13.97,64.62 12.88,65.74 11.8,66.85C11.73,66.92 11.66,66.99 11.6,67.06C11.42,67.24 11.25,67.42 11.08,67.6L10.94,67.74C10.75,67.94 10.56,68.13 10.38,68.32C10.14,68.56 9.91,68.8 9.69,69.04C6.83,72 4.02,74.94 1.26,77.86C-3.13,82.5 -7.39,87.09 -11.5,91.61L-11.55,91.66C-12.77,93 -13.98,94.34 -15.17,95.66C-15.19,95.68 -15.21,95.7 -15.22,95.72C-20.45,101.52 -25.43,107.18 -30.09,112.67L-30.1,112.68C-32.6,115.6 -35,118.46 -37.31,121.27C-38.68,122.93 -40.01,124.57 -41.31,126.18C-43.49,128.88 -45.58,131.52 -47.56,134.09C-66.03,158 -73.27,172.25 -69.08,176.44C-68.31,177.21 -67.2,177.6 -65.75,177.6C-59.33,177.6 -46.24,170 -26.72,154.93C-17.14,147.54 -6.6,138.75 4.54,128.95L4.55,128.94C4.95,128.58 5.34,128.24 5.74,127.88C6.17,127.5 6.6,127.12 7.03,126.74C7.23,126.56 7.44,126.37 7.64,126.18L7.65,126.18C7.76,126.08 7.88,125.98 7.99,125.88C8.14,125.75 8.29,125.61 8.45,125.48C10.12,123.98 11.82,122.46 13.53,120.91C16.49,118.22 19.48,115.49 22.5,112.68L22.51,112.67C26.88,108.61 31.31,104.44 35.77,100.15C36.62,99.33 37.48,98.51 38.34,97.68C38.57,97.45 38.81,97.22 39.05,96.99C39.29,96.76 39.53,96.52 39.78,96.29C40.02,96.05 40.27,95.81 40.52,95.57C41.64,94.48 42.76,93.39 43.88,92.3C44.05,92.13 44.22,91.96 44.39,91.8C44.69,91.5 45,91.2 45.3,90.9L47.55,88.68C48.02,88.22 48.5,87.75 48.97,87.28C50.1,86.16 51.24,85.03 52.37,83.9C52.58,83.69 52.8,83.47 53.01,83.26C55.09,81.18 57.16,79.1 59.19,77.03C59.66,76.56 60.13,76.08 60.59,75.61C61.15,75.04 61.72,74.46 62.28,73.89C62.46,73.71 62.63,73.53 62.8,73.35C63.27,72.87 63.74,72.39 64.2,71.92C64.43,71.69 64.66,71.45 64.87,71.22C65.12,70.97 65.36,70.73 65.6,70.48C65.83,70.24 66.07,70 66.3,69.76C66.53,69.52 66.77,69.28 66.99,69.04C67.65,68.37 68.29,67.7 68.94,67.03C71.57,64.3 74.15,61.59 76.68,58.9C77.17,58.39 77.65,57.88 78.13,57.37C78.31,57.18 78.49,56.99 78.66,56.8C81.94,53.33 85.11,49.9 88.17,46.52C88.98,45.64 89.56,45 89.91,44.63C89.98,44.55 90.04,44.48 90.09,44.43C90.11,44.41 90.13,44.38 90.15,44.36L90.16,44.36C90.18,44.33 90.19,44.32 90.21,44.3C90.25,44.25 90.27,44.23 90.28,44.22C90.82,43.63 91.36,43.03 91.89,42.44C91.9,42.42 91.92,42.4 91.93,42.39C92.02,42.29 92.1,42.21 92.16,42.15C92.18,42.12 92.2,42.1 92.21,42.09C92.26,42.03 92.32,41.97 92.37,41.91C92.39,41.89 92.41,41.88 92.41,41.87C125.76,4.88 147.4,-25.07 147.38,-35.47C147.38,-36.91 146.98,-38.04 146.19,-38.82" style="fill:rgb(0,222,221);fill-rule:nonzero;"/>
            </g>
            <g transform="matrix(0.740603,-0.671942,-0.671942,-0.740603,262.533,249.885)">
                <path d="M-9.311,-3.036C-69.04,-5.147 -113.839,-2.796 -114.237,5.406C-114.635,13.608 -67.659,22.557 -9.311,25.393C49.037,28.229 96.662,23.879 97.061,15.676C97.459,7.474 49.405,-0.96 -9.311,-3.036" style="fill:rgb(255,142,255);fill-rule:nonzero;"/>
            </g>
            <g transform="matrix(1,0,0,1,253.68,230.82)">
                <path d="M0,29.96C-0.47,30.43 -0.94,30.89 -1.41,31.36C-1.95,31.88 -2.49,32.41 -3.02,32.93C-3.21,33.11 -3.4,33.3 -3.59,33.49C-4.07,33.95 -4.55,34.42 -5.02,34.88C-6.15,35.97 -7.27,37.05 -8.37,38.11C-8.62,38.35 -8.87,38.58 -9.11,38.81C-9.35,39.05 -9.59,39.28 -9.83,39.51C-9.93,39.6 -10.03,39.7 -10.12,39.78C-10.27,39.92 -10.41,40.06 -10.55,40.19C-13.9,43.38 -17.14,46.41 -20.28,49.29C-19.23,48.36 -18.17,47.42 -17.11,46.46C-15.8,45.29 -14.48,44.09 -13.15,42.88C-12.99,42.75 -12.84,42.61 -12.7,42.47C-11.95,41.78 -11.18,41.06 -10.41,40.34C-10.21,40.16 -10.02,39.97 -9.82,39.78C-9.77,39.74 -9.73,39.7 -9.68,39.65C-9.44,39.43 -9.2,39.2 -8.95,38.97C-8.7,38.73 -8.45,38.5 -8.2,38.27C-7.1,37.22 -5.97,36.15 -4.84,35.06C-4.36,34.61 -3.88,34.15 -3.4,33.68C-3.14,33.43 -2.88,33.18 -2.62,32.93C-2.15,32.48 -1.68,32.02 -1.21,31.56C-0.73,31.1 -0.26,30.64 0.22,30.17C0.15,30.1 0.08,30.03 0,29.96M-19.18,13.47C-18.72,13 -18.25,12.53 -17.78,12.05C-16.41,10.66 -15.02,9.26 -13.62,7.86C-13.22,7.46 -12.82,7.06 -12.42,6.67C-12.23,6.47 -12.04,6.28 -11.85,6.1C-11.3,5.55 -10.75,5 -10.2,4.46C-9.2,3.47 -8.21,2.5 -7.23,1.53C-6.75,1.06 -6.27,0.6 -5.8,0.14C-5.06,-0.59 -4.33,-1.3 -3.6,-2.01C-3.12,-2.47 -2.64,-2.94 -2.16,-3.4C-1.93,-3.62 -1.7,-3.83 -1.48,-4.05C-1.23,-4.29 -0.98,-4.53 -0.74,-4.76C-0.55,-4.94 -0.35,-5.13 -0.16,-5.31C-0.16,-5.31 -0.06,-5.41 -0.02,-5.45C0.22,-5.68 0.46,-5.91 0.7,-6.14C37.26,-41.02 62.07,-57.95 68.41,-57.95C68.97,-57.95 69.39,-57.82 69.66,-57.55C69.81,-57.4 70.34,-56.66 69.54,-54.09C69.25,-53.16 68.79,-51.98 68.06,-50.5C66.07,-46.41 62.1,-40.02 54.41,-30.06C50.13,-24.51 45.18,-18.5 39.7,-12.17C39.6,-12.06 39.51,-11.94 39.41,-11.83C37.97,-10.17 36.62,-8.47 35.12,-6.77C35.04,-6.67 34.96,-6.58 34.87,-6.48C34.86,-6.47 34.85,-6.46 34.84,-6.45C32.59,-3.91 30.12,-1.35 27.72,1.27C26.26,2.87 24.76,4.48 23.24,6.1C23.07,6.29 22.89,6.48 22.71,6.67C21.25,8.23 19.77,9.8 18.27,11.38C18.04,11.62 17.81,11.86 17.58,12.1C17.35,12.34 17.12,12.58 16.9,12.82C16.66,13.07 16.42,13.31 16.18,13.56C15.97,13.78 15.75,14.01 15.54,14.23C15.08,14.71 14.61,15.19 14.15,15.67C13.94,15.89 13.72,16.11 13.51,16.33C13.02,16.84 12.52,17.35 12.03,17.86C11.57,18.33 11.11,18.8 10.64,19.28C8.54,21.43 6.41,23.58 4.25,25.74C3.75,26.24 3.26,26.73 2.77,27.21C1.84,28.14 0.92,29.06 0,29.96C-0.47,30.43 -0.94,30.89 -1.41,31.36C-1.95,31.88 -2.49,32.41 -3.02,32.93C-3.21,33.11 -3.4,33.3 -3.59,33.49C-4.07,33.95 -4.55,34.42 -5.02,34.88C-6.15,35.97 -7.27,37.05 -8.37,38.11C-8.62,38.35 -8.87,38.58 -9.11,38.81C-9.35,39.05 -9.59,39.28 -9.83,39.51C-9.93,39.6 -10.03,39.7 -10.12,39.78C-10.27,39.92 -10.41,40.06 -10.55,40.19C-13.9,43.38 -17.14,46.41 -20.28,49.29C-20.34,49.34 -20.4,49.4 -20.46,49.45C-24.37,53.05 -28.12,56.41 -31.7,59.53C-32.57,60.29 -33.39,61 -34.18,61.67C-34.19,61.68 -34.19,61.68 -34.2,61.69C-34.41,61.87 -34.62,62.05 -34.81,62.22C-37.75,64.76 -40.57,67.12 -43.26,69.32C-43.31,69.37 -43.37,69.41 -43.42,69.44C-43.53,69.54 -43.65,69.64 -43.76,69.72C-50.29,75.06 -56.03,79.4 -60.89,82.76C-60.98,82.83 -61.06,82.89 -61.15,82.95C-63.5,84.56 -65.64,85.95 -67.56,87.11C-71.93,89.76 -75.15,91.21 -77.12,91.49C-78.03,91.62 -78.67,91.5 -79.03,91.14C-79.31,90.87 -80.93,88.5 -72.63,75.9C-72.54,75.76 -72.45,75.62 -72.35,75.48C-70.2,72.24 -67.41,68.35 -63.79,63.66C-60.92,59.95 -57.76,56.03 -54.34,51.95C-53.4,50.83 -52.44,49.69 -51.45,48.54C-51.44,48.52 -51.42,48.51 -51.41,48.49C-51.31,48.37 -51.21,48.25 -51.1,48.12C-47.82,44.28 -44.33,40.32 -40.67,36.26C-37.07,32.27 -33.29,28.19 -29.38,24.05C-28.94,23.59 -28.49,23.12 -28.05,22.65C-27.82,22.41 -27.59,22.17 -27.36,21.93C-27.13,21.69 -26.91,21.45 -26.67,21.21C-26.44,20.96 -26.2,20.71 -25.96,20.46C-24.89,19.35 -23.81,18.23 -22.73,17.11C-22.47,16.85 -22.22,16.59 -21.97,16.33C-21.76,16.11 -21.54,15.89 -21.33,15.67C-20.62,14.94 -19.9,14.21 -19.18,13.47M71.08,-58.96C69.93,-60.1 66.46,-63.58 40.95,-43.88C36.94,-40.79 32.7,-37.35 28.26,-33.62C28.14,-33.52 28.02,-33.42 27.9,-33.32C18.94,-25.76 9.24,-17.02 -0.73,-7.53C-0.97,-7.3 -1.93,-6.38 -2.17,-6.15C-2.24,-6.08 -2.31,-6.01 -2.38,-5.95C-2.39,-5.94 -2.39,-5.94 -2.4,-5.93C-2.57,-5.77 -2.74,-5.6 -2.91,-5.44C-3.14,-5.22 -3.36,-5 -3.59,-4.78C-4.07,-4.32 -4.55,-3.86 -5.03,-3.39C-5.77,-2.68 -6.51,-1.96 -7.26,-1.23C-7.52,-0.97 -7.79,-0.71 -8.06,-0.44C-8.26,-0.25 -8.47,-0.05 -8.68,0.16C-9.67,1.13 -10.67,2.11 -11.67,3.1C-12.67,4.09 -13.68,5.09 -14.69,6.1L-15.26,6.67C-16.57,7.98 -17.87,9.28 -19.16,10.59C-19.62,11.06 -20.09,11.54 -20.56,12.02C-21.28,12.75 -22,13.49 -22.72,14.23C-23.19,14.71 -23.66,15.19 -24.12,15.67C-24.33,15.89 -24.55,16.11 -24.76,16.33C-25.63,17.23 -26.5,18.13 -27.35,19.03C-27.6,19.28 -27.84,19.53 -28.07,19.78C-28.3,20.02 -29.22,20.98 -29.45,21.22C-29.91,21.7 -30.36,22.18 -30.81,22.66C-34.21,26.25 -37.5,29.8 -40.67,33.29C-44.38,37.37 -47.92,41.37 -51.26,45.24C-51.6,45.63 -51.93,46.01 -52.26,46.4C-52.27,46.42 -52.29,46.43 -52.3,46.45C-53.05,47.32 -53.78,48.19 -54.51,49.04C-55.07,49.7 -55.62,50.36 -56.17,51.01C-56.27,51.15 -56.38,51.28 -56.49,51.4C-56.87,51.86 -57.25,52.31 -57.63,52.77C-57.65,52.8 -57.67,52.82 -57.7,52.85C-59.82,55.42 -61.83,57.92 -63.73,60.35C-63.73,60.35 -63.74,60.35 -63.74,60.36C-63.75,60.37 -63.76,60.38 -63.77,60.39C-64.32,61.08 -64.85,61.76 -65.37,62.44C-68.88,66.98 -71.65,70.83 -73.82,74.08C-74.15,74.56 -74.45,75.01 -74.74,75.46C-83.74,89.26 -81.36,91.65 -80.45,92.56C-80.14,92.87 -79.67,93.34 -78.67,93.49C-78.46,93.52 -78.22,93.54 -77.96,93.54C-77.02,93.54 -75.72,93.3 -73.92,92.62C-71.18,91.58 -67.27,89.52 -61.61,85.7C-61.26,85.46 -60.9,85.22 -60.53,84.97C-60.52,84.96 -60.5,84.95 -60.49,84.94C-60.38,84.86 -60.27,84.79 -60.17,84.72C-60.15,84.71 -60.13,84.69 -60.1,84.67C-57.68,82.99 -54.96,81.02 -51.91,78.7C-51.83,78.64 -51.74,78.57 -51.65,78.5C-51.22,78.17 -50.77,77.83 -50.32,77.48C-47.81,75.54 -45.2,73.47 -42.52,71.27C-42.5,71.25 -42.37,71.15 -42.13,70.95C-42,70.84 -41.87,70.73 -41.73,70.62L-41.72,70.62C-41.47,70.42 -41.17,70.17 -40.81,69.87C-40.8,69.85 -40.78,69.83 -40.76,69.82L-40.75,69.82C-40.74,69.82 -40.74,69.81 -40.73,69.8L-40.72,69.8C-39.93,69.15 -38.89,68.29 -37.63,67.22C-37.17,66.83 -36.71,66.44 -36.25,66.06C-36.16,65.98 -36.06,65.9 -35.96,65.81C-34.48,64.55 -33,63.27 -31.48,61.96L-31.47,61.95C-26.96,58.03 -22.3,53.85 -17.53,49.45C-15.98,48.02 -14.42,46.57 -12.85,45.1C-12.83,45.09 -12.82,45.08 -12.8,45.05C-11.59,43.92 -10.36,42.75 -9.14,41.59C-8.89,41.36 -8.65,41.13 -8.41,40.9C-8.17,40.67 -7.92,40.44 -7.68,40.21C-7.53,40.06 -7.38,39.92 -7.23,39.78C-7.13,39.68 -7.04,39.59 -6.94,39.5C-5.83,38.43 -4.71,37.36 -3.59,36.27C-3.12,35.81 -2.64,35.35 -2.16,34.88C-1.5,34.23 -0.83,33.58 -0.16,32.93C-0.1,32.86 -0.03,32.8 0.03,32.74C0.5,32.27 0.98,31.81 1.45,31.34C1.89,30.91 2.33,30.47 2.77,30.04C3.73,29.08 4.7,28.12 5.67,27.15C7.82,25 9.94,22.86 12.02,20.72C12.49,20.24 12.96,19.77 13.41,19.3C14.13,18.56 14.84,17.83 15.54,17.1C15.8,16.84 16.04,16.58 16.29,16.33C16.51,16.11 16.72,15.88 16.93,15.66C17.15,15.44 17.36,15.21 17.58,14.99C17.82,14.74 18.05,14.5 18.29,14.25C18.52,14.01 18.75,13.77 18.98,13.53C19.21,13.29 19.44,13.05 19.67,12.8C21.63,10.75 23.55,8.7 25.44,6.67C25.62,6.48 25.8,6.29 25.97,6.1C26.48,5.55 26.98,5.01 27.48,4.47C27.52,4.43 27.56,4.39 27.6,4.35C27.93,3.99 28.26,3.63 28.59,3.27C31.64,-0.04 34.57,-3.29 37.39,-6.48L37.4,-6.49C37.78,-6.92 38.15,-7.35 38.52,-7.77C39.24,-8.59 39.95,-9.4 40.65,-10.2C46.31,-16.73 51.44,-22.94 55.86,-28.66C55.91,-28.72 55.95,-28.78 56,-28.84C67.28,-43.45 70.96,-50.84 71.82,-54.69C71.94,-55.18 72,-55.61 72.03,-55.99C72.18,-57.86 71.48,-58.56 71.08,-58.96M0,29.96C-0.47,30.43 -0.94,30.89 -1.41,31.36C-1.95,31.88 -2.49,32.41 -3.02,32.93C-3.21,33.11 -3.4,33.3 -3.59,33.49C-4.07,33.95 -4.55,34.42 -5.02,34.88C-6.15,35.97 -7.27,37.05 -8.37,38.11C-8.62,38.35 -8.87,38.58 -9.11,38.81C-9.35,39.05 -9.59,39.28 -9.83,39.51C-9.93,39.6 -10.03,39.7 -10.12,39.78C-10.27,39.92 -10.41,40.06 -10.55,40.19C-13.9,43.38 -17.14,46.41 -20.28,49.29C-19.23,48.36 -18.17,47.42 -17.11,46.46C-15.8,45.29 -14.48,44.09 -13.15,42.88C-12.99,42.75 -12.84,42.61 -12.7,42.47C-11.95,41.78 -11.18,41.06 -10.41,40.34C-10.21,40.16 -10.02,39.97 -9.82,39.78C-9.77,39.74 -9.73,39.7 -9.68,39.65C-9.44,39.43 -9.2,39.2 -8.95,38.97C-8.7,38.73 -8.45,38.5 -8.2,38.27C-7.1,37.22 -5.97,36.15 -4.84,35.06C-4.36,34.61 -3.88,34.15 -3.4,33.68C-3.14,33.43 -2.88,33.18 -2.62,32.93C-2.15,32.48 -1.68,32.02 -1.21,31.56C-0.73,31.1 -0.26,30.64 0.22,30.17C0.15,30.1 0.08,30.03 0,29.96M0,29.96C-0.47,30.43 -0.94,30.89 -1.41,31.36C-1.95,31.88 -2.49,32.41 -3.02,32.93C-3.21,33.11 -3.4,33.3 -3.59,33.49C-4.07,33.95 -4.55,34.42 -5.02,34.88C-6.15,35.97 -7.27,37.05 -8.37,38.11C-8.62,38.35 -8.87,38.58 -9.11,38.81C-9.35,39.05 -9.59,39.28 -9.83,39.51C-9.93,39.6 -10.03,39.7 -10.12,39.78C-10.27,39.92 -10.41,40.06 -10.55,40.19C-13.9,43.38 -17.14,46.41 -20.28,49.29C-20.34,49.34 -20.4,49.4 -20.46,49.45C-24.37,53.05 -28.12,56.41 -31.7,59.53C-28.41,56.68 -24.56,53.3 -20.31,49.45C-18.03,47.39 -15.64,45.2 -13.15,42.88C-12.99,42.75 -12.84,42.61 -12.7,42.47C-11.95,41.78 -11.18,41.06 -10.41,40.34C-10.21,40.16 -10.02,39.97 -9.82,39.78C-9.77,39.74 -9.73,39.7 -9.68,39.65C-9.44,39.43 -9.2,39.2 -8.95,38.97C-8.7,38.73 -8.45,38.5 -8.2,38.27C-7.1,37.22 -5.97,36.15 -4.84,35.06C-4.36,34.61 -3.88,34.15 -3.4,33.68C-3.14,33.43 -2.88,33.18 -2.62,32.93C-2.15,32.48 -1.68,32.02 -1.21,31.56C-0.73,31.1 -0.26,30.64 0.22,30.17C0.15,30.1 0.08,30.03 0,29.96" style="fill:white;fill-rule:nonzero;"/>
            </g>
            <g transform="matrix(1,0,0,1,288,285.843)">
                <path d="M0,-82.869C0,-82.869 -24.663,-63.843 -38.052,-51.048C-51.441,-38.254 -62.029,-26.963 -62.029,-26.963L-72.941,-14.403C-72.941,-14.403 -82.183,-3.313 -83.68,-0.137C-85.177,3.04 -87.412,8.024 -86.941,8.767C-86.471,9.51 -84.49,10.615 -72.941,3.04C-61.392,-4.535 -34.824,-30.137 -34.824,-30.137L-11.765,-54.372L4.941,-75.516C4.941,-75.516 18.118,-93.484 0,-82.869" style="fill:rgb(32,35,73);fill-rule:nonzero;"/>
            </g>
            <g transform="matrix(1,0,0,1,250.08,237.5)">
                <path d="M0,19.79C-0.48,20.26 -0.96,20.73 -1.43,21.18C-2.15,21.89 -2.87,22.58 -3.59,23.27C-4.07,23.73 -4.56,24.19 -5.04,24.66C-5.6,25.19 -6.17,25.73 -6.73,26.25L-3.82,26.25C-3.75,26.19 -3.68,26.12 -3.62,26.05C-3.14,25.6 -2.65,25.14 -2.17,24.67C-1.45,23.99 -0.72,23.29 0,22.58C0.48,22.12 0.95,21.66 1.43,21.19C0.96,20.72 0.48,20.26 0,19.79M36.08,-19.81C34.45,-17.7 32.67,-15.48 30.75,-13.17L30.74,-13.16C28.07,-9.95 25.16,-6.59 22.03,-3.1C21.28,-2.27 20.52,-1.43 19.74,-0.58C19.57,-0.39 19.4,-0.2 19.22,-0.01C18.91,0.33 18.59,0.68 18.26,1.03C18.04,1.27 17.81,1.52 17.58,1.77C17.36,2.01 17.13,2.25 16.9,2.5C16.67,2.75 16.44,3 16.2,3.25C16,3.47 15.79,3.69 15.58,3.91C15.12,4.4 14.66,4.89 14.2,5.38C14.14,5.44 14.09,5.49 14.04,5.55C13.4,6.21 12.77,6.88 12.12,7.55C11.67,8.03 11.21,8.51 10.74,8.99C9.31,10.47 7.85,11.96 6.37,13.45C5.69,14.14 5.01,14.83 4.32,15.52C2.88,16.96 1.43,18.39 0,19.79C-0.48,20.26 -0.96,20.73 -1.43,21.18C-2.15,21.89 -2.87,22.58 -3.59,23.27C-4.07,23.73 -4.56,24.19 -5.04,24.66C-5.6,25.19 -6.17,25.73 -6.73,26.25C-7.3,26.79 -7.86,27.31 -8.42,27.83C-8.67,28.07 -8.91,28.3 -9.16,28.53C-9.41,28.76 -9.66,28.99 -9.9,29.21C-10.15,29.44 -10.4,29.67 -10.64,29.88C-11.83,30.99 -13.01,32.06 -14.17,33.1C-18.06,36.61 -21.82,39.86 -25.36,42.77C-27.32,44.38 -29.2,45.89 -31.01,47.29C-33.73,49.39 -36.04,51.06 -38.01,52.38C-38.02,52.39 -38.03,52.39 -38.04,52.4C-40.92,54.33 -43.05,55.52 -44.57,56.22C-46.73,57.21 -47.71,57.22 -47.95,56.98C-48.25,56.68 -48.15,55.26 -46.32,51.89L-46.32,51.88C-45.71,50.75 -44.9,49.4 -43.84,47.79C-43.83,47.78 -43.83,47.77 -43.82,47.76C-42.43,45.65 -40.61,43.1 -38.25,40.04C-37.52,39.09 -36.75,38.12 -35.96,37.13C-31.68,31.78 -26.55,25.85 -20.84,19.65C-20.62,19.41 -20.39,19.16 -20.16,18.92C-19.94,18.68 -19.72,18.43 -19.48,18.19C-19.29,17.97 -19.09,17.76 -18.88,17.54C-18.85,17.5 -18.82,17.47 -18.78,17.43C-17.74,16.31 -16.68,15.19 -15.6,14.06C-15.15,13.58 -14.69,13.09 -14.22,12.6C-13.52,11.88 -12.82,11.15 -12.12,10.42C-11.87,10.16 -11.62,9.91 -11.37,9.65C-11.15,9.43 -10.94,9.21 -10.73,8.99C-9.33,7.57 -7.92,6.14 -6.49,4.71C-4.93,3.15 -3.39,1.63 -1.89,0.17L-1.7,-0.02C-1.53,-0.18 -1.37,-0.34 -1.21,-0.5C-0.8,-0.9 -0.4,-1.29 0,-1.68C0.49,-2.14 0.97,-2.61 1.44,-3.06C2.18,-3.77 2.91,-4.47 3.63,-5.15C4.12,-5.61 4.61,-6.07 5.09,-6.53C5.32,-6.74 5.54,-6.95 5.77,-7.16C6.02,-7.39 6.26,-7.62 6.51,-7.85C6.76,-8.08 7,-8.31 7.25,-8.53C7.49,-8.77 7.74,-8.99 7.98,-9.22C9.41,-10.54 10.81,-11.81 12.17,-13.03C28.52,-27.71 39.69,-35.27 43.98,-36.68C44.48,-36.85 44.88,-36.93 45.19,-36.93C45.46,-36.93 45.66,-36.86 45.78,-36.74C46.31,-36.21 45.6,-32.13 36.08,-19.81M47.19,-38.16C47.01,-38.34 46.77,-38.58 46.35,-38.74C44.77,-39.33 40.62,-38.68 27.62,-28.63C21.53,-23.93 14.56,-17.98 7.21,-11.21C7.17,-11.18 7.14,-11.14 7.1,-11.11C6.92,-10.95 6.74,-10.79 6.56,-10.61C6.31,-10.39 6.07,-10.16 5.82,-9.93C5.58,-9.71 5.33,-9.48 5.09,-9.25C4.84,-9.02 4.59,-8.79 4.34,-8.55C4.12,-8.35 3.89,-8.14 3.67,-7.92C3.18,-7.47 2.7,-7.01 2.21,-6.54C1.47,-5.86 0.74,-5.15 0,-4.44C-0.48,-3.99 -0.95,-3.53 -1.43,-3.06C-2.26,-2.27 -3.09,-1.46 -3.92,-0.64C-3.94,-0.63 -3.96,-0.61 -3.98,-0.58C-4.18,-0.4 -4.37,-0.21 -4.56,-0.01C-5.68,1.08 -6.79,2.18 -7.91,3.3C-9.33,4.72 -10.73,6.13 -12.11,7.54C-12.58,8.02 -13.05,8.5 -13.5,8.98C-13.73,9.21 -13.95,9.43 -14.16,9.65C-14.65,10.16 -15.14,10.67 -15.61,11.17C-16.09,11.65 -16.55,12.14 -17,12.62C-18.08,13.75 -19.14,14.88 -20.18,16C-20.43,16.26 -20.66,16.51 -20.89,16.76C-21.12,17 -21.35,17.25 -21.57,17.49C-21.59,17.51 -21.6,17.52 -21.61,17.54C-21.83,17.77 -22.04,17.99 -22.24,18.22C-27.68,24.13 -32.61,29.79 -36.78,34.96C-37.85,36.28 -38.87,37.57 -39.84,38.82C-42.04,41.67 -43.78,44.09 -45.16,46.15C-45.17,46.16 -45.18,46.18 -45.19,46.19C-45.87,47.2 -46.46,48.12 -46.97,48.96L-46.97,48.97C-49.26,52.75 -49.99,54.96 -50.08,56.31C-50.1,56.62 -50.09,56.88 -50.05,57.11C-49.94,57.81 -49.6,58.15 -49.36,58.39C-49.07,58.68 -48.63,59.12 -47.56,59.12C-46.7,59.12 -45.45,58.84 -43.56,57.96C-41.73,57.11 -39.28,55.7 -36,53.42C-35.99,53.41 -35.98,53.41 -35.97,53.4C-34.17,52.17 -32.12,50.67 -29.79,48.87C-27.39,47.02 -24.86,44.98 -22.23,42.77C-18.71,39.82 -15.01,36.58 -11.19,33.1C-10.54,32.51 -9.88,31.91 -9.22,31.29C-8.97,31.08 -8.73,30.85 -8.48,30.62C-8.24,30.39 -7.99,30.17 -7.75,29.93C-7.5,29.71 -7.25,29.48 -7,29.23C-5.95,28.26 -4.88,27.26 -3.82,26.25C-3.75,26.19 -3.68,26.12 -3.62,26.05C-3.14,25.6 -2.65,25.14 -2.17,24.67C-1.45,23.99 -0.72,23.29 0,22.58C0.48,22.12 0.95,21.66 1.43,21.19C2.86,19.8 4.3,18.38 5.74,16.94C5.95,16.73 6.17,16.51 6.37,16.3C8.33,14.33 10.26,12.37 12.14,10.42C12.6,9.94 13.07,9.46 13.52,8.98C13.78,8.71 14.04,8.45 14.28,8.18C14.73,7.72 15.17,7.26 15.6,6.8C16.06,6.32 16.52,5.83 16.97,5.34C17.19,5.12 17.4,4.9 17.6,4.67C17.84,4.42 18.07,4.17 18.3,3.92C18.53,3.68 18.76,3.44 18.98,3.19C19.21,2.95 19.44,2.7 19.66,2.45C20.43,1.63 21.19,0.8 21.92,-0.01C22.1,-0.2 22.28,-0.39 22.44,-0.58C25.49,-3.94 28.35,-7.21 30.99,-10.33C31.8,-11.29 32.57,-12.23 33.34,-13.16L33.35,-13.17C34.88,-15.04 36.33,-16.84 37.67,-18.58C39.88,-21.44 41.64,-23.88 43.02,-25.95C49.59,-35.76 47.9,-37.44 47.19,-38.16M0,19.79C-0.48,20.26 -0.96,20.73 -1.43,21.18C-2.15,21.89 -2.87,22.58 -3.59,23.27C-4.07,23.73 -4.56,24.19 -5.04,24.66C-5.6,25.19 -6.17,25.73 -6.73,26.25L-3.82,26.25C-3.75,26.19 -3.68,26.12 -3.62,26.05C-3.14,25.6 -2.65,25.14 -2.17,24.67C-1.45,23.99 -0.72,23.29 0,22.58C0.48,22.12 0.95,21.66 1.43,21.19C0.96,20.72 0.48,20.26 0,19.79M0,19.79C-0.48,20.26 -0.96,20.73 -1.43,21.18C-2.15,21.89 -2.87,22.58 -3.59,23.27C-4.07,23.73 -4.56,24.19 -5.04,24.66C-5.6,25.19 -6.17,25.73 -6.73,26.25L-3.82,26.25C-3.75,26.19 -3.68,26.12 -3.62,26.05C-3.14,25.6 -2.65,25.14 -2.17,24.67C-1.45,23.99 -0.72,23.29 0,22.58C0.48,22.12 0.95,21.66 1.43,21.19C0.96,20.72 0.48,20.26 0,19.79" style="fill:white;fill-rule:nonzero;"/>
            </g>
            <g transform="matrix(0.707107,0.707107,0.707107,-0.707107,230.566,249.067)">
                <path d="M13.742,-5.692C97.256,-5.691 164.957,3.01 164.957,13.743C164.957,24.475 97.256,33.176 13.742,33.175C-69.773,33.174 -137.473,24.473 -137.474,13.74C-137.474,3.008 -69.773,-5.693 13.742,-5.692" style="fill:white;fill-rule:nonzero;"/>
            </g>
            <g transform="matrix(1,0,0,1,356.22,137.42)">
                <path d="M0,217.86C-4.51,222.38 -32.89,203.81 -72.41,168.88C-74.35,167.17 -76.32,165.41 -78.32,163.61C-81.58,160.68 -84.91,157.64 -88.3,154.5C-88.31,154.49 -88.32,154.48 -88.33,154.47C-91.12,151.88 -93.96,149.23 -96.83,146.51C-96.91,146.44 -96.98,146.37 -97.06,146.3C-97.4,145.97 -97.75,145.64 -98.1,145.31C-98.42,145.01 -98.74,144.7 -99.06,144.4C-99.32,144.15 -99.58,143.9 -99.84,143.66C-100.04,143.46 -100.24,143.27 -100.45,143.07L-101.05,142.5C-101.91,141.67 -102.78,140.83 -103.66,139.98C-104,139.65 -104.35,139.32 -104.69,138.99C-104.77,138.91 -104.85,138.84 -104.93,138.76C-104.93,138.76 -105.02,138.67 -105.04,138.65C-105.1,138.6 -105.16,138.54 -105.22,138.48L-105.41,138.29C-105.65,138.06 -105.89,137.83 -106.13,137.6C-106.24,137.5 -106.34,137.39 -106.45,137.29C-106.52,137.22 -106.59,137.16 -106.66,137.09C-107.74,136.04 -108.82,134.99 -109.91,133.91C-109.96,133.87 -110.01,133.82 -110.07,133.76C-110.09,133.74 -110.12,133.72 -110.14,133.69C-110.17,133.67 -110.19,133.64 -110.22,133.61C-110.35,133.48 -110.49,133.35 -110.63,133.21C-110.64,133.21 -110.65,133.2 -110.66,133.18C-110.76,133.09 -110.85,132.99 -110.95,132.9L-111.09,132.76C-111.21,132.64 -111.34,132.52 -111.46,132.4L-111.49,132.37C-111.54,132.32 -111.6,132.27 -111.65,132.21C-112.39,131.48 -113.14,130.75 -113.89,130.01C-114.36,129.54 -114.83,129.08 -115.3,128.61C-116.06,127.86 -116.82,127.1 -117.59,126.33C-118.14,125.79 -118.69,125.24 -119.25,124.68C-121.39,122.54 -123.51,120.4 -125.62,118.27C-125.83,118.05 -126.04,117.83 -126.25,117.62C-126.51,117.36 -126.77,117.1 -127.03,116.84C-127.75,116.09 -128.48,115.35 -129.21,114.61C-129.68,114.13 -130.13,113.66 -130.6,113.19L-130.61,113.18C-130.66,113.12 -130.72,113.06 -130.78,113C-131.19,112.57 -131.6,112.15 -132.01,111.73C-132.24,111.49 -132.47,111.26 -132.7,111.02C-132.93,110.78 -133.16,110.54 -133.39,110.3L-133.46,110.23C-135.75,107.86 -138.01,105.5 -140.23,103.16C-140.96,102.4 -141.67,101.65 -142.39,100.89C-143.79,99.4 -145.18,97.92 -146.56,96.44C-149.56,93.23 -152.48,90.07 -155.33,86.92L-155.34,86.91C-169,71.9 -181.06,57.69 -190.75,45.14C-210.48,19.6 -214.89,7.88 -212.44,5.43C-211.99,4.98 -211.31,4.76 -210.4,4.76C-199.82,4.76 -158.96,34.82 -107.57,84.47C-107.33,84.7 -107.1,84.93 -106.86,85.16C-106.62,85.4 -106.37,85.63 -106.13,85.87C-105.71,86.27 -105.3,86.67 -104.88,87.08C-104.82,87.13 -104.77,87.19 -104.71,87.25C-104.7,87.26 -104.7,87.26 -104.69,87.27C-104.58,87.37 -104.47,87.48 -104.36,87.58C-104.35,87.59 -104.34,87.6 -104.33,87.61C-103.98,87.95 -103.63,88.3 -103.28,88.64C-102.54,89.36 -101.8,90.09 -101.05,90.83C-100.58,91.29 -100.1,91.75 -99.63,92.23C-98.65,93.19 -97.66,94.16 -96.67,95.15C-95.52,96.29 -94.36,97.44 -93.19,98.61L-92.25,99.55C-91.88,99.92 -91.52,100.29 -91.15,100.65C-90.51,101.3 -89.87,101.94 -89.24,102.58C-88.77,103.05 -88.3,103.52 -87.84,104C-87.1,104.74 -86.37,105.48 -85.64,106.22C-85.57,106.3 -85.49,106.38 -85.41,106.46C-85.36,106.51 -85.3,106.57 -85.26,106.62C-85.07,106.81 -84.89,106.99 -84.72,107.17C-84.68,107.21 -84.64,107.24 -84.61,107.28C-84.58,107.31 -84.55,107.34 -84.53,107.37C-84.42,107.47 -84.33,107.56 -84.25,107.65C-84.16,107.73 -84.09,107.81 -84.01,107.89L-83.94,107.96C-83.36,108.55 -82.79,109.14 -82.21,109.73C-81.73,110.23 -81.24,110.73 -80.76,111.23C-80.69,111.29 -80.63,111.36 -80.57,111.43C-80.46,111.53 -80.36,111.63 -80.26,111.74C-80.03,111.98 -79.8,112.22 -79.57,112.46L-79.36,112.67C-79.29,112.74 -79.23,112.81 -79.16,112.88L-79.04,113C-78.98,113.06 -78.93,113.12 -78.87,113.18C-78.51,113.55 -78.15,113.92 -77.79,114.29C-77.05,115.06 -76.32,115.82 -75.59,116.59C-75.43,116.76 -75.26,116.93 -75.1,117.1C-74.86,117.35 -74.63,117.59 -74.4,117.84C-74.2,118.04 -74.02,118.23 -73.83,118.43C-73.43,118.85 -73.04,119.26 -72.64,119.68C-72.44,119.89 -72.24,120.1 -72.04,120.31C-71.87,120.48 -71.71,120.65 -71.55,120.83C-70.13,122.32 -68.73,123.81 -67.34,125.29C-64.89,127.9 -62.48,130.5 -60.11,133.07C-57.09,136.37 -54.13,139.63 -51.27,142.85C-47.46,147.11 -43.8,151.29 -40.3,155.37L-40.29,155.38C-38.3,157.72 -36.36,160.01 -34.47,162.28C-33.12,163.9 -31.8,165.49 -30.5,167.07C-27.39,170.88 -24.44,174.58 -21.69,178.15C-1.96,203.69 2.45,215.41 0,217.86M-20.1,176.93C-22.84,173.39 -25.76,169.72 -28.85,165.93C-30.1,164.41 -31.36,162.87 -32.66,161.32C-34.29,159.36 -35.95,157.39 -37.66,155.38L-37.67,155.37C-41.38,151.03 -45.27,146.56 -49.32,142.01C-52.33,138.64 -55.42,135.23 -58.59,131.77C-60.56,129.63 -62.56,127.47 -64.6,125.29C-66.42,123.34 -68.28,121.37 -70.16,119.39C-70.32,119.21 -70.49,119.03 -70.67,118.85C-70.85,118.65 -71.05,118.45 -71.24,118.25C-71.64,117.83 -72.04,117.4 -72.45,116.98C-72.57,116.85 -72.7,116.72 -72.82,116.59C-72.88,116.52 -72.95,116.46 -73.01,116.39C-73.24,116.15 -73.48,115.9 -73.71,115.66C-74.6,114.73 -75.5,113.79 -76.4,112.86C-76.76,112.49 -77.12,112.11 -77.48,111.74L-77.64,111.58C-77.64,111.57 -77.65,111.56 -77.67,111.55C-77.69,111.52 -77.73,111.49 -77.75,111.45C-77.83,111.38 -77.89,111.31 -77.96,111.24C-77.99,111.21 -78.14,111.06 -78.18,111.02C-78.4,110.78 -78.64,110.54 -78.87,110.3L-79.16,110.01C-79.22,109.95 -79.28,109.88 -79.35,109.81L-79.43,109.73C-80.46,108.66 -81.51,107.59 -82.57,106.51C-82.59,106.49 -82.61,106.46 -82.64,106.44C-82.71,106.36 -82.79,106.28 -82.87,106.2C-82.95,106.12 -83.03,106.04 -83.11,105.96C-83.14,105.93 -83.17,105.89 -83.21,105.86C-83.25,105.82 -83.29,105.77 -83.34,105.73C-83.51,105.54 -83.69,105.35 -83.89,105.17C-83.93,105.11 -83.99,105.06 -84.04,105.01C-84.11,104.93 -84.18,104.86 -84.27,104.78C-85,104.03 -85.74,103.28 -86.48,102.53C-86.94,102.05 -87.41,101.58 -87.88,101.11C-88.22,100.76 -88.57,100.42 -88.91,100.07L-89.48,99.5C-90.24,98.73 -91,97.97 -91.77,97.2C-92.92,96.05 -94.07,94.91 -95.22,93.76C-96.2,92.8 -97.18,91.83 -98.16,90.86C-98.63,90.4 -99.11,89.93 -99.58,89.47L-99.74,89.31C-99.76,89.28 -99.79,89.26 -99.81,89.24C-100.49,88.58 -101.16,87.91 -101.84,87.26C-102.31,86.8 -102.78,86.34 -103.25,85.89C-103.26,85.88 -103.26,85.88 -103.27,85.87C-103.32,85.81 -103.37,85.76 -103.43,85.71C-103.85,85.3 -104.28,84.88 -104.7,84.48C-104.94,84.24 -105.18,84.01 -105.42,83.77C-105.66,83.54 -105.9,83.31 -106.14,83.08C-154.52,36.36 -205.33,-4.52 -213.85,4.02C-218.04,8.2 -210.8,22.45 -192.34,46.37C-183.52,57.78 -172.76,70.56 -160.62,84.07C-159.77,85.01 -158.92,85.96 -158.06,86.91L-158.05,86.92C-154.64,90.68 -151.14,94.48 -147.54,98.33C-147.13,98.77 -146.73,99.2 -146.32,99.63C-144.74,101.32 -143.13,103.02 -141.52,104.72C-139.3,107.05 -137.06,109.39 -134.78,111.74C-134.55,111.98 -134.32,112.22 -134.08,112.46C-133.91,112.65 -133.73,112.83 -133.55,113.01C-133.5,113.07 -133.45,113.12 -133.39,113.17C-132.98,113.6 -132.57,114.02 -132.16,114.45C-132.1,114.5 -132.05,114.56 -131.99,114.62L-131.97,114.64C-131.52,115.1 -131.05,115.58 -130.59,116.05C-130.09,116.57 -129.57,117.1 -129.05,117.62C-128.83,117.85 -128.61,118.08 -128.38,118.3C-127.92,118.78 -127.45,119.25 -126.98,119.73C-124.9,121.85 -122.79,123.97 -120.67,126.09C-120.59,126.17 -120.51,126.25 -120.43,126.33C-119.22,127.54 -118,128.75 -116.78,129.96C-116.31,130.43 -115.84,130.9 -115.36,131.37C-114.75,131.97 -114.14,132.57 -113.52,133.18C-113.38,133.32 -113.23,133.46 -113.09,133.59C-113.04,133.65 -113,133.69 -112.95,133.74L-112.57,134.12C-112.52,134.17 -112.46,134.22 -112.41,134.27C-112.3,134.39 -112.18,134.5 -112.07,134.61C-111.94,134.73 -111.81,134.86 -111.68,134.99C-111.66,135.01 -111.53,135.14 -111.53,135.14C-111.47,135.19 -111.42,135.24 -111.37,135.29C-110.27,136.36 -109.18,137.43 -108.08,138.49C-108.01,138.56 -107.94,138.63 -107.87,138.69C-107.77,138.79 -107.67,138.89 -107.57,138.99C-107.33,139.22 -107.09,139.45 -106.85,139.68C-106.84,139.69 -106.84,139.7 -106.83,139.71C-106.77,139.76 -106.7,139.83 -106.64,139.88C-106.58,139.94 -106.53,139.99 -106.47,140.04C-106.45,140.07 -106.43,140.09 -106.41,140.1C-106.39,140.13 -106.38,140.14 -106.36,140.15C-106.28,140.23 -106.21,140.31 -106.13,140.38C-105.79,140.71 -105.44,141.04 -105.1,141.37C-104.59,141.87 -104.08,142.36 -103.56,142.85C-102.99,143.4 -102.42,143.94 -101.86,144.49L-101.26,145.06C-100.99,145.31 -100.72,145.56 -100.46,145.81C-100.14,146.11 -99.83,146.41 -99.51,146.71C-99.16,147.05 -98.81,147.38 -98.46,147.71C-98.39,147.78 -98.32,147.85 -98.24,147.92C-96.39,149.68 -94.52,151.44 -92.66,153.18C-92.65,153.18 -92.65,153.18 -92.64,153.19C-88.85,156.73 -85.07,160.21 -81.32,163.61C-79.35,165.39 -77.4,167.15 -75.46,168.88C-42.44,198.32 -12.87,220.41 -1.88,220.41C-0.46,220.41 0.65,220.04 1.41,219.28C5.6,215.09 -1.64,200.84 -20.1,176.93" style="fill:white;fill-rule:nonzero;"/>
            </g>
            <g transform="matrix(1,0,0,1,325.66,169.76)">
                <path d="M0,152.34C-0.27,152.61 -0.69,152.74 -1.25,152.74C-1.45,152.74 -1.66,152.72 -1.9,152.69C-5.87,152.13 -14.98,146.8 -28.23,136.54C-28.26,136.52 -28.29,136.49 -28.32,136.47C-33.22,132.67 -38.68,128.2 -44.66,123.04L-44.67,123.03C-49.68,118.71 -55.05,113.92 -60.76,108.63C-60.85,108.56 -60.93,108.48 -61.02,108.4C-61.35,108.09 -61.68,107.78 -62.02,107.46C-62.36,107.15 -62.7,106.83 -63.04,106.51C-63.28,106.29 -63.52,106.06 -63.76,105.84C-63.98,105.63 -64.21,105.42 -64.43,105.2C-65.47,104.24 -66.51,103.26 -67.57,102.25C-67.91,101.92 -68.26,101.59 -68.61,101.26C-68.69,101.18 -68.77,101.11 -68.85,101.03C-68.87,101.01 -68.89,101 -68.9,100.98C-68.93,100.96 -68.95,100.94 -68.97,100.91C-69.04,100.85 -69.11,100.78 -69.17,100.72C-69.23,100.67 -69.29,100.61 -69.34,100.57C-69.35,100.55 -69.36,100.55 -69.36,100.55C-69.59,100.32 -69.82,100.11 -70.05,99.88C-70.17,99.77 -70.29,99.65 -70.42,99.53C-70.48,99.47 -70.55,99.41 -70.62,99.34C-71.67,98.33 -72.74,97.3 -73.82,96.25C-73.86,96.21 -73.9,96.17 -73.95,96.13L-73.98,96.1C-74.03,96.05 -74.08,95.99 -74.14,95.94C-74.29,95.79 -74.44,95.65 -74.6,95.49C-74.68,95.41 -74.76,95.34 -74.84,95.26C-74.87,95.23 -74.89,95.21 -74.92,95.18C-75.05,95.06 -75.17,94.94 -75.3,94.82L-75.38,94.74C-75.44,94.67 -75.5,94.61 -75.57,94.55C-75.76,94.36 -75.95,94.18 -76.14,93.99C-76.67,93.47 -77.21,92.94 -77.75,92.41C-78.22,91.95 -78.7,91.48 -79.17,91.01C-80.53,89.67 -81.9,88.31 -83.28,86.93C-83.83,86.38 -84.38,85.83 -84.92,85.28C-86.56,83.63 -88.19,81.98 -89.8,80.34C-90.27,79.86 -90.73,79.39 -91.19,78.91C-91.69,78.4 -92.18,77.9 -92.66,77.39C-92.88,77.17 -93.09,76.95 -93.31,76.73C-93.77,76.25 -94.23,75.77 -94.7,75.29C-94.75,75.23 -94.82,75.17 -94.88,75.1C-95.27,74.69 -95.67,74.28 -96.06,73.87C-96.29,73.63 -96.52,73.39 -96.74,73.15C-96.98,72.91 -97.21,72.66 -97.44,72.42C-98.94,70.85 -100.41,69.29 -101.86,67.73C-102.04,67.55 -102.22,67.36 -102.39,67.17C-106.1,63.2 -109.67,59.28 -113.09,55.46C-113.09,55.44 -113.1,55.45 -113.1,55.45C-113.11,55.44 -113.12,55.43 -113.13,55.41C-120.86,46.74 -127.74,38.53 -133.45,31.13C-143.91,17.58 -147.49,10.63 -148.57,7.11C-149.37,4.54 -148.84,3.79 -148.69,3.65C-148.43,3.38 -148.01,3.25 -147.44,3.25C-141.12,3.25 -116.53,20.02 -80.25,54.57L-80.24,54.58C-80.12,54.7 -80,54.8 -79.88,54.92C-79.64,55.15 -79.4,55.38 -79.16,55.61C-78.92,55.84 -78.68,56.07 -78.43,56.3C-78.02,56.7 -77.62,57.09 -77.2,57.49C-77.14,57.55 -77.08,57.61 -77.01,57.67L-77,57.68C-76.53,58.14 -76.06,58.59 -75.58,59.05C-74.85,59.76 -74.11,60.47 -73.37,61.2C-72.9,61.66 -72.43,62.12 -71.95,62.59C-70.96,63.55 -69.97,64.53 -68.97,65.52C-68,66.48 -67.02,67.45 -66.03,68.44C-65.82,68.65 -65.62,68.85 -65.41,69.06C-64.11,70.36 -62.82,71.65 -61.54,72.95C-61.49,73 -61.43,73.06 -61.38,73.12C-60.91,73.59 -60.44,74.06 -59.98,74.54C-59.26,75.27 -58.55,76 -57.83,76.73C-57.75,76.81 -57.67,76.89 -57.59,76.98L-57.43,77.14C-57.35,77.22 -57.27,77.3 -57.19,77.39C-57.11,77.47 -57.02,77.56 -56.94,77.65C-56.91,77.68 -56.87,77.72 -56.84,77.76C-56.82,77.78 -56.81,77.79 -56.79,77.81C-56.67,77.92 -56.55,78.05 -56.44,78.16C-56.36,78.24 -56.28,78.33 -56.2,78.41C-56.18,78.43 -56.15,78.46 -56.13,78.48C-55.08,79.56 -54.04,80.64 -53,81.72C-52.94,81.79 -52.88,81.86 -52.81,81.92C-52.71,82.04 -52.6,82.15 -52.49,82.26C-52.26,82.5 -52.03,82.74 -51.8,82.98C-51.78,83 -51.76,83.02 -51.75,83.04C-51.7,83.09 -51.66,83.13 -51.62,83.17C-51.55,83.25 -51.48,83.32 -51.41,83.4C-51.37,83.43 -51.35,83.46 -51.32,83.49C-51.31,83.5 -51.3,83.51 -51.29,83.52C-51.23,83.58 -51.17,83.65 -51.11,83.71C-50.94,83.89 -50.77,84.07 -50.6,84.25C-50.42,84.44 -50.24,84.63 -50.06,84.82C-49.15,85.78 -48.25,86.74 -47.36,87.69C-47.12,87.94 -46.89,88.18 -46.66,88.43C-46.47,88.63 -46.28,88.84 -46.09,89.04C-45.71,89.45 -45.33,89.85 -44.95,90.26C-44.74,90.5 -44.52,90.73 -44.29,90.97C-44.15,91.13 -44.01,91.28 -43.86,91.44C-43.4,91.94 -42.93,92.45 -42.48,92.95C-40.02,95.61 -37.64,98.24 -35.34,100.84C-32.4,104.13 -29.59,107.36 -26.92,110.51C-23.25,114.84 -19.83,119.01 -16.73,122.95L-16.72,122.96C-16.22,123.61 -15.74,124.23 -15.25,124.86C-12.47,128.46 -10.17,131.6 -8.28,134.33C-7.75,135.1 -7.25,135.83 -6.77,136.54C1.94,149.62 0.27,152.06 0,152.34M-4.47,136.37C-5.25,135.19 -6.1,133.92 -7.05,132.57C-8.89,129.94 -11.08,126.97 -13.66,123.63C-13.85,123.38 -14.06,123.12 -14.27,122.86C-14.27,122.85 -14.27,122.85 -14.28,122.84C-17.31,118.94 -20.67,114.81 -24.29,110.51C-26.94,107.37 -29.73,104.14 -32.65,100.84C-34.94,98.26 -37.31,95.62 -39.75,92.95C-40.65,91.97 -41.55,90.99 -42.46,90C-42.62,89.84 -42.77,89.67 -42.92,89.51C-43.13,89.29 -43.33,89.06 -43.55,88.84C-43.93,88.43 -44.32,88.01 -44.71,87.59C-44.89,87.39 -45.08,87.19 -45.27,86.99C-45.49,86.75 -45.73,86.5 -45.97,86.25C-46.58,85.59 -47.21,84.92 -47.84,84.25C-48.11,83.97 -48.38,83.68 -48.65,83.39C-49,83.02 -49.36,82.65 -49.71,82.28C-49.77,82.22 -49.83,82.16 -49.89,82.09C-49.9,82.08 -49.91,82.07 -49.91,82.06C-49.95,82.03 -49.97,82 -50,81.97C-50.07,81.9 -50.14,81.82 -50.21,81.75C-50.25,81.71 -50.3,81.67 -50.33,81.62C-50.36,81.6 -50.38,81.58 -50.4,81.55C-50.63,81.31 -50.86,81.07 -51.09,80.83C-51.2,80.72 -51.3,80.61 -51.41,80.5C-51.47,80.43 -51.54,80.37 -51.6,80.3C-52.53,79.33 -53.46,78.36 -54.4,77.39C-54.51,77.28 -54.63,77.16 -54.74,77.04L-54.81,76.97C-54.89,76.89 -54.97,76.81 -55.05,76.72C-55.15,76.61 -55.25,76.51 -55.36,76.4L-55.43,76.33C-55.46,76.3 -55.49,76.26 -55.53,76.23C-55.69,76.06 -55.87,75.88 -56.05,75.7C-56.09,75.65 -56.15,75.59 -56.2,75.54C-56.28,75.46 -56.36,75.38 -56.44,75.29C-57.16,74.56 -57.88,73.82 -58.61,73.08C-59.07,72.6 -59.54,72.13 -60,71.65C-60.51,71.14 -61.02,70.63 -61.53,70.11C-62.35,69.29 -63.17,68.46 -63.99,67.64C-65.16,66.47 -66.33,65.31 -67.49,64.15C-68.49,63.17 -69.49,62.19 -70.49,61.21C-70.97,60.74 -71.44,60.28 -71.91,59.82C-72.66,59.1 -73.4,58.37 -74.14,57.66C-74.61,57.21 -75.09,56.75 -75.55,56.29C-75.56,56.29 -75.56,56.29 -75.57,56.28C-75.63,56.22 -75.69,56.17 -75.75,56.11C-76.17,55.71 -76.58,55.31 -77,54.91C-77.07,54.84 -77.15,54.77 -77.22,54.69C-77.23,54.68 -77.23,54.68 -77.24,54.67C-77.4,54.52 -77.57,54.37 -77.73,54.21C-77.97,53.98 -78.21,53.76 -78.45,53.52C-93.45,39.25 -107.83,26.7 -119.99,17.31C-145.49,-2.39 -148.96,1.09 -150.11,2.23C-150.51,2.64 -151.21,3.34 -151.07,5.2C-150.81,8.6 -147.76,15.88 -135.03,32.35C-129.76,39.17 -123.5,46.69 -116.49,54.63C-116.48,54.64 -116.48,54.64 -116.47,54.65C-115.26,56.02 -114.01,57.43 -112.75,58.83C-110.23,61.63 -107.63,64.48 -104.96,67.36C-104.78,67.55 -104.61,67.73 -104.43,67.92C-102.6,69.89 -100.74,71.87 -98.84,73.86C-98.61,74.1 -98.38,74.35 -98.15,74.59C-97.92,74.83 -97.69,75.07 -97.47,75.31C-97.07,75.72 -96.67,76.13 -96.28,76.54C-96.22,76.6 -96.16,76.67 -96.1,76.73L-96.09,76.74C-95.88,76.96 -95.67,77.17 -95.46,77.39L-94.71,78.17C-94.01,78.9 -93.3,79.63 -92.58,80.36C-92.12,80.84 -91.65,81.32 -91.18,81.8C-90.05,82.96 -88.91,84.12 -87.76,85.28C-86.74,86.3 -85.72,87.33 -84.7,88.35C-83.34,89.71 -81.98,91.06 -80.62,92.4C-80.15,92.87 -79.67,93.33 -79.2,93.79C-79.13,93.86 -79.07,93.93 -79,93.99C-78.33,94.65 -77.66,95.3 -77,95.94C-76.94,96.01 -76.88,96.07 -76.82,96.12C-76.8,96.14 -76.77,96.17 -76.75,96.19C-76.62,96.32 -76.49,96.44 -76.37,96.55C-76.34,96.59 -76.31,96.62 -76.28,96.64C-76.19,96.73 -76.1,96.82 -76.02,96.9C-75.87,97.05 -75.72,97.19 -75.57,97.33C-75.52,97.38 -75.48,97.43 -75.43,97.47C-75.42,97.49 -75.4,97.5 -75.39,97.51L-75.26,97.64C-74.18,98.68 -73.11,99.71 -72.04,100.74C-72,100.77 -71.97,100.81 -71.93,100.84L-71.84,100.93C-71.72,101.05 -71.6,101.16 -71.48,101.28C-71.25,101.5 -71.01,101.72 -70.78,101.95C-70.77,101.95 -70.76,101.96 -70.76,101.96C-70.7,102.02 -70.64,102.07 -70.59,102.13C-70.52,102.19 -70.45,102.26 -70.39,102.31C-70.37,102.34 -70.35,102.36 -70.33,102.38C-70.31,102.4 -70.29,102.41 -70.27,102.43C-70.19,102.51 -70.11,102.58 -70.03,102.66C-69.75,102.92 -69.48,103.18 -69.21,103.44C-69.14,103.51 -69.07,103.57 -69,103.64C-67.94,104.65 -66.88,105.64 -65.83,106.62C-65.61,106.83 -65.39,107.04 -65.17,107.24C-64.92,107.47 -64.68,107.7 -64.44,107.92C-64.1,108.24 -63.76,108.55 -63.43,108.86C-63.09,109.18 -62.75,109.5 -62.41,109.82C-62.33,109.89 -62.24,109.96 -62.16,110.04C-57.22,114.61 -52.38,118.95 -47.7,123.03L-47.69,123.04C-41.99,127.98 -36.54,132.52 -31.44,136.54C-30.52,137.28 -29.61,137.99 -28.71,138.68C-11.42,152.03 -4.25,154.73 -1.07,154.73C-0.8,154.73 -0.57,154.71 -0.35,154.67C0.65,154.52 1.11,154.05 1.41,153.75C2.33,152.84 4.74,150.43 -4.47,136.37" style="fill:rgb(255,142,255);fill-rule:nonzero;"/>
            </g>
            <g transform="matrix(1,0,0,1,298.18,200.45)">
                <path d="M0,94.17C-0.52,94.69 -2.39,94.11 -5.46,92.35C-5.47,92.35 -5.47,92.34 -5.48,92.34C-9.38,90.11 -15.23,85.99 -22.74,79.82C-24.86,78.08 -27.11,76.17 -29.49,74.1C-29.59,74.02 -29.68,73.93 -29.78,73.84C-30.11,73.56 -30.44,73.27 -30.77,72.98C-31.13,72.66 -31.49,72.34 -31.86,72.02C-32.09,71.82 -32.32,71.61 -32.55,71.4C-32.78,71.19 -33.02,70.98 -33.26,70.76C-33.52,70.54 -33.78,70.3 -34.04,70.06C-34.81,69.37 -35.59,68.66 -36.39,67.93C-36.74,67.61 -37.1,67.28 -37.46,66.95C-37.54,66.88 -37.61,66.81 -37.69,66.73C-37.71,66.72 -37.73,66.71 -37.75,66.68C-37.77,66.67 -37.79,66.64 -37.82,66.61C-37.89,66.55 -37.96,66.48 -38.04,66.41C-38.09,66.37 -38.15,66.32 -38.2,66.26C-38.21,66.26 -38.21,66.25 -38.22,66.24C-38.46,66.03 -38.69,65.81 -38.93,65.59L-39.32,65.23C-39.39,65.17 -39.45,65.11 -39.51,65.05C-40.44,64.18 -41.38,63.3 -42.34,62.39C-42.47,62.27 -42.6,62.14 -42.73,62.02C-42.76,61.99 -42.8,61.96 -42.83,61.92L-42.84,61.91C-42.91,61.84 -42.98,61.78 -43.05,61.71C-43.21,61.56 -43.37,61.41 -43.53,61.25C-43.59,61.19 -43.66,61.13 -43.72,61.07C-43.73,61.06 -43.75,61.05 -43.76,61.04C-43.9,60.9 -44.04,60.77 -44.18,60.64C-44.21,60.6 -44.25,60.57 -44.28,60.54C-44.35,60.47 -44.42,60.4 -44.5,60.33C-45.21,59.64 -45.94,58.94 -46.67,58.24C-47.14,57.77 -47.62,57.31 -48.1,56.84C-49.28,55.68 -50.49,54.49 -51.71,53.27L-52.27,52.71C-54.28,50.7 -56.26,48.69 -58.19,46.7C-58.4,46.48 -58.62,46.26 -58.83,46.04C-59.29,45.55 -59.76,45.07 -60.21,44.59C-60.92,43.86 -61.6,43.14 -62.28,42.42C-62.75,41.93 -63.21,41.44 -63.66,40.96C-63.72,40.89 -63.78,40.83 -63.84,40.77C-64.22,40.36 -64.61,39.95 -64.98,39.54C-65.22,39.29 -65.44,39.05 -65.66,38.81C-65.9,38.56 -66.13,38.31 -66.34,38.07C-66.67,37.72 -66.98,37.38 -67.29,37.04C-67.47,36.85 -67.64,36.66 -67.81,36.47C-71.72,32.19 -75.34,28.06 -78.58,24.17C-80.55,21.81 -82.37,19.54 -84.04,17.38C-93.56,5.05 -94.26,0.97 -93.73,0.44C-93.47,0.18 -92.86,0.2 -91.93,0.51C-87.67,1.91 -76.61,9.38 -60.43,23.88L-60.42,23.89C-59.01,25.15 -57.57,26.46 -56.08,27.84C-55.84,28.06 -55.59,28.29 -55.34,28.52C-55.1,28.74 -54.85,28.97 -54.61,29.2C-54.2,29.58 -53.79,29.96 -53.38,30.35C-53.31,30.41 -53.25,30.47 -53.18,30.53C-52.7,30.98 -52.22,31.44 -51.73,31.9C-51.01,32.58 -50.27,33.28 -49.53,33.99C-49.06,34.45 -48.58,34.9 -48.1,35.37C-47.55,35.9 -47,36.44 -46.44,36.99C-46.43,37 -46.41,37.01 -46.39,37.03C-44.78,38.6 -43.14,40.22 -41.46,41.9C-40.08,43.28 -38.71,44.66 -37.36,46.04C-36.89,46.52 -36.43,46.99 -35.96,47.47C-35.26,48.2 -34.56,48.92 -33.86,49.65C-33.78,49.73 -33.7,49.82 -33.62,49.9C-33.57,49.95 -33.52,50.01 -33.47,50.06C-33.31,50.23 -33.16,50.39 -33.01,50.55L-32.92,50.64C-32.77,50.79 -32.63,50.94 -32.48,51.09C-32.4,51.18 -32.32,51.26 -32.24,51.34C-32.22,51.36 -32.2,51.39 -32.19,51.4L-32.17,51.42C-31.49,52.14 -30.82,52.85 -30.15,53.56C-29.8,53.93 -29.46,54.3 -29.13,54.66C-29.06,54.73 -28.99,54.8 -28.95,54.86C-28.82,54.99 -28.7,55.11 -28.6,55.23C-28.36,55.48 -28.14,55.72 -27.92,55.96C-27.91,55.97 -27.9,55.98 -27.9,55.98C-27.85,56.03 -27.8,56.08 -27.76,56.13C-27.69,56.2 -27.62,56.28 -27.54,56.35C-27.52,56.39 -27.49,56.42 -27.46,56.45L-27.42,56.49C-27.36,56.56 -27.3,56.63 -27.24,56.7C-26.9,57.07 -26.56,57.44 -26.22,57.8C-25.31,58.8 -24.41,59.79 -23.53,60.77C-23.3,61.03 -23.08,61.28 -22.85,61.53C-22.67,61.74 -22.48,61.95 -22.29,62.16C-22.26,62.2 -22.23,62.24 -22.19,62.28C-21.86,62.64 -21.54,63.01 -21.22,63.37C-20.98,63.64 -20.74,63.91 -20.51,64.18C-20.38,64.32 -20.26,64.46 -20.14,64.6C-18.48,66.49 -16.9,68.35 -15.4,70.15C-13.34,72.61 -11.43,74.98 -9.7,77.23C-9,78.14 -8.34,79 -7.74,79.82C-2.78,86.5 -0.79,90.33 -0.14,92.34L-0.14,92.35C0.21,93.44 0.17,93.99 0,94.17M1.93,92.35L1.93,92.34C1.37,90.14 -0.48,86.38 -5.26,79.82C-6.11,78.64 -7.06,77.38 -8.12,76.01C-9.56,74.14 -11.13,72.18 -12.8,70.15C-14.65,67.9 -16.64,65.56 -18.74,63.16C-18.87,63.02 -18.99,62.87 -19.12,62.73C-19.26,62.57 -19.4,62.41 -19.53,62.26C-19.63,62.15 -19.72,62.04 -19.81,61.94C-20.17,61.53 -20.53,61.13 -20.9,60.72C-21.08,60.51 -21.27,60.3 -21.45,60.09C-21.68,59.84 -21.91,59.58 -22.14,59.33C-23.01,58.36 -23.9,57.38 -24.82,56.39C-25.15,56.02 -25.5,55.65 -25.84,55.28C-25.9,55.21 -25.96,55.14 -26.02,55.07C-26.03,55.06 -26.04,55.05 -26.05,55.03C-26.08,55 -26.11,54.97 -26.13,54.94C-26.21,54.87 -26.28,54.79 -26.35,54.71C-26.4,54.66 -26.44,54.62 -26.49,54.57C-26.49,54.56 -26.5,54.55 -26.51,54.54C-26.74,54.29 -26.97,54.05 -27.2,53.8C-27.27,53.72 -27.34,53.64 -27.43,53.56C-27.46,53.52 -27.49,53.48 -27.53,53.44C-27.59,53.37 -27.65,53.31 -27.72,53.24C-28.72,52.16 -29.74,51.08 -30.78,49.99L-30.79,49.98C-30.81,49.95 -30.82,49.94 -30.85,49.92C-30.93,49.83 -31,49.75 -31.09,49.67C-31.21,49.53 -31.35,49.38 -31.49,49.25C-31.5,49.24 -31.5,49.24 -31.51,49.23C-31.54,49.2 -31.57,49.16 -31.6,49.13C-31.75,48.97 -31.91,48.8 -32.08,48.64C-32.12,48.59 -32.18,48.53 -32.23,48.48C-32.3,48.4 -32.38,48.31 -32.47,48.23C-33.16,47.5 -33.87,46.76 -34.58,46.03C-35.04,45.55 -35.51,45.08 -35.98,44.6C-37.32,43.23 -38.67,41.86 -40.05,40.48C-40.73,39.8 -41.4,39.13 -42.08,38.46C-42.77,37.77 -43.47,37.09 -44.17,36.41C-45,35.59 -45.83,34.79 -46.66,33.99C-47.14,33.52 -47.62,33.06 -48.1,32.61C-48.84,31.89 -49.57,31.2 -50.3,30.51C-50.79,30.04 -51.27,29.59 -51.75,29.15L-51.76,29.14C-51.82,29.07 -51.89,29.01 -51.95,28.96C-52.37,28.56 -52.78,28.18 -53.19,27.8C-53.44,27.56 -53.68,27.34 -53.92,27.12C-54.17,26.89 -54.42,26.66 -54.66,26.44C-55.6,25.56 -56.53,24.72 -57.45,23.89L-57.46,23.88C-63.96,17.98 -70.12,12.76 -75.57,8.55C-88.57,-1.49 -92.72,-2.14 -94.3,-1.55C-94.72,-1.39 -94.96,-1.15 -95.14,-0.97C-96.01,-0.11 -98.3,2.18 -85.62,18.6C-84.13,20.53 -82.52,22.54 -80.8,24.63L-80.79,24.64C-77.96,28.05 -74.84,31.66 -71.48,35.4C-71.16,35.75 -70.84,36.11 -70.51,36.47C-70.35,36.66 -70.17,36.85 -69.99,37.04C-69.26,37.85 -68.51,38.67 -67.74,39.5C-67.52,39.74 -67.3,39.98 -67.07,40.23C-66.85,40.47 -66.62,40.71 -66.39,40.96C-66.02,41.37 -65.63,41.78 -65.24,42.19C-65.18,42.26 -65.12,42.32 -65.06,42.39C-64.61,42.87 -64.15,43.35 -63.68,43.84C-63.01,44.57 -62.31,45.3 -61.6,46.03C-61.39,46.25 -61.18,46.48 -60.96,46.7C-60.72,46.96 -60.47,47.22 -60.22,47.47C-58.09,49.68 -55.91,51.9 -53.69,54.12L-53.3,54.51C-52.04,55.77 -50.79,57.01 -49.53,58.23C-49.05,58.7 -48.58,59.16 -48.1,59.63C-47.37,60.34 -46.64,61.04 -45.91,61.73C-45.84,61.8 -45.78,61.87 -45.71,61.93C-45.68,61.96 -45.64,62 -45.61,62.02C-45.48,62.16 -45.34,62.29 -45.21,62.41L-45.16,62.46C-45.09,62.52 -45.02,62.59 -44.95,62.65C-44.79,62.81 -44.63,62.96 -44.47,63.11C-44.41,63.18 -44.35,63.23 -44.28,63.29C-44.28,63.29 -44.27,63.31 -44.26,63.31C-44.23,63.35 -44.19,63.38 -44.15,63.42C-43.07,64.44 -42,65.46 -40.93,66.45C-40.86,66.52 -40.8,66.58 -40.73,66.63C-40.6,66.76 -40.47,66.88 -40.34,66.99C-40.11,67.22 -39.87,67.44 -39.64,67.65C-39.63,67.66 -39.63,67.66 -39.62,67.67C-39.57,67.72 -39.51,67.77 -39.46,67.82C-39.39,67.89 -39.31,67.96 -39.24,68.02C-39.22,68.05 -39.19,68.07 -39.17,68.08C-39.15,68.1 -39.14,68.12 -39.12,68.13C-39.04,68.21 -38.96,68.28 -38.88,68.35C-38.52,68.68 -38.17,69 -37.82,69.33C-36.75,70.3 -35.7,71.25 -34.66,72.19C-34.43,72.4 -34.19,72.61 -33.96,72.82C-33.75,73.01 -33.54,73.19 -33.33,73.38C-33.3,73.4 -33.28,73.43 -33.25,73.45C-32.89,73.77 -32.53,74.08 -32.18,74.4C-31.84,74.7 -31.51,74.99 -31.17,75.28C-31.08,75.37 -30.98,75.45 -30.89,75.53C-29.29,76.93 -27.73,78.27 -26.2,79.55C-23.39,81.92 -20.7,84.09 -18.16,86.05C-14.62,88.79 -11.73,90.83 -9.38,92.34C-9.37,92.34 -9.37,92.35 -9.36,92.35C-4.44,95.49 -1.84,96.31 -0.39,96.31C0.68,96.31 1.12,95.87 1.41,95.58C1.8,95.19 2.48,94.51 1.93,92.35" style="fill:rgb(255,142,255);fill-rule:nonzero;"/>
            </g>
            <g transform="matrix(1,0,0,1,377.197,105.79)">
                <path d="M0,41.966C1.589,27.509 5.102,23.667 20.206,21.975C21.294,21.853 21.289,20.002 20.201,19.885C5.088,18.269 1.556,14.445 -0.105,-0.005C-0.243,-1.199 -1.717,-1.195 -1.848,0C-3.437,14.457 -6.95,18.299 -22.053,19.991C-23.142,20.113 -23.137,21.964 -22.048,22.081C-6.937,23.697 -3.404,27.522 -1.743,41.97C-1.606,43.165 -0.131,43.161 0,41.966" style="fill:rgb(0,222,221);fill-rule:nonzero;"/>
            </g>
            <g transform="matrix(1,0,0,1,375.95,105.91)">
                <path d="M0,41.72C0,41.72 0.01,41.72 0.01,41.71L1.25,41.85L0,41.72ZM19.65,20.81C6.51,22.54 2.2,26.46 0.37,38.86C-1.52,26.47 -5.86,22.57 -19,20.91C-5.87,19.19 -1.56,15.27 0.28,2.87C2.17,15.26 6.51,19.16 19.65,20.81M21.58,18.52C7.23,16.99 4,13.83 2.38,-0.27C2.25,-1.43 1.36,-2.27 0.27,-2.27L0.26,-2.27C-0.83,-2.27 -1.72,-1.42 -1.84,-0.26C-3.39,13.85 -6.61,17.02 -20.95,18.63C-22.06,18.75 -22.87,19.72 -22.87,20.92C-22.87,22.12 -22.05,23.08 -20.93,23.2C-6.59,24.74 -3.36,27.9 -1.74,41.99C-1.6,43.15 -0.72,43.99 0.38,43.99C1.47,43.99 2.36,43.15 2.49,41.98C4.04,27.88 7.25,24.7 21.59,23.1C22.71,22.97 23.52,22.01 23.52,20.8C23.51,19.6 22.7,18.64 21.58,18.52" style="fill:rgb(255,142,255);fill-rule:nonzero;"/>
            </g>
            <g transform="matrix(1,0,0,1,342.009,117.838)">
                <path d="M0,17.875C0.677,11.717 2.173,10.081 8.607,9.36C9.07,9.308 9.068,8.519 8.604,8.47C2.168,7.781 0.663,6.152 -0.045,-0.003C-0.103,-0.511 -0.731,-0.51 -0.787,-0.001C-1.464,6.157 -2.961,7.794 -9.394,8.515C-9.857,8.567 -9.855,9.355 -9.392,9.405C-2.955,10.093 -1.45,11.722 -0.743,17.877C-0.684,18.386 -0.056,18.384 0,17.875" style="fill:rgb(0,222,221);fill-rule:nonzero;"/>
            </g>
            <g transform="matrix(1,0,0,1,348.13,126.79)">
                <path d="M0,-0.03C-3.98,0.76 -5.67,2.34 -6.5,6.14C-7.34,2.35 -9.04,0.77 -13.03,0C-9.05,-0.79 -7.36,-2.37 -6.53,-6.17C-5.68,-2.38 -3.99,-0.8 0,-0.03M2.57,-1.28C-3.43,-1.92 -4.69,-3.16 -5.37,-9.05C-5.44,-9.68 -5.93,-10.14 -6.54,-10.14C-7.15,-10.14 -7.64,-9.67 -7.71,-9.04C-8.35,-3.15 -9.61,-1.91 -15.6,-1.23C-16.22,-1.17 -16.66,-0.64 -16.66,0.01C-16.66,0.66 -16.21,1.18 -15.6,1.25C-9.6,1.89 -8.34,3.13 -7.66,9.02C-7.59,9.65 -7.1,10.11 -6.49,10.11C-5.88,10.11 -5.39,9.64 -5.32,9.01C-4.68,3.12 -3.42,1.88 2.58,1.2C3.19,1.14 3.64,0.61 3.63,-0.04C3.63,-0.69 3.18,-1.21 2.57,-1.28" style="fill:rgb(255,142,255);fill-rule:nonzero;"/>
            </g>
            <g transform="matrix(1,0,0,1,377.011,151.988)">
                <path d="M0,17.876C0.677,11.718 2.173,10.081 8.607,9.361C9.07,9.309 9.068,8.52 8.605,8.47C2.168,7.782 0.663,6.153 -0.045,-0.002C-0.103,-0.511 -0.731,-0.509 -0.787,0C-1.464,6.158 -2.96,7.795 -9.394,8.516C-9.857,8.568 -9.855,9.356 -9.392,9.406C-2.955,10.094 -1.45,11.723 -0.742,17.878C-0.684,18.387 -0.056,18.385 0,17.876" style="fill:rgb(0,222,221);fill-rule:nonzero;"/>
            </g>
            <g transform="matrix(1,0,0,1,383.13,160.94)">
                <path d="M0,-0.03C-3.98,0.76 -5.67,2.35 -6.5,6.14C-7.34,2.35 -9.04,0.77 -13.02,0C-9.05,-0.78 -7.35,-2.37 -6.53,-6.17C-5.68,-2.38 -3.98,-0.8 0,-0.03M2.57,-1.28C-3.43,-1.92 -4.69,-3.15 -5.37,-9.04C-5.44,-9.68 -5.93,-10.14 -6.53,-10.14L-6.54,-10.14C-7.14,-10.13 -7.63,-9.67 -7.7,-9.04C-8.35,-3.14 -9.61,-1.9 -15.6,-1.23C-16.22,-1.16 -16.66,-0.64 -16.66,0.01C-16.66,0.66 -16.21,1.19 -15.6,1.25C-9.6,1.89 -8.33,3.13 -7.66,9.02C-7.59,9.65 -7.09,10.11 -6.49,10.11C-5.88,10.11 -5.39,9.65 -5.32,9.01C-4.67,3.12 -3.42,1.88 2.58,1.21C3.19,1.14 3.64,0.61 3.64,-0.04C3.64,-0.69 3.19,-1.21 2.57,-1.28" style="fill:rgb(255,142,255);fill-rule:nonzero;"/>
            </g>
        </g>
        <g id="TEXT" transform="matrix(4.16667,0,0,4.16667,0,0)">
            <g transform="matrix(1,0,0,1,0,14.4)">
                <path d="M90.789,280.27L90.789,223.548L100.434,223.548L100.434,237.544L124.04,237.544C125.876,237.544 127.56,238.009 129.09,238.938C130.62,239.866 131.85,241.096 132.779,242.626C133.708,244.156 134.172,245.839 134.172,247.676L134.172,280.27L124.527,280.27L124.527,248.083C124.527,247.838 124.439,247.628 124.263,247.453C124.088,247.277 123.878,247.189 123.634,247.189L101.349,247.189C101.105,247.189 100.891,247.277 100.708,247.453C100.525,247.628 100.434,247.838 100.434,248.083L100.434,280.27L90.789,280.27ZM147.035,280.27C145.198,280.27 143.514,279.805 141.984,278.877C140.454,277.948 139.225,276.718 138.295,275.188C137.367,273.658 136.903,271.974 136.903,270.137L136.903,247.676C136.903,245.839 137.367,244.156 138.295,242.626C139.225,241.096 140.454,239.866 141.984,238.938C143.514,238.009 145.198,237.544 147.035,237.544L170.131,237.544C172.018,237.544 173.724,238.006 175.25,238.931C176.776,239.856 177.997,241.088 178.912,242.629C179.828,244.17 180.286,245.852 180.286,247.676L180.286,270.137C180.286,271.974 179.83,273.658 178.918,275.188C178.006,276.718 176.786,277.948 175.258,278.877C173.73,279.805 172.021,280.27 170.131,280.27L147.035,280.27ZM147.441,270.624L169.725,270.624C169.969,270.624 170.179,270.537 170.354,270.362C170.53,270.186 170.618,269.976 170.618,269.731L170.618,248.083C170.618,247.838 170.53,247.628 170.354,247.453C170.179,247.277 169.969,247.189 169.725,247.189L147.441,247.189C147.196,247.189 146.986,247.277 146.811,247.453C146.636,247.628 146.548,247.838 146.548,248.083L146.548,269.731C146.548,269.976 146.636,270.186 146.811,270.362C146.986,270.537 147.196,270.624 147.441,270.624ZM183.459,280.27L183.459,247.676C183.459,245.839 183.923,244.156 184.851,242.626C185.781,241.096 187.016,239.866 188.556,238.938C190.097,238.009 191.792,237.544 193.642,237.544L217.351,237.544L217.351,247.189L193.997,247.189C193.753,247.189 193.542,247.277 193.367,247.453C193.192,247.628 193.104,247.838 193.104,248.083L193.104,280.27L183.459,280.27ZM230.202,280.27C228.353,280.27 226.658,279.805 225.117,278.877C223.576,277.948 222.35,276.718 221.437,275.188C220.526,273.658 220.07,271.974 220.07,270.137L220.07,254.059L253.785,254.059L253.785,248.083C253.785,247.838 253.697,247.628 253.522,247.453C253.346,247.277 253.136,247.189 252.892,247.189L220.07,247.189L220.07,237.544L253.298,237.544C255.185,237.544 256.892,238.006 258.417,238.931C259.943,239.856 261.164,241.088 262.08,242.629C262.996,244.17 263.454,245.852 263.454,247.676L263.454,280.27L230.202,280.27ZM230.609,270.624L253.785,270.624L253.785,262.74L229.715,262.74L229.715,269.731C229.715,269.976 229.803,270.186 229.978,270.362C230.154,270.537 230.364,270.624 230.609,270.624ZM268.32,280.27L268.32,237.544L277.966,237.544L277.966,280.27L268.32,280.27ZM268.32,233.244L268.32,223.548L277.966,223.548L277.966,233.244L268.32,233.244ZM283.348,280.27L283.348,247.676C283.348,245.839 283.812,244.156 284.741,242.626C285.67,241.096 286.905,239.866 288.446,238.938C289.986,238.009 291.682,237.544 293.531,237.544L317.24,237.544L317.24,247.189L293.886,247.189C293.642,247.189 293.431,247.277 293.256,247.453C293.081,247.628 292.993,247.838 292.993,248.083L292.993,280.27L283.348,280.27ZM329.502,280.27C327.665,280.27 325.982,279.805 324.452,278.877C322.921,277.948 321.692,276.718 320.763,275.188C319.834,273.658 319.37,271.974 319.37,270.137L319.37,247.676C319.37,245.839 319.834,244.156 320.763,242.626C321.692,241.096 322.921,239.866 324.452,238.938C325.982,238.009 327.665,237.544 329.502,237.544L352.598,237.544C354.485,237.544 356.191,238.006 357.717,238.931C359.243,239.856 360.464,241.088 361.379,242.629C362.296,244.17 362.754,245.852 362.754,247.676L362.754,263.755L329.015,263.755L329.015,269.731C329.015,269.976 329.103,270.186 329.278,270.362C329.453,270.537 329.664,270.624 329.908,270.624L362.754,270.624L362.754,280.27L329.502,280.27ZM329.015,255.074L353.085,255.074L353.085,248.083C353.085,247.838 352.997,247.628 352.822,247.453C352.646,247.277 352.436,247.189 352.192,247.189L329.908,247.189C329.664,247.189 329.453,247.277 329.278,247.453C329.103,247.628 329.015,247.838 329.015,248.083L329.015,255.074ZM376.869,280.27C375.032,280.27 373.348,279.805 371.818,278.877C370.288,277.948 369.058,276.718 368.129,275.188C367.2,273.658 366.736,271.974 366.736,270.137L366.736,268.482L376.382,268.482L376.382,269.731C376.382,269.976 376.469,270.186 376.644,270.362C376.82,270.537 377.03,270.624 377.275,270.624L399.558,270.624C399.802,270.624 400.012,270.537 400.188,270.362C400.364,270.186 400.452,269.976 400.452,269.731L400.452,264.648C400.452,264.403 400.364,264.193 400.188,264.018C400.012,263.843 399.802,263.755 399.558,263.755L376.869,263.755C375.032,263.755 373.348,263.291 371.818,262.362C370.288,261.433 369.058,260.203 368.129,258.673C367.2,257.143 366.736,255.459 366.736,253.622L366.736,247.676C366.736,245.839 367.2,244.156 368.129,242.626C369.058,241.096 370.288,239.866 371.818,238.938C373.348,238.009 375.032,237.544 376.869,237.544L399.965,237.544C401.855,237.544 403.563,238.009 405.091,238.938C406.62,239.866 407.848,241.096 408.777,242.626C409.706,244.156 410.171,245.839 410.171,247.676L410.171,249.332L400.452,249.332L400.452,248.083C400.452,247.838 400.364,247.628 400.188,247.453C400.012,247.277 399.802,247.189 399.558,247.189L377.275,247.189C377.03,247.189 376.82,247.277 376.644,247.453C376.469,247.628 376.382,247.838 376.382,248.083L376.382,253.166C376.382,253.41 376.469,253.621 376.644,253.796C376.82,253.971 377.03,254.059 377.275,254.059L399.965,254.059C401.855,254.059 403.563,254.523 405.091,255.453C406.62,256.381 407.848,257.61 408.777,259.14C409.706,260.67 410.171,262.354 410.171,264.191L410.171,270.137C410.171,271.974 409.706,273.658 408.777,275.188C407.848,276.718 406.62,277.948 405.091,278.877C403.563,279.805 401.855,280.27 399.965,280.27L376.869,280.27Z" style="fill:white;"/>
            </g>
            <g transform="matrix(1,0,0,1,0,14.4)">
                <path d="M135.537,230.564C135.856,230.347 136.183,230.137 136.516,229.934L141.592,227.738L147.035,227.01L170.131,227.01L175.581,227.723L180.71,229.923C181.12,230.171 181.518,230.43 181.906,230.701C182.298,230.429 182.702,230.167 183.116,229.917L188.199,227.733L193.642,227.01L217.351,227.01C217.812,227.01 218.266,227.04 218.711,227.097C219.156,227.04 219.609,227.01 220.07,227.01L253.298,227.01L257.786,227.597L257.786,223.548C257.786,217.73 262.502,213.014 268.32,213.014L277.966,213.014C283.784,213.014 288.5,217.73 288.5,223.548L288.5,227.678L293.531,227.01L317.24,227.01C319.155,227.01 320.951,227.521 322.498,228.414L324.059,227.738L329.502,227.01L352.598,227.01L358.048,227.723L363.177,229.923C363.729,230.257 364.26,230.611 364.772,230.986C365.278,230.616 365.804,230.265 366.35,229.934L371.426,227.738L376.869,227.01L399.965,227.01L405.428,227.727L410.565,229.938C413.557,231.756 415.962,234.163 417.78,237.158L419.977,242.234L420.705,247.676L420.705,249.332C420.705,251.688 419.931,253.865 418.623,255.62L419.977,258.748L420.705,264.191L420.705,270.137L419.977,275.58L417.78,280.656C415.962,283.651 413.556,286.059 410.563,287.878C410.563,287.878 410.563,287.879 410.562,287.879C357.266,288.366 90.789,290.804 90.789,290.804C84.971,290.804 80.255,286.087 80.255,280.27L80.255,223.548C80.255,217.73 84.971,213.014 90.789,213.014L100.434,213.014C106.252,213.014 110.968,217.73 110.968,223.548L110.968,227.01L124.04,227.01L129.483,227.738L134.558,229.934C134.891,230.137 135.218,230.347 135.537,230.564Z" style="fill:rgb(32,35,73);"/>
            </g>
            <path d="M90.789,280.27L90.789,223.548L100.434,223.548L100.434,237.544L124.04,237.544C125.876,237.544 127.56,238.009 129.09,238.938C130.62,239.866 131.85,241.096 132.779,242.626C133.708,244.156 134.172,245.839 134.172,247.676L134.172,280.27L124.527,280.27L124.527,248.083C124.527,247.838 124.439,247.628 124.263,247.453C124.088,247.277 123.878,247.189 123.634,247.189L101.349,247.189C101.105,247.189 100.891,247.277 100.708,247.453C100.525,247.628 100.434,247.838 100.434,248.083L100.434,280.27L90.789,280.27ZM147.035,280.27C145.198,280.27 143.514,279.805 141.984,278.877C140.454,277.948 139.225,276.718 138.295,275.188C137.367,273.658 136.903,271.974 136.903,270.137L136.903,247.676C136.903,245.839 137.367,244.156 138.295,242.626C139.225,241.096 140.454,239.866 141.984,238.938C143.514,238.009 145.198,237.544 147.035,237.544L170.131,237.544C172.018,237.544 173.724,238.006 175.25,238.931C176.776,239.856 177.997,241.088 178.912,242.629C179.828,244.17 180.286,245.852 180.286,247.676L180.286,270.137C180.286,271.974 179.83,273.658 178.918,275.188C178.006,276.718 176.786,277.948 175.258,278.877C173.73,279.805 172.021,280.27 170.131,280.27L147.035,280.27ZM147.441,270.624L169.725,270.624C169.969,270.624 170.179,270.537 170.354,270.362C170.53,270.186 170.618,269.976 170.618,269.731L170.618,248.083C170.618,247.838 170.53,247.628 170.354,247.453C170.179,247.277 169.969,247.189 169.725,247.189L147.441,247.189C147.196,247.189 146.986,247.277 146.811,247.453C146.636,247.628 146.548,247.838 146.548,248.083L146.548,269.731C146.548,269.976 146.636,270.186 146.811,270.362C146.986,270.537 147.196,270.624 147.441,270.624ZM183.459,280.27L183.459,247.676C183.459,245.839 183.923,244.156 184.851,242.626C185.781,241.096 187.016,239.866 188.556,238.938C190.097,238.009 191.792,237.544 193.642,237.544L217.351,237.544L217.351,247.189L193.997,247.189C193.753,247.189 193.542,247.277 193.367,247.453C193.192,247.628 193.104,247.838 193.104,248.083L193.104,280.27L183.459,280.27ZM230.202,280.27C228.353,280.27 226.658,279.805 225.117,278.877C223.576,277.948 222.35,276.718 221.437,275.188C220.526,273.658 220.07,271.974 220.07,270.137L220.07,254.059L253.785,254.059L253.785,248.083C253.785,247.838 253.697,247.628 253.522,247.453C253.346,247.277 253.136,247.189 252.892,247.189L220.07,247.189L220.07,237.544L253.298,237.544C255.185,237.544 256.892,238.006 258.417,238.931C259.943,239.856 261.164,241.088 262.08,242.629C262.996,244.17 263.454,245.852 263.454,247.676L263.454,280.27L230.202,280.27ZM230.609,270.624L253.785,270.624L253.785,262.74L229.715,262.74L229.715,269.731C229.715,269.976 229.803,270.186 229.978,270.362C230.154,270.537 230.364,270.624 230.609,270.624ZM268.32,280.27L268.32,237.544L277.966,237.544L277.966,280.27L268.32,280.27ZM268.32,233.244L268.32,223.548L277.966,223.548L277.966,233.244L268.32,233.244ZM283.348,280.27L283.348,247.676C283.348,245.839 283.812,244.156 284.741,242.626C285.67,241.096 286.905,239.866 288.446,238.938C289.986,238.009 291.682,237.544 293.531,237.544L317.24,237.544L317.24,247.189L293.886,247.189C293.642,247.189 293.431,247.277 293.256,247.453C293.081,247.628 292.993,247.838 292.993,248.083L292.993,280.27L283.348,280.27ZM329.502,280.27C327.665,280.27 325.982,279.805 324.452,278.877C322.921,277.948 321.692,276.718 320.763,275.188C319.834,273.658 319.37,271.974 319.37,270.137L319.37,247.676C319.37,245.839 319.834,244.156 320.763,242.626C321.692,241.096 322.921,239.866 324.452,238.938C325.982,238.009 327.665,237.544 329.502,237.544L352.598,237.544C354.485,237.544 356.191,238.006 357.717,238.931C359.243,239.856 360.464,241.088 361.379,242.629C362.296,244.17 362.754,245.852 362.754,247.676L362.754,263.755L329.015,263.755L329.015,269.731C329.015,269.976 329.103,270.186 329.278,270.362C329.453,270.537 329.664,270.624 329.908,270.624L362.754,270.624L362.754,280.27L329.502,280.27ZM329.015,255.074L353.085,255.074L353.085,248.083C353.085,247.838 352.997,247.628 352.822,247.453C352.646,247.277 352.436,247.189 352.192,247.189L329.908,247.189C329.664,247.189 329.453,247.277 329.278,247.453C329.103,247.628 329.015,247.838 329.015,248.083L329.015,255.074ZM376.869,280.27C375.032,280.27 373.348,279.805 371.818,278.877C370.288,277.948 369.058,276.718 368.129,275.188C367.2,273.658 366.736,271.974 366.736,270.137L366.736,268.482L376.382,268.482L376.382,269.731C376.382,269.976 376.469,270.186 376.644,270.362C376.82,270.537 377.03,270.624 377.275,270.624L399.558,270.624C399.802,270.624 400.012,270.537 400.188,270.362C400.364,270.186 400.452,269.976 400.452,269.731L400.452,264.648C400.452,264.403 400.364,264.193 400.188,264.018C400.012,263.843 399.802,263.755 399.558,263.755L376.869,263.755C375.032,263.755 373.348,263.291 371.818,262.362C370.288,261.433 369.058,260.203 368.129,258.673C367.2,257.143 366.736,255.459 366.736,253.622L366.736,247.676C366.736,245.839 367.2,244.156 368.129,242.626C369.058,241.096 370.288,239.866 371.818,238.938C373.348,238.009 375.032,237.544 376.869,237.544L399.965,237.544C401.855,237.544 403.563,238.009 405.091,238.938C406.62,239.866 407.848,241.096 408.777,242.626C409.706,244.156 410.171,245.839 410.171,247.676L410.171,249.332L400.452,249.332L400.452,248.083C400.452,247.838 400.364,247.628 400.188,247.453C400.012,247.277 399.802,247.189 399.558,247.189L377.275,247.189C377.03,247.189 376.82,247.277 376.644,247.453C376.469,247.628 376.382,247.838 376.382,248.083L376.382,253.166C376.382,253.41 376.469,253.621 376.644,253.796C376.82,253.971 377.03,254.059 377.275,254.059L399.965,254.059C401.855,254.059 403.563,254.523 405.091,255.453C406.62,256.381 407.848,257.61 408.777,259.14C409.706,260.67 410.171,262.354 410.171,264.191L410.171,270.137C410.171,271.974 409.706,273.658 408.777,275.188C407.848,276.718 406.62,277.948 405.091,278.877C403.563,279.805 401.855,280.27 399.965,280.27L376.869,280.27Z" style="fill:white;"/>
            <path d="M135.537,228.12L141.041,225.739L147.035,224.937L170.131,224.937L176.123,225.722L181.783,228.149L181.91,228.248L182.048,228.141L187.651,225.734L193.642,224.937L217.351,224.937C217.811,224.937 218.264,224.961 218.711,225.009C219.157,224.961 219.611,224.937 220.07,224.937L253.298,224.937L255.713,225.253L255.713,223.548C255.713,216.585 261.357,210.94 268.32,210.94L277.966,210.94C284.929,210.94 290.573,216.585 290.573,223.548L290.573,225.33L293.531,224.937L317.24,224.937C319.158,224.937 320.976,225.365 322.603,226.131L323.508,225.739L329.502,224.937L352.598,224.937L358.59,225.722L364.251,228.149L364.77,228.558L365.276,228.161L370.874,225.739L376.869,224.937L399.965,224.937L405.972,225.727L411.64,228.165L416.077,231.644L419.553,236.083L421.975,241.682L422.778,247.676L422.778,249.332C422.778,251.719 422.114,253.951 420.962,255.854L421.975,258.197L422.778,264.191L422.778,270.137L421.975,276.132L419.553,281.73L416.078,286.168L411.64,289.65L411.639,289.651L405.969,292.088L399.965,292.877L90.789,292.877C83.826,292.877 78.181,287.232 78.181,280.27L78.181,223.548C78.181,216.585 83.826,210.94 90.789,210.94L100.434,210.94C107.397,210.94 113.041,216.585 113.041,223.548L113.041,224.937L124.04,224.937L130.034,225.74L135.537,228.12Z" style="fill:rgb(0,222,221);"/>
            <path d="M90.789,280.27L90.789,223.548L100.434,223.548L100.434,237.544L124.04,237.544C125.876,237.544 127.56,238.009 129.09,238.938C130.62,239.866 131.85,241.096 132.779,242.626C133.708,244.156 134.172,245.839 134.172,247.676L134.172,280.27L124.527,280.27L124.527,248.083C124.527,247.838 124.439,247.628 124.263,247.453C124.088,247.277 123.878,247.189 123.634,247.189L101.349,247.189C101.105,247.189 100.891,247.277 100.708,247.453C100.525,247.628 100.434,247.838 100.434,248.083L100.434,280.27L90.789,280.27ZM147.035,280.27C145.198,280.27 143.514,279.805 141.984,278.877C140.454,277.948 139.225,276.718 138.295,275.188C137.367,273.658 136.903,271.974 136.903,270.137L136.903,247.676C136.903,245.839 137.367,244.156 138.295,242.626C139.225,241.096 140.454,239.866 141.984,238.938C143.514,238.009 145.198,237.544 147.035,237.544L170.131,237.544C172.018,237.544 173.724,238.006 175.25,238.931C176.776,239.856 177.997,241.088 178.912,242.629C179.828,244.17 180.286,245.852 180.286,247.676L180.286,270.137C180.286,271.974 179.83,273.658 178.918,275.188C178.006,276.718 176.786,277.948 175.258,278.877C173.73,279.805 172.021,280.27 170.131,280.27L147.035,280.27ZM147.441,270.624L169.725,270.624C169.969,270.624 170.179,270.537 170.354,270.362C170.53,270.186 170.618,269.976 170.618,269.731L170.618,248.083C170.618,247.838 170.53,247.628 170.354,247.453C170.179,247.277 169.969,247.189 169.725,247.189L147.441,247.189C147.196,247.189 146.986,247.277 146.811,247.453C146.636,247.628 146.548,247.838 146.548,248.083L146.548,269.731C146.548,269.976 146.636,270.186 146.811,270.362C146.986,270.537 147.196,270.624 147.441,270.624ZM183.459,280.27L183.459,247.676C183.459,245.839 183.923,244.156 184.851,242.626C185.781,241.096 187.016,239.866 188.556,238.938C190.097,238.009 191.792,237.544 193.642,237.544L217.351,237.544L217.351,247.189L193.997,247.189C193.753,247.189 193.542,247.277 193.367,247.453C193.192,247.628 193.104,247.838 193.104,248.083L193.104,280.27L183.459,280.27ZM230.202,280.27C228.353,280.27 226.658,279.805 225.117,278.877C223.576,277.948 222.35,276.718 221.437,275.188C220.526,273.658 220.07,271.974 220.07,270.137L220.07,254.059L253.785,254.059L253.785,248.083C253.785,247.838 253.697,247.628 253.522,247.453C253.346,247.277 253.136,247.189 252.892,247.189L220.07,247.189L220.07,237.544L253.298,237.544C255.185,237.544 256.892,238.006 258.417,238.931C259.943,239.856 261.164,241.088 262.08,242.629C262.996,244.17 263.454,245.852 263.454,247.676L263.454,280.27L230.202,280.27ZM230.609,270.624L253.785,270.624L253.785,262.74L229.715,262.74L229.715,269.731C229.715,269.976 229.803,270.186 229.978,270.362C230.154,270.537 230.364,270.624 230.609,270.624ZM268.32,280.27L268.32,237.544L277.966,237.544L277.966,280.27L268.32,280.27ZM268.32,233.244L268.32,223.548L277.966,223.548L277.966,233.244L268.32,233.244ZM283.348,280.27L283.348,247.676C283.348,245.839 283.812,244.156 284.741,242.626C285.67,241.096 286.905,239.866 288.446,238.938C289.986,238.009 291.682,237.544 293.531,237.544L317.24,237.544L317.24,247.189L293.886,247.189C293.642,247.189 293.431,247.277 293.256,247.453C293.081,247.628 292.993,247.838 292.993,248.083L292.993,280.27L283.348,280.27ZM329.502,280.27C327.665,280.27 325.982,279.805 324.452,278.877C322.921,277.948 321.692,276.718 320.763,275.188C319.834,273.658 319.37,271.974 319.37,270.137L319.37,247.676C319.37,245.839 319.834,244.156 320.763,242.626C321.692,241.096 322.921,239.866 324.452,238.938C325.982,238.009 327.665,237.544 329.502,237.544L352.598,237.544C354.485,237.544 356.191,238.006 357.717,238.931C359.243,239.856 360.464,241.088 361.379,242.629C362.296,244.17 362.754,245.852 362.754,247.676L362.754,263.755L329.015,263.755L329.015,269.731C329.015,269.976 329.103,270.186 329.278,270.362C329.453,270.537 329.664,270.624 329.908,270.624L362.754,270.624L362.754,280.27L329.502,280.27ZM329.015,255.074L353.085,255.074L353.085,248.083C353.085,247.838 352.997,247.628 352.822,247.453C352.646,247.277 352.436,247.189 352.192,247.189L329.908,247.189C329.664,247.189 329.453,247.277 329.278,247.453C329.103,247.628 329.015,247.838 329.015,248.083L329.015,255.074ZM376.869,280.27C375.032,280.27 373.348,279.805 371.818,278.877C370.288,277.948 369.058,276.718 368.129,275.188C367.2,273.658 366.736,271.974 366.736,270.137L366.736,268.482L376.382,268.482L376.382,269.731C376.382,269.976 376.469,270.186 376.644,270.362C376.82,270.537 377.03,270.624 377.275,270.624L399.558,270.624C399.802,270.624 400.012,270.537 400.188,270.362C400.364,270.186 400.452,269.976 400.452,269.731L400.452,264.648C400.452,264.403 400.364,264.193 400.188,264.018C400.012,263.843 399.802,263.755 399.558,263.755L376.869,263.755C375.032,263.755 373.348,263.291 371.818,262.362C370.288,261.433 369.058,260.203 368.129,258.673C367.2,257.143 366.736,255.459 366.736,253.622L366.736,247.676C366.736,245.839 367.2,244.156 368.129,242.626C369.058,241.096 370.288,239.866 371.818,238.938C373.348,238.009 375.032,237.544 376.869,237.544L399.965,237.544C401.855,237.544 403.563,238.009 405.091,238.938C406.62,239.866 407.848,241.096 408.777,242.626C409.706,244.156 410.171,245.839 410.171,247.676L410.171,249.332L400.452,249.332L400.452,248.083C400.452,247.838 400.364,247.628 400.188,247.453C400.012,247.277 399.802,247.189 399.558,247.189L377.275,247.189C377.03,247.189 376.82,247.277 376.644,247.453C376.469,247.628 376.382,247.838 376.382,248.083L376.382,253.166C376.382,253.41 376.469,253.621 376.644,253.796C376.82,253.971 377.03,254.059 377.275,254.059L399.965,254.059C401.855,254.059 403.563,254.523 405.091,255.453C406.62,256.381 407.848,257.61 408.777,259.14C409.706,260.67 410.171,262.354 410.171,264.191L410.171,270.137C410.171,271.974 409.706,273.658 408.777,275.188C407.848,276.718 406.62,277.948 405.091,278.877C403.563,279.805 401.855,280.27 399.965,280.27L376.869,280.27Z" style="fill:white;"/>
            <g transform="matrix(-0.923084,-0.384598,-0.384598,0.923084,318.306,240.668)">
                <path d="M59.124,100.929L67.169,100.929C38.718,39.225 20.404,-11.349 20.245,-11.799L12.942,-13.749C13.102,-13.296 30.55,38.958 59.124,100.929" style="fill:rgb(255,142,255);fill-rule:nonzero;"/>
            </g>
            <g transform="matrix(-0.960304,0.278955,0.278955,0.960304,266.334,221.643)">
                <path d="M72.317,69.991L96.539,69.991C19.033,36.067 -25.879,8.246 -26.286,7.997L-33.527,12.548C-33.119,12.799 10.646,39.672 72.317,69.991" style="fill:rgb(0,222,221);fill-rule:nonzero;"/>
            </g>
            <g transform="matrix(1,0,0,1,316.6,323.4)">
                <path d="M0,-103.92C-1.37,-102.44 -2.9,-100.78 -4.58,-98.97C-7.95,-95.35 -11.9,-91.12 -16.31,-86.42C-16.54,-86.17 -16.78,-85.93 -17.01,-85.68C-17.88,-84.75 -18.78,-83.8 -19.69,-82.84C-21.69,-80.72 -23.77,-78.52 -25.92,-76.25C-28.03,-74.03 -30.21,-71.74 -32.45,-69.39C-32.57,-69.26 -32.7,-69.13 -32.83,-69C-33.05,-68.76 -33.29,-68.52 -33.52,-68.27C-33.75,-68.04 -33.98,-67.8 -34.21,-67.55C-34.45,-67.3 -34.69,-67.05 -34.94,-66.79C-35.17,-66.55 -35.41,-66.3 -35.65,-66.05C-36.11,-65.57 -36.57,-65.09 -37.03,-64.6C-37.8,-63.82 -38.56,-63.02 -39.32,-62.23C-39.78,-61.75 -40.25,-61.27 -40.71,-60.79C-40.77,-60.73 -40.83,-60.66 -40.89,-60.6C-41.51,-59.96 -42.14,-59.31 -42.77,-58.66C-45.22,-56.12 -47.73,-53.54 -50.28,-50.93C-50.74,-50.45 -51.2,-49.98 -51.67,-49.5C-51.68,-49.49 -51.69,-49.47 -51.7,-49.46C-52.46,-48.69 -53.22,-47.91 -53.98,-47.13C-54.44,-46.66 -54.91,-46.19 -55.38,-45.72C-56.48,-44.59 -57.59,-43.46 -58.7,-42.33C-58.95,-42.08 -59.19,-41.83 -59.44,-41.58C-59.68,-41.35 -59.91,-41.11 -60.14,-40.87C-60.37,-40.64 -60.6,-40.4 -60.84,-40.17C-63.98,-36.99 -67.16,-33.79 -70.36,-30.6C-73.12,-27.85 -75.9,-25.1 -78.67,-22.37C-80.47,-20.6 -82.26,-18.85 -84.05,-17.1C-89.53,-11.76 -94.99,-6.54 -100.33,-1.53C-101.33,-1.57 -102.22,-1.62 -103.01,-1.67C-103.7,-1.06 -104.38,-0.46 -105.05,0.14C-100.71,-3.89 -96.29,-8.07 -91.82,-12.36C-90.18,-13.92 -88.54,-15.5 -86.9,-17.1C-85.1,-18.84 -83.29,-20.6 -81.49,-22.37C-78.7,-25.09 -75.91,-27.84 -73.13,-30.6C-69.47,-34.23 -65.83,-37.87 -62.24,-41.49C-62,-41.73 -61.77,-41.97 -61.54,-42.2C-61.3,-42.44 -61.06,-42.68 -60.83,-42.91C-60.58,-43.16 -60.33,-43.41 -60.09,-43.66C-58.98,-44.78 -57.87,-45.9 -56.77,-47.02C-56.3,-47.49 -55.83,-47.97 -55.37,-48.44C-54.6,-49.22 -53.84,-49.99 -53.08,-50.76C-52.83,-51.02 -52.58,-51.28 -52.32,-51.54C-52.11,-51.76 -51.9,-51.98 -51.68,-52.19C-48.37,-55.58 -45.11,-58.92 -41.95,-62.18C-41.48,-62.66 -41.02,-63.14 -40.56,-63.62C-39.8,-64.4 -39.05,-65.18 -38.3,-65.95C-37.84,-66.43 -37.37,-66.91 -36.91,-67.39C-36.68,-67.63 -36.44,-67.88 -36.21,-68.12C-35.96,-68.37 -35.72,-68.63 -35.48,-68.88C-35.31,-69.05 -35.15,-69.22 -34.98,-69.39C-34.92,-69.46 -34.85,-69.53 -34.78,-69.6C-34.55,-69.84 -34.32,-70.08 -34.09,-70.32C-32.15,-72.34 -30.25,-74.32 -28.41,-76.25C-26.11,-78.65 -23.9,-80.97 -21.78,-83.21C-20.91,-84.12 -20.05,-85.02 -19.22,-85.91L-19.21,-85.91L-18.67,-86.48C-14.56,-90.82 -10.83,-94.78 -7.59,-98.25C-6.87,-99.02 -6.17,-99.76 -5.5,-100.47C-4.31,-101.75 -3.19,-102.95 -2.15,-104.06C-2.18,-104.01 -2.23,-103.97 -2.27,-103.92L0,-103.92Z" style="fill:white;fill-rule:nonzero;"/>
            </g>
            <g transform="matrix(-0.595909,-0.803052,-0.803052,0.595909,311.663,280.915)">
                <path d="M42.586,117.253L44.585,117.253C44.585,116.532 45.517,41.234 60.228,-19.112L58.291,-22.385C43.522,38.199 42.586,116.53 42.586,117.253" style="fill:white;fill-rule:nonzero;"/>
            </g>
        </g>
    </g>
</svg>
