<?xml version="1.0"?>

<svg width="100%" height="100%" viewBox="243.048 569.685 1598 952" version="1.1" xmlns="http://www.w3.org/2000/svg" xmlns:xlink="http://www.w3.org/1999/xlink" xml:space="preserve" xmlns:serif="http://www.serif.com/" style="fill-rule:evenodd;clip-rule:evenodd;stroke-linejoin:round;stroke-miterlimit:2;">
    <g id="TEXT" transform="matrix(4.16667,0,0,4.16667,0,0)">
        <path d="M120.346,229.02L119.985,222.572L116.309,222.572L115.948,229.02L96.967,229.02C97.368,222.432 98.192,215.673 99.437,208.743C100.682,201.814 101.827,196.521 102.872,192.866L104.378,187.382L132.94,187.382C133.382,188.828 133.944,190.837 134.627,193.408C135.31,195.979 136.314,200.91 137.64,208.201C138.966,215.492 139.87,222.432 140.352,229.02L120.346,229.02ZM117.213,207.629L116.731,217.029L119.563,217.029L119.141,207.629L117.213,207.629ZM142.943,187.382L161.381,187.382L165.178,199.795L165.178,187.382L183.737,187.382L183.737,229.02L165.178,229.02L161.984,216.848L161.984,229.02L142.943,229.02L142.943,187.382ZM187.232,187.382L205.67,187.382L209.467,199.795L209.467,187.382L228.026,187.382L228.026,229.02L209.467,229.02L206.273,216.848L206.273,229.02L187.232,229.02L187.232,187.382ZM251.406,186.78L256.407,186.78C263.638,186.78 268.9,188.487 272.194,191.902C275.489,195.316 277.136,200.679 277.136,207.99C277.136,215.301 275.478,220.735 272.164,224.29C268.85,227.845 263.598,229.623 256.407,229.623L251.406,229.623C244.215,229.623 238.953,227.845 235.618,224.29C232.284,220.735 230.617,215.301 230.617,207.99C230.617,200.679 232.274,195.316 235.588,191.902C238.902,188.487 244.175,186.78 251.406,186.78ZM252.189,206.604L252.189,213.594C252.189,214.116 252.34,214.538 252.641,214.86C252.942,215.181 253.344,215.342 253.846,215.342C254.348,215.342 254.77,215.181 255.112,214.86C255.453,214.538 255.624,214.116 255.624,213.594L255.624,206.604C255.624,206.122 255.453,205.721 255.112,205.399C254.77,205.078 254.348,204.917 253.846,204.917C253.344,204.917 252.942,205.078 252.641,205.399C252.34,205.721 252.189,206.122 252.189,206.604ZM279.787,187.382L298.226,187.382L302.022,199.795L302.022,187.382L320.581,187.382L320.581,229.02L302.022,229.02L298.828,216.848L298.828,229.02L279.787,229.02L279.787,187.382ZM347.034,206.604L347.034,209.918C347.837,209.999 349.243,210.039 351.252,210.039C355.028,210.039 358.402,209.918 361.375,209.677L362.821,209.557L362.821,227.574C358.925,228.94 353.391,229.623 346.22,229.623C339.05,229.623 333.566,227.795 329.77,224.139C325.974,220.484 324.076,215.05 324.076,207.84C324.076,200.629 325.944,195.316 329.68,191.902C333.416,188.487 338.98,186.78 346.371,186.78C349.464,186.78 352.387,186.96 355.138,187.322C357.89,187.684 359.849,188.045 361.014,188.407L362.821,188.949L362.821,207.508C359.326,206.906 354.064,206.604 347.034,206.604ZM366.316,187.382L400.06,187.382L400.06,204.917L387.045,204.917L387.045,207.327L400.06,207.327L400.06,211.124L387.045,211.124L387.045,213.534L400.603,213.534L400.603,229.02L366.316,229.02L366.316,187.382Z" style="fill:rgb(255,114,255);"></path>
        <g transform="matrix(0.24,0,0,0.24,0,0)">
            <g transform="matrix(4.16667,0,0,4.16667,0,30)">
                <path d="M120.346,229.02C120.226,226.871 120.105,224.722 119.985,222.572L116.309,222.572C116.189,224.722 116.068,226.871 115.948,229.02L96.967,229.02C97.313,223.332 98.046,216.484 99.437,208.743C99.961,205.827 101.376,198.102 102.872,192.866C103.374,191.038 103.876,189.21 104.378,187.382L132.94,187.382C133.603,189.552 134.499,192.924 134.627,193.408C135.645,197.238 137.23,205.943 137.64,208.201C138.534,213.119 139.739,220.643 140.352,229.02L120.346,229.02ZM117.213,207.629C117.052,210.762 116.892,213.895 116.731,217.029L119.563,217.029C119.422,213.895 119.282,210.762 119.141,207.629L117.213,207.629ZM142.943,187.382L161.381,187.382C162.647,191.52 163.912,195.658 165.178,199.795L165.178,187.382L183.737,187.382L183.737,229.02L165.178,229.02C164.113,224.963 163.049,220.905 161.984,216.848L161.984,229.02L142.943,229.02L142.943,187.382ZM187.232,187.382L205.67,187.382C206.936,191.52 208.201,195.658 209.467,199.795L209.467,187.382L228.026,187.382L228.026,229.02L209.467,229.02C208.402,224.963 207.338,220.905 206.273,216.848L206.273,229.02L187.232,229.02L187.232,187.382ZM251.406,186.78L256.407,186.78C260.488,186.78 267.748,187.293 272.194,191.902C276.643,196.513 277.136,203.872 277.136,207.99C277.136,212.156 276.625,219.504 272.164,224.29C267.706,229.072 260.513,229.623 256.407,229.623L251.406,229.623C247.293,229.623 240.101,229.07 235.618,224.29C231.132,219.506 230.617,212.16 230.617,207.99C230.617,203.868 231.114,196.512 235.588,191.902C240.059,187.295 247.319,186.78 251.406,186.78ZM252.189,206.604L252.189,213.594C252.189,214.378 252.567,214.781 252.641,214.86C252.712,214.935 253.093,215.342 253.846,215.342C254.599,215.342 255.033,214.934 255.112,214.86C255.191,214.785 255.624,214.378 255.624,213.594L255.624,206.604C255.624,205.881 255.188,205.471 255.112,205.399C255.033,205.325 254.599,204.917 253.846,204.917C253.093,204.917 252.712,205.323 252.641,205.399C252.571,205.474 252.189,205.881 252.189,206.604ZM279.787,187.382L298.226,187.382C299.491,191.52 300.756,195.658 302.022,199.795L302.022,187.382L320.581,187.382L320.581,229.02L302.022,229.02C300.957,224.963 299.893,220.905 298.828,216.848L298.828,229.02L279.787,229.02L279.787,187.382ZM347.034,206.604L347.034,209.918C348.239,210.039 350.914,210.039 351.252,210.039C351.928,210.039 356.785,210.05 361.375,209.677L362.821,209.557L362.821,227.574C357.442,229.459 349.912,229.623 346.22,229.623C341.945,229.623 334.811,228.993 329.77,224.139C324.721,219.277 324.076,212.117 324.076,207.84C324.076,203.653 324.679,196.472 329.68,191.902C334.688,187.324 342.101,186.78 346.371,186.78C349.795,186.78 352.897,187.027 355.138,187.322C355.612,187.384 359.266,187.864 361.014,188.407L362.821,188.949L362.821,207.508C357.639,206.615 349.388,206.604 347.034,206.604ZM366.316,187.382L400.06,187.382L400.06,204.917L387.045,204.917L387.045,207.327L400.06,207.327L400.06,211.124L387.045,211.124L387.045,213.534L400.603,213.534L400.603,229.02L366.316,229.02L366.316,187.382Z" style="fill:rgb(7,4,146);"></path>
            </g>
        </g>
        <clipPath id="_clip1">
            <path d="M120.346,229.02L119.985,222.572L116.309,222.572L115.948,229.02L96.967,229.02C97.368,222.432 98.192,215.673 99.437,208.743C100.682,201.814 101.827,196.521 102.872,192.866L104.378,187.382L132.94,187.382C133.382,188.828 133.944,190.837 134.627,193.408C135.31,195.979 136.314,200.91 137.64,208.201C138.966,215.492 139.87,222.432 140.352,229.02L120.346,229.02ZM117.213,207.629L116.731,217.029L119.563,217.029L119.141,207.629L117.213,207.629ZM142.943,187.382L161.381,187.382L165.178,199.795L165.178,187.382L183.737,187.382L183.737,229.02L165.178,229.02L161.984,216.848L161.984,229.02L142.943,229.02L142.943,187.382ZM187.232,187.382L205.67,187.382L209.467,199.795L209.467,187.382L228.026,187.382L228.026,229.02L209.467,229.02L206.273,216.848L206.273,229.02L187.232,229.02L187.232,187.382ZM251.406,186.78L256.407,186.78C263.638,186.78 268.9,188.487 272.194,191.902C275.489,195.316 277.136,200.679 277.136,207.99C277.136,215.301 275.478,220.735 272.164,224.29C268.85,227.845 263.598,229.623 256.407,229.623L251.406,229.623C244.215,229.623 238.953,227.845 235.618,224.29C232.284,220.735 230.617,215.301 230.617,207.99C230.617,200.679 232.274,195.316 235.588,191.902C238.902,188.487 244.175,186.78 251.406,186.78ZM252.189,206.604L252.189,213.594C252.189,214.116 252.34,214.538 252.641,214.86C252.942,215.181 253.344,215.342 253.846,215.342C254.348,215.342 254.77,215.181 255.112,214.86C255.453,214.538 255.624,214.116 255.624,213.594L255.624,206.604C255.624,206.122 255.453,205.721 255.112,205.399C254.77,205.078 254.348,204.917 253.846,204.917C253.344,204.917 252.942,205.078 252.641,205.399C252.34,205.721 252.189,206.122 252.189,206.604ZM279.787,187.382L298.226,187.382L302.022,199.795L302.022,187.382L320.581,187.382L320.581,229.02L302.022,229.02L298.828,216.848L298.828,229.02L279.787,229.02L279.787,187.382ZM347.034,206.604L347.034,209.918C347.837,209.999 349.243,210.039 351.252,210.039C355.028,210.039 358.402,209.918 361.375,209.677L362.821,209.557L362.821,227.574C358.925,228.94 353.391,229.623 346.22,229.623C339.05,229.623 333.566,227.795 329.77,224.139C325.974,220.484 324.076,215.05 324.076,207.84C324.076,200.629 325.944,195.316 329.68,191.902C333.416,188.487 338.98,186.78 346.371,186.78C349.464,186.78 352.387,186.96 355.138,187.322C357.89,187.684 359.849,188.045 361.014,188.407L362.821,188.949L362.821,207.508C359.326,206.906 354.064,206.604 347.034,206.604ZM366.316,187.382L400.06,187.382L400.06,204.917L387.045,204.917L387.045,207.327L400.06,207.327L400.06,211.124L387.045,211.124L387.045,213.534L400.603,213.534L400.603,229.02L366.316,229.02L366.316,187.382Z"></path>
        </clipPath>
        <g clip-path="url(#_clip1)">
            <g transform="matrix(0.24,-0,-0,0.24,0,0)">
                <use xlink:href="#_Image2" x="404.027" y="778.249" width="1266px" height="179px"></use>
            </g>
        </g>
        <path d="M120.189,226.546L119.877,220.989L116.709,220.989L116.398,226.546L100.039,226.546C100.386,220.868 101.095,215.043 102.169,209.071C103.242,203.098 104.229,198.537 105.129,195.387L106.427,190.661L131.043,190.661C131.424,191.907 131.908,193.638 132.497,195.854C133.085,198.07 133.951,202.319 135.093,208.603C136.236,214.887 137.015,220.868 137.43,226.546L120.189,226.546ZM117.488,208.11L117.073,216.211L119.514,216.211L119.15,208.11L117.488,208.11ZM146.057,190.259L161.948,190.259L165.22,200.957L165.22,190.259L181.215,190.259L181.215,226.144L165.22,226.144L162.468,215.653L162.468,226.144L146.057,226.144L146.057,190.259ZM190.109,190.661L206.001,190.661L209.272,201.359L209.272,190.661L225.267,190.661L225.267,226.546L209.272,226.546L206.52,216.055L206.52,226.546L190.109,226.546L190.109,190.661ZM252.019,189.739L256.329,189.739C262.561,189.739 267.096,191.211 269.935,194.154C272.774,197.096 274.194,201.718 274.194,208.019C274.194,214.32 272.766,219.003 269.909,222.067C267.053,225.131 262.526,226.663 256.329,226.663L252.019,226.663C245.822,226.663 241.286,225.131 238.413,222.067C235.539,219.003 234.102,214.32 234.102,208.019C234.102,201.718 235.53,197.096 238.387,194.154C241.243,191.211 245.787,189.739 252.019,189.739ZM252.694,206.825L252.694,212.849C252.694,213.299 252.824,213.663 253.083,213.94C253.343,214.217 253.689,214.355 254.122,214.355C254.555,214.355 254.918,214.217 255.213,213.94C255.507,213.663 255.654,213.299 255.654,212.849L255.654,206.825C255.654,206.409 255.507,206.063 255.213,205.786C254.918,205.509 254.555,205.371 254.122,205.371C253.689,205.371 253.343,205.509 253.083,205.786C252.824,206.063 252.694,206.409 252.694,206.825ZM283.108,190.259L298.999,190.259L302.271,200.957L302.271,190.259L318.266,190.259L318.266,226.144L302.271,226.144L299.519,215.653L299.519,226.144L283.108,226.144L283.108,190.259ZM347.034,207.344L347.034,210.201C347.726,210.27 348.938,210.304 350.669,210.304C353.924,210.304 356.832,210.201 359.394,209.993L360.64,209.889L360.64,225.417C357.282,226.594 352.513,227.182 346.333,227.182C340.153,227.182 335.427,225.607 332.155,222.456C328.884,219.306 327.248,214.623 327.248,208.409C327.248,202.194 328.858,197.616 332.077,194.673C335.297,191.73 340.092,190.259 346.463,190.259C349.128,190.259 351.647,190.414 354.019,190.726C356.39,191.038 358.078,191.349 359.082,191.661L360.64,192.128L360.64,208.123C357.628,207.604 353.093,207.344 347.034,207.344ZM368.552,190.778L397.634,190.778L397.634,205.89L386.416,205.89L386.416,207.967L397.634,207.967L397.634,211.239L386.416,211.239L386.416,213.316L398.101,213.316L398.101,226.663L368.552,226.663L368.552,190.778Z" style="fill:none;stroke:rgb(255,114,255);stroke-width:5.63px;"></path>
        <path d="M120.189,226.546L119.877,220.989L116.709,220.989L116.398,226.546L100.039,226.546C100.386,220.868 101.095,215.043 102.169,209.071C103.242,203.098 104.229,198.537 105.129,195.387L106.427,190.661L131.043,190.661C131.424,191.907 131.908,193.638 132.497,195.854C133.085,198.07 133.951,202.319 135.093,208.603C136.236,214.887 137.015,220.868 137.43,226.546L120.189,226.546ZM117.488,208.11L117.073,216.211L119.514,216.211L119.15,208.11L117.488,208.11ZM146.057,190.259L161.948,190.259L165.22,200.957L165.22,190.259L181.215,190.259L181.215,226.144L165.22,226.144L162.468,215.653L162.468,226.144L146.057,226.144L146.057,190.259ZM190.109,190.661L206.001,190.661L209.272,201.359L209.272,190.661L225.267,190.661L225.267,226.546L209.272,226.546L206.52,216.055L206.52,226.546L190.109,226.546L190.109,190.661ZM252.019,189.739L256.329,189.739C262.561,189.739 267.096,191.211 269.935,194.154C272.774,197.096 274.194,201.718 274.194,208.019C274.194,214.32 272.766,219.003 269.909,222.067C267.053,225.131 262.526,226.663 256.329,226.663L252.019,226.663C245.822,226.663 241.286,225.131 238.413,222.067C235.539,219.003 234.102,214.32 234.102,208.019C234.102,201.718 235.53,197.096 238.387,194.154C241.243,191.211 245.787,189.739 252.019,189.739ZM252.694,206.825L252.694,212.849C252.694,213.299 252.824,213.663 253.083,213.94C253.343,214.217 253.689,214.355 254.122,214.355C254.555,214.355 254.918,214.217 255.213,213.94C255.507,213.663 255.654,213.299 255.654,212.849L255.654,206.825C255.654,206.409 255.507,206.063 255.213,205.786C254.918,205.509 254.555,205.371 254.122,205.371C253.689,205.371 253.343,205.509 253.083,205.786C252.824,206.063 252.694,206.409 252.694,206.825ZM283.108,190.259L298.999,190.259L302.271,200.957L302.271,190.259L318.266,190.259L318.266,226.144L302.271,226.144L299.519,215.653L299.519,226.144L283.108,226.144L283.108,190.259ZM347.034,207.344L347.034,210.201C347.726,210.27 348.938,210.304 350.669,210.304C353.924,210.304 356.832,210.201 359.394,209.993L360.64,209.889L360.64,225.417C357.282,226.594 352.513,227.182 346.333,227.182C340.153,227.182 335.427,225.607 332.155,222.456C328.884,219.306 327.248,214.623 327.248,208.409C327.248,202.194 328.858,197.616 332.077,194.673C335.297,191.73 340.092,190.259 346.463,190.259C349.128,190.259 351.647,190.414 354.019,190.726C356.39,191.038 358.078,191.349 359.082,191.661L360.64,192.128L360.64,208.123C357.628,207.604 353.093,207.344 347.034,207.344ZM368.552,190.778L397.634,190.778L397.634,205.89L386.416,205.89L386.416,207.967L397.634,207.967L397.634,211.239L386.416,211.239L386.416,213.316L398.101,213.316L398.101,226.663L368.552,226.663L368.552,190.778Z" style="fill:none;stroke:rgb(7,4,146);stroke-width:2px;"></path>
        <g>
            <clipPath id="_clip3">
                <path d="M103.535,239.044L125.287,239.044C131.996,239.044 137.128,240.651 140.683,243.864C144.238,247.078 146.016,252.321 146.016,259.592C146.016,273.652 138.825,280.682 124.444,280.682L103.535,280.682L103.535,239.044ZM123.781,256.579L123.781,267.003L125.468,267.003C125.95,267.003 126.362,266.843 126.703,266.521C127.045,266.2 127.216,265.778 127.216,265.256L127.216,258.266C127.216,257.784 127.045,257.382 126.703,257.061C126.362,256.739 125.95,256.579 125.468,256.579L123.781,256.579Z" clip-rule="nonzero"></path>
            </clipPath>
            <g clip-path="url(#_clip3)">
                <g transform="matrix(0.24,-0,-0,0.24,0,0)">
                    <use xlink:href="#_Image4" x="431.394" y="996.016" width="178px" height="174px"></use>
                </g>
            </g>
            <clipPath id="_clip5">
                <rect x="149.451" y="239.044" width="20.728" height="41.638" clip-rule="nonzero"></rect>
            </clipPath>
            <g clip-path="url(#_clip5)">
                <g transform="matrix(0.24,-0,-0,0.24,0,0)">
                    <use xlink:href="#_Image6" x="622.711" y="996.016" width="87px" height="174px"></use>
                </g>
            </g>
            <clipPath id="_clip7">
                <path d="M194.101,238.441C197.395,238.441 200.478,238.652 203.351,239.074C206.223,239.496 208.282,239.928 209.527,240.37L211.335,241.032L211.335,258.266C208.081,256.78 203.622,256.036 197.958,256.036L197.958,257.603C203.18,258.005 206.936,259.049 209.226,260.736C211.515,262.424 212.66,264.975 212.66,268.389C212.66,272.487 210.993,275.66 207.659,277.91C204.325,280.159 199.183,281.284 192.233,281.284C188.256,281.284 184.741,281.053 181.688,280.591C178.635,280.129 176.586,279.677 175.542,279.235L173.915,278.512L173.915,263.508C174.277,263.669 174.819,263.89 175.542,264.171C176.265,264.452 177.882,264.814 180.393,265.256C182.903,265.698 185.605,265.919 188.497,265.919L188.497,264.472C183.596,264.111 179.901,263.066 177.41,261.339C174.919,259.612 173.674,256.599 173.674,252.3C173.674,248.002 175.381,244.618 178.796,242.147C182.21,239.677 187.312,238.441 194.101,238.441Z" clip-rule="nonzero"></path>
            </clipPath>
            <g clip-path="url(#_clip7)">
                <g transform="matrix(0.24,-0,-0,0.24,0,0)">
                    <use xlink:href="#_Image8" x="723.642" y="993.505" width="163px" height="179px"></use>
                </g>
            </g>
            <clipPath id="_clip9">
                <path d="M238.27,258.266L238.27,261.58C239.073,261.66 240.479,261.701 242.488,261.701C246.264,261.701 249.638,261.58 252.611,261.339L254.057,261.219L254.057,279.235C250.16,280.601 244.627,281.284 237.456,281.284C230.286,281.284 224.802,279.456 221.006,275.801C217.21,272.145 215.312,266.712 215.312,259.501C215.312,252.29 217.18,246.978 220.916,243.563C224.652,240.149 230.215,238.441 237.607,238.441C240.7,238.441 243.623,238.622 246.374,238.984C249.126,239.345 251.084,239.707 252.249,240.068L254.057,240.611L254.057,259.17C250.562,258.567 245.3,258.266 238.27,258.266Z" clip-rule="nonzero"></path>
            </clipPath>
            <g clip-path="url(#_clip9)">
                <g transform="matrix(0.24,-0,-0,0.24,0,0)">
                    <use xlink:href="#_Image10" x="897.132" y="993.505" width="162px" height="179px"></use>
                </g>
            </g>
            <clipPath id="_clip11">
                <path d="M277.437,238.441L282.438,238.441C289.669,238.441 294.932,240.149 298.226,243.563C301.52,246.978 303.167,252.341 303.167,259.652C303.167,266.963 301.51,272.396 298.195,275.951C294.881,279.507 289.629,281.284 282.438,281.284L277.437,281.284C270.246,281.284 264.984,279.507 261.649,275.951C258.315,272.396 256.648,266.963 256.648,259.652C256.648,252.341 258.305,246.978 261.619,243.563C264.933,240.149 270.206,238.441 277.437,238.441ZM278.22,258.266L278.22,265.256C278.22,265.778 278.371,266.2 278.672,266.521C278.973,266.843 279.375,267.003 279.877,267.003C280.379,267.003 280.801,266.843 281.143,266.521C281.484,266.2 281.655,265.778 281.655,265.256L281.655,258.266C281.655,257.784 281.484,257.382 281.143,257.061C280.801,256.739 280.379,256.579 279.877,256.579C279.375,256.579 278.973,256.739 278.672,257.061C278.371,257.382 278.22,257.784 278.22,258.266Z" clip-rule="nonzero"></path>
            </clipPath>
            <g clip-path="url(#_clip11)">
                <g transform="matrix(0.24,-0,-0,0.24,0,0)">
                    <use xlink:href="#_Image12" x="1069.37" y="993.505" width="194px" height="179px"></use>
                </g>
            </g>
            <clipPath id="_clip13">
                <path d="M326.546,268.51L326.546,280.682L305.818,280.682L305.818,239.044L327.691,239.044C334.882,239.044 340.165,240.219 343.539,242.569C346.913,244.919 348.601,248.986 348.601,254.771C348.601,259.15 347.175,262.383 344.322,264.472C346.733,268.771 348.56,274.174 349.806,280.682L329.981,280.682C329.66,276.624 329.097,273.049 328.294,269.956L327.872,268.51L326.546,268.51ZM326.546,263.629L328.294,263.629C328.776,263.629 329.178,263.468 329.499,263.147C329.82,262.825 329.981,262.404 329.981,261.881L329.981,258.266C329.981,257.744 329.82,257.332 329.499,257.031C329.178,256.729 328.776,256.579 328.294,256.579L326.546,256.579L326.546,263.629Z" clip-rule="nonzero"></path>
            </clipPath>
            <g clip-path="url(#_clip13)">
                <g transform="matrix(0.24,-0,-0,0.24,0,0)">
                    <use xlink:href="#_Image14" x="1274.24" y="996.016" width="184px" height="174px"></use>
                </g>
            </g>
            <clipPath id="_clip15">
                <path d="M352.457,239.044L374.21,239.044C380.919,239.044 386.05,240.651 389.606,243.864C393.161,247.078 394.938,252.321 394.938,259.592C394.938,273.652 387.748,280.682 373.366,280.682L352.457,280.682L352.457,239.044ZM372.703,256.579L372.703,267.003L374.391,267.003C374.873,267.003 375.285,266.843 375.626,266.521C375.967,266.2 376.138,265.778 376.138,265.256L376.138,258.266C376.138,257.784 375.967,257.382 375.626,257.061C375.285,256.739 374.873,256.579 374.391,256.579L372.703,256.579Z" clip-rule="nonzero"></path>
            </clipPath>
            <g clip-path="url(#_clip15)">
                <g transform="matrix(0.24,-0,-0,0.24,0,0)">
                    <use xlink:href="#_Image4" x="1468.57" y="996.016" width="178px" height="174px"></use>
                </g>
            </g>
        </g>
        <g>
            <clipPath id="_clip16">
                <path d="M103.535,239.044L125.287,239.044C131.996,239.044 137.128,240.651 140.683,243.864C144.238,247.078 146.016,252.321 146.016,259.592C146.016,273.652 138.825,280.682 124.444,280.682L103.535,280.682L103.535,239.044ZM123.781,256.579L123.781,267.003L125.468,267.003C125.95,267.003 126.362,266.843 126.703,266.521C127.045,266.2 127.216,265.778 127.216,265.256L127.216,258.266C127.216,257.784 127.045,257.382 126.703,257.061C126.362,256.739 125.95,256.579 125.468,256.579L123.781,256.579Z" clip-rule="nonzero"></path>
            </clipPath>
            <g clip-path="url(#_clip16)">
                <g transform="matrix(0.24,-0,-0,0.24,0,0)">
                    <use xlink:href="#_Image4" x="431.394" y="996.016" width="178px" height="174px"></use>
                </g>
            </g>
            <clipPath id="_clip17">
                <rect x="149.451" y="239.044" width="20.728" height="41.638" clip-rule="nonzero"></rect>
            </clipPath>
            <g clip-path="url(#_clip17)">
                <g transform="matrix(0.24,-0,-0,0.24,0,0)">
                    <use xlink:href="#_Image6" x="622.711" y="996.016" width="87px" height="174px"></use>
                </g>
            </g>
            <clipPath id="_clip18">
                <path d="M194.101,238.441C197.395,238.441 200.478,238.652 203.351,239.074C206.223,239.496 208.282,239.928 209.527,240.37L211.335,241.032L211.335,258.266C208.081,256.78 203.622,256.036 197.958,256.036L197.958,257.603C203.18,258.005 206.936,259.049 209.226,260.736C211.515,262.424 212.66,264.975 212.66,268.389C212.66,272.487 210.993,275.66 207.659,277.91C204.325,280.159 199.183,281.284 192.233,281.284C188.256,281.284 184.741,281.053 181.688,280.591C178.635,280.129 176.586,279.677 175.542,279.235L173.915,278.512L173.915,263.508C174.277,263.669 174.819,263.89 175.542,264.171C176.265,264.452 177.882,264.814 180.393,265.256C182.903,265.698 185.605,265.919 188.497,265.919L188.497,264.472C183.596,264.111 179.901,263.066 177.41,261.339C174.919,259.612 173.674,256.599 173.674,252.3C173.674,248.002 175.381,244.618 178.796,242.147C182.21,239.677 187.312,238.441 194.101,238.441Z" clip-rule="nonzero"></path>
            </clipPath>
            <g clip-path="url(#_clip18)">
                <g transform="matrix(0.24,-0,-0,0.24,0,0)">
                    <use xlink:href="#_Image8" x="723.642" y="993.505" width="163px" height="179px"></use>
                </g>
            </g>
            <clipPath id="_clip19">
                <path d="M238.27,258.266L238.27,261.58C239.073,261.66 240.479,261.701 242.488,261.701C246.264,261.701 249.638,261.58 252.611,261.339L254.057,261.219L254.057,279.235C250.16,280.601 244.627,281.284 237.456,281.284C230.286,281.284 224.802,279.456 221.006,275.801C217.21,272.145 215.312,266.712 215.312,259.501C215.312,252.29 217.18,246.978 220.916,243.563C224.652,240.149 230.215,238.441 237.607,238.441C240.7,238.441 243.623,238.622 246.374,238.984C249.126,239.345 251.084,239.707 252.249,240.068L254.057,240.611L254.057,259.17C250.562,258.567 245.3,258.266 238.27,258.266Z" clip-rule="nonzero"></path>
            </clipPath>
            <g clip-path="url(#_clip19)">
                <g transform="matrix(0.24,-0,-0,0.24,0,0)">
                    <use xlink:href="#_Image10" x="897.132" y="993.505" width="162px" height="179px"></use>
                </g>
            </g>
            <clipPath id="_clip20">
                <path d="M277.437,238.441L282.438,238.441C289.669,238.441 294.932,240.149 298.226,243.563C301.52,246.978 303.167,252.341 303.167,259.652C303.167,266.963 301.51,272.396 298.195,275.951C294.881,279.507 289.629,281.284 282.438,281.284L277.437,281.284C270.246,281.284 264.984,279.507 261.649,275.951C258.315,272.396 256.648,266.963 256.648,259.652C256.648,252.341 258.305,246.978 261.619,243.563C264.933,240.149 270.206,238.441 277.437,238.441ZM278.22,258.266L278.22,265.256C278.22,265.778 278.371,266.2 278.672,266.521C278.973,266.843 279.375,267.003 279.877,267.003C280.379,267.003 280.801,266.843 281.143,266.521C281.484,266.2 281.655,265.778 281.655,265.256L281.655,258.266C281.655,257.784 281.484,257.382 281.143,257.061C280.801,256.739 280.379,256.579 279.877,256.579C279.375,256.579 278.973,256.739 278.672,257.061C278.371,257.382 278.22,257.784 278.22,258.266Z" clip-rule="nonzero"></path>
            </clipPath>
            <g clip-path="url(#_clip20)">
                <g transform="matrix(0.24,-0,-0,0.24,0,0)">
                    <use xlink:href="#_Image12" x="1069.37" y="993.505" width="194px" height="179px"></use>
                </g>
            </g>
            <clipPath id="_clip21">
                <path d="M326.546,268.51L326.546,280.682L305.818,280.682L305.818,239.044L327.691,239.044C334.882,239.044 340.165,240.219 343.539,242.569C346.913,244.919 348.601,248.986 348.601,254.771C348.601,259.15 347.175,262.383 344.322,264.472C346.733,268.771 348.56,274.174 349.806,280.682L329.981,280.682C329.66,276.624 329.097,273.049 328.294,269.956L327.872,268.51L326.546,268.51ZM326.546,263.629L328.294,263.629C328.776,263.629 329.178,263.468 329.499,263.147C329.82,262.825 329.981,262.404 329.981,261.881L329.981,258.266C329.981,257.744 329.82,257.332 329.499,257.031C329.178,256.729 328.776,256.579 328.294,256.579L326.546,256.579L326.546,263.629Z" clip-rule="nonzero"></path>
            </clipPath>
            <g clip-path="url(#_clip21)">
                <g transform="matrix(0.24,-0,-0,0.24,0,0)">
                    <use xlink:href="#_Image14" x="1274.24" y="996.016" width="184px" height="174px"></use>
                </g>
            </g>
            <clipPath id="_clip22">
                <path d="M352.457,239.044L374.21,239.044C380.919,239.044 386.05,240.651 389.606,243.864C393.161,247.078 394.938,252.321 394.938,259.592C394.938,273.652 387.748,280.682 373.366,280.682L352.457,280.682L352.457,239.044ZM372.703,256.579L372.703,267.003L374.391,267.003C374.873,267.003 375.285,266.843 375.626,266.521C375.967,266.2 376.138,265.778 376.138,265.256L376.138,258.266C376.138,257.784 375.967,257.382 375.626,257.061C375.285,256.739 374.873,256.579 374.391,256.579L372.703,256.579Z" clip-rule="nonzero"></path>
            </clipPath>
            <g clip-path="url(#_clip22)">
                <g transform="matrix(0.24,-0,-0,0.24,0,0)">
                    <use xlink:href="#_Image4" x="1468.57" y="996.016" width="178px" height="174px"></use>
                </g>
            </g>
        </g>
        <g transform="matrix(1,0,0,1,0,7.2)">
            <path d="M103.535,239.044L125.287,239.044C131.996,239.044 137.128,240.651 140.683,243.864C144.238,247.078 146.016,252.321 146.016,259.592C146.016,273.652 138.825,280.682 124.444,280.682L103.535,280.682L103.535,239.044ZM123.781,256.579L123.781,267.003L125.468,267.003C125.95,267.003 126.362,266.843 126.703,266.521C127.045,266.2 127.216,265.778 127.216,265.256L127.216,258.266C127.216,257.784 127.045,257.382 126.703,257.061C126.362,256.739 125.95,256.579 125.468,256.579L123.781,256.579ZM149.451,280.682L149.451,239.044L170.179,239.044L170.179,280.682L149.451,280.682ZM194.101,238.441C197.395,238.441 200.478,238.652 203.351,239.074C206.223,239.496 208.282,239.928 209.527,240.37L211.335,241.032L211.335,258.266C208.081,256.78 203.622,256.036 197.958,256.036L197.958,257.603C203.18,258.005 206.936,259.049 209.226,260.736C211.515,262.424 212.66,264.975 212.66,268.389C212.66,272.487 210.993,275.66 207.659,277.91C204.325,280.159 199.183,281.284 192.233,281.284C188.256,281.284 184.741,281.053 181.688,280.591C178.635,280.129 176.586,279.677 175.542,279.235L173.915,278.512L173.915,263.508C174.277,263.669 174.819,263.89 175.542,264.171C176.265,264.452 177.882,264.814 180.393,265.256C182.903,265.698 185.605,265.919 188.497,265.919L188.497,264.472C183.596,264.111 179.901,263.066 177.41,261.339C174.919,259.612 173.674,256.599 173.674,252.3C173.674,248.002 175.381,244.618 178.796,242.147C182.21,239.677 187.312,238.441 194.101,238.441ZM238.27,258.266L238.27,261.58C239.073,261.66 240.479,261.701 242.488,261.701C246.264,261.701 249.638,261.58 252.611,261.339L254.057,261.219L254.057,279.235C250.16,280.601 244.627,281.284 237.456,281.284C230.286,281.284 224.802,279.456 221.006,275.801C217.21,272.145 215.312,266.712 215.312,259.501C215.312,252.29 217.18,246.978 220.916,243.563C224.652,240.149 230.215,238.441 237.607,238.441C240.7,238.441 243.623,238.622 246.374,238.984C249.126,239.345 251.084,239.707 252.249,240.068L254.057,240.611L254.057,259.17C250.562,258.567 245.3,258.266 238.27,258.266ZM277.437,238.441L282.438,238.441C289.669,238.441 294.932,240.149 298.226,243.563C301.52,246.978 303.167,252.341 303.167,259.652C303.167,266.963 301.51,272.396 298.195,275.951C294.881,279.507 289.629,281.284 282.438,281.284L277.437,281.284C270.246,281.284 264.984,279.507 261.649,275.951C258.315,272.396 256.648,266.963 256.648,259.652C256.648,252.341 258.305,246.978 261.619,243.563C264.933,240.149 270.206,238.441 277.437,238.441ZM278.22,258.266L278.22,265.256C278.22,265.778 278.371,266.2 278.672,266.521C278.973,266.843 279.375,267.003 279.877,267.003C280.379,267.003 280.801,266.843 281.143,266.521C281.484,266.2 281.655,265.778 281.655,265.256L281.655,258.266C281.655,257.784 281.484,257.382 281.143,257.061C280.801,256.739 280.379,256.579 279.877,256.579C279.375,256.579 278.973,256.739 278.672,257.061C278.371,257.382 278.22,257.784 278.22,258.266ZM326.546,268.51L326.546,280.682L305.818,280.682L305.818,239.044L327.691,239.044C334.882,239.044 340.165,240.219 343.539,242.569C346.913,244.919 348.601,248.986 348.601,254.771C348.601,259.15 347.175,262.383 344.322,264.472C346.733,268.771 348.56,274.174 349.806,280.682L329.981,280.682C329.66,276.624 329.097,273.049 328.294,269.956L327.872,268.51L326.546,268.51ZM326.546,263.629L328.294,263.629C328.776,263.629 329.178,263.468 329.499,263.147C329.82,262.825 329.981,262.404 329.981,261.881L329.981,258.266C329.981,257.744 329.82,257.332 329.499,257.031C329.178,256.729 328.776,256.579 328.294,256.579L326.546,256.579L326.546,263.629ZM352.457,239.044L374.21,239.044C380.919,239.044 386.05,240.651 389.606,243.864C393.161,247.078 394.938,252.321 394.938,259.592C394.938,273.652 387.748,280.682 373.366,280.682L352.457,280.682L352.457,239.044ZM372.703,256.579L372.703,267.003L374.391,267.003C374.873,267.003 375.285,266.843 375.626,266.521C375.967,266.2 376.138,265.778 376.138,265.256L376.138,258.266C376.138,257.784 375.967,257.382 375.626,257.061C375.285,256.739 374.873,256.579 374.391,256.579L372.703,256.579Z" style="fill:rgb(7,4,146);"></path>
        </g>
        <clipPath id="_clip23">
            <path d="M103.535,239.044L125.287,239.044C131.996,239.044 137.128,240.651 140.683,243.864C144.238,247.078 146.016,252.321 146.016,259.592C146.016,273.652 138.825,280.682 124.444,280.682L103.535,280.682L103.535,239.044ZM123.781,256.579L123.781,267.003L125.468,267.003C125.95,267.003 126.362,266.843 126.703,266.521C127.045,266.2 127.216,265.778 127.216,265.256L127.216,258.266C127.216,257.784 127.045,257.382 126.703,257.061C126.362,256.739 125.95,256.579 125.468,256.579L123.781,256.579ZM149.451,280.682L149.451,239.044L170.179,239.044L170.179,280.682L149.451,280.682ZM194.101,238.441C197.395,238.441 200.478,238.652 203.351,239.074C206.223,239.496 208.282,239.928 209.527,240.37L211.335,241.032L211.335,258.266C208.081,256.78 203.622,256.036 197.958,256.036L197.958,257.603C203.18,258.005 206.936,259.049 209.226,260.736C211.515,262.424 212.66,264.975 212.66,268.389C212.66,272.487 210.993,275.66 207.659,277.91C204.325,280.159 199.183,281.284 192.233,281.284C188.256,281.284 184.741,281.053 181.688,280.591C178.635,280.129 176.586,279.677 175.542,279.235L173.915,278.512L173.915,263.508C174.277,263.669 174.819,263.89 175.542,264.171C176.265,264.452 177.882,264.814 180.393,265.256C182.903,265.698 185.605,265.919 188.497,265.919L188.497,264.472C183.596,264.111 179.901,263.066 177.41,261.339C174.919,259.612 173.674,256.599 173.674,252.3C173.674,248.002 175.381,244.618 178.796,242.147C182.21,239.677 187.312,238.441 194.101,238.441ZM238.27,258.266L238.27,261.58C239.073,261.66 240.479,261.701 242.488,261.701C246.264,261.701 249.638,261.58 252.611,261.339L254.057,261.219L254.057,279.235C250.16,280.601 244.627,281.284 237.456,281.284C230.286,281.284 224.802,279.456 221.006,275.801C217.21,272.145 215.312,266.712 215.312,259.501C215.312,252.29 217.18,246.978 220.916,243.563C224.652,240.149 230.215,238.441 237.607,238.441C240.7,238.441 243.623,238.622 246.374,238.984C249.126,239.345 251.084,239.707 252.249,240.068L254.057,240.611L254.057,259.17C250.562,258.567 245.3,258.266 238.27,258.266ZM277.437,238.441L282.438,238.441C289.669,238.441 294.932,240.149 298.226,243.563C301.52,246.978 303.167,252.341 303.167,259.652C303.167,266.963 301.51,272.396 298.195,275.951C294.881,279.507 289.629,281.284 282.438,281.284L277.437,281.284C270.246,281.284 264.984,279.507 261.649,275.951C258.315,272.396 256.648,266.963 256.648,259.652C256.648,252.341 258.305,246.978 261.619,243.563C264.933,240.149 270.206,238.441 277.437,238.441ZM278.22,258.266L278.22,265.256C278.22,265.778 278.371,266.2 278.672,266.521C278.973,266.843 279.375,267.003 279.877,267.003C280.379,267.003 280.801,266.843 281.143,266.521C281.484,266.2 281.655,265.778 281.655,265.256L281.655,258.266C281.655,257.784 281.484,257.382 281.143,257.061C280.801,256.739 280.379,256.579 279.877,256.579C279.375,256.579 278.973,256.739 278.672,257.061C278.371,257.382 278.22,257.784 278.22,258.266ZM326.546,268.51L326.546,280.682L305.818,280.682L305.818,239.044L327.691,239.044C334.882,239.044 340.165,240.219 343.539,242.569C346.913,244.919 348.601,248.986 348.601,254.771C348.601,259.15 347.175,262.383 344.322,264.472C346.733,268.771 348.56,274.174 349.806,280.682L329.981,280.682C329.66,276.624 329.097,273.049 328.294,269.956L327.872,268.51L326.546,268.51ZM326.546,263.629L328.294,263.629C328.776,263.629 329.178,263.468 329.499,263.147C329.82,262.825 329.981,262.404 329.981,261.881L329.981,258.266C329.981,257.744 329.82,257.332 329.499,257.031C329.178,256.729 328.776,256.579 328.294,256.579L326.546,256.579L326.546,263.629ZM352.457,239.044L374.21,239.044C380.919,239.044 386.05,240.651 389.606,243.864C393.161,247.078 394.938,252.321 394.938,259.592C394.938,273.652 387.748,280.682 373.366,280.682L352.457,280.682L352.457,239.044ZM372.703,256.579L372.703,267.003L374.391,267.003C374.873,267.003 375.285,266.843 375.626,266.521C375.967,266.2 376.138,265.778 376.138,265.256L376.138,258.266C376.138,257.784 375.967,257.382 375.626,257.061C375.285,256.739 374.873,256.579 374.391,256.579L372.703,256.579Z"></path>
        </clipPath>
        <g clip-path="url(#_clip23)">
            <g transform="matrix(0.24,-0,-0,0.24,0,0)">
                <use xlink:href="#_Image24" x="431.394" y="993.505" width="1215px" height="179px"></use>
            </g>
        </g>
        <g transform="matrix(0.222961,0,0,0.222961,33.3613,19.9211)">
            <path d="M1441.66,992.292L1526.63,992.292C1553.83,992.292 1574.6,998.954 1589.01,1011.99C1603.48,1025.06 1610.94,1046.31 1610.94,1075.89C1610.94,1104.44 1603.47,1125.8 1588.87,1140.07C1574.3,1154.32 1552.49,1161.62 1523.34,1161.62L1441.66,1161.62C1439.82,1161.62 1438.32,1160.12 1438.32,1158.27L1438.32,995.636C1438.32,993.789 1439.82,992.292 1441.66,992.292ZM1445.01,998.98L1445.01,1154.93L1523.34,1154.93C1550.36,1154.93 1570.68,1148.5 1584.19,1135.29C1597.68,1122.1 1604.25,1102.27 1604.25,1075.89C1604.25,1048.68 1597.83,1028.97 1584.53,1016.95C1571.17,1004.87 1551.84,998.98 1526.63,998.98L1445.01,998.98ZM1520.75,1060.78L1527.34,1060.78C1530.12,1060.78 1532.49,1061.72 1534.45,1063.58C1536.48,1065.48 1537.51,1067.86 1537.51,1070.72L1537.51,1098.02C1537.51,1101.07 1536.45,1103.52 1534.45,1105.4C1532.49,1107.25 1530.12,1108.19 1527.34,1108.19L1520.75,1108.19C1518.9,1108.19 1517.4,1106.69 1517.4,1104.85L1517.4,1064.13C1517.4,1062.28 1518.9,1060.78 1520.75,1060.78ZM1524.09,1067.47L1524.09,1101.5L1527.34,1101.5C1528.33,1101.5 1529.17,1101.18 1529.87,1100.53C1530.54,1099.9 1530.82,1099.05 1530.82,1098.02L1530.82,1070.72C1530.82,1069.81 1530.51,1069.05 1529.87,1068.44C1529.17,1067.79 1528.33,1067.47 1527.34,1067.47L1524.09,1067.47ZM1321.59,1115.59L1321.59,1157.48C1321.59,1159.33 1320.09,1160.82 1318.25,1160.82L1237.28,1160.82C1235.43,1160.82 1233.94,1159.33 1233.94,1157.48L1233.94,994.841C1233.94,992.994 1235.43,991.497 1237.28,991.497L1322.72,991.497C1351.69,991.497 1372.93,996.398 1386.53,1005.87C1400.5,1015.59 1407.73,1032.33 1407.73,1056.27C1407.73,1073.4 1402.4,1086.29 1391.97,1095.05C1400.86,1111.68 1407.68,1132.28 1412.38,1156.85C1412.57,1157.83 1412.31,1158.84 1411.67,1159.61C1411.04,1160.38 1410.09,1160.82 1409.1,1160.82L1331.66,1160.82C1329.92,1160.82 1328.47,1159.48 1328.33,1157.74C1327.09,1142.13 1324.93,1128.38 1321.85,1116.47L1321.59,1115.59ZM1318.25,1106.59L1323.42,1106.59C1324.91,1106.59 1326.22,1107.57 1326.63,1109L1328.28,1114.65L1328.31,1114.74C1331.28,1126.2 1333.43,1139.33 1334.74,1154.13L1405.03,1154.13C1400.27,1130.89 1393.53,1111.44 1384.76,1095.8C1383.93,1094.33 1384.34,1092.47 1385.7,1091.47C1396.03,1083.9 1401.05,1072.13 1401.05,1056.27C1401.05,1035.03 1395.1,1019.98 1382.71,1011.35C1369.94,1002.46 1349.92,998.185 1322.72,998.185L1240.62,998.185L1240.62,1154.13L1314.9,1154.13L1314.9,1109.93C1314.9,1108.09 1316.4,1106.59 1318.25,1106.59ZM1314.9,1090.87L1314.9,1063.33C1314.9,1061.49 1316.4,1059.99 1318.25,1059.99L1325.07,1059.99C1327.88,1059.99 1330.2,1060.91 1332.07,1062.66C1333.96,1064.44 1335.01,1066.84 1335.01,1069.92L1335.01,1084.04C1335.01,1087.07 1334.01,1089.49 1332.14,1091.35C1330.25,1093.24 1327.9,1094.21 1325.07,1094.21L1318.25,1094.21C1316.4,1094.21 1314.9,1092.72 1314.9,1090.87ZM1321.59,1087.53L1325.07,1087.53C1326,1087.53 1326.79,1087.24 1327.41,1086.62C1328.06,1085.97 1328.32,1085.1 1328.32,1084.04L1328.32,1069.92C1328.32,1068.93 1328.1,1068.11 1327.49,1067.54C1326.85,1066.93 1326.03,1066.68 1325.07,1066.68L1321.59,1066.68L1321.59,1087.53ZM1096.13,989.939L1115.67,989.939C1145.05,989.939 1166.36,997.094 1179.74,1010.97C1193.1,1024.81 1199.98,1046.49 1199.98,1076.13C1199.98,1105.74 1193.08,1127.68 1179.66,1142.08C1166.19,1156.53 1144.9,1163.97 1115.67,1163.97L1096.13,1163.97C1066.9,1163.97 1045.58,1156.54 1032.03,1142.08C1018.52,1127.69 1011.59,1105.74 1011.59,1076.13C1011.59,1046.49 1018.51,1024.81 1031.95,1010.96C1045.41,997.089 1066.76,989.939 1096.13,989.939ZM1096.13,996.626C1069.02,996.626 1049.18,1002.81 1036.75,1015.62C1024.3,1028.45 1018.27,1048.66 1018.27,1076.13C1018.27,1103.64 1024.36,1124.13 1036.91,1137.51C1049.4,1150.83 1069.19,1157.28 1096.13,1157.28L1115.67,1157.28C1142.61,1157.28 1162.35,1150.84 1174.77,1137.52C1187.24,1124.14 1193.29,1103.64 1193.29,1076.13C1193.29,1048.66 1187.31,1028.44 1174.93,1015.61C1162.58,1002.81 1142.78,996.626 1115.67,996.626L1096.13,996.626ZM1095.85,1070.72C1095.85,1067.91 1096.77,1065.59 1098.52,1063.72C1100.31,1061.81 1102.67,1060.78 1105.66,1060.78C1108.54,1060.78 1110.94,1061.74 1112.9,1063.58C1114.92,1065.48 1115.95,1067.86 1115.95,1070.72L1115.95,1098.02C1115.95,1101.07 1114.9,1103.52 1112.9,1105.4C1110.94,1107.24 1108.54,1108.19 1105.66,1108.19C1102.67,1108.19 1100.31,1107.16 1098.52,1105.25C1096.79,1103.41 1095.85,1101.02 1095.85,1098.02L1095.85,1070.72ZM1102.54,1070.72L1102.54,1098.02C1102.54,1099.11 1102.77,1100.01 1103.4,1100.68C1103.96,1101.27 1104.73,1101.5 1105.66,1101.5C1106.71,1101.5 1107.6,1101.2 1108.32,1100.53C1108.99,1099.9 1109.26,1099.05 1109.26,1098.02L1109.26,1070.72C1109.26,1069.81 1108.96,1069.05 1108.32,1068.44C1107.6,1067.78 1106.71,1067.47 1105.66,1067.47C1104.73,1067.47 1103.96,1067.7 1103.4,1068.3C1102.8,1068.94 1102.54,1069.76 1102.54,1070.72ZM920.743,1074.07L920.743,1080.55C923.895,1080.71 928.273,1080.79 933.875,1080.79C948.522,1080.79 961.612,1080.32 973.143,1079.39L978.787,1078.92C979.719,1078.84 980.641,1079.16 981.329,1079.79C982.017,1080.42 982.409,1081.32 982.409,1082.25L982.409,1152.62C982.409,1154.05 981.511,1155.31 980.171,1155.78C964.69,1161.21 942.711,1163.97 914.222,1163.97C885.181,1163.97 863.022,1156.42 847.648,1141.62C832.246,1126.79 824.382,1104.8 824.382,1075.54C824.382,1046.23 832.171,1024.7 847.358,1010.82C862.468,997.011 884.917,989.939 914.81,989.939C927.046,989.939 938.606,990.655 949.491,992.085C960.488,993.53 968.314,994.993 972.977,996.438L980.026,998.553C981.44,998.977 982.409,1000.28 982.409,1001.75L982.409,1074.25C982.409,1075.23 981.973,1076.17 981.219,1076.81C980.465,1077.44 979.469,1077.71 978.497,1077.54C965.532,1075.31 946.28,1074.16 920.743,1074.07ZM917.399,1067.37C942.604,1067.37 962.044,1068.37 975.721,1070.34L975.721,1004.24L971.043,1002.84L971.013,1002.83C966.573,1001.45 959.107,1000.09 948.62,998.716C938.009,997.321 926.739,996.626 914.81,996.626C886.96,996.626 865.946,1002.89 851.87,1015.76C837.872,1028.55 831.069,1048.53 831.069,1075.54C831.069,1102.62 838.033,1123.07 852.287,1136.8C866.568,1150.55 887.246,1157.28 914.222,1157.28C940.405,1157.28 960.908,1154.96 975.721,1150.22L975.721,1085.88L973.694,1086.05L973.686,1086.05C961.996,1087 948.725,1087.48 933.875,1087.48C925.871,1087.48 920.268,1087.31 917.067,1086.99C915.357,1086.82 914.056,1085.38 914.056,1083.66L914.056,1070.72C914.056,1068.87 915.553,1067.37 917.399,1067.37ZM744.091,1064.67C761.661,1066.67 774.535,1070.81 782.772,1076.88C792.538,1084.08 797.548,1094.9 797.548,1109.46C797.548,1126.66 790.535,1139.98 776.539,1149.42C763.104,1158.49 742.419,1163.17 714.415,1163.17C698.692,1163.17 684.796,1162.26 672.726,1160.43C660.397,1158.57 652.134,1156.69 647.916,1154.91L647.861,1154.88L641.506,1152.06C640.299,1151.52 639.521,1150.33 639.521,1149.01L639.521,1090.4C639.521,1089.27 640.093,1088.21 641.042,1087.6C641.991,1086.98 643.188,1086.88 644.222,1087.34C645.602,1087.96 647.672,1088.8 650.431,1089.87C653.16,1090.93 659.27,1092.26 668.746,1093.93C674.507,1094.95 680.531,1095.65 686.817,1096.06C673.154,1093.93 662.428,1090.1 654.61,1084.67C644.095,1077.38 638.579,1064.77 638.579,1046.62C638.579,1028.68 645.718,1014.56 659.969,1004.25C673.752,994.281 694.308,989.144 721.712,989.144C734.751,989.144 746.956,989.981 758.326,991.651C769.841,993.342 778.09,995.096 783.083,996.868L783.116,996.88L790.177,999.469C791.494,999.952 792.37,1001.21 792.37,1002.61L792.37,1069.92C792.37,1071.06 791.791,1072.12 790.833,1072.74C789.876,1073.35 788.672,1073.44 787.637,1072.96C776.704,1067.97 762.184,1065.24 744.091,1064.67ZM721.712,995.831C696.079,995.831 676.781,1000.34 663.889,1009.67C651.465,1018.66 645.266,1030.98 645.266,1046.62C645.266,1062.05 649.479,1072.98 658.421,1079.18C667.77,1085.66 681.673,1089.47 700.069,1090.83C701.815,1090.96 703.166,1092.41 703.166,1094.16L703.166,1099.81C703.166,1101.66 701.669,1103.16 699.823,1103.16C688.318,1103.16 677.573,1102.28 667.586,1100.52C657.448,1098.73 650.927,1097.24 648.007,1096.1C647.373,1095.86 646.773,1095.62 646.208,1095.4L646.208,1146.83L650.56,1148.77C654.513,1150.43 662.242,1152.08 673.727,1153.82C685.507,1155.6 699.07,1156.49 714.415,1156.49C740.703,1156.49 760.187,1152.39 772.799,1143.88C784.849,1135.75 790.86,1124.27 790.86,1109.46C790.86,1097.35 786.926,1088.25 778.805,1082.26C770.22,1075.94 756.097,1072.17 736.518,1070.67C734.776,1070.53 733.431,1069.08 733.431,1067.33L733.431,1061.21C733.431,1059.37 734.928,1057.87 736.775,1057.87C756.859,1057.87 773.156,1060.25 785.682,1064.93L785.682,1004.94L780.833,1003.17C776.095,1001.49 768.266,999.869 757.354,998.267C746.286,996.641 734.405,995.831 721.712,995.831ZM328.841,992.292L413.808,992.292C441.009,992.292 461.771,998.954 476.186,1011.99C490.651,1025.06 498.117,1046.31 498.117,1075.89C498.117,1104.44 490.646,1125.8 476.046,1140.07C461.47,1154.32 439.664,1161.62 410.513,1161.62L328.841,1161.62C326.995,1161.62 325.498,1160.12 325.498,1158.27L325.498,995.636C325.498,993.789 326.995,992.292 328.841,992.292ZM332.185,998.98L332.185,1154.93L410.513,1154.93C437.536,1154.93 457.859,1148.5 471.371,1135.29C484.858,1122.1 491.43,1102.27 491.43,1075.89C491.43,1048.68 485.01,1028.97 471.701,1016.95C458.343,1004.87 439.015,998.98 413.808,998.98L332.185,998.98ZM407.924,1060.78L414.514,1060.78C417.293,1060.78 419.662,1061.72 421.631,1063.58C423.656,1065.48 424.683,1067.86 424.683,1070.72L424.683,1098.02C424.683,1101.07 423.628,1103.52 421.631,1105.4C419.662,1107.25 417.293,1108.19 414.514,1108.19L407.924,1108.19C406.077,1108.19 404.58,1106.69 404.58,1104.85L404.58,1064.13C404.58,1062.28 406.077,1060.78 407.924,1060.78ZM411.267,1067.47L411.267,1101.5L414.514,1101.5C415.501,1101.5 416.348,1101.18 417.047,1100.53C417.718,1099.9 417.996,1099.05 417.996,1098.02L417.996,1070.72C417.996,1069.81 417.69,1069.05 417.047,1068.44C416.348,1067.79 415.501,1067.47 414.514,1067.47L411.267,1067.47ZM527.979,1158.27L527.979,995.636C527.979,993.789 529.335,992.292 531.008,992.292L604.353,992.292C606.026,992.292 607.382,993.789 607.382,995.636L607.382,1158.27C607.382,1160.12 606.026,1161.62 604.353,1161.62L531.008,1161.62C529.335,1161.62 527.979,1160.12 527.979,1158.27ZM534.037,1154.93L601.324,1154.93L601.324,998.98L534.037,998.98L534.037,1154.93Z" style="fill:rgb(255,114,255);stroke:rgb(255,114,255);stroke-width:20.08px;"></path>
        </g>
        <g transform="matrix(0.222961,0,0,0.222961,33.3613,19.9211)">
            <path d="M1441.66,992.292L1526.63,992.292C1553.83,992.292 1574.6,998.954 1589.01,1011.99C1603.48,1025.06 1610.94,1046.31 1610.94,1075.89C1610.94,1104.44 1603.47,1125.8 1588.87,1140.07C1574.3,1154.32 1552.49,1161.62 1523.34,1161.62L1441.66,1161.62C1439.82,1161.62 1438.32,1160.12 1438.32,1158.27L1438.32,995.636C1438.32,993.789 1439.82,992.292 1441.66,992.292ZM1445.01,998.98L1445.01,1154.93L1523.34,1154.93C1550.36,1154.93 1570.68,1148.5 1584.19,1135.29C1597.68,1122.1 1604.25,1102.27 1604.25,1075.89C1604.25,1048.68 1597.83,1028.97 1584.53,1016.95C1571.17,1004.87 1551.84,998.98 1526.63,998.98L1445.01,998.98ZM1520.75,1060.78L1527.34,1060.78C1530.12,1060.78 1532.49,1061.72 1534.45,1063.58C1536.48,1065.48 1537.51,1067.86 1537.51,1070.72L1537.51,1098.02C1537.51,1101.07 1536.45,1103.52 1534.45,1105.4C1532.49,1107.25 1530.12,1108.19 1527.34,1108.19L1520.75,1108.19C1518.9,1108.19 1517.4,1106.69 1517.4,1104.85L1517.4,1064.13C1517.4,1062.28 1518.9,1060.78 1520.75,1060.78ZM1524.09,1067.47L1524.09,1101.5L1527.34,1101.5C1528.33,1101.5 1529.17,1101.18 1529.87,1100.53C1530.54,1099.9 1530.82,1099.05 1530.82,1098.02L1530.82,1070.72C1530.82,1069.81 1530.51,1069.05 1529.87,1068.44C1529.17,1067.79 1528.33,1067.47 1527.34,1067.47L1524.09,1067.47ZM1321.59,1115.59L1321.59,1157.48C1321.59,1159.33 1320.09,1160.82 1318.25,1160.82L1237.28,1160.82C1235.43,1160.82 1233.94,1159.33 1233.94,1157.48L1233.94,994.841C1233.94,992.994 1235.43,991.497 1237.28,991.497L1322.72,991.497C1351.69,991.497 1372.93,996.398 1386.53,1005.87C1400.5,1015.59 1407.73,1032.33 1407.73,1056.27C1407.73,1073.4 1402.4,1086.29 1391.97,1095.05C1400.86,1111.68 1407.68,1132.28 1412.38,1156.85C1412.57,1157.83 1412.31,1158.84 1411.67,1159.61C1411.04,1160.38 1410.09,1160.82 1409.1,1160.82L1331.66,1160.82C1329.92,1160.82 1328.47,1159.48 1328.33,1157.74C1327.09,1142.13 1324.93,1128.38 1321.85,1116.47L1321.59,1115.59ZM1318.25,1106.59L1323.42,1106.59C1324.91,1106.59 1326.22,1107.57 1326.63,1109L1328.28,1114.65L1328.31,1114.74C1331.28,1126.2 1333.43,1139.33 1334.74,1154.13L1405.03,1154.13C1400.27,1130.89 1393.53,1111.44 1384.76,1095.8C1383.93,1094.33 1384.34,1092.47 1385.7,1091.47C1396.03,1083.9 1401.05,1072.13 1401.05,1056.27C1401.05,1035.03 1395.1,1019.98 1382.71,1011.35C1369.94,1002.46 1349.92,998.185 1322.72,998.185L1240.62,998.185L1240.62,1154.13L1314.9,1154.13L1314.9,1109.93C1314.9,1108.09 1316.4,1106.59 1318.25,1106.59ZM1314.9,1090.87L1314.9,1063.33C1314.9,1061.49 1316.4,1059.99 1318.25,1059.99L1325.07,1059.99C1327.88,1059.99 1330.2,1060.91 1332.07,1062.66C1333.96,1064.44 1335.01,1066.84 1335.01,1069.92L1335.01,1084.04C1335.01,1087.07 1334.01,1089.49 1332.14,1091.35C1330.25,1093.24 1327.9,1094.21 1325.07,1094.21L1318.25,1094.21C1316.4,1094.21 1314.9,1092.72 1314.9,1090.87ZM1321.59,1087.53L1325.07,1087.53C1326,1087.53 1326.79,1087.24 1327.41,1086.62C1328.06,1085.97 1328.32,1085.1 1328.32,1084.04L1328.32,1069.92C1328.32,1068.93 1328.1,1068.11 1327.49,1067.54C1326.85,1066.93 1326.03,1066.68 1325.07,1066.68L1321.59,1066.68L1321.59,1087.53ZM1096.13,989.939L1115.67,989.939C1145.05,989.939 1166.36,997.094 1179.74,1010.97C1193.1,1024.81 1199.98,1046.49 1199.98,1076.13C1199.98,1105.74 1193.08,1127.68 1179.66,1142.08C1166.19,1156.53 1144.9,1163.97 1115.67,1163.97L1096.13,1163.97C1066.9,1163.97 1045.58,1156.54 1032.03,1142.08C1018.52,1127.69 1011.59,1105.74 1011.59,1076.13C1011.59,1046.49 1018.51,1024.81 1031.95,1010.96C1045.41,997.089 1066.76,989.939 1096.13,989.939ZM1096.13,996.626C1069.02,996.626 1049.18,1002.81 1036.75,1015.62C1024.3,1028.45 1018.27,1048.66 1018.27,1076.13C1018.27,1103.64 1024.36,1124.13 1036.91,1137.51C1049.4,1150.83 1069.19,1157.28 1096.13,1157.28L1115.67,1157.28C1142.61,1157.28 1162.35,1150.84 1174.77,1137.52C1187.24,1124.14 1193.29,1103.64 1193.29,1076.13C1193.29,1048.66 1187.31,1028.44 1174.93,1015.61C1162.58,1002.81 1142.78,996.626 1115.67,996.626L1096.13,996.626ZM1095.85,1070.72C1095.85,1067.91 1096.77,1065.59 1098.52,1063.72C1100.31,1061.81 1102.67,1060.78 1105.66,1060.78C1108.54,1060.78 1110.94,1061.74 1112.9,1063.58C1114.92,1065.48 1115.95,1067.86 1115.95,1070.72L1115.95,1098.02C1115.95,1101.07 1114.9,1103.52 1112.9,1105.4C1110.94,1107.24 1108.54,1108.19 1105.66,1108.19C1102.67,1108.19 1100.31,1107.16 1098.52,1105.25C1096.79,1103.41 1095.85,1101.02 1095.85,1098.02L1095.85,1070.72ZM1102.54,1070.72L1102.54,1098.02C1102.54,1099.11 1102.77,1100.01 1103.4,1100.68C1103.96,1101.27 1104.73,1101.5 1105.66,1101.5C1106.71,1101.5 1107.6,1101.2 1108.32,1100.53C1108.99,1099.9 1109.26,1099.05 1109.26,1098.02L1109.26,1070.72C1109.26,1069.81 1108.96,1069.05 1108.32,1068.44C1107.6,1067.78 1106.71,1067.47 1105.66,1067.47C1104.73,1067.47 1103.96,1067.7 1103.4,1068.3C1102.8,1068.94 1102.54,1069.76 1102.54,1070.72ZM920.743,1074.07L920.743,1080.55C923.895,1080.71 928.273,1080.79 933.875,1080.79C948.522,1080.79 961.612,1080.32 973.143,1079.39L978.787,1078.92C979.719,1078.84 980.641,1079.16 981.329,1079.79C982.017,1080.42 982.409,1081.32 982.409,1082.25L982.409,1152.62C982.409,1154.05 981.511,1155.31 980.171,1155.78C964.69,1161.21 942.711,1163.97 914.222,1163.97C885.181,1163.97 863.022,1156.42 847.648,1141.62C832.246,1126.79 824.382,1104.8 824.382,1075.54C824.382,1046.23 832.171,1024.7 847.358,1010.82C862.468,997.011 884.917,989.939 914.81,989.939C927.046,989.939 938.606,990.655 949.491,992.085C960.488,993.53 968.314,994.993 972.977,996.438L980.026,998.553C981.44,998.977 982.409,1000.28 982.409,1001.75L982.409,1074.25C982.409,1075.23 981.973,1076.17 981.219,1076.81C980.465,1077.44 979.469,1077.71 978.497,1077.54C965.532,1075.31 946.28,1074.16 920.743,1074.07ZM917.399,1067.37C942.604,1067.37 962.044,1068.37 975.721,1070.34L975.721,1004.24L971.043,1002.84L971.013,1002.83C966.573,1001.45 959.107,1000.09 948.62,998.716C938.009,997.321 926.739,996.626 914.81,996.626C886.96,996.626 865.946,1002.89 851.87,1015.76C837.872,1028.55 831.069,1048.53 831.069,1075.54C831.069,1102.62 838.033,1123.07 852.287,1136.8C866.568,1150.55 887.246,1157.28 914.222,1157.28C940.405,1157.28 960.908,1154.96 975.721,1150.22L975.721,1085.88L973.694,1086.05L973.686,1086.05C961.996,1087 948.725,1087.48 933.875,1087.48C925.871,1087.48 920.268,1087.31 917.067,1086.99C915.357,1086.82 914.056,1085.38 914.056,1083.66L914.056,1070.72C914.056,1068.87 915.553,1067.37 917.399,1067.37ZM744.091,1064.67C761.661,1066.67 774.535,1070.81 782.772,1076.88C792.538,1084.08 797.548,1094.9 797.548,1109.46C797.548,1126.66 790.535,1139.98 776.539,1149.42C763.104,1158.49 742.419,1163.17 714.415,1163.17C698.692,1163.17 684.796,1162.26 672.726,1160.43C660.397,1158.57 652.134,1156.69 647.916,1154.91L647.861,1154.88L641.506,1152.06C640.299,1151.52 639.521,1150.33 639.521,1149.01L639.521,1090.4C639.521,1089.27 640.093,1088.21 641.042,1087.6C641.991,1086.98 643.188,1086.88 644.222,1087.34C645.602,1087.96 647.672,1088.8 650.431,1089.87C653.16,1090.93 659.27,1092.26 668.746,1093.93C674.507,1094.95 680.531,1095.65 686.817,1096.06C673.154,1093.93 662.428,1090.1 654.61,1084.67C644.095,1077.38 638.579,1064.77 638.579,1046.62C638.579,1028.68 645.718,1014.56 659.969,1004.25C673.752,994.281 694.308,989.144 721.712,989.144C734.751,989.144 746.956,989.981 758.326,991.651C769.841,993.342 778.09,995.096 783.083,996.868L783.116,996.88L790.177,999.469C791.494,999.952 792.37,1001.21 792.37,1002.61L792.37,1069.92C792.37,1071.06 791.791,1072.12 790.833,1072.74C789.876,1073.35 788.672,1073.44 787.637,1072.96C776.704,1067.97 762.184,1065.24 744.091,1064.67ZM721.712,995.831C696.079,995.831 676.781,1000.34 663.889,1009.67C651.465,1018.66 645.266,1030.98 645.266,1046.62C645.266,1062.05 649.479,1072.98 658.421,1079.18C667.77,1085.66 681.673,1089.47 700.069,1090.83C701.815,1090.96 703.166,1092.41 703.166,1094.16L703.166,1099.81C703.166,1101.66 701.669,1103.16 699.823,1103.16C688.318,1103.16 677.573,1102.28 667.586,1100.52C657.448,1098.73 650.927,1097.24 648.007,1096.1C647.373,1095.86 646.773,1095.62 646.208,1095.4L646.208,1146.83L650.56,1148.77C654.513,1150.43 662.242,1152.08 673.727,1153.82C685.507,1155.6 699.07,1156.49 714.415,1156.49C740.703,1156.49 760.187,1152.39 772.799,1143.88C784.849,1135.75 790.86,1124.27 790.86,1109.46C790.86,1097.35 786.926,1088.25 778.805,1082.26C770.22,1075.94 756.097,1072.17 736.518,1070.67C734.776,1070.53 733.431,1069.08 733.431,1067.33L733.431,1061.21C733.431,1059.37 734.928,1057.87 736.775,1057.87C756.859,1057.87 773.156,1060.25 785.682,1064.93L785.682,1004.94L780.833,1003.17C776.095,1001.49 768.266,999.869 757.354,998.267C746.286,996.641 734.405,995.831 721.712,995.831ZM328.841,992.292L413.808,992.292C441.009,992.292 461.771,998.954 476.186,1011.99C490.651,1025.06 498.117,1046.31 498.117,1075.89C498.117,1104.44 490.646,1125.8 476.046,1140.07C461.47,1154.32 439.664,1161.62 410.513,1161.62L328.841,1161.62C326.995,1161.62 325.498,1160.12 325.498,1158.27L325.498,995.636C325.498,993.789 326.995,992.292 328.841,992.292ZM332.185,998.98L332.185,1154.93L410.513,1154.93C437.536,1154.93 457.859,1148.5 471.371,1135.29C484.858,1122.1 491.43,1102.27 491.43,1075.89C491.43,1048.68 485.01,1028.97 471.701,1016.95C458.343,1004.87 439.015,998.98 413.808,998.98L332.185,998.98ZM407.924,1060.78L414.514,1060.78C417.293,1060.78 419.662,1061.72 421.631,1063.58C423.656,1065.48 424.683,1067.86 424.683,1070.72L424.683,1098.02C424.683,1101.07 423.628,1103.52 421.631,1105.4C419.662,1107.25 417.293,1108.19 414.514,1108.19L407.924,1108.19C406.077,1108.19 404.58,1106.69 404.58,1104.85L404.58,1064.13C404.58,1062.28 406.077,1060.78 407.924,1060.78ZM411.267,1067.47L411.267,1101.5L414.514,1101.5C415.501,1101.5 416.348,1101.18 417.047,1100.53C417.718,1099.9 417.996,1099.05 417.996,1098.02L417.996,1070.72C417.996,1069.81 417.69,1069.05 417.047,1068.44C416.348,1067.79 415.501,1067.47 414.514,1067.47L411.267,1067.47ZM527.979,1158.27L527.979,995.636C527.979,993.789 529.335,992.292 531.008,992.292L604.353,992.292C606.026,992.292 607.382,993.789 607.382,995.636L607.382,1158.27C607.382,1160.12 606.026,1161.62 604.353,1161.62L531.008,1161.62C529.335,1161.62 527.979,1160.12 527.979,1158.27ZM534.037,1154.93L601.324,1154.93L601.324,998.98L534.037,998.98L534.037,1154.93Z" style="fill:rgb(7,4,146);"></path>
        </g>
    </g>
    <defs>
        <image id="_Image2" width="1266px" height="179px"></image>
        <image id="_Image4" width="178px" height="174px"></image>
        <image id="_Image6" width="87px" height="174px"></image>
        <image id="_Image8" width="163px" height="179px"></image>
        <image id="_Image10" width="162px" height="179px"></image>
        <image id="_Image12" width="194px" height="179px"></image>
        <image id="_Image14" width="184px" height="174px"></image>
        <image id="_Image24" width="1215px" height="179px"></image>
    </defs>
</svg>