<?xml version="1.0"?>

<svg width="100%" height="100%" viewBox="243.048 569.685 1598 952" version="1.1" xmlns="http://www.w3.org/2000/svg" xmlns:xlink="http://www.w3.org/1999/xlink" xml:space="preserve" xmlns:serif="http://www.serif.com/" style="fill-rule:evenodd;clip-rule:evenodd;stroke-miterlimit:10;">
    <g id="Calque1">
        <g transform="matrix(4.16667,0,0,4.16667,1322.7,1213.94)">
            <path d="M-32.159,-117.429L-31.002,-123.942C-30.962,-124.168 -31.045,-124.399 -31.221,-124.547L-36.283,-128.826C-36.785,-129.251 -36.402,-130.068 -35.754,-129.952L-29.228,-128.794C-29.002,-128.753 -28.771,-128.837 -28.623,-129.012L-24.344,-134.074C-23.919,-134.577 -23.102,-134.194 -23.217,-133.545L-24.113,-128.5C-18.994,-129.793 -14.305,-130.448 -10.133,-130.448C-3.517,-130.448 1.472,-128.821 4.695,-125.582C8.425,-121.852 10.065,-116.292 9.647,-109.204C4.674,-110.629 -0.468,-111.92 -5.761,-113.068C-6.006,-116.854 -7.183,-119.921 -9.374,-122.112C-12.638,-125.362 -16.352,-126.061 -22.491,-125.005L-19.096,-122.136C-18.593,-121.71 -18.976,-120.894 -19.625,-121.009L-26.151,-122.168C-26.377,-122.208 -26.607,-122.125 -26.755,-121.949L-30.721,-117.257C-31.199,-117.316 -31.679,-117.373 -32.159,-117.429ZM-109.794,35.731C-126.633,45.758 -141.817,51.473 -153.054,51.473C-159.175,51.473 -163.978,49.769 -167.309,46.437C-172.343,41.415 -173.378,31.72 -170.399,19.145C-169.411,19.582 -168.412,20.012 -167.402,20.436C-167.456,21.625 -167.432,22.758 -167.325,23.831C-167.015,27.333 -165.853,30.199 -163.777,32.275C-158.367,37.685 -147.611,36.914 -133.875,31.205C-126.17,33.032 -118.123,34.551 -109.794,35.731Z" style="fill:none;stroke:rgb(255,114,255);stroke-width:4px;"></path>
        </g>
        <g transform="matrix(4.16667,0,0,4.16667,1206.56,1424.96)">
            <path d="M0,-176.103C11.353,-179.391 20.285,-178.875 25.329,-173.831C40.146,-159.001 15.841,-110.66 -28.973,-65.845C-73.788,-21.03 -122.142,3.288 -136.96,-11.542C-145.411,-19.994 -141.159,-39.319 -127.647,-62.682C-139.355,-42.173 -143.083,-25.552 -135.896,-18.365C-122.654,-5.123 -77.355,-28.943 -34.72,-71.578C7.915,-114.213 31.749,-159.512 18.493,-172.755C14.628,-176.62 10.122,-176.875 1.667,-174.883" style="fill:rgb(8,4,146);"></path>
        </g>
        <g transform="matrix(4.16667,0,0,4.16667,684.993,675.039)">
            <path d="M0,179.686C-5.822,179.686 -10.354,178.102 -13.472,174.977C-19.453,169.013 -19.39,155.863 -13.3,138.898C-13.222,138.68 -13.017,138.544 -12.798,138.544C-12.74,138.544 -12.68,138.554 -12.622,138.575C-12.346,138.672 -12.2,138.974 -12.294,139.25C-16.853,152.522 -16.502,162.304 -11.282,167.54C-8.507,170.317 -4.428,171.726 0.844,171.726C22.695,171.726 60.851,148.251 95.789,113.313C140.233,68.852 164.552,20.827 149.998,6.258C147.23,3.48 143.152,2.072 137.876,2.072C134.465,2.072 130.554,2.666 126.249,3.837C126.202,3.85 126.155,3.855 126.109,3.855C125.877,3.855 125.663,3.702 125.597,3.468C125.518,3.187 125.679,2.894 125.958,2.812C132.274,0.946 137.979,0 142.916,0C149.217,0 153.941,1.53 156.959,4.547C172.632,20.237 147.158,71.226 100.175,118.209C63.403,154.98 23.146,179.686 0,179.686" style="fill:rgb(255,114,255);"></path>
        </g>
        <g transform="matrix(4.16667,0,0,4.16667,1280.48,1425.95)">
            <path d="M0,-180.751L-0.001,-180.751C-4.989,-180.751 -10.745,-179.798 -17.109,-177.918C-17.669,-177.752 -17.991,-177.167 -17.832,-176.605C-17.699,-176.137 -17.272,-175.83 -16.807,-175.83C-16.715,-175.83 -16.621,-175.842 -16.527,-175.868C-12.269,-177.026 -8.404,-177.614 -5.041,-177.614C0.088,-177.614 4.04,-176.258 6.704,-173.585C13.409,-166.873 11.593,-151.767 1.724,-132.141C-8.463,-111.882 -25.946,-88.848 -47.504,-67.282C-82.349,-32.437 -120.354,-9.026 -142.073,-9.026C-147.198,-9.026 -151.151,-10.382 -153.822,-13.056C-158.88,-18.129 -159.194,-27.697 -154.729,-40.73C-154.676,-40.856 -154.647,-40.995 -154.647,-41.141C-154.647,-41.713 -155.096,-42.18 -155.662,-42.205C-155.679,-42.206 -155.697,-42.206 -155.715,-42.206C-155.776,-42.206 -155.838,-42.201 -155.898,-42.191C-156.056,-42.163 -156.202,-42.101 -156.328,-42.012C-156.452,-41.925 -156.559,-41.81 -156.637,-41.674C-156.673,-41.612 -156.703,-41.546 -156.726,-41.477C-162.881,-24.321 -162.895,-10.977 -156.764,-4.863C-153.545,-1.637 -148.885,0 -142.917,0C-119.638,0 -79.23,-24.768 -42.366,-61.632C-19.626,-84.373 -1.169,-108.696 9.605,-130.123C20.55,-151.889 22.26,-168.199 14.419,-176.048C11.298,-179.169 6.447,-180.751 0,-180.751M-155.715,-41.141L-155.71,-41.141M-0.001,-179.686C5.924,-179.686 10.678,-178.282 13.665,-175.295C29.149,-159.794 3.745,-109.249 -43.119,-62.386C-80.648,-24.857 -120.563,-1.065 -142.917,-1.065C-148.467,-1.065 -152.932,-2.531 -156.012,-5.617C-162.12,-11.709 -161.41,-25.277 -155.715,-41.141C-160.188,-28.117 -160.122,-17.866 -154.576,-12.303C-151.635,-9.359 -147.37,-7.96 -142.073,-7.96C-120.726,-7.96 -82.606,-30.674 -46.751,-66.529C-2.016,-111.28 22.249,-159.53 7.459,-174.337C4.525,-177.281 0.261,-178.679 -5.041,-178.679C-8.539,-178.679 -12.489,-178.071 -16.807,-176.896C-10.628,-178.721 -4.912,-179.686 -0.001,-179.686" style="fill:rgb(8,4,146);fill-rule:nonzero;"></path>
        </g>
        <g transform="matrix(4.16667,0,0,4.16667,1203.43,705.816)">
            <path d="M0,-7.062L4.279,-12.124C4.704,-12.627 5.521,-12.244 5.406,-11.595L4.247,-5.069C4.206,-4.843 4.29,-4.613 4.465,-4.464L9.527,-0.186C10.03,0.24 9.647,1.056 8.998,0.941L2.472,-0.218C2.246,-0.258 2.016,-0.175 1.868,0.001L-2.411,5.063C-2.836,5.565 -3.653,5.182 -3.538,4.534L-2.379,-1.992C-2.339,-2.218 -2.422,-2.449 -2.598,-2.597L-7.66,-6.876C-8.162,-7.301 -7.779,-8.118 -7.131,-8.002L-0.605,-6.844C-0.379,-6.803 -0.148,-6.887 0,-7.062" style="fill:rgb(8,4,146);"></path>
        </g>
    </g>
</svg>