<?xml version="1.0"?>

<svg width="100%" height="100%" viewBox="243.048 569.685 1598 952" version="1.1" xmlns="http://www.w3.org/2000/svg" xmlns:xlink="http://www.w3.org/1999/xlink" xml:space="preserve" xmlns:serif="http://www.serif.com/" style="fill-rule:evenodd;clip-rule:evenodd;stroke-miterlimit:10;">
    <g id="Calque2">
        <g transform="matrix(0,-4.16667,-4.16667,0,1041.67,393.575)">
            <path d="M-156.494,-156.494C-200.154,-156.494 -235.547,-86.429 -235.547,0C-235.547,86.429 -200.154,156.494 -156.494,156.494C-112.834,156.494 -77.441,86.429 -77.441,0C-77.441,-86.429 -112.834,-156.494 -156.494,-156.494" style="fill:rgb(255,114,255);"></path>
        </g>
        <g transform="matrix(0,-4.16667,-4.16667,0,1041.67,393.575)">
            <ellipse cx="-156.494" cy="0" rx="79.053" ry="156.494" style="fill:none;stroke:rgb(255,114,255);stroke-width:7px;"></ellipse>
        </g>
        <g transform="matrix(0,-4.16667,-4.16667,0,1041.67,393.575)">
            <path d="M-156.494,-156.494C-200.154,-156.494 -235.547,-86.429 -235.547,0C-235.547,86.429 -200.154,156.494 -156.494,156.494C-112.834,156.494 -77.441,86.429 -77.441,0C-77.441,-86.429 -112.834,-156.494 -156.494,-156.494" style="fill:rgb(149,233,240);"></path>
        </g>
        <g transform="matrix(4.16667,0,0,4.16667,1041.67,1375.02)">
            <path d="M0,-158.106C-86.429,-158.106 -156.494,-122.713 -156.494,-79.053C-156.494,-35.394 -86.429,0 0,0C86.429,0 156.494,-35.394 156.494,-79.053C156.494,-122.713 86.429,-158.106 0,-158.106M0,-155.106C41.34,-155.106 80.159,-146.998 109.305,-132.274C137.801,-117.88 153.494,-98.979 153.494,-79.053C153.494,-59.128 137.801,-40.227 109.305,-25.832C80.159,-11.109 41.34,-3 0,-3C-41.34,-3 -80.159,-11.109 -109.305,-25.832C-137.801,-40.227 -153.494,-59.128 -153.494,-79.053C-153.494,-98.979 -137.801,-117.88 -109.305,-132.274C-80.159,-146.998 -41.34,-155.106 0,-155.106" style="fill:rgb(8,4,146);fill-rule:nonzero;"></path>
        </g>
        <g transform="matrix(0,-4.16667,-4.16667,0,1041.67,519.7)">
            <ellipse cx="-126.224" cy="0" rx="79.053" ry="126.224" style="fill:none;stroke:rgb(8,4,146);stroke-width:2px;"></ellipse>
        </g>
        <g transform="matrix(0,4.16667,4.16667,0,1371.05,1045.63)">
            <path d="M-79.053,-79.053L79.053,-79.053" style="fill:none;fill-rule:nonzero;stroke:rgb(8,4,146);stroke-width:2px;"></path>
        </g>
        <g transform="matrix(0,-4.16667,-4.16667,0,1038.1,708.37)">
            <ellipse cx="-80.948" cy="0" rx="79.048" ry="80.948" style="fill:none;stroke:rgb(8,4,146);stroke-width:2px;"></ellipse>
        </g>
        <g transform="matrix(0,-4.16667,-4.16667,0,1041.67,407.987)">
            <ellipse cx="-153.035" cy="0" rx="31.301" ry="153.035" style="fill:none;stroke:rgb(8,4,146);stroke-width:1.98px;"></ellipse>
        </g>
        <g transform="matrix(4.16667,0,0,4.16667,674.706,1252.42)">
            <path d="M0,-21.274C-4.23,-13.883 -7.406,-6.988 -9.405,-0.868C-9.514,-0.573 -9.606,-0.279 -9.684,0C-9.761,-0.109 -9.885,-0.201 -10.025,-0.264C-9.947,-0.511 -9.854,-0.775 -9.746,-1.038C-7.453,-7.267 -4.168,-14.085 0,-21.274" style="fill:rgb(8,4,146);"></path>
        </g>
        <g transform="matrix(4.16667,0,0,4.16667,634.937,1279.34)">
            <path d="M0,-5.686C-0.775,-3.424 -1.41,-1.27 -1.906,0.775C-1.549,-1.487 -0.945,-3.904 -0.139,-6.461C0.031,-6.244 0.093,-5.965 0,-5.686" style="fill:rgb(255,114,255);"></path>
        </g>
    </g>
</svg>