<?xml version="1.0"?>

<svg width="100%" height="100%" viewBox="0 0 5614 3208" version="1.1" xmlns="http://www.w3.org/2000/svg" xmlns:xlink="http://www.w3.org/1999/xlink" xml:space="preserve" xmlns:serif="http://www.serif.com/" style="fill-rule:evenodd;clip-rule:evenodd;stroke-linejoin:round;stroke-miterlimit:2;">
    <path id="Calque1" d="M1224.51,1112.38C1283.68,1027.82 1371.69,981.461 1492.45,981.461L1747.29,981.461C1813.64,981.461 1867.43,1035.25 1867.43,1101.61L1867.43,1211.07C1925.72,1189.11 1999.01,1177.03 2088.58,1177.03C2186.25,1177.03 2265.6,1192.14 2327.24,1218.69L2327.3,1218.72L2327.98,1219.02L2328.05,1219.05C2334.49,1221.88 2340.74,1224.81 2346.81,1227.86C2368.84,1202.31 2401.45,1186.13 2437.84,1186.13L2869,1186.13C2922.69,1186.13 2968.09,1196.17 3006,1213.95C3016.47,1205.22 3028.45,1198.25 3041.49,1193.46C3063.13,1114.48 3108.41,1061.57 3168.32,1030.28C3168.95,1029.95 3169.58,1029.63 3170.22,1029.31C3205.05,1011.89 3264.17,998.424 3349.09,998.424L3444.65,998.424C3453.43,998.424 3462,999.37 3470.25,1001.16C3478.49,999.37 3487.06,998.424 3495.84,998.424L3734.75,998.424C3801.1,998.424 3854.89,1052.22 3854.89,1118.57L3854.89,1222.18C3908.48,1199.24 3975.01,1186.13 4055.56,1186.13L4351.35,1186.13C4417.71,1186.13 4471.5,1239.93 4471.5,1306.28L4471.5,2026.41C4471.5,2170.36 4440.19,2269.21 4394.6,2327.07C4341.31,2394.97 4250.75,2439.89 4115.08,2441.18C4030.13,2464.21 3956.44,2480.64 3949.26,2483.1L3940.66,2484.43C3924.09,2485.33 3843.16,2487.14 3721.51,2489.3C3290.25,2496.99 2345.77,2509.33 1947.65,2502.23C1845.02,2500.4 1777.63,2496.7 1762.49,2491.98C1757.42,2490.39 1752.45,2488.48 1747.63,2486.24L1614.61,2424.4C1609.05,2421.81 1603.69,2418.8 1598.58,2415.39L1478.64,2335.37C1477.72,2334.76 1476.82,2334.14 1475.92,2333.5L1363.97,2254.29C1362.05,2252.93 1360.18,2251.52 1358.34,2250.05C1324.24,2222.79 1280.63,2156.04 1242.13,2079.68C1237.16,2073.9 1232.38,2067.92 1227.76,2061.73C1227.29,2061.11 1226.83,2060.47 1226.38,2059.84C1185.55,2002.79 1156.35,1919.44 1146.39,1807.45L1146.38,1807.39L1146.33,1806.82L1146.33,1806.76C1143.95,1778.2 1142.5,1699.25 1142.5,1569.9C1142.5,1458.72 1144.42,1386.88 1147.6,1354.47C1157.59,1248.73 1185.34,1168.85 1224.22,1112.79C1219.95,1118.95 1219.45,1126.97 1222.92,1133.62C1224.57,1136.76 1226.98,1139.35 1229.86,1141.2C1230.41,1140.28 1230.97,1139.36 1231.53,1138.45C1224.21,1132.96 1216.56,1123.79 1224.48,1112.42L1224.51,1112.38L1235.11,1132.75C1235.38,1132.33 1235.65,1131.91 1235.92,1131.49C1231.92,1121.44 1226.57,1109.62 1224.51,1112.38Z" style="fill:white;"></path>
    <g id="Calque11">
        <g transform="matrix(98.6432,0,0,98.6432,-33988.7,-65029.9)">
            <path d="M363.289,671.829C363.898,671.539 364.708,671.38 365.735,671.38C366.692,671.38 367.47,671.526 368.073,671.786L368.08,671.789C368.197,671.84 368.308,671.895 368.412,671.954C368.591,671.665 368.911,671.472 369.276,671.472L373.646,671.472C374.216,671.472 374.688,671.589 375.071,671.797C375.202,671.656 375.372,671.552 375.565,671.503C375.755,670.706 376.189,670.176 376.775,669.869C376.781,669.866 376.786,669.864 376.791,669.861C377.127,669.693 377.696,669.569 378.513,669.569L379.482,669.569C379.572,669.569 379.659,669.581 379.742,669.603C379.824,669.581 379.911,669.569 380.001,669.569L382.423,669.569C382.983,669.569 383.437,670.023 383.437,670.583L383.437,671.96C384,671.65 384.741,671.472 385.675,671.472L388.674,671.472C389.234,671.472 389.688,671.926 389.688,672.486L389.688,679.786C389.688,681.184 389.394,682.146 388.952,682.708C388.446,683.353 384.701,684.165 384.531,684.223C384.42,684.261 363.42,684.601 362.49,684.311C362.447,684.298 362.405,684.282 362.365,684.263L361.016,683.636C360.969,683.614 360.924,683.589 360.881,683.56L359.665,682.749C359.657,682.744 359.65,682.738 359.642,682.733L358.507,681.93C358.491,681.918 358.475,681.906 358.46,681.894C357.699,681.286 356.484,678.639 356.387,677.549L356.386,677.543C356.362,677.255 356.348,676.461 356.348,675.159C356.348,674.041 356.367,673.32 356.399,672.994C356.496,671.965 356.762,671.186 357.14,670.641L357.143,670.638C357.705,669.834 358.544,669.397 359.692,669.397L362.275,669.397C362.835,669.397 363.289,669.851 363.289,670.411L363.289,671.829ZM361.815,677.032L361.815,674.228C361.815,674.018 361.832,673.818 361.868,673.627L361.005,673.627L361.005,677.031C361.022,677.032 361.038,677.032 361.053,677.032L361.815,677.032Z" style="fill:rgb(22,0,79);"></path>
        </g>
        <g transform="matrix(98.6432,0,0,98.6432,-33988.7,-65029.9)">
            <path d="M363.289,671.829C363.898,671.539 364.708,671.38 365.735,671.38C366.692,671.38 367.47,671.526 368.073,671.786L368.08,671.789C368.197,671.84 368.308,671.895 368.412,671.954C368.591,671.665 368.911,671.472 369.276,671.472L373.646,671.472C374.216,671.472 374.688,671.589 375.071,671.797C375.202,671.656 375.372,671.552 375.565,671.503C375.755,670.706 376.189,670.176 376.775,669.869C376.781,669.866 376.786,669.864 376.791,669.861C377.127,669.693 377.696,669.569 378.513,669.569L379.482,669.569C379.572,669.569 379.659,669.581 379.742,669.603C379.824,669.581 379.911,669.569 380.001,669.569L382.423,669.569C382.983,669.569 383.437,670.023 383.437,670.583L383.437,671.96C384,671.65 384.741,671.472 385.675,671.472L388.674,671.472C389.234,671.472 389.688,671.926 389.688,672.486L389.688,679.786C389.688,681.184 389.394,682.146 388.952,682.708C388.435,683.367 387.546,683.787 386.217,683.787L384.683,683.787C384.124,683.787 383.67,683.333 383.67,682.773L383.67,680.903C383.552,680.841 383.438,680.771 383.328,680.693C383.161,681.023 382.819,681.25 382.423,681.25L380.001,681.25C379.759,681.25 379.537,681.165 379.362,681.023C379.186,681.172 378.958,681.262 378.709,681.262L376.472,681.262C376.257,681.262 376.057,681.194 375.893,681.08C375.732,681.187 375.538,681.25 375.33,681.25L372.793,681.25C372.622,681.25 372.461,681.208 372.32,681.133C372.179,681.208 372.018,681.25 371.847,681.25L369.276,681.25C368.921,681.25 368.61,681.068 368.428,680.793C367.809,681.167 366.945,681.388 365.816,681.388C364.65,681.388 363.761,681.162 363.129,680.783C362.948,681.064 362.633,681.25 362.275,681.25L359.865,681.25C358.644,681.25 357.76,680.811 357.172,680.022C357.168,680.017 357.164,680.012 357.16,680.006C356.763,679.451 356.484,678.639 356.387,677.549L356.386,677.543C356.362,677.255 356.348,676.461 356.348,675.159C356.348,674.041 356.367,673.32 356.399,672.994C356.496,671.965 356.762,671.186 357.14,670.641L357.143,670.638C357.705,669.834 358.544,669.397 359.692,669.397L362.275,669.397C362.835,669.397 363.289,669.851 363.289,670.411L363.289,671.829Z" style="fill:rgb(22,0,79);"></path>
        </g>
    </g>
    <g transform="matrix(98.6432,0,0,98.6432,-33988.7,-65029.9)">
        <path d="M363.289,671.829C363.898,671.539 364.708,671.38 365.735,671.38C366.692,671.38 367.47,671.526 368.073,671.786L368.08,671.789C368.197,671.84 368.308,671.895 368.412,671.954C368.591,671.665 368.911,671.472 369.276,671.472L373.646,671.472C374.216,671.472 374.688,671.589 375.071,671.797C375.202,671.656 375.372,671.552 375.565,671.503C375.755,670.706 376.189,670.176 376.775,669.869C376.781,669.866 376.786,669.864 376.791,669.861C377.127,669.693 377.696,669.569 378.513,669.569L379.482,669.569C379.572,669.569 379.659,669.581 379.742,669.603C379.824,669.581 379.911,669.569 380.001,669.569L382.423,669.569C382.983,669.569 383.437,670.023 383.437,670.583L383.437,671.96C384,671.65 384.741,671.472 385.675,671.472L388.674,671.472C389.234,671.472 389.688,671.926 389.688,672.486L389.688,679.786C389.688,681.184 389.394,682.146 388.952,682.708C388.435,683.367 387.546,683.787 386.217,683.787L384.683,683.787C384.124,683.787 383.67,683.333 383.67,682.773L383.67,680.903C383.552,680.841 383.438,680.771 383.328,680.693C383.161,681.023 382.819,681.25 382.423,681.25L380.001,681.25C379.759,681.25 379.537,681.165 379.362,681.023C379.186,681.172 378.958,681.262 378.709,681.262L376.472,681.262C376.257,681.262 376.057,681.194 375.893,681.08C375.732,681.187 375.538,681.25 375.33,681.25L372.793,681.25C372.622,681.25 372.461,681.208 372.32,681.133C372.179,681.208 372.018,681.25 371.847,681.25L369.276,681.25C368.921,681.25 368.61,681.068 368.428,680.793C367.809,681.167 366.945,681.388 365.816,681.388C364.65,681.388 363.761,681.162 363.129,680.783C362.948,681.064 362.633,681.25 362.275,681.25L359.865,681.25C358.644,681.25 357.76,680.811 357.172,680.022C357.168,680.017 357.164,680.012 357.16,680.006C356.763,679.451 356.484,678.639 356.387,677.549L356.386,677.543C356.362,677.255 356.348,676.461 356.348,675.159C356.348,674.041 356.367,673.32 356.399,672.994C356.496,671.965 356.762,671.186 357.14,670.641L357.143,670.638C357.705,669.834 358.544,669.397 359.692,669.397L362.275,669.397C362.835,669.397 363.289,669.851 363.289,670.411L363.289,671.829Z" style="fill:rgb(22,0,79);"></path>
    </g>
    <g transform="matrix(98.6432,0,0,98.6432,-33988.7,-65029.9)">
        <path d="M362.275,670.411L362.275,672.614L360.868,672.614C360.553,672.614 360.328,672.673 360.193,672.791C360.059,672.909 359.992,673.123 359.992,673.433L359.992,677.19C359.992,677.761 360.345,678.046 361.053,678.046L362.275,678.046L362.275,680.236L359.865,680.236C359.019,680.236 358.392,679.963 357.985,679.416C357.67,678.976 357.473,678.323 357.397,677.459C357.374,677.181 357.362,676.415 357.362,675.159C357.362,674.09 357.377,673.401 357.408,673.091C357.485,672.275 357.673,671.651 357.973,671.219C358.35,670.68 358.923,670.411 359.692,670.411L362.275,670.411ZM368.722,678.356C368.722,679.702 367.753,680.375 365.816,680.375C363.824,680.375 362.829,679.702 362.829,678.356L362.829,674.228C362.829,673.005 363.797,672.394 365.735,672.394C366.527,672.394 367.173,672.501 367.672,672.717C368.372,673.024 368.722,673.528 368.722,674.228L368.722,678.356ZM366.323,674.781C366.323,674.527 366.123,674.401 365.723,674.401C365.331,674.401 365.135,674.527 365.135,674.781L365.135,677.884C365.135,678.153 365.331,678.287 365.723,678.287C366.123,678.287 366.323,678.16 366.323,677.907L366.323,674.781ZM375.33,674.285L375.33,680.236L372.793,680.236L372.793,675.173C372.793,674.92 372.782,674.754 372.758,674.677C372.697,674.493 372.559,674.401 372.343,674.401L371.847,674.401L371.847,680.236L369.276,680.236L369.276,672.486L373.646,672.486C374.769,672.486 375.33,673.086 375.33,674.285ZM375.815,672.486L376.472,672.486C376.472,671.61 376.73,671.037 377.245,670.768C377.491,670.645 377.914,670.583 378.513,670.583L379.482,670.583L379.482,672.082C379.159,672.082 378.967,672.094 378.905,672.117C378.775,672.155 378.709,672.279 378.709,672.486L379.482,672.486L379.482,674.401L378.709,674.401L378.709,680.248L376.472,680.248L376.472,674.401L375.815,674.401L375.815,672.486ZM380.001,680.236L380.001,672.486L382.423,672.486L382.423,680.236L380.001,680.236ZM380.001,672.106L380.001,670.583L382.423,670.583L382.423,672.106L380.001,672.106ZM384.683,682.773L384.683,680.859L386.01,680.859C386.31,680.859 386.46,680.749 386.46,680.53L386.46,680.248L385.214,680.248C384.56,680.248 384.026,680.032 383.611,679.602C383.211,679.194 383.011,678.679 383.011,678.057L383.011,674.574C383.011,673.182 383.899,672.486 385.675,672.486L388.674,672.486L388.674,679.786C388.674,680.878 388.501,681.643 388.155,682.081C387.794,682.543 387.148,682.773 386.217,682.773L384.683,682.773ZM386.46,678.31L386.46,674.401L385.848,674.401C385.518,674.401 385.318,674.52 385.249,674.759L385.249,677.767C385.249,677.998 385.289,678.146 385.37,678.212C385.45,678.277 385.598,678.31 385.814,678.31L386.46,678.31Z" style="fill:url(#_Linear1);"></path>
    </g>
    <defs>
        <linearGradient id="_Linear1" x1="0" y1="0" x2="1" y2="0" gradientUnits="userSpaceOnUse" gradientTransform="matrix(-0.449392,-3.97736,1.57031,-0.177425,377.854,676.592)"><stop offset="0" style="stop-color:rgb(246,26,191);stop-opacity:1"></stop><stop offset="0.32" style="stop-color:rgb(155,65,185);stop-opacity:1"></stop><stop offset="0.72" style="stop-color:rgb(71,207,238);stop-opacity:1"></stop><stop offset="1" style="stop-color:rgb(35,244,247);stop-opacity:1"></stop></linearGradient>
    </defs>
</svg>