<?xml version="1.0"?>

<svg width="100%" height="100%" viewBox="0 0 2084 2084" version="1.1" xmlns="http://www.w3.org/2000/svg" xmlns:xlink="http://www.w3.org/1999/xlink" xml:space="preserve" xmlns:serif="http://www.serif.com/" style="fill-rule:evenodd;clip-rule:evenodd;stroke-linejoin:round;stroke-miterlimit:2;">
    <g id="OBJECTS" transform="matrix(4.16667,0,0,4.16667,0,0)">
        <g transform="matrix(1,0,0,1,366.08,203.53)">
            <path d="M0,97.5L-5.93,97.5C-9.72,93.71 -15.77,93.39 -19.94,96.77C-20.52,97.23 -21.16,97.5 -21.72,97.5L-30.83,97.5C-31.04,97.5 -31.18,97.46 -31.22,97.42C-34.28,94.44 -38.74,93.67 -42.52,95.21C-42.84,95.33 -43.15,95.48 -43.45,95.65C-43.75,95.8 -44.05,95.97 -44.33,96.17C-44.65,96.37 -44.96,96.6 -45.26,96.85C-45.33,96.91 -45.41,96.96 -45.49,97.02C-45.51,97.04 -45.54,97.05 -45.56,97.07C-46.28,97.57 -46.92,98.15 -47.47,98.8C-47.94,99.34 -48.35,99.93 -48.7,100.56C-49.08,101.26 -49.39,102 -49.6,102.77C-49.74,103.23 -49.84,103.71 -49.91,104.19C-50.32,107.09 -49.5,110.03 -47.64,112.3C-45.76,114.61 -43.98,116.82 -42.32,118.92C-41.79,119.59 -41.27,120.25 -40.77,120.9C-34.73,128.62 -30.21,134.93 -26.88,139.96C-36.95,133.32 -52.22,121.83 -73.87,102.77C-74.85,101.91 -75.84,101.03 -76.85,100.14C-78.77,98.44 -81.25,97.5 -83.82,97.5L-92.6,97.5C-94.36,97.5 -95.94,97.13 -97.41,96.36C-98.93,95.58 -100.58,95.2 -102.23,95.2C-104.39,95.2 -106.54,95.86 -108.36,97.17C-108.81,97.5 -109.18,97.5 -109.31,97.5L-141.21,97.5C-141.56,97.5 -141.93,97.49 -142.29,97.49C-142.77,97.49 -143.26,97.48 -143.75,97.47L-143.9,97.47C-147.48,97.42 -151.18,97.28 -152.89,97.12C-152.97,97.11 -153.05,97.1 -153.12,97.09L-153.13,97.09C-153.22,97.08 -153.3,97.07 -153.37,97.06C-153.48,97.03 -153.59,97.01 -153.7,96.99C-153.88,96.94 -154.06,96.91 -154.24,96.88L-154.25,96.88C-154.41,96.85 -154.56,96.82 -154.72,96.81C-154.98,96.77 -155.24,96.75 -155.5,96.74C-155.61,96.74 -155.71,96.73 -155.82,96.73L-155.84,96.73C-156.04,96.73 -156.23,96.73 -156.43,96.74C-158.8,96.85 -161.11,97.76 -162.95,99.39C-167.33,103.29 -173.36,108.66 -179.96,114.4C-181.53,115.77 -183.12,117.16 -184.75,118.55L-184.79,118.59C-185.3,119.03 -185.81,119.46 -186.32,119.91C-190,123.06 -193.74,126.22 -197.38,129.21C-195.46,126.54 -193.36,123.73 -191.07,120.78C-190.82,120.46 -190.58,120.13 -190.32,119.8C-190.3,119.78 -190.29,119.76 -190.27,119.74C-190.03,119.42 -189.77,119.1 -189.52,118.78C-188.45,117.41 -187.34,116.02 -186.19,114.6C-183.64,111.45 -183.13,107.12 -184.88,103.47C-184.93,103.37 -184.97,103.28 -185.03,103.19C-185.09,103.05 -185.17,102.91 -185.25,102.77C-185.42,102.47 -185.61,102.18 -185.82,101.9C-185.86,101.84 -185.9,101.78 -185.95,101.72C-186.03,101.6 -186.12,101.48 -186.22,101.37C-187.16,100.2 -188.34,99.26 -189.67,98.61C-189.98,98.45 -190.3,98.31 -190.62,98.19C-190.95,98.06 -191.29,97.95 -191.64,97.86C-192.51,97.62 -193.42,97.5 -194.35,97.5L-224.43,97.5C-226.61,97.5 -228.69,96.93 -230.77,95.77C-232.9,94.58 -234.73,92.97 -236.21,90.97C-236.74,90.26 -237.2,89.52 -237.59,88.75C-237.59,88.74 -237.6,88.74 -237.6,88.73C-238.11,87.72 -238.5,86.67 -238.77,85.58C-239.23,83.73 -240.18,82.04 -241.53,80.69C-242.26,79.95 -242.92,79.11 -243.47,78.17C-244.61,76.27 -245.16,74.22 -245.16,71.89L-245.16,49.47C-245.16,47.15 -244.61,45.09 -243.47,43.18C-243.19,42.71 -242.89,42.27 -242.57,41.85C-241.6,40.6 -240.43,39.55 -239.03,38.7C-237.11,37.52 -235.02,36.95 -232.64,36.95L-221.81,36.95C-218.96,36.95 -216.36,35.81 -214.47,33.96C-212.52,32.06 -211.31,29.4 -211.31,26.45L-211.31,25.28C-211.31,23.99 -210.26,22.94 -208.97,22.94L-199.31,22.94C-198.01,22.94 -196.96,23.99 -196.96,25.28L-196.96,26.92C-196.96,30.08 -195.54,33.07 -193.09,35.06C-191.9,36.03 -190.52,36.72 -189.07,37.09C-187.54,37.48 -185.92,37.53 -184.33,37.2C-183.53,37.03 -182.68,36.95 -181.83,36.95L-166.17,36.95C-163.58,36.95 -161.14,36 -159.26,34.36C-158.92,34.06 -158.59,33.73 -158.29,33.39C-157.97,33.03 -157.67,32.64 -157.4,32.22C-157.21,31.93 -157.03,31.63 -156.87,31.32C-156.76,31.12 -156.66,30.91 -156.57,30.7C-156.52,30.58 -156.46,30.45 -156.42,30.33C-156.26,29.94 -156.13,29.54 -156.02,29.14L-156.02,29.13C-155.28,26.3 -155.74,23.3 -157.29,20.84C-157.3,20.84 -157.3,20.83 -157.3,20.83C-157.62,20.33 -157.99,19.84 -158.4,19.39C-183.43,-8.15 -197.68,-26.83 -205.37,-38.53C-201.39,-35.87 -196.74,-32.56 -191.49,-28.57C-190.67,-27.96 -189.84,-27.32 -188.99,-26.66C-181.23,-20.7 -172.25,-13.36 -162.2,-4.63C-161.42,-3.97 -160.63,-3.28 -159.83,-2.57C-151.88,4.37 -143.29,12.16 -134.12,20.8L-134.11,20.81C-131.74,23.04 -129.35,25.31 -126.9,27.65C-126.66,27.89 -126.42,28.12 -126.18,28.35C-125.94,28.58 -125.7,28.81 -125.46,29.04C-125.06,29.43 -124.66,29.81 -124.26,30.2L-124.07,30.39C-123.82,30.63 -123.56,30.88 -123.3,31.13C-123.07,31.35 -122.84,31.56 -122.6,31.75C-121.77,32.42 -120.87,32.95 -119.92,33.33C-119.87,33.35 -119.82,33.37 -119.76,33.39C-119.09,33.65 -118.4,33.84 -117.7,33.95C-116.57,34.13 -115.42,34.13 -114.29,33.95C-114.27,33.95 -114.24,33.94 -114.22,33.93C-113.49,33.81 -112.76,33.61 -112.07,33.33C-111.12,32.95 -110.21,32.42 -109.39,31.75C-109.15,31.56 -108.92,31.35 -108.69,31.13C-108.43,30.88 -108.17,30.63 -107.91,30.38C-107.69,30.16 -107.47,29.95 -107.26,29.75C-107.02,29.51 -106.77,29.28 -106.53,29.04C-106.29,28.81 -106.05,28.58 -105.81,28.35C-105.57,28.12 -105.32,27.88 -105.08,27.65C-102.64,25.31 -100.25,23.04 -97.89,20.81L-97.88,20.8C-88.66,12.11 -80.02,4.28 -72.02,-2.71C-71.22,-3.41 -70.43,-4.09 -69.65,-4.77C-59.6,-13.49 -50.62,-20.82 -42.86,-26.8C-42.42,-27.14 -41.98,-27.48 -41.55,-27.8C-41.53,-27.81 -41.52,-27.83 -41.5,-27.84C-41.12,-28.14 -40.74,-28.42 -40.37,-28.7C-39.39,-29.44 -38.44,-30.16 -37.51,-30.85C-38.51,-29.72 -39.53,-28.57 -40.58,-27.4C-41,-26.92 -41.42,-26.46 -41.86,-25.97L-41.87,-25.96C-41.88,-25.95 -41.89,-25.93 -41.9,-25.92C-42.7,-25.03 -43.52,-24.12 -44.34,-23.21C-50.26,-16.65 -56.61,-9.77 -62.71,-3.15C-66.07,0.5 -69.49,4.21 -72.98,8.02C-76.07,11.39 -79.22,14.83 -82.43,18.36C-83.1,19.1 -83.66,19.92 -84.08,20.8L-84.08,20.81C-84.53,21.71 -84.84,22.66 -85.01,23.64C-85.29,25.26 -85.19,26.95 -84.68,28.56C-84.66,28.65 -84.63,28.74 -84.59,28.83C-84.59,28.85 -84.59,28.86 -84.58,28.88C-84.57,28.91 -84.56,28.95 -84.54,28.98C-84.41,29.34 -84.26,29.7 -84.08,30.04C-84.04,30.15 -83.99,30.25 -83.93,30.36C-83.9,30.43 -83.86,30.49 -83.81,30.56C-83.8,30.57 -83.8,30.59 -83.79,30.6C-83.76,30.67 -83.72,30.73 -83.68,30.8C-83.67,30.81 -83.67,30.82 -83.65,30.84C-83.64,30.86 -83.63,30.88 -83.61,30.91C-83.04,31.85 -82.33,32.68 -81.51,33.39C-81.28,33.59 -81.03,33.78 -80.78,33.96C-80.56,34.12 -80.33,34.28 -80.09,34.42C-80.01,34.47 -79.93,34.51 -79.85,34.56C-79.78,34.6 -79.71,34.64 -79.64,34.68C-79.33,34.84 -79.02,34.99 -78.69,35.12C-78.55,35.18 -78.41,35.24 -78.27,35.28C-78.24,35.3 -78.21,35.31 -78.17,35.32C-78.1,35.35 -78.03,35.38 -77.95,35.4C-77.91,35.41 -77.87,35.43 -77.82,35.44C-77.81,35.44 -77.8,35.45 -77.79,35.45C-77.75,35.46 -77.7,35.48 -77.65,35.49C-77.23,35.62 -76.8,35.72 -76.36,35.79C-76.15,35.82 -75.95,35.86 -75.73,35.9L-75.72,35.9C-74.27,36.13 -72.74,36.39 -71.26,36.66C-70.91,36.72 -70.56,36.78 -70.21,36.85C-69.86,36.91 -69.51,36.97 -69.17,37.03C-68.37,37.18 -67.6,37.32 -66.89,37.46C-66.78,37.47 -66.67,37.5 -66.56,37.52C-66.08,37.61 -65.64,37.69 -65.23,37.78C-64.22,37.98 -63.44,38.15 -62.99,38.27C-62,38.63 -60.98,38.84 -59.95,38.9C-57.81,39.02 -55.64,38.49 -53.77,37.31C-53.39,37.07 -52.99,36.95 -52.55,36.95L0.48,36.95C2.86,36.95 4.95,37.52 6.86,38.69C8.27,39.55 9.44,40.59 10.41,41.85C10.73,42.27 11.03,42.71 11.31,43.18C12.45,45.09 13,47.15 13,49.47L13,82.07C13,83.26 12.14,83.89 11.88,84.06C9.91,85.29 8.42,87.12 7.61,89.26L7.61,89.27C7.36,89.92 7.17,90.59 7.06,91.29L6.77,93.07C4.5,97.5 3.53,97.5 0,97.5M29.34,32.42L29.34,32.41C26.48,27.62 22.61,23.71 17.83,20.79C12.59,17.58 6.75,15.95 0.48,15.95L-51.75,15.95C-51.71,15.9 -51.66,15.86 -51.63,15.81C-51.29,15.45 -50.96,15.08 -50.63,14.73C-50.24,14.3 -49.86,13.9 -49.5,13.5C-48.75,12.69 -48,11.89 -47.26,11.08C-32.38,-5.08 -19.53,-19.03 -10.85,-29.74C-5.89,-35.88 -2.62,-40.54 -0.57,-44.41C5.01,-54.92 1.28,-61.03 -1.45,-63.74C-9.4,-71.64 -21.27,-65.68 -25.73,-63.43C-32.43,-60.07 -41.01,-54.49 -51.25,-46.83C-69.49,-33.21 -92.24,-13.56 -116,9.04C-139.73,-13.53 -162.45,-33.14 -180.66,-46.75C-190.89,-54.39 -199.46,-59.96 -206.15,-63.32C-210.19,-65.35 -222.49,-71.52 -230.43,-63.58C-239.2,-54.81 -232.6,-40.87 -219.97,-22.65C-214.92,-15.36 -208.62,-7.08 -201.26,1.94L-208.97,1.94C-218.52,1.94 -226.76,7.71 -230.37,15.95L-232.64,15.95C-238.91,15.95 -244.76,17.58 -250,20.79C-254.77,23.71 -258.64,27.62 -261.5,32.41C-264.59,37.6 -266.16,43.34 -266.16,49.47L-266.16,71.89C-266.16,78.03 -264.59,83.77 -261.51,88.93C-260.57,90.5 -259.52,91.98 -258.36,93.37C-257.15,96.99 -255.38,100.38 -253.08,103.48C-249.82,107.88 -245.75,111.46 -240.99,114.12C-235.77,117.02 -230.2,118.5 -224.43,118.5L-215.54,118.5C-219.56,124.13 -223.13,129.53 -226.07,134.42C-234.48,148.46 -236.39,155.58 -233.34,161.63C-231.25,165.79 -227,168.27 -222.25,168.05C-211.21,167.58 -196.91,157.55 -154.59,120.07C-154.57,120.05 -154.55,120.03 -154.53,120.01C-153.86,119.41 -153.18,118.81 -152.49,118.2C-151.7,118.25 -150.81,118.3 -149.81,118.34C-149.16,118.36 -148.46,118.38 -147.71,118.4C-146.93,118.43 -146.1,118.45 -145.2,118.46C-143.77,118.49 -142.18,118.5 -140.43,118.5L-109.31,118.5C-106.69,118.5 -104.13,118.05 -101.71,117.18C-98.8,118.06 -95.75,118.5 -92.6,118.5L-87.79,118.5C-69.27,134.79 -52.74,147.92 -39.83,156.59C-30.41,162.91 -20.18,169.14 -11.65,169.14C-7.95,169.14 -4.58,167.96 -1.73,165.12C7.27,156.12 -1.14,141.87 -5.18,135.03C-8.13,130.04 -11.96,124.32 -16.65,117.93C-16.04,117.79 -15.44,117.62 -14.84,117.44C-13.26,118.09 -11.33,118.5 -8.97,118.5L0,118.5C9.26,118.5 18.85,116.36 26.33,100.9C26.69,100.17 26.95,99.4 27.13,98.61C31.5,94.28 34,88.39 34,82.07L34,49.47C34,43.34 32.43,37.6 29.34,32.42" style="fill:rgb(255,142,255);fill-rule:nonzero;"></path>
        </g>
        <g transform="matrix(0.707107,-0.707107,-0.707107,-0.707107,269.736,248.944)">
            <path d="M-13.729,-5.687C-97.243,-5.692 -164.944,3.015 -164.944,13.748C-164.944,24.48 -97.243,33.18 -13.729,33.18C69.785,33.179 137.45,24.477 137.487,13.745C137.523,3.014 69.902,-5.682 -13.729,-5.687" style="fill:rgb(0,222,221);fill-rule:nonzero;"></path>
        </g>
        <g transform="matrix(1,0,0,1,211.75,180.12)">
            <path d="M0,130.27C-9.91,138.92 -19.32,146.69 -27.94,153.35C-53.49,173.07 -65.21,177.47 -67.66,175.03C-70.11,172.58 -65.7,160.86 -45.98,135.31C-43.7,132.36 -41.28,129.31 -38.74,126.18C-37.64,124.81 -36.5,123.42 -35.34,122.02C-32.82,118.96 -30.2,115.85 -27.48,112.66L-27.47,112.65C-23.58,108.11 -19.48,103.45 -15.22,98.7C-15.21,98.68 -15.19,98.66 -15.17,98.64C-14.39,97.77 -13.6,96.89 -12.8,96.01C-12.26,95.42 -11.73,94.81 -11.18,94.22C-11.16,94.2 -11.15,94.19 -11.13,94.17C-11.09,94.11 -11.04,94.05 -10.98,94C-7.03,89.65 -2.94,85.23 1.26,80.76C4.42,77.41 7.64,74.03 10.92,70.63L11.08,70.47C11.3,70.24 11.53,70 11.77,69.76C12,69.52 12.23,69.27 12.46,69.03C12.71,68.78 12.95,68.54 13.19,68.29C13.59,67.87 14,67.45 14.41,67.03C15.08,66.34 15.76,65.65 16.44,64.95C16.91,64.47 17.38,63.99 17.85,63.51C18.58,62.77 19.31,62.03 20.04,61.29C20.51,60.82 20.97,60.35 21.45,59.87C22.27,59.04 23.1,58.21 23.93,57.37L25.52,55.78C26.64,54.66 27.76,53.55 28.87,52.45C29.86,51.47 30.84,50.5 31.82,49.53C32.29,49.06 32.77,48.6 33.24,48.13C33.99,47.4 34.74,46.67 35.48,45.94C35.96,45.48 36.43,45.01 36.91,44.55C36.98,44.48 37.04,44.42 37.11,44.36L37.12,44.35C37.28,44.19 37.44,44.03 37.6,43.89C37.84,43.64 38.09,43.4 38.34,43.17C38.58,42.93 38.82,42.7 39.06,42.47C39.29,42.23 39.53,42 39.77,41.78C63.33,18.99 86.1,-1.07 105.05,-15.71C126.46,-32.24 138.16,-38.02 142.83,-38.02C143.74,-38.02 144.38,-37.8 144.78,-37.4C145.18,-37.01 145.38,-36.36 145.38,-35.47C145.4,-25.43 122.7,5.47 88.79,42.87C88.76,42.89 88.74,42.91 88.72,42.93C88.52,43.15 88.32,43.37 88.11,43.6C87.9,43.83 87.69,44.06 87.48,44.29L87.47,44.3C83.74,48.4 79.89,52.57 75.9,56.8C75.72,56.99 75.54,57.18 75.36,57.37C75.14,57.61 74.91,57.85 74.69,58.09C71.89,61.05 69.05,64.03 66.14,67.03C65.96,67.22 65.78,67.41 65.6,67.6C65.37,67.84 65.14,68.08 64.9,68.32C64.67,68.56 64.44,68.8 64.21,69.04C63.97,69.28 63.73,69.53 63.49,69.78C63.27,70.01 63.04,70.24 62.82,70.47C62.35,70.95 61.89,71.43 61.42,71.9C60.77,72.57 60.12,73.23 59.47,73.89C59.39,73.97 59.32,74.05 59.23,74.13C58.77,74.61 58.3,75.08 57.83,75.56C56.03,77.39 54.21,79.23 52.37,81.07C52.11,81.33 51.85,81.59 51.59,81.85C50.22,83.22 48.86,84.58 47.5,85.92C47.03,86.39 46.56,86.86 46.09,87.32C45.34,88.05 44.6,88.79 43.86,89.52C43.5,89.87 43.15,90.22 42.79,90.56L42.43,90.92C41.31,92.01 40.2,93.1 39.09,94.18L38.34,94.9C38.1,95.13 37.86,95.37 37.62,95.6C37.38,95.83 37.14,96.06 36.9,96.29C35.56,97.59 34.23,98.87 32.9,100.15C28.42,104.43 23.97,108.61 19.59,112.67L19.58,112.68C16.54,115.48 13.55,118.21 10.58,120.88C9.57,121.79 8.57,122.69 7.58,123.57C7.54,123.62 7.49,123.66 7.45,123.7C7.05,124.06 6.64,124.42 6.24,124.77C4.14,126.64 2.07,128.46 0.01,130.26L0,130.27ZM146.19,-38.82C137.62,-47.33 86.72,-6.36 38.33,40.38C38.09,40.62 37.85,40.85 37.61,41.07C37.37,41.31 37.14,41.54 36.9,41.77L36.15,42.49C35.92,42.72 35.69,42.94 35.46,43.16C35.11,43.51 34.75,43.86 34.39,44.21L34.38,44.22C34.26,44.33 34.15,44.44 34.03,44.56C33.28,45.29 32.52,46.03 31.77,46.77C31.29,47.24 30.82,47.7 30.35,48.17C29.37,49.13 28.4,50.09 27.43,51.06C26.32,52.16 25.21,53.26 24.11,54.36C23.3,55.17 22.49,55.99 21.68,56.8L21.11,57.37C20.77,57.71 20.43,58.06 20.09,58.4C19.62,58.88 19.15,59.35 18.69,59.83C17.94,60.57 17.21,61.32 16.47,62.06C16.01,62.54 15.54,63.02 15.07,63.5C13.97,64.62 12.88,65.74 11.8,66.85C11.73,66.92 11.66,66.99 11.6,67.06C11.42,67.24 11.25,67.42 11.08,67.6L10.94,67.74C10.75,67.94 10.56,68.13 10.38,68.32C10.14,68.56 9.91,68.8 9.69,69.04C6.83,72 4.02,74.94 1.26,77.86C-3.13,82.5 -7.39,87.09 -11.5,91.61L-11.55,91.66C-12.77,93 -13.98,94.34 -15.17,95.66C-15.19,95.68 -15.21,95.7 -15.22,95.72C-20.45,101.52 -25.43,107.18 -30.09,112.67L-30.1,112.68C-32.6,115.6 -35,118.46 -37.31,121.27C-38.68,122.93 -40.01,124.57 -41.31,126.18C-43.49,128.88 -45.58,131.52 -47.56,134.09C-66.03,158 -73.27,172.25 -69.08,176.44C-68.31,177.21 -67.2,177.6 -65.75,177.6C-59.33,177.6 -46.24,170 -26.72,154.93C-17.14,147.54 -6.6,138.75 4.54,128.95L4.55,128.94C4.95,128.58 5.34,128.24 5.74,127.88C6.17,127.5 6.6,127.12 7.03,126.74C7.23,126.56 7.44,126.37 7.64,126.18L7.65,126.18C7.76,126.08 7.88,125.98 7.99,125.88C8.14,125.75 8.29,125.61 8.45,125.48C10.12,123.98 11.82,122.46 13.53,120.91C16.49,118.22 19.48,115.49 22.5,112.68L22.51,112.67C26.88,108.61 31.31,104.44 35.77,100.15C36.62,99.33 37.48,98.51 38.34,97.68C38.57,97.45 38.81,97.22 39.05,96.99C39.29,96.76 39.53,96.52 39.78,96.29C40.02,96.05 40.27,95.81 40.52,95.57C41.64,94.48 42.76,93.39 43.88,92.3C44.05,92.13 44.22,91.96 44.39,91.8C44.69,91.5 45,91.2 45.3,90.9L47.55,88.68C48.02,88.22 48.5,87.75 48.97,87.28C50.1,86.16 51.24,85.03 52.37,83.9C52.58,83.69 52.8,83.47 53.01,83.26C55.09,81.18 57.16,79.1 59.19,77.03C59.66,76.56 60.13,76.08 60.59,75.61C61.15,75.04 61.72,74.46 62.28,73.89C62.46,73.71 62.63,73.53 62.8,73.35C63.27,72.87 63.74,72.39 64.2,71.92C64.43,71.69 64.66,71.45 64.87,71.22C65.12,70.97 65.36,70.73 65.6,70.48C65.83,70.24 66.07,70 66.3,69.76C66.53,69.52 66.77,69.28 66.99,69.04C67.65,68.37 68.29,67.7 68.94,67.03C71.57,64.3 74.15,61.59 76.68,58.9C77.17,58.39 77.65,57.88 78.13,57.37C78.31,57.18 78.49,56.99 78.66,56.8C81.94,53.33 85.11,49.9 88.17,46.52C88.98,45.64 89.56,45 89.91,44.63C89.98,44.55 90.04,44.48 90.09,44.43C90.11,44.41 90.13,44.38 90.15,44.36L90.16,44.36C90.18,44.33 90.19,44.32 90.21,44.3C90.25,44.25 90.27,44.23 90.28,44.22C90.82,43.63 91.36,43.03 91.89,42.44C91.9,42.42 91.92,42.4 91.93,42.39C92.02,42.29 92.1,42.21 92.16,42.15C92.18,42.12 92.2,42.1 92.21,42.09C92.26,42.03 92.32,41.97 92.37,41.91C92.39,41.89 92.41,41.88 92.41,41.87C125.76,4.88 147.4,-25.07 147.38,-35.47C147.38,-36.91 146.98,-38.04 146.19,-38.82" style="fill:rgb(0,222,221);fill-rule:nonzero;"></path>
        </g>
        <g transform="matrix(0.740603,-0.671942,-0.671942,-0.740603,262.533,249.885)">
            <path d="M-9.311,-3.036C-69.04,-5.147 -113.839,-2.796 -114.237,5.406C-114.635,13.608 -67.659,22.557 -9.311,25.393C49.037,28.229 96.662,23.879 97.061,15.676C97.459,7.474 49.405,-0.96 -9.311,-3.036" style="fill:rgb(255,142,255);fill-rule:nonzero;"></path>
        </g>
        <g transform="matrix(1,0,0,1,253.68,230.82)">
            <path d="M0,29.96C-0.47,30.43 -0.94,30.89 -1.41,31.36C-1.95,31.88 -2.49,32.41 -3.02,32.93C-3.21,33.11 -3.4,33.3 -3.59,33.49C-4.07,33.95 -4.55,34.42 -5.02,34.88C-6.15,35.97 -7.27,37.05 -8.37,38.11C-8.62,38.35 -8.87,38.58 -9.11,38.81C-9.35,39.05 -9.59,39.28 -9.83,39.51C-9.93,39.6 -10.03,39.7 -10.12,39.78C-10.27,39.92 -10.41,40.06 -10.55,40.19C-13.9,43.38 -17.14,46.41 -20.28,49.29C-19.23,48.36 -18.17,47.42 -17.11,46.46C-15.8,45.29 -14.48,44.09 -13.15,42.88C-12.99,42.75 -12.84,42.61 -12.7,42.47C-11.95,41.78 -11.18,41.06 -10.41,40.34C-10.21,40.16 -10.02,39.97 -9.82,39.78C-9.77,39.74 -9.73,39.7 -9.68,39.65C-9.44,39.43 -9.2,39.2 -8.95,38.97C-8.7,38.73 -8.45,38.5 -8.2,38.27C-7.1,37.22 -5.97,36.15 -4.84,35.06C-4.36,34.61 -3.88,34.15 -3.4,33.68C-3.14,33.43 -2.88,33.18 -2.62,32.93C-2.15,32.48 -1.68,32.02 -1.21,31.56C-0.73,31.1 -0.26,30.64 0.22,30.17C0.15,30.1 0.08,30.03 0,29.96M-19.18,13.47C-18.72,13 -18.25,12.53 -17.78,12.05C-16.41,10.66 -15.02,9.26 -13.62,7.86C-13.22,7.46 -12.82,7.06 -12.42,6.67C-12.23,6.47 -12.04,6.28 -11.85,6.1C-11.3,5.55 -10.75,5 -10.2,4.46C-9.2,3.47 -8.21,2.5 -7.23,1.53C-6.75,1.06 -6.27,0.6 -5.8,0.14C-5.06,-0.59 -4.33,-1.3 -3.6,-2.01C-3.12,-2.47 -2.64,-2.94 -2.16,-3.4C-1.93,-3.62 -1.7,-3.83 -1.48,-4.05C-1.23,-4.29 -0.98,-4.53 -0.74,-4.76C-0.55,-4.94 -0.35,-5.13 -0.16,-5.31C-0.16,-5.31 -0.06,-5.41 -0.02,-5.45C0.22,-5.68 0.46,-5.91 0.7,-6.14C37.26,-41.02 62.07,-57.95 68.41,-57.95C68.97,-57.95 69.39,-57.82 69.66,-57.55C69.81,-57.4 70.34,-56.66 69.54,-54.09C69.25,-53.16 68.79,-51.98 68.06,-50.5C66.07,-46.41 62.1,-40.02 54.41,-30.06C50.13,-24.51 45.18,-18.5 39.7,-12.17C39.6,-12.06 39.51,-11.94 39.41,-11.83C37.97,-10.17 36.62,-8.47 35.12,-6.77C35.04,-6.67 34.96,-6.58 34.87,-6.48C34.86,-6.47 34.85,-6.46 34.84,-6.45C32.59,-3.91 30.12,-1.35 27.72,1.27C26.26,2.87 24.76,4.48 23.24,6.1C23.07,6.29 22.89,6.48 22.71,6.67C21.25,8.23 19.77,9.8 18.27,11.38C18.04,11.62 17.81,11.86 17.58,12.1C17.35,12.34 17.12,12.58 16.9,12.82C16.66,13.07 16.42,13.31 16.18,13.56C15.97,13.78 15.75,14.01 15.54,14.23C15.08,14.71 14.61,15.19 14.15,15.67C13.94,15.89 13.72,16.11 13.51,16.33C13.02,16.84 12.52,17.35 12.03,17.86C11.57,18.33 11.11,18.8 10.64,19.28C8.54,21.43 6.41,23.58 4.25,25.74C3.75,26.24 3.26,26.73 2.77,27.21C1.84,28.14 0.92,29.06 0,29.96C-0.47,30.43 -0.94,30.89 -1.41,31.36C-1.95,31.88 -2.49,32.41 -3.02,32.93C-3.21,33.11 -3.4,33.3 -3.59,33.49C-4.07,33.95 -4.55,34.42 -5.02,34.88C-6.15,35.97 -7.27,37.05 -8.37,38.11C-8.62,38.35 -8.87,38.58 -9.11,38.81C-9.35,39.05 -9.59,39.28 -9.83,39.51C-9.93,39.6 -10.03,39.7 -10.12,39.78C-10.27,39.92 -10.41,40.06 -10.55,40.19C-13.9,43.38 -17.14,46.41 -20.28,49.29C-20.34,49.34 -20.4,49.4 -20.46,49.45C-24.37,53.05 -28.12,56.41 -31.7,59.53C-32.57,60.29 -33.39,61 -34.18,61.67C-34.19,61.68 -34.19,61.68 -34.2,61.69C-34.41,61.87 -34.62,62.05 -34.81,62.22C-37.75,64.76 -40.57,67.12 -43.26,69.32C-43.31,69.37 -43.37,69.41 -43.42,69.44C-43.53,69.54 -43.65,69.64 -43.76,69.72C-50.29,75.06 -56.03,79.4 -60.89,82.76C-60.98,82.83 -61.06,82.89 -61.15,82.95C-63.5,84.56 -65.64,85.95 -67.56,87.11C-71.93,89.76 -75.15,91.21 -77.12,91.49C-78.03,91.62 -78.67,91.5 -79.03,91.14C-79.31,90.87 -80.93,88.5 -72.63,75.9C-72.54,75.76 -72.45,75.62 -72.35,75.48C-70.2,72.24 -67.41,68.35 -63.79,63.66C-60.92,59.95 -57.76,56.03 -54.34,51.95C-53.4,50.83 -52.44,49.69 -51.45,48.54C-51.44,48.52 -51.42,48.51 -51.41,48.49C-51.31,48.37 -51.21,48.25 -51.1,48.12C-47.82,44.28 -44.33,40.32 -40.67,36.26C-37.07,32.27 -33.29,28.19 -29.38,24.05C-28.94,23.59 -28.49,23.12 -28.05,22.65C-27.82,22.41 -27.59,22.17 -27.36,21.93C-27.13,21.69 -26.91,21.45 -26.67,21.21C-26.44,20.96 -26.2,20.71 -25.96,20.46C-24.89,19.35 -23.81,18.23 -22.73,17.11C-22.47,16.85 -22.22,16.59 -21.97,16.33C-21.76,16.11 -21.54,15.89 -21.33,15.67C-20.62,14.94 -19.9,14.21 -19.18,13.47M71.08,-58.96C69.93,-60.1 66.46,-63.58 40.95,-43.88C36.94,-40.79 32.7,-37.35 28.26,-33.62C28.14,-33.52 28.02,-33.42 27.9,-33.32C18.94,-25.76 9.24,-17.02 -0.73,-7.53C-0.97,-7.3 -1.93,-6.38 -2.17,-6.15C-2.24,-6.08 -2.31,-6.01 -2.38,-5.95C-2.39,-5.94 -2.39,-5.94 -2.4,-5.93C-2.57,-5.77 -2.74,-5.6 -2.91,-5.44C-3.14,-5.22 -3.36,-5 -3.59,-4.78C-4.07,-4.32 -4.55,-3.86 -5.03,-3.39C-5.77,-2.68 -6.51,-1.96 -7.26,-1.23C-7.52,-0.97 -7.79,-0.71 -8.06,-0.44C-8.26,-0.25 -8.47,-0.05 -8.68,0.16C-9.67,1.13 -10.67,2.11 -11.67,3.1C-12.67,4.09 -13.68,5.09 -14.69,6.1L-15.26,6.67C-16.57,7.98 -17.87,9.28 -19.16,10.59C-19.62,11.06 -20.09,11.54 -20.56,12.02C-21.28,12.75 -22,13.49 -22.72,14.23C-23.19,14.71 -23.66,15.19 -24.12,15.67C-24.33,15.89 -24.55,16.11 -24.76,16.33C-25.63,17.23 -26.5,18.13 -27.35,19.03C-27.6,19.28 -27.84,19.53 -28.07,19.78C-28.3,20.02 -29.22,20.98 -29.45,21.22C-29.91,21.7 -30.36,22.18 -30.81,22.66C-34.21,26.25 -37.5,29.8 -40.67,33.29C-44.38,37.37 -47.92,41.37 -51.26,45.24C-51.6,45.63 -51.93,46.01 -52.26,46.4C-52.27,46.42 -52.29,46.43 -52.3,46.45C-53.05,47.32 -53.78,48.19 -54.51,49.04C-55.07,49.7 -55.62,50.36 -56.17,51.01C-56.27,51.15 -56.38,51.28 -56.49,51.4C-56.87,51.86 -57.25,52.31 -57.63,52.77C-57.65,52.8 -57.67,52.82 -57.7,52.85C-59.82,55.42 -61.83,57.92 -63.73,60.35C-63.73,60.35 -63.74,60.35 -63.74,60.36C-63.75,60.37 -63.76,60.38 -63.77,60.39C-64.32,61.08 -64.85,61.76 -65.37,62.44C-68.88,66.98 -71.65,70.83 -73.82,74.08C-74.15,74.56 -74.45,75.01 -74.74,75.46C-83.74,89.26 -81.36,91.65 -80.45,92.56C-80.14,92.87 -79.67,93.34 -78.67,93.49C-78.46,93.52 -78.22,93.54 -77.96,93.54C-77.02,93.54 -75.72,93.3 -73.92,92.62C-71.18,91.58 -67.27,89.52 -61.61,85.7C-61.26,85.46 -60.9,85.22 -60.53,84.97C-60.52,84.96 -60.5,84.95 -60.49,84.94C-60.38,84.86 -60.27,84.79 -60.17,84.72C-60.15,84.71 -60.13,84.69 -60.1,84.67C-57.68,82.99 -54.96,81.02 -51.91,78.7C-51.83,78.64 -51.74,78.57 -51.65,78.5C-51.22,78.17 -50.77,77.83 -50.32,77.48C-47.81,75.54 -45.2,73.47 -42.52,71.27C-42.5,71.25 -42.37,71.15 -42.13,70.95C-42,70.84 -41.87,70.73 -41.73,70.62L-41.72,70.62C-41.47,70.42 -41.17,70.17 -40.81,69.87C-40.8,69.85 -40.78,69.83 -40.76,69.82L-40.75,69.82C-40.74,69.82 -40.74,69.81 -40.73,69.8L-40.72,69.8C-39.93,69.15 -38.89,68.29 -37.63,67.22C-37.17,66.83 -36.71,66.44 -36.25,66.06C-36.16,65.98 -36.06,65.9 -35.96,65.81C-34.48,64.55 -33,63.27 -31.48,61.96L-31.47,61.95C-26.96,58.03 -22.3,53.85 -17.53,49.45C-15.98,48.02 -14.42,46.57 -12.85,45.1C-12.83,45.09 -12.82,45.08 -12.8,45.05C-11.59,43.92 -10.36,42.75 -9.14,41.59C-8.89,41.36 -8.65,41.13 -8.41,40.9C-8.17,40.67 -7.92,40.44 -7.68,40.21C-7.53,40.06 -7.38,39.92 -7.23,39.78C-7.13,39.68 -7.04,39.59 -6.94,39.5C-5.83,38.43 -4.71,37.36 -3.59,36.27C-3.12,35.81 -2.64,35.35 -2.16,34.88C-1.5,34.23 -0.83,33.58 -0.16,32.93C-0.1,32.86 -0.03,32.8 0.03,32.74C0.5,32.27 0.98,31.81 1.45,31.34C1.89,30.91 2.33,30.47 2.77,30.04C3.73,29.08 4.7,28.12 5.67,27.15C7.82,25 9.94,22.86 12.02,20.72C12.49,20.24 12.96,19.77 13.41,19.3C14.13,18.56 14.84,17.83 15.54,17.1C15.8,16.84 16.04,16.58 16.29,16.33C16.51,16.11 16.72,15.88 16.93,15.66C17.15,15.44 17.36,15.21 17.58,14.99C17.82,14.74 18.05,14.5 18.29,14.25C18.52,14.01 18.75,13.77 18.98,13.53C19.21,13.29 19.44,13.05 19.67,12.8C21.63,10.75 23.55,8.7 25.44,6.67C25.62,6.48 25.8,6.29 25.97,6.1C26.48,5.55 26.98,5.01 27.48,4.47C27.52,4.43 27.56,4.39 27.6,4.35C27.93,3.99 28.26,3.63 28.59,3.27C31.64,-0.04 34.57,-3.29 37.39,-6.48L37.4,-6.49C37.78,-6.92 38.15,-7.35 38.52,-7.77C39.24,-8.59 39.95,-9.4 40.65,-10.2C46.31,-16.73 51.44,-22.94 55.86,-28.66C55.91,-28.72 55.95,-28.78 56,-28.84C67.28,-43.45 70.96,-50.84 71.82,-54.69C71.94,-55.18 72,-55.61 72.03,-55.99C72.18,-57.86 71.48,-58.56 71.08,-58.96M0,29.96C-0.47,30.43 -0.94,30.89 -1.41,31.36C-1.95,31.88 -2.49,32.41 -3.02,32.93C-3.21,33.11 -3.4,33.3 -3.59,33.49C-4.07,33.95 -4.55,34.42 -5.02,34.88C-6.15,35.97 -7.27,37.05 -8.37,38.11C-8.62,38.35 -8.87,38.58 -9.11,38.81C-9.35,39.05 -9.59,39.28 -9.83,39.51C-9.93,39.6 -10.03,39.7 -10.12,39.78C-10.27,39.92 -10.41,40.06 -10.55,40.19C-13.9,43.38 -17.14,46.41 -20.28,49.29C-19.23,48.36 -18.17,47.42 -17.11,46.46C-15.8,45.29 -14.48,44.09 -13.15,42.88C-12.99,42.75 -12.84,42.61 -12.7,42.47C-11.95,41.78 -11.18,41.06 -10.41,40.34C-10.21,40.16 -10.02,39.97 -9.82,39.78C-9.77,39.74 -9.73,39.7 -9.68,39.65C-9.44,39.43 -9.2,39.2 -8.95,38.97C-8.7,38.73 -8.45,38.5 -8.2,38.27C-7.1,37.22 -5.97,36.15 -4.84,35.06C-4.36,34.61 -3.88,34.15 -3.4,33.68C-3.14,33.43 -2.88,33.18 -2.62,32.93C-2.15,32.48 -1.68,32.02 -1.21,31.56C-0.73,31.1 -0.26,30.64 0.22,30.17C0.15,30.1 0.08,30.03 0,29.96M0,29.96C-0.47,30.43 -0.94,30.89 -1.41,31.36C-1.95,31.88 -2.49,32.41 -3.02,32.93C-3.21,33.11 -3.4,33.3 -3.59,33.49C-4.07,33.95 -4.55,34.42 -5.02,34.88C-6.15,35.97 -7.27,37.05 -8.37,38.11C-8.62,38.35 -8.87,38.58 -9.11,38.81C-9.35,39.05 -9.59,39.28 -9.83,39.51C-9.93,39.6 -10.03,39.7 -10.12,39.78C-10.27,39.92 -10.41,40.06 -10.55,40.19C-13.9,43.38 -17.14,46.41 -20.28,49.29C-20.34,49.34 -20.4,49.4 -20.46,49.45C-24.37,53.05 -28.12,56.41 -31.7,59.53C-28.41,56.68 -24.56,53.3 -20.31,49.45C-18.03,47.39 -15.64,45.2 -13.15,42.88C-12.99,42.75 -12.84,42.61 -12.7,42.47C-11.95,41.78 -11.18,41.06 -10.41,40.34C-10.21,40.16 -10.02,39.97 -9.82,39.78C-9.77,39.74 -9.73,39.7 -9.68,39.65C-9.44,39.43 -9.2,39.2 -8.95,38.97C-8.7,38.73 -8.45,38.5 -8.2,38.27C-7.1,37.22 -5.97,36.15 -4.84,35.06C-4.36,34.61 -3.88,34.15 -3.4,33.68C-3.14,33.43 -2.88,33.18 -2.62,32.93C-2.15,32.48 -1.68,32.02 -1.21,31.56C-0.73,31.1 -0.26,30.64 0.22,30.17C0.15,30.1 0.08,30.03 0,29.96" style="fill:white;fill-rule:nonzero;"></path>
        </g>
        <g transform="matrix(1,0,0,1,288,285.843)">
            <path d="M0,-82.869C0,-82.869 -24.663,-63.843 -38.052,-51.048C-51.441,-38.254 -62.029,-26.963 -62.029,-26.963L-72.941,-14.403C-72.941,-14.403 -82.183,-3.313 -83.68,-0.137C-85.177,3.04 -87.412,8.024 -86.941,8.767C-86.471,9.51 -84.49,10.615 -72.941,3.04C-61.392,-4.535 -34.824,-30.137 -34.824,-30.137L-11.765,-54.372L4.941,-75.516C4.941,-75.516 18.118,-93.484 0,-82.869" style="fill:rgb(32,35,73);fill-rule:nonzero;"></path>
        </g>
        <g transform="matrix(1,0,0,1,250.08,237.5)">
            <path d="M0,19.79C-0.48,20.26 -0.96,20.73 -1.43,21.18C-2.15,21.89 -2.87,22.58 -3.59,23.27C-4.07,23.73 -4.56,24.19 -5.04,24.66C-5.6,25.19 -6.17,25.73 -6.73,26.25L-3.82,26.25C-3.75,26.19 -3.68,26.12 -3.62,26.05C-3.14,25.6 -2.65,25.14 -2.17,24.67C-1.45,23.99 -0.72,23.29 0,22.58C0.48,22.12 0.95,21.66 1.43,21.19C0.96,20.72 0.48,20.26 0,19.79M36.08,-19.81C34.45,-17.7 32.67,-15.48 30.75,-13.17L30.74,-13.16C28.07,-9.95 25.16,-6.59 22.03,-3.1C21.28,-2.27 20.52,-1.43 19.74,-0.58C19.57,-0.39 19.4,-0.2 19.22,-0.01C18.91,0.33 18.59,0.68 18.26,1.03C18.04,1.27 17.81,1.52 17.58,1.77C17.36,2.01 17.13,2.25 16.9,2.5C16.67,2.75 16.44,3 16.2,3.25C16,3.47 15.79,3.69 15.58,3.91C15.12,4.4 14.66,4.89 14.2,5.38C14.14,5.44 14.09,5.49 14.04,5.55C13.4,6.21 12.77,6.88 12.12,7.55C11.67,8.03 11.21,8.51 10.74,8.99C9.31,10.47 7.85,11.96 6.37,13.45C5.69,14.14 5.01,14.83 4.32,15.52C2.88,16.96 1.43,18.39 0,19.79C-0.48,20.26 -0.96,20.73 -1.43,21.18C-2.15,21.89 -2.87,22.58 -3.59,23.27C-4.07,23.73 -4.56,24.19 -5.04,24.66C-5.6,25.19 -6.17,25.73 -6.73,26.25C-7.3,26.79 -7.86,27.31 -8.42,27.83C-8.67,28.07 -8.91,28.3 -9.16,28.53C-9.41,28.76 -9.66,28.99 -9.9,29.21C-10.15,29.44 -10.4,29.67 -10.64,29.88C-11.83,30.99 -13.01,32.06 -14.17,33.1C-18.06,36.61 -21.82,39.86 -25.36,42.77C-27.32,44.38 -29.2,45.89 -31.01,47.29C-33.73,49.39 -36.04,51.06 -38.01,52.38C-38.02,52.39 -38.03,52.39 -38.04,52.4C-40.92,54.33 -43.05,55.52 -44.57,56.22C-46.73,57.21 -47.71,57.22 -47.95,56.98C-48.25,56.68 -48.15,55.26 -46.32,51.89L-46.32,51.88C-45.71,50.75 -44.9,49.4 -43.84,47.79C-43.83,47.78 -43.83,47.77 -43.82,47.76C-42.43,45.65 -40.61,43.1 -38.25,40.04C-37.52,39.09 -36.75,38.12 -35.96,37.13C-31.68,31.78 -26.55,25.85 -20.84,19.65C-20.62,19.41 -20.39,19.16 -20.16,18.92C-19.94,18.68 -19.72,18.43 -19.48,18.19C-19.29,17.97 -19.09,17.76 -18.88,17.54C-18.85,17.5 -18.82,17.47 -18.78,17.43C-17.74,16.31 -16.68,15.19 -15.6,14.06C-15.15,13.58 -14.69,13.09 -14.22,12.6C-13.52,11.88 -12.82,11.15 -12.12,10.42C-11.87,10.16 -11.62,9.91 -11.37,9.65C-11.15,9.43 -10.94,9.21 -10.73,8.99C-9.33,7.57 -7.92,6.14 -6.49,4.71C-4.93,3.15 -3.39,1.63 -1.89,0.17L-1.7,-0.02C-1.53,-0.18 -1.37,-0.34 -1.21,-0.5C-0.8,-0.9 -0.4,-1.29 0,-1.68C0.49,-2.14 0.97,-2.61 1.44,-3.06C2.18,-3.77 2.91,-4.47 3.63,-5.15C4.12,-5.61 4.61,-6.07 5.09,-6.53C5.32,-6.74 5.54,-6.95 5.77,-7.16C6.02,-7.39 6.26,-7.62 6.51,-7.85C6.76,-8.08 7,-8.31 7.25,-8.53C7.49,-8.77 7.74,-8.99 7.98,-9.22C9.41,-10.54 10.81,-11.81 12.17,-13.03C28.52,-27.71 39.69,-35.27 43.98,-36.68C44.48,-36.85 44.88,-36.93 45.19,-36.93C45.46,-36.93 45.66,-36.86 45.78,-36.74C46.31,-36.21 45.6,-32.13 36.08,-19.81M47.19,-38.16C47.01,-38.34 46.77,-38.58 46.35,-38.74C44.77,-39.33 40.62,-38.68 27.62,-28.63C21.53,-23.93 14.56,-17.98 7.21,-11.21C7.17,-11.18 7.14,-11.14 7.1,-11.11C6.92,-10.95 6.74,-10.79 6.56,-10.61C6.31,-10.39 6.07,-10.16 5.82,-9.93C5.58,-9.71 5.33,-9.48 5.09,-9.25C4.84,-9.02 4.59,-8.79 4.34,-8.55C4.12,-8.35 3.89,-8.14 3.67,-7.92C3.18,-7.47 2.7,-7.01 2.21,-6.54C1.47,-5.86 0.74,-5.15 0,-4.44C-0.48,-3.99 -0.95,-3.53 -1.43,-3.06C-2.26,-2.27 -3.09,-1.46 -3.92,-0.64C-3.94,-0.63 -3.96,-0.61 -3.98,-0.58C-4.18,-0.4 -4.37,-0.21 -4.56,-0.01C-5.68,1.08 -6.79,2.18 -7.91,3.3C-9.33,4.72 -10.73,6.13 -12.11,7.54C-12.58,8.02 -13.05,8.5 -13.5,8.98C-13.73,9.21 -13.95,9.43 -14.16,9.65C-14.65,10.16 -15.14,10.67 -15.61,11.17C-16.09,11.65 -16.55,12.14 -17,12.62C-18.08,13.75 -19.14,14.88 -20.18,16C-20.43,16.26 -20.66,16.51 -20.89,16.76C-21.12,17 -21.35,17.25 -21.57,17.49C-21.59,17.51 -21.6,17.52 -21.61,17.54C-21.83,17.77 -22.04,17.99 -22.24,18.22C-27.68,24.13 -32.61,29.79 -36.78,34.96C-37.85,36.28 -38.87,37.57 -39.84,38.82C-42.04,41.67 -43.78,44.09 -45.16,46.15C-45.17,46.16 -45.18,46.18 -45.19,46.19C-45.87,47.2 -46.46,48.12 -46.97,48.96L-46.97,48.97C-49.26,52.75 -49.99,54.96 -50.08,56.31C-50.1,56.62 -50.09,56.88 -50.05,57.11C-49.94,57.81 -49.6,58.15 -49.36,58.39C-49.07,58.68 -48.63,59.12 -47.56,59.12C-46.7,59.12 -45.45,58.84 -43.56,57.96C-41.73,57.11 -39.28,55.7 -36,53.42C-35.99,53.41 -35.98,53.41 -35.97,53.4C-34.17,52.17 -32.12,50.67 -29.79,48.87C-27.39,47.02 -24.86,44.98 -22.23,42.77C-18.71,39.82 -15.01,36.58 -11.19,33.1C-10.54,32.51 -9.88,31.91 -9.22,31.29C-8.97,31.08 -8.73,30.85 -8.48,30.62C-8.24,30.39 -7.99,30.17 -7.75,29.93C-7.5,29.71 -7.25,29.48 -7,29.23C-5.95,28.26 -4.88,27.26 -3.82,26.25C-3.75,26.19 -3.68,26.12 -3.62,26.05C-3.14,25.6 -2.65,25.14 -2.17,24.67C-1.45,23.99 -0.72,23.29 0,22.58C0.48,22.12 0.95,21.66 1.43,21.19C2.86,19.8 4.3,18.38 5.74,16.94C5.95,16.73 6.17,16.51 6.37,16.3C8.33,14.33 10.26,12.37 12.14,10.42C12.6,9.94 13.07,9.46 13.52,8.98C13.78,8.71 14.04,8.45 14.28,8.18C14.73,7.72 15.17,7.26 15.6,6.8C16.06,6.32 16.52,5.83 16.97,5.34C17.19,5.12 17.4,4.9 17.6,4.67C17.84,4.42 18.07,4.17 18.3,3.92C18.53,3.68 18.76,3.44 18.98,3.19C19.21,2.95 19.44,2.7 19.66,2.45C20.43,1.63 21.19,0.8 21.92,-0.01C22.1,-0.2 22.28,-0.39 22.44,-0.58C25.49,-3.94 28.35,-7.21 30.99,-10.33C31.8,-11.29 32.57,-12.23 33.34,-13.16L33.35,-13.17C34.88,-15.04 36.33,-16.84 37.67,-18.58C39.88,-21.44 41.64,-23.88 43.02,-25.95C49.59,-35.76 47.9,-37.44 47.19,-38.16M0,19.79C-0.48,20.26 -0.96,20.73 -1.43,21.18C-2.15,21.89 -2.87,22.58 -3.59,23.27C-4.07,23.73 -4.56,24.19 -5.04,24.66C-5.6,25.19 -6.17,25.73 -6.73,26.25L-3.82,26.25C-3.75,26.19 -3.68,26.12 -3.62,26.05C-3.14,25.6 -2.65,25.14 -2.17,24.67C-1.45,23.99 -0.72,23.29 0,22.58C0.48,22.12 0.95,21.66 1.43,21.19C0.96,20.72 0.48,20.26 0,19.79M0,19.79C-0.48,20.26 -0.96,20.73 -1.43,21.18C-2.15,21.89 -2.87,22.58 -3.59,23.27C-4.07,23.73 -4.56,24.19 -5.04,24.66C-5.6,25.19 -6.17,25.73 -6.73,26.25L-3.82,26.25C-3.75,26.19 -3.68,26.12 -3.62,26.05C-3.14,25.6 -2.65,25.14 -2.17,24.67C-1.45,23.99 -0.72,23.29 0,22.58C0.48,22.12 0.95,21.66 1.43,21.19C0.96,20.72 0.48,20.26 0,19.79" style="fill:white;fill-rule:nonzero;"></path>
        </g>
    </g>
</svg>