<?xml version="1.0"?>

<svg width="100%" height="100%" viewBox="0 0 2084 2084" version="1.1" xmlns="http://www.w3.org/2000/svg" xmlns:xlink="http://www.w3.org/1999/xlink" xml:space="preserve" xmlns:serif="http://www.serif.com/" style="fill-rule:evenodd;clip-rule:evenodd;stroke-linejoin:round;stroke-miterlimit:2;">
    <g id="Calque3">
        <g transform="matrix(2.94628,2.94628,2.94628,-2.94628,960.694,1037.78)">
            <path d="M13.742,-5.692C97.256,-5.691 164.957,3.01 164.957,13.743C164.957,24.475 97.256,33.176 13.742,33.175C-69.773,33.174 -137.473,24.473 -137.474,13.74C-137.474,3.008 -69.773,-5.693 13.742,-5.692" style="fill:white;fill-rule:nonzero;"></path>
        </g>
        <g transform="matrix(4.16667,0,0,4.16667,1484.25,572.583)">
            <path d="M0,217.86C-4.51,222.38 -32.89,203.81 -72.41,168.88C-74.35,167.17 -76.32,165.41 -78.32,163.61C-81.58,160.68 -84.91,157.64 -88.3,154.5C-88.31,154.49 -88.32,154.48 -88.33,154.47C-91.12,151.88 -93.96,149.23 -96.83,146.51C-96.91,146.44 -96.98,146.37 -97.06,146.3C-97.4,145.97 -97.75,145.64 -98.1,145.31C-98.42,145.01 -98.74,144.7 -99.06,144.4C-99.32,144.15 -99.58,143.9 -99.84,143.66C-100.04,143.46 -100.24,143.27 -100.45,143.07L-101.05,142.5C-101.91,141.67 -102.78,140.83 -103.66,139.98C-104,139.65 -104.35,139.32 -104.69,138.99C-104.77,138.91 -104.85,138.84 -104.93,138.76C-104.93,138.76 -105.02,138.67 -105.04,138.65C-105.1,138.6 -105.16,138.54 -105.22,138.48L-105.41,138.29C-105.65,138.06 -105.89,137.83 -106.13,137.6C-106.24,137.5 -106.34,137.39 -106.45,137.29C-106.52,137.22 -106.59,137.16 -106.66,137.09C-107.74,136.04 -108.82,134.99 -109.91,133.91C-109.96,133.87 -110.01,133.82 -110.07,133.76C-110.09,133.74 -110.12,133.72 -110.14,133.69C-110.17,133.67 -110.19,133.64 -110.22,133.61C-110.35,133.48 -110.49,133.35 -110.63,133.21C-110.64,133.21 -110.65,133.2 -110.66,133.18C-110.76,133.09 -110.85,132.99 -110.95,132.9L-111.09,132.76C-111.21,132.64 -111.34,132.52 -111.46,132.4L-111.49,132.37C-111.54,132.32 -111.6,132.27 -111.65,132.21C-112.39,131.48 -113.14,130.75 -113.89,130.01C-114.36,129.54 -114.83,129.08 -115.3,128.61C-116.06,127.86 -116.82,127.1 -117.59,126.33C-118.14,125.79 -118.69,125.24 -119.25,124.68C-121.39,122.54 -123.51,120.4 -125.62,118.27C-125.83,118.05 -126.04,117.83 -126.25,117.62C-126.51,117.36 -126.77,117.1 -127.03,116.84C-127.75,116.09 -128.48,115.35 -129.21,114.61C-129.68,114.13 -130.13,113.66 -130.6,113.19L-130.61,113.18C-130.66,113.12 -130.72,113.06 -130.78,113C-131.19,112.57 -131.6,112.15 -132.01,111.73C-132.24,111.49 -132.47,111.26 -132.7,111.02C-132.93,110.78 -133.16,110.54 -133.39,110.3L-133.46,110.23C-135.75,107.86 -138.01,105.5 -140.23,103.16C-140.96,102.4 -141.67,101.65 -142.39,100.89C-143.79,99.4 -145.18,97.92 -146.56,96.44C-149.56,93.23 -152.48,90.07 -155.33,86.92L-155.34,86.91C-169,71.9 -181.06,57.69 -190.75,45.14C-210.48,19.6 -214.89,7.88 -212.44,5.43C-211.99,4.98 -211.31,4.76 -210.4,4.76C-199.82,4.76 -158.96,34.82 -107.57,84.47C-107.33,84.7 -107.1,84.93 -106.86,85.16C-106.62,85.4 -106.37,85.63 -106.13,85.87C-105.71,86.27 -105.3,86.67 -104.88,87.08C-104.82,87.13 -104.77,87.19 -104.71,87.25C-104.7,87.26 -104.7,87.26 -104.69,87.27C-104.58,87.37 -104.47,87.48 -104.36,87.58C-104.35,87.59 -104.34,87.6 -104.33,87.61C-103.98,87.95 -103.63,88.3 -103.28,88.64C-102.54,89.36 -101.8,90.09 -101.05,90.83C-100.58,91.29 -100.1,91.75 -99.63,92.23C-98.65,93.19 -97.66,94.16 -96.67,95.15C-95.52,96.29 -94.36,97.44 -93.19,98.61L-92.25,99.55C-91.88,99.92 -91.52,100.29 -91.15,100.65C-90.51,101.3 -89.87,101.94 -89.24,102.58C-88.77,103.05 -88.3,103.52 -87.84,104C-87.1,104.74 -86.37,105.48 -85.64,106.22C-85.57,106.3 -85.49,106.38 -85.41,106.46C-85.36,106.51 -85.3,106.57 -85.26,106.62C-85.07,106.81 -84.89,106.99 -84.72,107.17C-84.68,107.21 -84.64,107.24 -84.61,107.28C-84.58,107.31 -84.55,107.34 -84.53,107.37C-84.42,107.47 -84.33,107.56 -84.25,107.65C-84.16,107.73 -84.09,107.81 -84.01,107.89L-83.94,107.96C-83.36,108.55 -82.79,109.14 -82.21,109.73C-81.73,110.23 -81.24,110.73 -80.76,111.23C-80.69,111.29 -80.63,111.36 -80.57,111.43C-80.46,111.53 -80.36,111.63 -80.26,111.74C-80.03,111.98 -79.8,112.22 -79.57,112.46L-79.36,112.67C-79.29,112.74 -79.23,112.81 -79.16,112.88L-79.04,113C-78.98,113.06 -78.93,113.12 -78.87,113.18C-78.51,113.55 -78.15,113.92 -77.79,114.29C-77.05,115.06 -76.32,115.82 -75.59,116.59C-75.43,116.76 -75.26,116.93 -75.1,117.1C-74.86,117.35 -74.63,117.59 -74.4,117.84C-74.2,118.04 -74.02,118.23 -73.83,118.43C-73.43,118.85 -73.04,119.26 -72.64,119.68C-72.44,119.89 -72.24,120.1 -72.04,120.31C-71.87,120.48 -71.71,120.65 -71.55,120.83C-70.13,122.32 -68.73,123.81 -67.34,125.29C-64.89,127.9 -62.48,130.5 -60.11,133.07C-57.09,136.37 -54.13,139.63 -51.27,142.85C-47.46,147.11 -43.8,151.29 -40.3,155.37L-40.29,155.38C-38.3,157.72 -36.36,160.01 -34.47,162.28C-33.12,163.9 -31.8,165.49 -30.5,167.07C-27.39,170.88 -24.44,174.58 -21.69,178.15C-1.96,203.69 2.45,215.41 0,217.86M-20.1,176.93C-22.84,173.39 -25.76,169.72 -28.85,165.93C-30.1,164.41 -31.36,162.87 -32.66,161.32C-34.29,159.36 -35.95,157.39 -37.66,155.38L-37.67,155.37C-41.38,151.03 -45.27,146.56 -49.32,142.01C-52.33,138.64 -55.42,135.23 -58.59,131.77C-60.56,129.63 -62.56,127.47 -64.6,125.29C-66.42,123.34 -68.28,121.37 -70.16,119.39C-70.32,119.21 -70.49,119.03 -70.67,118.85C-70.85,118.65 -71.05,118.45 -71.24,118.25C-71.64,117.83 -72.04,117.4 -72.45,116.98C-72.57,116.85 -72.7,116.72 -72.82,116.59C-72.88,116.52 -72.95,116.46 -73.01,116.39C-73.24,116.15 -73.48,115.9 -73.71,115.66C-74.6,114.73 -75.5,113.79 -76.4,112.86C-76.76,112.49 -77.12,112.11 -77.48,111.74L-77.64,111.58C-77.64,111.57 -77.65,111.56 -77.67,111.55C-77.69,111.52 -77.73,111.49 -77.75,111.45C-77.83,111.38 -77.89,111.31 -77.96,111.24C-77.99,111.21 -78.14,111.06 -78.18,111.02C-78.4,110.78 -78.64,110.54 -78.87,110.3L-79.16,110.01C-79.22,109.95 -79.28,109.88 -79.35,109.81L-79.43,109.73C-80.46,108.66 -81.51,107.59 -82.57,106.51C-82.59,106.49 -82.61,106.46 -82.64,106.44C-82.71,106.36 -82.79,106.28 -82.87,106.2C-82.95,106.12 -83.03,106.04 -83.11,105.96C-83.14,105.93 -83.17,105.89 -83.21,105.86C-83.25,105.82 -83.29,105.77 -83.34,105.73C-83.51,105.54 -83.69,105.35 -83.89,105.17C-83.93,105.11 -83.99,105.06 -84.04,105.01C-84.11,104.93 -84.18,104.86 -84.27,104.78C-85,104.03 -85.74,103.28 -86.48,102.53C-86.94,102.05 -87.41,101.58 -87.88,101.11C-88.22,100.76 -88.57,100.42 -88.91,100.07L-89.48,99.5C-90.24,98.73 -91,97.97 -91.77,97.2C-92.92,96.05 -94.07,94.91 -95.22,93.76C-96.2,92.8 -97.18,91.83 -98.16,90.86C-98.63,90.4 -99.11,89.93 -99.58,89.47L-99.74,89.31C-99.76,89.28 -99.79,89.26 -99.81,89.24C-100.49,88.58 -101.16,87.91 -101.84,87.26C-102.31,86.8 -102.78,86.34 -103.25,85.89C-103.26,85.88 -103.26,85.88 -103.27,85.87C-103.32,85.81 -103.37,85.76 -103.43,85.71C-103.85,85.3 -104.28,84.88 -104.7,84.48C-104.94,84.24 -105.18,84.01 -105.42,83.77C-105.66,83.54 -105.9,83.31 -106.14,83.08C-154.52,36.36 -205.33,-4.52 -213.85,4.02C-218.04,8.2 -210.8,22.45 -192.34,46.37C-183.52,57.78 -172.76,70.56 -160.62,84.07C-159.77,85.01 -158.92,85.96 -158.06,86.91L-158.05,86.92C-154.64,90.68 -151.14,94.48 -147.54,98.33C-147.13,98.77 -146.73,99.2 -146.32,99.63C-144.74,101.32 -143.13,103.02 -141.52,104.72C-139.3,107.05 -137.06,109.39 -134.78,111.74C-134.55,111.98 -134.32,112.22 -134.08,112.46C-133.91,112.65 -133.73,112.83 -133.55,113.01C-133.5,113.07 -133.45,113.12 -133.39,113.17C-132.98,113.6 -132.57,114.02 -132.16,114.45C-132.1,114.5 -132.05,114.56 -131.99,114.62L-131.97,114.64C-131.52,115.1 -131.05,115.58 -130.59,116.05C-130.09,116.57 -129.57,117.1 -129.05,117.62C-128.83,117.85 -128.61,118.08 -128.38,118.3C-127.92,118.78 -127.45,119.25 -126.98,119.73C-124.9,121.85 -122.79,123.97 -120.67,126.09C-120.59,126.17 -120.51,126.25 -120.43,126.33C-119.22,127.54 -118,128.75 -116.78,129.96C-116.31,130.43 -115.84,130.9 -115.36,131.37C-114.75,131.97 -114.14,132.57 -113.52,133.18C-113.38,133.32 -113.23,133.46 -113.09,133.59C-113.04,133.65 -113,133.69 -112.95,133.74L-112.57,134.12C-112.52,134.17 -112.46,134.22 -112.41,134.27C-112.3,134.39 -112.18,134.5 -112.07,134.61C-111.94,134.73 -111.81,134.86 -111.68,134.99C-111.66,135.01 -111.53,135.14 -111.53,135.14C-111.47,135.19 -111.42,135.24 -111.37,135.29C-110.27,136.36 -109.18,137.43 -108.08,138.49C-108.01,138.56 -107.94,138.63 -107.87,138.69C-107.77,138.79 -107.67,138.89 -107.57,138.99C-107.33,139.22 -107.09,139.45 -106.85,139.68C-106.84,139.69 -106.84,139.7 -106.83,139.71C-106.77,139.76 -106.7,139.83 -106.64,139.88C-106.58,139.94 -106.53,139.99 -106.47,140.04C-106.45,140.07 -106.43,140.09 -106.41,140.1C-106.39,140.13 -106.38,140.14 -106.36,140.15C-106.28,140.23 -106.21,140.31 -106.13,140.38C-105.79,140.71 -105.44,141.04 -105.1,141.37C-104.59,141.87 -104.08,142.36 -103.56,142.85C-102.99,143.4 -102.42,143.94 -101.86,144.49L-101.26,145.06C-100.99,145.31 -100.72,145.56 -100.46,145.81C-100.14,146.11 -99.83,146.41 -99.51,146.71C-99.16,147.05 -98.81,147.38 -98.46,147.71C-98.39,147.78 -98.32,147.85 -98.24,147.92C-96.39,149.68 -94.52,151.44 -92.66,153.18C-92.65,153.18 -92.65,153.18 -92.64,153.19C-88.85,156.73 -85.07,160.21 -81.32,163.61C-79.35,165.39 -77.4,167.15 -75.46,168.88C-42.44,198.32 -12.87,220.41 -1.88,220.41C-0.46,220.41 0.65,220.04 1.41,219.28C5.6,215.09 -1.64,200.84 -20.1,176.93" style="fill:white;fill-rule:nonzero;"></path>
        </g>
        <g transform="matrix(4.16667,0,0,4.16667,1356.92,707.333)">
            <path d="M0,152.34C-0.27,152.61 -0.69,152.74 -1.25,152.74C-1.45,152.74 -1.66,152.72 -1.9,152.69C-5.87,152.13 -14.98,146.8 -28.23,136.54C-28.26,136.52 -28.29,136.49 -28.32,136.47C-33.22,132.67 -38.68,128.2 -44.66,123.04L-44.67,123.03C-49.68,118.71 -55.05,113.92 -60.76,108.63C-60.85,108.56 -60.93,108.48 -61.02,108.4C-61.35,108.09 -61.68,107.78 -62.02,107.46C-62.36,107.15 -62.7,106.83 -63.04,106.51C-63.28,106.29 -63.52,106.06 -63.76,105.84C-63.98,105.63 -64.21,105.42 -64.43,105.2C-65.47,104.24 -66.51,103.26 -67.57,102.25C-67.91,101.92 -68.26,101.59 -68.61,101.26C-68.69,101.18 -68.77,101.11 -68.85,101.03C-68.87,101.01 -68.89,101 -68.9,100.98C-68.93,100.96 -68.95,100.94 -68.97,100.91C-69.04,100.85 -69.11,100.78 -69.17,100.72C-69.23,100.67 -69.29,100.61 -69.34,100.57C-69.35,100.55 -69.36,100.55 -69.36,100.55C-69.59,100.32 -69.82,100.11 -70.05,99.88C-70.17,99.77 -70.29,99.65 -70.42,99.53C-70.48,99.47 -70.55,99.41 -70.62,99.34C-71.67,98.33 -72.74,97.3 -73.82,96.25C-73.86,96.21 -73.9,96.17 -73.95,96.13L-73.98,96.1C-74.03,96.05 -74.08,95.99 -74.14,95.94C-74.29,95.79 -74.44,95.65 -74.6,95.49C-74.68,95.41 -74.76,95.34 -74.84,95.26C-74.87,95.23 -74.89,95.21 -74.92,95.18C-75.05,95.06 -75.17,94.94 -75.3,94.82L-75.38,94.74C-75.44,94.67 -75.5,94.61 -75.57,94.55C-75.76,94.36 -75.95,94.18 -76.14,93.99C-76.67,93.47 -77.21,92.94 -77.75,92.41C-78.22,91.95 -78.7,91.48 -79.17,91.01C-80.53,89.67 -81.9,88.31 -83.28,86.93C-83.83,86.38 -84.38,85.83 -84.92,85.28C-86.56,83.63 -88.19,81.98 -89.8,80.34C-90.27,79.86 -90.73,79.39 -91.19,78.91C-91.69,78.4 -92.18,77.9 -92.66,77.39C-92.88,77.17 -93.09,76.95 -93.31,76.73C-93.77,76.25 -94.23,75.77 -94.7,75.29C-94.75,75.23 -94.82,75.17 -94.88,75.1C-95.27,74.69 -95.67,74.28 -96.06,73.87C-96.29,73.63 -96.52,73.39 -96.74,73.15C-96.98,72.91 -97.21,72.66 -97.44,72.42C-98.94,70.85 -100.41,69.29 -101.86,67.73C-102.04,67.55 -102.22,67.36 -102.39,67.17C-106.1,63.2 -109.67,59.28 -113.09,55.46C-113.09,55.44 -113.1,55.45 -113.1,55.45C-113.11,55.44 -113.12,55.43 -113.13,55.41C-120.86,46.74 -127.74,38.53 -133.45,31.13C-143.91,17.58 -147.49,10.63 -148.57,7.11C-149.37,4.54 -148.84,3.79 -148.69,3.65C-148.43,3.38 -148.01,3.25 -147.44,3.25C-141.12,3.25 -116.53,20.02 -80.25,54.57L-80.24,54.58C-80.12,54.7 -80,54.8 -79.88,54.92C-79.64,55.15 -79.4,55.38 -79.16,55.61C-78.92,55.84 -78.68,56.07 -78.43,56.3C-78.02,56.7 -77.62,57.09 -77.2,57.49C-77.14,57.55 -77.08,57.61 -77.01,57.67L-77,57.68C-76.53,58.14 -76.06,58.59 -75.58,59.05C-74.85,59.76 -74.11,60.47 -73.37,61.2C-72.9,61.66 -72.43,62.12 -71.95,62.59C-70.96,63.55 -69.97,64.53 -68.97,65.52C-68,66.48 -67.02,67.45 -66.03,68.44C-65.82,68.65 -65.62,68.85 -65.41,69.06C-64.11,70.36 -62.82,71.65 -61.54,72.95C-61.49,73 -61.43,73.06 -61.38,73.12C-60.91,73.59 -60.44,74.06 -59.98,74.54C-59.26,75.27 -58.55,76 -57.83,76.73C-57.75,76.81 -57.67,76.89 -57.59,76.98L-57.43,77.14C-57.35,77.22 -57.27,77.3 -57.19,77.39C-57.11,77.47 -57.02,77.56 -56.94,77.65C-56.91,77.68 -56.87,77.72 -56.84,77.76C-56.82,77.78 -56.81,77.79 -56.79,77.81C-56.67,77.92 -56.55,78.05 -56.44,78.16C-56.36,78.24 -56.28,78.33 -56.2,78.41C-56.18,78.43 -56.15,78.46 -56.13,78.48C-55.08,79.56 -54.04,80.64 -53,81.72C-52.94,81.79 -52.88,81.86 -52.81,81.92C-52.71,82.04 -52.6,82.15 -52.49,82.26C-52.26,82.5 -52.03,82.74 -51.8,82.98C-51.78,83 -51.76,83.02 -51.75,83.04C-51.7,83.09 -51.66,83.13 -51.62,83.17C-51.55,83.25 -51.48,83.32 -51.41,83.4C-51.37,83.43 -51.35,83.46 -51.32,83.49C-51.31,83.5 -51.3,83.51 -51.29,83.52C-51.23,83.58 -51.17,83.65 -51.11,83.71C-50.94,83.89 -50.77,84.07 -50.6,84.25C-50.42,84.44 -50.24,84.63 -50.06,84.82C-49.15,85.78 -48.25,86.74 -47.36,87.69C-47.12,87.94 -46.89,88.18 -46.66,88.43C-46.47,88.63 -46.28,88.84 -46.09,89.04C-45.71,89.45 -45.33,89.85 -44.95,90.26C-44.74,90.5 -44.52,90.73 -44.29,90.97C-44.15,91.13 -44.01,91.28 -43.86,91.44C-43.4,91.94 -42.93,92.45 -42.48,92.95C-40.02,95.61 -37.64,98.24 -35.34,100.84C-32.4,104.13 -29.59,107.36 -26.92,110.51C-23.25,114.84 -19.83,119.01 -16.73,122.95L-16.72,122.96C-16.22,123.61 -15.74,124.23 -15.25,124.86C-12.47,128.46 -10.17,131.6 -8.28,134.33C-7.75,135.1 -7.25,135.83 -6.77,136.54C1.94,149.62 0.27,152.06 0,152.34M-4.47,136.37C-5.25,135.19 -6.1,133.92 -7.05,132.57C-8.89,129.94 -11.08,126.97 -13.66,123.63C-13.85,123.38 -14.06,123.12 -14.27,122.86C-14.27,122.85 -14.27,122.85 -14.28,122.84C-17.31,118.94 -20.67,114.81 -24.29,110.51C-26.94,107.37 -29.73,104.14 -32.65,100.84C-34.94,98.26 -37.31,95.62 -39.75,92.95C-40.65,91.97 -41.55,90.99 -42.46,90C-42.62,89.84 -42.77,89.67 -42.92,89.51C-43.13,89.29 -43.33,89.06 -43.55,88.84C-43.93,88.43 -44.32,88.01 -44.71,87.59C-44.89,87.39 -45.08,87.19 -45.27,86.99C-45.49,86.75 -45.73,86.5 -45.97,86.25C-46.58,85.59 -47.21,84.92 -47.84,84.25C-48.11,83.97 -48.38,83.68 -48.65,83.39C-49,83.02 -49.36,82.65 -49.71,82.28C-49.77,82.22 -49.83,82.16 -49.89,82.09C-49.9,82.08 -49.91,82.07 -49.91,82.06C-49.95,82.03 -49.97,82 -50,81.97C-50.07,81.9 -50.14,81.82 -50.21,81.75C-50.25,81.71 -50.3,81.67 -50.33,81.62C-50.36,81.6 -50.38,81.58 -50.4,81.55C-50.63,81.31 -50.86,81.07 -51.09,80.83C-51.2,80.72 -51.3,80.61 -51.41,80.5C-51.47,80.43 -51.54,80.37 -51.6,80.3C-52.53,79.33 -53.46,78.36 -54.4,77.39C-54.51,77.28 -54.63,77.16 -54.74,77.04L-54.81,76.97C-54.89,76.89 -54.97,76.81 -55.05,76.72C-55.15,76.61 -55.25,76.51 -55.36,76.4L-55.43,76.33C-55.46,76.3 -55.49,76.26 -55.53,76.23C-55.69,76.06 -55.87,75.88 -56.05,75.7C-56.09,75.65 -56.15,75.59 -56.2,75.54C-56.28,75.46 -56.36,75.38 -56.44,75.29C-57.16,74.56 -57.88,73.82 -58.61,73.08C-59.07,72.6 -59.54,72.13 -60,71.65C-60.51,71.14 -61.02,70.63 -61.53,70.11C-62.35,69.29 -63.17,68.46 -63.99,67.64C-65.16,66.47 -66.33,65.31 -67.49,64.15C-68.49,63.17 -69.49,62.19 -70.49,61.21C-70.97,60.74 -71.44,60.28 -71.91,59.82C-72.66,59.1 -73.4,58.37 -74.14,57.66C-74.61,57.21 -75.09,56.75 -75.55,56.29C-75.56,56.29 -75.56,56.29 -75.57,56.28C-75.63,56.22 -75.69,56.17 -75.75,56.11C-76.17,55.71 -76.58,55.31 -77,54.91C-77.07,54.84 -77.15,54.77 -77.22,54.69C-77.23,54.68 -77.23,54.68 -77.24,54.67C-77.4,54.52 -77.57,54.37 -77.73,54.21C-77.97,53.98 -78.21,53.76 -78.45,53.52C-93.45,39.25 -107.83,26.7 -119.99,17.31C-145.49,-2.39 -148.96,1.09 -150.11,2.23C-150.51,2.64 -151.21,3.34 -151.07,5.2C-150.81,8.6 -147.76,15.88 -135.03,32.35C-129.76,39.17 -123.5,46.69 -116.49,54.63C-116.48,54.64 -116.48,54.64 -116.47,54.65C-115.26,56.02 -114.01,57.43 -112.75,58.83C-110.23,61.63 -107.63,64.48 -104.96,67.36C-104.78,67.55 -104.61,67.73 -104.43,67.92C-102.6,69.89 -100.74,71.87 -98.84,73.86C-98.61,74.1 -98.38,74.35 -98.15,74.59C-97.92,74.83 -97.69,75.07 -97.47,75.31C-97.07,75.72 -96.67,76.13 -96.28,76.54C-96.22,76.6 -96.16,76.67 -96.1,76.73L-96.09,76.74C-95.88,76.96 -95.67,77.17 -95.46,77.39L-94.71,78.17C-94.01,78.9 -93.3,79.63 -92.58,80.36C-92.12,80.84 -91.65,81.32 -91.18,81.8C-90.05,82.96 -88.91,84.12 -87.76,85.28C-86.74,86.3 -85.72,87.33 -84.7,88.35C-83.34,89.71 -81.98,91.06 -80.62,92.4C-80.15,92.87 -79.67,93.33 -79.2,93.79C-79.13,93.86 -79.07,93.93 -79,93.99C-78.33,94.65 -77.66,95.3 -77,95.94C-76.94,96.01 -76.88,96.07 -76.82,96.12C-76.8,96.14 -76.77,96.17 -76.75,96.19C-76.62,96.32 -76.49,96.44 -76.37,96.55C-76.34,96.59 -76.31,96.62 -76.28,96.64C-76.19,96.73 -76.1,96.82 -76.02,96.9C-75.87,97.05 -75.72,97.19 -75.57,97.33C-75.52,97.38 -75.48,97.43 -75.43,97.47C-75.42,97.49 -75.4,97.5 -75.39,97.51L-75.26,97.64C-74.18,98.68 -73.11,99.71 -72.04,100.74C-72,100.77 -71.97,100.81 -71.93,100.84L-71.84,100.93C-71.72,101.05 -71.6,101.16 -71.48,101.28C-71.25,101.5 -71.01,101.72 -70.78,101.95C-70.77,101.95 -70.76,101.96 -70.76,101.96C-70.7,102.02 -70.64,102.07 -70.59,102.13C-70.52,102.19 -70.45,102.26 -70.39,102.31C-70.37,102.34 -70.35,102.36 -70.33,102.38C-70.31,102.4 -70.29,102.41 -70.27,102.43C-70.19,102.51 -70.11,102.58 -70.03,102.66C-69.75,102.92 -69.48,103.18 -69.21,103.44C-69.14,103.51 -69.07,103.57 -69,103.64C-67.94,104.65 -66.88,105.64 -65.83,106.62C-65.61,106.83 -65.39,107.04 -65.17,107.24C-64.92,107.47 -64.68,107.7 -64.44,107.92C-64.1,108.24 -63.76,108.55 -63.43,108.86C-63.09,109.18 -62.75,109.5 -62.41,109.82C-62.33,109.89 -62.24,109.96 -62.16,110.04C-57.22,114.61 -52.38,118.95 -47.7,123.03L-47.69,123.04C-41.99,127.98 -36.54,132.52 -31.44,136.54C-30.52,137.28 -29.61,137.99 -28.71,138.68C-11.42,152.03 -4.25,154.73 -1.07,154.73C-0.8,154.73 -0.57,154.71 -0.35,154.67C0.65,154.52 1.11,154.05 1.41,153.75C2.33,152.84 4.74,150.43 -4.47,136.37" style="fill:rgb(255,142,255);fill-rule:nonzero;"></path>
        </g>
        <g transform="matrix(4.16667,0,0,4.16667,1242.42,835.208)">
            <path d="M0,94.17C-0.52,94.69 -2.39,94.11 -5.46,92.35C-5.47,92.35 -5.47,92.34 -5.48,92.34C-9.38,90.11 -15.23,85.99 -22.74,79.82C-24.86,78.08 -27.11,76.17 -29.49,74.1C-29.59,74.02 -29.68,73.93 -29.78,73.84C-30.11,73.56 -30.44,73.27 -30.77,72.98C-31.13,72.66 -31.49,72.34 -31.86,72.02C-32.09,71.82 -32.32,71.61 -32.55,71.4C-32.78,71.19 -33.02,70.98 -33.26,70.76C-33.52,70.54 -33.78,70.3 -34.04,70.06C-34.81,69.37 -35.59,68.66 -36.39,67.93C-36.74,67.61 -37.1,67.28 -37.46,66.95C-37.54,66.88 -37.61,66.81 -37.69,66.73C-37.71,66.72 -37.73,66.71 -37.75,66.68C-37.77,66.67 -37.79,66.64 -37.82,66.61C-37.89,66.55 -37.96,66.48 -38.04,66.41C-38.09,66.37 -38.15,66.32 -38.2,66.26C-38.21,66.26 -38.21,66.25 -38.22,66.24C-38.46,66.03 -38.69,65.81 -38.93,65.59L-39.32,65.23C-39.39,65.17 -39.45,65.11 -39.51,65.05C-40.44,64.18 -41.38,63.3 -42.34,62.39C-42.47,62.27 -42.6,62.14 -42.73,62.02C-42.76,61.99 -42.8,61.96 -42.83,61.92L-42.84,61.91C-42.91,61.84 -42.98,61.78 -43.05,61.71C-43.21,61.56 -43.37,61.41 -43.53,61.25C-43.59,61.19 -43.66,61.13 -43.72,61.07C-43.73,61.06 -43.75,61.05 -43.76,61.04C-43.9,60.9 -44.04,60.77 -44.18,60.64C-44.21,60.6 -44.25,60.57 -44.28,60.54C-44.35,60.47 -44.42,60.4 -44.5,60.33C-45.21,59.64 -45.94,58.94 -46.67,58.24C-47.14,57.77 -47.62,57.31 -48.1,56.84C-49.28,55.68 -50.49,54.49 -51.71,53.27L-52.27,52.71C-54.28,50.7 -56.26,48.69 -58.19,46.7C-58.4,46.48 -58.62,46.26 -58.83,46.04C-59.29,45.55 -59.76,45.07 -60.21,44.59C-60.92,43.86 -61.6,43.14 -62.28,42.42C-62.75,41.93 -63.21,41.44 -63.66,40.96C-63.72,40.89 -63.78,40.83 -63.84,40.77C-64.22,40.36 -64.61,39.95 -64.98,39.54C-65.22,39.29 -65.44,39.05 -65.66,38.81C-65.9,38.56 -66.13,38.31 -66.34,38.07C-66.67,37.72 -66.98,37.38 -67.29,37.04C-67.47,36.85 -67.64,36.66 -67.81,36.47C-71.72,32.19 -75.34,28.06 -78.58,24.17C-80.55,21.81 -82.37,19.54 -84.04,17.38C-93.56,5.05 -94.26,0.97 -93.73,0.44C-93.47,0.18 -92.86,0.2 -91.93,0.51C-87.67,1.91 -76.61,9.38 -60.43,23.88L-60.42,23.89C-59.01,25.15 -57.57,26.46 -56.08,27.84C-55.84,28.06 -55.59,28.29 -55.34,28.52C-55.1,28.74 -54.85,28.97 -54.61,29.2C-54.2,29.58 -53.79,29.96 -53.38,30.35C-53.31,30.41 -53.25,30.47 -53.18,30.53C-52.7,30.98 -52.22,31.44 -51.73,31.9C-51.01,32.58 -50.27,33.28 -49.53,33.99C-49.06,34.45 -48.58,34.9 -48.1,35.37C-47.55,35.9 -47,36.44 -46.44,36.99C-46.43,37 -46.41,37.01 -46.39,37.03C-44.78,38.6 -43.14,40.22 -41.46,41.9C-40.08,43.28 -38.71,44.66 -37.36,46.04C-36.89,46.52 -36.43,46.99 -35.96,47.47C-35.26,48.2 -34.56,48.92 -33.86,49.65C-33.78,49.73 -33.7,49.82 -33.62,49.9C-33.57,49.95 -33.52,50.01 -33.47,50.06C-33.31,50.23 -33.16,50.39 -33.01,50.55L-32.92,50.64C-32.77,50.79 -32.63,50.94 -32.48,51.09C-32.4,51.18 -32.32,51.26 -32.24,51.34C-32.22,51.36 -32.2,51.39 -32.19,51.4L-32.17,51.42C-31.49,52.14 -30.82,52.85 -30.15,53.56C-29.8,53.93 -29.46,54.3 -29.13,54.66C-29.06,54.73 -28.99,54.8 -28.95,54.86C-28.82,54.99 -28.7,55.11 -28.6,55.23C-28.36,55.48 -28.14,55.72 -27.92,55.96C-27.91,55.97 -27.9,55.98 -27.9,55.98C-27.85,56.03 -27.8,56.08 -27.76,56.13C-27.69,56.2 -27.62,56.28 -27.54,56.35C-27.52,56.39 -27.49,56.42 -27.46,56.45L-27.42,56.49C-27.36,56.56 -27.3,56.63 -27.24,56.7C-26.9,57.07 -26.56,57.44 -26.22,57.8C-25.31,58.8 -24.41,59.79 -23.53,60.77C-23.3,61.03 -23.08,61.28 -22.85,61.53C-22.67,61.74 -22.48,61.95 -22.29,62.16C-22.26,62.2 -22.23,62.24 -22.19,62.28C-21.86,62.64 -21.54,63.01 -21.22,63.37C-20.98,63.64 -20.74,63.91 -20.51,64.18C-20.38,64.32 -20.26,64.46 -20.14,64.6C-18.48,66.49 -16.9,68.35 -15.4,70.15C-13.34,72.61 -11.43,74.98 -9.7,77.23C-9,78.14 -8.34,79 -7.74,79.82C-2.78,86.5 -0.79,90.33 -0.14,92.34L-0.14,92.35C0.21,93.44 0.17,93.99 0,94.17M1.93,92.35L1.93,92.34C1.37,90.14 -0.48,86.38 -5.26,79.82C-6.11,78.64 -7.06,77.38 -8.12,76.01C-9.56,74.14 -11.13,72.18 -12.8,70.15C-14.65,67.9 -16.64,65.56 -18.74,63.16C-18.87,63.02 -18.99,62.87 -19.12,62.73C-19.26,62.57 -19.4,62.41 -19.53,62.26C-19.63,62.15 -19.72,62.04 -19.81,61.94C-20.17,61.53 -20.53,61.13 -20.9,60.72C-21.08,60.51 -21.27,60.3 -21.45,60.09C-21.68,59.84 -21.91,59.58 -22.14,59.33C-23.01,58.36 -23.9,57.38 -24.82,56.39C-25.15,56.02 -25.5,55.65 -25.84,55.28C-25.9,55.21 -25.96,55.14 -26.02,55.07C-26.03,55.06 -26.04,55.05 -26.05,55.03C-26.08,55 -26.11,54.97 -26.13,54.94C-26.21,54.87 -26.28,54.79 -26.35,54.71C-26.4,54.66 -26.44,54.62 -26.49,54.57C-26.49,54.56 -26.5,54.55 -26.51,54.54C-26.74,54.29 -26.97,54.05 -27.2,53.8C-27.27,53.72 -27.34,53.64 -27.43,53.56C-27.46,53.52 -27.49,53.48 -27.53,53.44C-27.59,53.37 -27.65,53.31 -27.72,53.24C-28.72,52.16 -29.74,51.08 -30.78,49.99L-30.79,49.98C-30.81,49.95 -30.82,49.94 -30.85,49.92C-30.93,49.83 -31,49.75 -31.09,49.67C-31.21,49.53 -31.35,49.38 -31.49,49.25C-31.5,49.24 -31.5,49.24 -31.51,49.23C-31.54,49.2 -31.57,49.16 -31.6,49.13C-31.75,48.97 -31.91,48.8 -32.08,48.64C-32.12,48.59 -32.18,48.53 -32.23,48.48C-32.3,48.4 -32.38,48.31 -32.47,48.23C-33.16,47.5 -33.87,46.76 -34.58,46.03C-35.04,45.55 -35.51,45.08 -35.98,44.6C-37.32,43.23 -38.67,41.86 -40.05,40.48C-40.73,39.8 -41.4,39.13 -42.08,38.46C-42.77,37.77 -43.47,37.09 -44.17,36.41C-45,35.59 -45.83,34.79 -46.66,33.99C-47.14,33.52 -47.62,33.06 -48.1,32.61C-48.84,31.89 -49.57,31.2 -50.3,30.51C-50.79,30.04 -51.27,29.59 -51.75,29.15L-51.76,29.14C-51.82,29.07 -51.89,29.01 -51.95,28.96C-52.37,28.56 -52.78,28.18 -53.19,27.8C-53.44,27.56 -53.68,27.34 -53.92,27.12C-54.17,26.89 -54.42,26.66 -54.66,26.44C-55.6,25.56 -56.53,24.72 -57.45,23.89L-57.46,23.88C-63.96,17.98 -70.12,12.76 -75.57,8.55C-88.57,-1.49 -92.72,-2.14 -94.3,-1.55C-94.72,-1.39 -94.96,-1.15 -95.14,-0.97C-96.01,-0.11 -98.3,2.18 -85.62,18.6C-84.13,20.53 -82.52,22.54 -80.8,24.63L-80.79,24.64C-77.96,28.05 -74.84,31.66 -71.48,35.4C-71.16,35.75 -70.84,36.11 -70.51,36.47C-70.35,36.66 -70.17,36.85 -69.99,37.04C-69.26,37.85 -68.51,38.67 -67.74,39.5C-67.52,39.74 -67.3,39.98 -67.07,40.23C-66.85,40.47 -66.62,40.71 -66.39,40.96C-66.02,41.37 -65.63,41.78 -65.24,42.19C-65.18,42.26 -65.12,42.32 -65.06,42.39C-64.61,42.87 -64.15,43.35 -63.68,43.84C-63.01,44.57 -62.31,45.3 -61.6,46.03C-61.39,46.25 -61.18,46.48 -60.96,46.7C-60.72,46.96 -60.47,47.22 -60.22,47.47C-58.09,49.68 -55.91,51.9 -53.69,54.12L-53.3,54.51C-52.04,55.77 -50.79,57.01 -49.53,58.23C-49.05,58.7 -48.58,59.16 -48.1,59.63C-47.37,60.34 -46.64,61.04 -45.91,61.73C-45.84,61.8 -45.78,61.87 -45.71,61.93C-45.68,61.96 -45.64,62 -45.61,62.02C-45.48,62.16 -45.34,62.29 -45.21,62.41L-45.16,62.46C-45.09,62.52 -45.02,62.59 -44.95,62.65C-44.79,62.81 -44.63,62.96 -44.47,63.11C-44.41,63.18 -44.35,63.23 -44.28,63.29C-44.28,63.29 -44.27,63.31 -44.26,63.31C-44.23,63.35 -44.19,63.38 -44.15,63.42C-43.07,64.44 -42,65.46 -40.93,66.45C-40.86,66.52 -40.8,66.58 -40.73,66.63C-40.6,66.76 -40.47,66.88 -40.34,66.99C-40.11,67.22 -39.87,67.44 -39.64,67.65C-39.63,67.66 -39.63,67.66 -39.62,67.67C-39.57,67.72 -39.51,67.77 -39.46,67.82C-39.39,67.89 -39.31,67.96 -39.24,68.02C-39.22,68.05 -39.19,68.07 -39.17,68.08C-39.15,68.1 -39.14,68.12 -39.12,68.13C-39.04,68.21 -38.96,68.28 -38.88,68.35C-38.52,68.68 -38.17,69 -37.82,69.33C-36.75,70.3 -35.7,71.25 -34.66,72.19C-34.43,72.4 -34.19,72.61 -33.96,72.82C-33.75,73.01 -33.54,73.19 -33.33,73.38C-33.3,73.4 -33.28,73.43 -33.25,73.45C-32.89,73.77 -32.53,74.08 -32.18,74.4C-31.84,74.7 -31.51,74.99 -31.17,75.28C-31.08,75.37 -30.98,75.45 -30.89,75.53C-29.29,76.93 -27.73,78.27 -26.2,79.55C-23.39,81.92 -20.7,84.09 -18.16,86.05C-14.62,88.79 -11.73,90.83 -9.38,92.34C-9.37,92.34 -9.37,92.35 -9.36,92.35C-4.44,95.49 -1.84,96.31 -0.39,96.31C0.68,96.31 1.12,95.87 1.41,95.58C1.8,95.19 2.48,94.51 1.93,92.35" style="fill:rgb(255,142,255);fill-rule:nonzero;"></path>
        </g>
    </g>
</svg>