<?xml version="1.0"?>

<svg width="100%" height="100%" viewBox="0 0 2084 2084" version="1.1" xmlns="http://www.w3.org/2000/svg" xmlns:xlink="http://www.w3.org/1999/xlink" xml:space="preserve" xmlns:serif="http://www.serif.com/" style="fill-rule:evenodd;clip-rule:evenodd;stroke-linejoin:round;stroke-miterlimit:2;">
    <g id="Calque5">
        <g transform="matrix(4.16667,0,0,4.16667,505.288,1674.42)">
            <path d="M0,-41.966C-1.589,-27.509 -5.102,-23.667 -20.206,-21.975C-21.294,-21.853 -21.289,-20.002 -20.201,-19.885C-5.088,-18.269 -1.556,-14.445 0.105,0.005C0.243,1.199 1.717,1.195 1.848,-0C3.437,-14.457 6.95,-18.299 22.053,-19.991C23.142,-20.113 23.137,-21.964 22.048,-22.081C6.937,-23.697 3.404,-27.521 1.743,-41.97C1.606,-43.165 0.131,-43.161 0,-41.966" style="fill:rgb(0,222,221);fill-rule:nonzero;"></path>
        </g>
        <g transform="matrix(4.16667,0,0,4.16667,510.458,1673.92)">
            <path d="M0,-41.72L0,-41.71L-1.24,-41.84L0,-41.72ZM19.01,-20.91C5.88,-19.19 1.56,-15.27 -0.27,-2.87C-2.16,-15.25 -6.5,-19.16 -19.64,-20.81C-6.51,-22.54 -2.19,-26.46 -0.36,-38.86C1.53,-26.47 5.86,-22.57 19.01,-20.91M20.94,-23.2C6.59,-24.74 3.36,-27.9 1.74,-41.99C1.61,-43.15 0.72,-43.99 -0.37,-43.99C-1.47,-43.99 -2.36,-43.14 -2.48,-41.98C-4.03,-27.88 -7.25,-24.7 -21.59,-23.1C-22.7,-22.97 -23.51,-22.01 -23.51,-20.8C-23.51,-19.6 -22.69,-18.64 -21.57,-18.52C-7.23,-16.99 -4,-13.83 -2.38,0.27C-2.24,1.43 -1.36,2.27 -0.26,2.27C0.84,2.27 1.72,1.42 1.85,0.26C3.4,-13.84 6.61,-17.02 20.95,-18.63C22.07,-18.75 22.88,-19.72 22.88,-20.92C22.87,-22.12 22.06,-23.08 20.94,-23.2" style="fill:rgb(255,142,255);fill-rule:nonzero;"></path>
        </g>
        <g transform="matrix(4.16667,0,0,4.16667,651.907,1624.22)">
            <path d="M0,-17.875C-0.677,-11.717 -2.173,-10.081 -8.607,-9.36C-9.07,-9.308 -9.068,-8.519 -8.605,-8.47C-2.168,-7.781 -0.663,-6.152 0.045,0.003C0.103,0.511 0.731,0.51 0.787,0.001C1.464,-6.157 2.96,-7.794 9.394,-8.515C9.857,-8.567 9.855,-9.355 9.391,-9.405C2.955,-10.093 1.45,-11.722 0.742,-17.877C0.684,-18.386 0.056,-18.384 0,-17.875" style="fill:rgb(0,222,221);fill-rule:nonzero;"></path>
        </g>
        <g transform="matrix(4.16667,0,0,4.16667,680.667,1587.04)">
            <path d="M0,-0.03C-3.98,0.76 -5.67,2.35 -6.49,6.14C-7.34,2.35 -9.04,0.77 -13.02,0C-9.04,-0.78 -7.35,-2.37 -6.52,-6.17C-5.68,-2.38 -3.98,-0.8 0,-0.03M2.57,-1.28C-3.42,-1.92 -4.69,-3.15 -5.36,-9.04C-5.44,-9.68 -5.93,-10.14 -6.53,-10.14C-7.14,-10.13 -7.63,-9.67 -7.7,-9.04C-8.35,-3.14 -9.6,-1.9 -15.6,-1.23C-16.21,-1.16 -16.66,-0.64 -16.66,0.01C-16.66,0.66 -16.21,1.19 -15.59,1.25C-9.59,1.89 -8.33,3.13 -7.65,9.02C-7.58,9.65 -7.09,10.11 -6.49,10.11L-6.48,10.11C-5.88,10.11 -5.39,9.65 -5.32,9.01C-4.67,3.12 -3.41,1.88 2.58,1.21C3.2,1.14 3.64,0.61 3.64,-0.04C3.64,-0.69 3.19,-1.21 2.57,-1.28" style="fill:rgb(255,142,255);fill-rule:nonzero;"></path>
        </g>
        <g transform="matrix(4.16667,0,0,4.16667,506.064,1481.93)">
            <path d="M0,-17.876C-0.677,-11.718 -2.173,-10.081 -8.607,-9.361C-9.07,-9.309 -9.068,-8.52 -8.604,-8.471C-2.167,-7.782 -0.663,-6.153 0.045,0.002C0.103,0.511 0.731,0.509 0.787,0C1.464,-6.158 2.961,-7.795 9.394,-8.516C9.857,-8.568 9.855,-9.356 9.392,-9.406C2.955,-10.094 1.45,-11.723 0.743,-17.878C0.684,-18.387 0.056,-18.385 0,-17.876" style="fill:rgb(0,222,221);fill-rule:nonzero;"></path>
        </g>
        <g transform="matrix(4.16667,0,0,4.16667,534.833,1444.75)">
            <path d="M0,-0.03C-3.98,0.76 -5.67,2.34 -6.5,6.14C-7.34,2.35 -9.04,0.77 -13.02,0C-9.04,-0.79 -7.35,-2.37 -6.53,-6.17C-5.68,-2.38 -3.98,-0.8 0,-0.03M2.57,-1.28C-3.43,-1.92 -4.69,-3.16 -5.37,-9.05C-5.44,-9.68 -5.93,-10.14 -6.53,-10.14L-6.54,-10.14C-7.14,-10.14 -7.63,-9.67 -7.7,-9.04C-8.35,-3.15 -9.6,-1.91 -15.6,-1.23C-16.22,-1.17 -16.66,-0.64 -16.66,0.01C-16.66,0.66 -16.21,1.18 -15.59,1.25C-9.6,1.89 -8.33,3.13 -7.66,9.02C-7.58,9.65 -7.09,10.11 -6.49,10.11C-5.88,10.11 -5.39,9.64 -5.32,9.01C-4.67,3.12 -3.42,1.88 2.58,1.2C3.19,1.14 3.64,0.61 3.64,-0.04C3.64,-0.69 3.19,-1.21 2.57,-1.28" style="fill:rgb(255,142,255);fill-rule:nonzero;"></path>
        </g>
    </g>
    <g id="Calque2">
        <g transform="matrix(4.16667,0,0,4.16667,1571.66,440.791)">
            <path d="M0,41.966C1.589,27.509 5.102,23.667 20.206,21.975C21.294,21.853 21.289,20.002 20.201,19.885C5.088,18.269 1.556,14.445 -0.105,-0.005C-0.243,-1.199 -1.717,-1.195 -1.848,0C-3.437,14.457 -6.95,18.299 -22.053,19.991C-23.142,20.113 -23.137,21.964 -22.048,22.081C-6.937,23.697 -3.404,27.522 -1.743,41.97C-1.606,43.165 -0.131,43.161 0,41.966" style="fill:rgb(0,222,221);fill-rule:nonzero;"></path>
        </g>
        <g transform="matrix(4.16667,0,0,4.16667,1566.46,441.292)">
            <path d="M0,41.72C0,41.72 0.01,41.72 0.01,41.71L1.25,41.85L0,41.72ZM19.65,20.81C6.51,22.54 2.2,26.46 0.37,38.86C-1.52,26.47 -5.86,22.57 -19,20.91C-5.87,19.19 -1.56,15.27 0.28,2.87C2.17,15.26 6.51,19.16 19.65,20.81M21.58,18.52C7.23,16.99 4,13.83 2.38,-0.27C2.25,-1.43 1.36,-2.27 0.27,-2.27L0.26,-2.27C-0.83,-2.27 -1.72,-1.42 -1.84,-0.26C-3.39,13.85 -6.61,17.02 -20.95,18.63C-22.06,18.75 -22.87,19.72 -22.87,20.92C-22.87,22.12 -22.05,23.08 -20.93,23.2C-6.59,24.74 -3.36,27.9 -1.74,41.99C-1.6,43.15 -0.72,43.99 0.38,43.99C1.47,43.99 2.36,43.15 2.49,41.98C4.04,27.88 7.25,24.7 21.59,23.1C22.71,22.97 23.52,22.01 23.52,20.8C23.51,19.6 22.7,18.64 21.58,18.52" style="fill:rgb(255,142,255);fill-rule:nonzero;"></path>
        </g>
        <g transform="matrix(4.16667,0,0,4.16667,1425.04,490.99)">
            <path d="M0,17.875C0.677,11.717 2.173,10.081 8.607,9.36C9.07,9.308 9.068,8.519 8.604,8.47C2.168,7.781 0.663,6.152 -0.045,-0.003C-0.103,-0.511 -0.731,-0.51 -0.787,-0.001C-1.464,6.157 -2.961,7.794 -9.394,8.515C-9.857,8.567 -9.855,9.355 -9.392,9.405C-2.955,10.093 -1.45,11.722 -0.743,17.877C-0.684,18.386 -0.056,18.384 0,17.875" style="fill:rgb(0,222,221);fill-rule:nonzero;"></path>
        </g>
        <g transform="matrix(4.16667,0,0,4.16667,1450.54,528.292)">
            <path d="M0,-0.03C-3.98,0.76 -5.67,2.34 -6.5,6.14C-7.34,2.35 -9.04,0.77 -13.03,0C-9.05,-0.79 -7.36,-2.37 -6.53,-6.17C-5.68,-2.38 -3.99,-0.8 0,-0.03M2.57,-1.28C-3.43,-1.92 -4.69,-3.16 -5.37,-9.05C-5.44,-9.68 -5.93,-10.14 -6.54,-10.14C-7.15,-10.14 -7.64,-9.67 -7.71,-9.04C-8.35,-3.15 -9.61,-1.91 -15.6,-1.23C-16.22,-1.17 -16.66,-0.64 -16.66,0.01C-16.66,0.66 -16.21,1.18 -15.6,1.25C-9.6,1.89 -8.34,3.13 -7.66,9.02C-7.59,9.65 -7.1,10.11 -6.49,10.11C-5.88,10.11 -5.39,9.64 -5.32,9.01C-4.68,3.12 -3.42,1.88 2.58,1.2C3.19,1.14 3.64,0.61 3.63,-0.04C3.63,-0.69 3.18,-1.21 2.57,-1.28" style="fill:rgb(255,142,255);fill-rule:nonzero;"></path>
        </g>
        <g transform="matrix(4.16667,0,0,4.16667,1570.88,633.285)">
            <path d="M0,17.876C0.677,11.718 2.173,10.081 8.607,9.361C9.07,9.309 9.068,8.52 8.605,8.47C2.168,7.782 0.663,6.153 -0.045,-0.002C-0.103,-0.511 -0.731,-0.509 -0.787,0C-1.464,6.158 -2.96,7.795 -9.394,8.516C-9.857,8.568 -9.855,9.356 -9.392,9.406C-2.955,10.094 -1.45,11.723 -0.742,17.878C-0.684,18.387 -0.056,18.385 0,17.876" style="fill:rgb(0,222,221);fill-rule:nonzero;"></path>
        </g>
        <g transform="matrix(4.16667,0,0,4.16667,1596.38,670.583)">
            <path d="M0,-0.03C-3.98,0.76 -5.67,2.35 -6.5,6.14C-7.34,2.35 -9.04,0.77 -13.02,0C-9.05,-0.78 -7.35,-2.37 -6.53,-6.17C-5.68,-2.38 -3.98,-0.8 0,-0.03M2.57,-1.28C-3.43,-1.92 -4.69,-3.15 -5.37,-9.04C-5.44,-9.68 -5.93,-10.14 -6.53,-10.14L-6.54,-10.14C-7.14,-10.13 -7.63,-9.67 -7.7,-9.04C-8.35,-3.14 -9.61,-1.9 -15.6,-1.23C-16.22,-1.16 -16.66,-0.64 -16.66,0.01C-16.66,0.66 -16.21,1.19 -15.6,1.25C-9.6,1.89 -8.33,3.13 -7.66,9.02C-7.59,9.65 -7.09,10.11 -6.49,10.11C-5.88,10.11 -5.39,9.65 -5.32,9.01C-4.67,3.12 -3.42,1.88 2.58,1.21C3.19,1.14 3.64,0.61 3.64,-0.04C3.64,-0.69 3.19,-1.21 2.57,-1.28" style="fill:rgb(255,142,255);fill-rule:nonzero;"></path>
        </g>
    </g>
</svg>