<?xml version="1.0"?>

<svg width="100%" height="100%" viewBox="0 0 2084 2084" version="1.1" xmlns="http://www.w3.org/2000/svg" xmlns:xlink="http://www.w3.org/1999/xlink" xml:space="preserve" xmlns:serif="http://www.serif.com/" style="fill-rule:evenodd;clip-rule:evenodd;stroke-linejoin:round;stroke-miterlimit:2;">
    <g id="TEXT" transform="matrix(4.16667,0,0,4.16667,0,0)">
        <g transform="matrix(1,0,0,1,0,14.4)">
            <path d="M90.789,280.27L90.789,223.548L100.434,223.548L100.434,237.544L124.04,237.544C125.876,237.544 127.56,238.009 129.09,238.938C130.62,239.866 131.85,241.096 132.779,242.626C133.708,244.156 134.172,245.839 134.172,247.676L134.172,280.27L124.527,280.27L124.527,248.083C124.527,247.838 124.439,247.628 124.263,247.453C124.088,247.277 123.878,247.189 123.634,247.189L101.349,247.189C101.105,247.189 100.891,247.277 100.708,247.453C100.525,247.628 100.434,247.838 100.434,248.083L100.434,280.27L90.789,280.27ZM147.035,280.27C145.198,280.27 143.514,279.805 141.984,278.877C140.454,277.948 139.225,276.718 138.295,275.188C137.367,273.658 136.903,271.974 136.903,270.137L136.903,247.676C136.903,245.839 137.367,244.156 138.295,242.626C139.225,241.096 140.454,239.866 141.984,238.938C143.514,238.009 145.198,237.544 147.035,237.544L170.131,237.544C172.018,237.544 173.724,238.006 175.25,238.931C176.776,239.856 177.997,241.088 178.912,242.629C179.828,244.17 180.286,245.852 180.286,247.676L180.286,270.137C180.286,271.974 179.83,273.658 178.918,275.188C178.006,276.718 176.786,277.948 175.258,278.877C173.73,279.805 172.021,280.27 170.131,280.27L147.035,280.27ZM147.441,270.624L169.725,270.624C169.969,270.624 170.179,270.537 170.354,270.362C170.53,270.186 170.618,269.976 170.618,269.731L170.618,248.083C170.618,247.838 170.53,247.628 170.354,247.453C170.179,247.277 169.969,247.189 169.725,247.189L147.441,247.189C147.196,247.189 146.986,247.277 146.811,247.453C146.636,247.628 146.548,247.838 146.548,248.083L146.548,269.731C146.548,269.976 146.636,270.186 146.811,270.362C146.986,270.537 147.196,270.624 147.441,270.624ZM183.459,280.27L183.459,247.676C183.459,245.839 183.923,244.156 184.851,242.626C185.781,241.096 187.016,239.866 188.556,238.938C190.097,238.009 191.792,237.544 193.642,237.544L217.351,237.544L217.351,247.189L193.997,247.189C193.753,247.189 193.542,247.277 193.367,247.453C193.192,247.628 193.104,247.838 193.104,248.083L193.104,280.27L183.459,280.27ZM230.202,280.27C228.353,280.27 226.658,279.805 225.117,278.877C223.576,277.948 222.35,276.718 221.437,275.188C220.526,273.658 220.07,271.974 220.07,270.137L220.07,254.059L253.785,254.059L253.785,248.083C253.785,247.838 253.697,247.628 253.522,247.453C253.346,247.277 253.136,247.189 252.892,247.189L220.07,247.189L220.07,237.544L253.298,237.544C255.185,237.544 256.892,238.006 258.417,238.931C259.943,239.856 261.164,241.088 262.08,242.629C262.996,244.17 263.454,245.852 263.454,247.676L263.454,280.27L230.202,280.27ZM230.609,270.624L253.785,270.624L253.785,262.74L229.715,262.74L229.715,269.731C229.715,269.976 229.803,270.186 229.978,270.362C230.154,270.537 230.364,270.624 230.609,270.624ZM268.32,280.27L268.32,237.544L277.966,237.544L277.966,280.27L268.32,280.27ZM268.32,233.244L268.32,223.548L277.966,223.548L277.966,233.244L268.32,233.244ZM283.348,280.27L283.348,247.676C283.348,245.839 283.812,244.156 284.741,242.626C285.67,241.096 286.905,239.866 288.446,238.938C289.986,238.009 291.682,237.544 293.531,237.544L317.24,237.544L317.24,247.189L293.886,247.189C293.642,247.189 293.431,247.277 293.256,247.453C293.081,247.628 292.993,247.838 292.993,248.083L292.993,280.27L283.348,280.27ZM329.502,280.27C327.665,280.27 325.982,279.805 324.452,278.877C322.921,277.948 321.692,276.718 320.763,275.188C319.834,273.658 319.37,271.974 319.37,270.137L319.37,247.676C319.37,245.839 319.834,244.156 320.763,242.626C321.692,241.096 322.921,239.866 324.452,238.938C325.982,238.009 327.665,237.544 329.502,237.544L352.598,237.544C354.485,237.544 356.191,238.006 357.717,238.931C359.243,239.856 360.464,241.088 361.379,242.629C362.296,244.17 362.754,245.852 362.754,247.676L362.754,263.755L329.015,263.755L329.015,269.731C329.015,269.976 329.103,270.186 329.278,270.362C329.453,270.537 329.664,270.624 329.908,270.624L362.754,270.624L362.754,280.27L329.502,280.27ZM329.015,255.074L353.085,255.074L353.085,248.083C353.085,247.838 352.997,247.628 352.822,247.453C352.646,247.277 352.436,247.189 352.192,247.189L329.908,247.189C329.664,247.189 329.453,247.277 329.278,247.453C329.103,247.628 329.015,247.838 329.015,248.083L329.015,255.074ZM376.869,280.27C375.032,280.27 373.348,279.805 371.818,278.877C370.288,277.948 369.058,276.718 368.129,275.188C367.2,273.658 366.736,271.974 366.736,270.137L366.736,268.482L376.382,268.482L376.382,269.731C376.382,269.976 376.469,270.186 376.644,270.362C376.82,270.537 377.03,270.624 377.275,270.624L399.558,270.624C399.802,270.624 400.012,270.537 400.188,270.362C400.364,270.186 400.452,269.976 400.452,269.731L400.452,264.648C400.452,264.403 400.364,264.193 400.188,264.018C400.012,263.843 399.802,263.755 399.558,263.755L376.869,263.755C375.032,263.755 373.348,263.291 371.818,262.362C370.288,261.433 369.058,260.203 368.129,258.673C367.2,257.143 366.736,255.459 366.736,253.622L366.736,247.676C366.736,245.839 367.2,244.156 368.129,242.626C369.058,241.096 370.288,239.866 371.818,238.938C373.348,238.009 375.032,237.544 376.869,237.544L399.965,237.544C401.855,237.544 403.563,238.009 405.091,238.938C406.62,239.866 407.848,241.096 408.777,242.626C409.706,244.156 410.171,245.839 410.171,247.676L410.171,249.332L400.452,249.332L400.452,248.083C400.452,247.838 400.364,247.628 400.188,247.453C400.012,247.277 399.802,247.189 399.558,247.189L377.275,247.189C377.03,247.189 376.82,247.277 376.644,247.453C376.469,247.628 376.382,247.838 376.382,248.083L376.382,253.166C376.382,253.41 376.469,253.621 376.644,253.796C376.82,253.971 377.03,254.059 377.275,254.059L399.965,254.059C401.855,254.059 403.563,254.523 405.091,255.453C406.62,256.381 407.848,257.61 408.777,259.14C409.706,260.67 410.171,262.354 410.171,264.191L410.171,270.137C410.171,271.974 409.706,273.658 408.777,275.188C407.848,276.718 406.62,277.948 405.091,278.877C403.563,279.805 401.855,280.27 399.965,280.27L376.869,280.27Z" style="fill:white;"></path>
        </g>
        <g transform="matrix(1,0,0,1,0,14.4)">
            <path d="M135.537,230.564C135.856,230.347 136.183,230.137 136.516,229.934L141.592,227.738L147.035,227.01L170.131,227.01L175.581,227.723L180.71,229.923C181.12,230.171 181.518,230.43 181.906,230.701C182.298,230.429 182.702,230.167 183.116,229.917L188.199,227.733L193.642,227.01L217.351,227.01C217.812,227.01 218.266,227.04 218.711,227.097C219.156,227.04 219.609,227.01 220.07,227.01L253.298,227.01L257.786,227.597L257.786,223.548C257.786,217.73 262.502,213.014 268.32,213.014L277.966,213.014C283.784,213.014 288.5,217.73 288.5,223.548L288.5,227.678L293.531,227.01L317.24,227.01C319.155,227.01 320.951,227.521 322.498,228.414L324.059,227.738L329.502,227.01L352.598,227.01L358.048,227.723L363.177,229.923C363.729,230.257 364.26,230.611 364.772,230.986C365.278,230.616 365.804,230.265 366.35,229.934L371.426,227.738L376.869,227.01L399.965,227.01L405.428,227.727L410.565,229.938C413.557,231.756 415.962,234.163 417.78,237.158L419.977,242.234L420.705,247.676L420.705,249.332C420.705,251.688 419.931,253.865 418.623,255.62L419.977,258.748L420.705,264.191L420.705,270.137L419.977,275.58L417.78,280.656C415.962,283.651 413.556,286.059 410.563,287.878C410.563,287.878 410.563,287.879 410.562,287.879C357.266,288.366 90.789,290.804 90.789,290.804C84.971,290.804 80.255,286.087 80.255,280.27L80.255,223.548C80.255,217.73 84.971,213.014 90.789,213.014L100.434,213.014C106.252,213.014 110.968,217.73 110.968,223.548L110.968,227.01L124.04,227.01L129.483,227.738L134.558,229.934C134.891,230.137 135.218,230.347 135.537,230.564Z" style="fill:rgb(32,35,73);"></path>
        </g>
        <path d="M90.789,280.27L90.789,223.548L100.434,223.548L100.434,237.544L124.04,237.544C125.876,237.544 127.56,238.009 129.09,238.938C130.62,239.866 131.85,241.096 132.779,242.626C133.708,244.156 134.172,245.839 134.172,247.676L134.172,280.27L124.527,280.27L124.527,248.083C124.527,247.838 124.439,247.628 124.263,247.453C124.088,247.277 123.878,247.189 123.634,247.189L101.349,247.189C101.105,247.189 100.891,247.277 100.708,247.453C100.525,247.628 100.434,247.838 100.434,248.083L100.434,280.27L90.789,280.27ZM147.035,280.27C145.198,280.27 143.514,279.805 141.984,278.877C140.454,277.948 139.225,276.718 138.295,275.188C137.367,273.658 136.903,271.974 136.903,270.137L136.903,247.676C136.903,245.839 137.367,244.156 138.295,242.626C139.225,241.096 140.454,239.866 141.984,238.938C143.514,238.009 145.198,237.544 147.035,237.544L170.131,237.544C172.018,237.544 173.724,238.006 175.25,238.931C176.776,239.856 177.997,241.088 178.912,242.629C179.828,244.17 180.286,245.852 180.286,247.676L180.286,270.137C180.286,271.974 179.83,273.658 178.918,275.188C178.006,276.718 176.786,277.948 175.258,278.877C173.73,279.805 172.021,280.27 170.131,280.27L147.035,280.27ZM147.441,270.624L169.725,270.624C169.969,270.624 170.179,270.537 170.354,270.362C170.53,270.186 170.618,269.976 170.618,269.731L170.618,248.083C170.618,247.838 170.53,247.628 170.354,247.453C170.179,247.277 169.969,247.189 169.725,247.189L147.441,247.189C147.196,247.189 146.986,247.277 146.811,247.453C146.636,247.628 146.548,247.838 146.548,248.083L146.548,269.731C146.548,269.976 146.636,270.186 146.811,270.362C146.986,270.537 147.196,270.624 147.441,270.624ZM183.459,280.27L183.459,247.676C183.459,245.839 183.923,244.156 184.851,242.626C185.781,241.096 187.016,239.866 188.556,238.938C190.097,238.009 191.792,237.544 193.642,237.544L217.351,237.544L217.351,247.189L193.997,247.189C193.753,247.189 193.542,247.277 193.367,247.453C193.192,247.628 193.104,247.838 193.104,248.083L193.104,280.27L183.459,280.27ZM230.202,280.27C228.353,280.27 226.658,279.805 225.117,278.877C223.576,277.948 222.35,276.718 221.437,275.188C220.526,273.658 220.07,271.974 220.07,270.137L220.07,254.059L253.785,254.059L253.785,248.083C253.785,247.838 253.697,247.628 253.522,247.453C253.346,247.277 253.136,247.189 252.892,247.189L220.07,247.189L220.07,237.544L253.298,237.544C255.185,237.544 256.892,238.006 258.417,238.931C259.943,239.856 261.164,241.088 262.08,242.629C262.996,244.17 263.454,245.852 263.454,247.676L263.454,280.27L230.202,280.27ZM230.609,270.624L253.785,270.624L253.785,262.74L229.715,262.74L229.715,269.731C229.715,269.976 229.803,270.186 229.978,270.362C230.154,270.537 230.364,270.624 230.609,270.624ZM268.32,280.27L268.32,237.544L277.966,237.544L277.966,280.27L268.32,280.27ZM268.32,233.244L268.32,223.548L277.966,223.548L277.966,233.244L268.32,233.244ZM283.348,280.27L283.348,247.676C283.348,245.839 283.812,244.156 284.741,242.626C285.67,241.096 286.905,239.866 288.446,238.938C289.986,238.009 291.682,237.544 293.531,237.544L317.24,237.544L317.24,247.189L293.886,247.189C293.642,247.189 293.431,247.277 293.256,247.453C293.081,247.628 292.993,247.838 292.993,248.083L292.993,280.27L283.348,280.27ZM329.502,280.27C327.665,280.27 325.982,279.805 324.452,278.877C322.921,277.948 321.692,276.718 320.763,275.188C319.834,273.658 319.37,271.974 319.37,270.137L319.37,247.676C319.37,245.839 319.834,244.156 320.763,242.626C321.692,241.096 322.921,239.866 324.452,238.938C325.982,238.009 327.665,237.544 329.502,237.544L352.598,237.544C354.485,237.544 356.191,238.006 357.717,238.931C359.243,239.856 360.464,241.088 361.379,242.629C362.296,244.17 362.754,245.852 362.754,247.676L362.754,263.755L329.015,263.755L329.015,269.731C329.015,269.976 329.103,270.186 329.278,270.362C329.453,270.537 329.664,270.624 329.908,270.624L362.754,270.624L362.754,280.27L329.502,280.27ZM329.015,255.074L353.085,255.074L353.085,248.083C353.085,247.838 352.997,247.628 352.822,247.453C352.646,247.277 352.436,247.189 352.192,247.189L329.908,247.189C329.664,247.189 329.453,247.277 329.278,247.453C329.103,247.628 329.015,247.838 329.015,248.083L329.015,255.074ZM376.869,280.27C375.032,280.27 373.348,279.805 371.818,278.877C370.288,277.948 369.058,276.718 368.129,275.188C367.2,273.658 366.736,271.974 366.736,270.137L366.736,268.482L376.382,268.482L376.382,269.731C376.382,269.976 376.469,270.186 376.644,270.362C376.82,270.537 377.03,270.624 377.275,270.624L399.558,270.624C399.802,270.624 400.012,270.537 400.188,270.362C400.364,270.186 400.452,269.976 400.452,269.731L400.452,264.648C400.452,264.403 400.364,264.193 400.188,264.018C400.012,263.843 399.802,263.755 399.558,263.755L376.869,263.755C375.032,263.755 373.348,263.291 371.818,262.362C370.288,261.433 369.058,260.203 368.129,258.673C367.2,257.143 366.736,255.459 366.736,253.622L366.736,247.676C366.736,245.839 367.2,244.156 368.129,242.626C369.058,241.096 370.288,239.866 371.818,238.938C373.348,238.009 375.032,237.544 376.869,237.544L399.965,237.544C401.855,237.544 403.563,238.009 405.091,238.938C406.62,239.866 407.848,241.096 408.777,242.626C409.706,244.156 410.171,245.839 410.171,247.676L410.171,249.332L400.452,249.332L400.452,248.083C400.452,247.838 400.364,247.628 400.188,247.453C400.012,247.277 399.802,247.189 399.558,247.189L377.275,247.189C377.03,247.189 376.82,247.277 376.644,247.453C376.469,247.628 376.382,247.838 376.382,248.083L376.382,253.166C376.382,253.41 376.469,253.621 376.644,253.796C376.82,253.971 377.03,254.059 377.275,254.059L399.965,254.059C401.855,254.059 403.563,254.523 405.091,255.453C406.62,256.381 407.848,257.61 408.777,259.14C409.706,260.67 410.171,262.354 410.171,264.191L410.171,270.137C410.171,271.974 409.706,273.658 408.777,275.188C407.848,276.718 406.62,277.948 405.091,278.877C403.563,279.805 401.855,280.27 399.965,280.27L376.869,280.27Z" style="fill:white;"></path>
        <path d="M135.537,228.12L141.041,225.739L147.035,224.937L170.131,224.937L176.123,225.722L181.783,228.149L181.91,228.248L182.048,228.141L187.651,225.734L193.642,224.937L217.351,224.937C217.811,224.937 218.264,224.961 218.711,225.009C219.157,224.961 219.611,224.937 220.07,224.937L253.298,224.937L255.713,225.253L255.713,223.548C255.713,216.585 261.357,210.94 268.32,210.94L277.966,210.94C284.929,210.94 290.573,216.585 290.573,223.548L290.573,225.33L293.531,224.937L317.24,224.937C319.158,224.937 320.976,225.365 322.603,226.131L323.508,225.739L329.502,224.937L352.598,224.937L358.59,225.722L364.251,228.149L364.77,228.558L365.276,228.161L370.874,225.739L376.869,224.937L399.965,224.937L405.972,225.727L411.64,228.165L416.077,231.644L419.553,236.083L421.975,241.682L422.778,247.676L422.778,249.332C422.778,251.719 422.114,253.951 420.962,255.854L421.975,258.197L422.778,264.191L422.778,270.137L421.975,276.132L419.553,281.73L416.078,286.168L411.64,289.65L411.639,289.651L405.969,292.088L399.965,292.877L90.789,292.877C83.826,292.877 78.181,287.232 78.181,280.27L78.181,223.548C78.181,216.585 83.826,210.94 90.789,210.94L100.434,210.94C107.397,210.94 113.041,216.585 113.041,223.548L113.041,224.937L124.04,224.937L130.034,225.74L135.537,228.12Z" style="fill:rgb(0,222,221);"></path>
        <path d="M90.789,280.27L90.789,223.548L100.434,223.548L100.434,237.544L124.04,237.544C125.876,237.544 127.56,238.009 129.09,238.938C130.62,239.866 131.85,241.096 132.779,242.626C133.708,244.156 134.172,245.839 134.172,247.676L134.172,280.27L124.527,280.27L124.527,248.083C124.527,247.838 124.439,247.628 124.263,247.453C124.088,247.277 123.878,247.189 123.634,247.189L101.349,247.189C101.105,247.189 100.891,247.277 100.708,247.453C100.525,247.628 100.434,247.838 100.434,248.083L100.434,280.27L90.789,280.27ZM147.035,280.27C145.198,280.27 143.514,279.805 141.984,278.877C140.454,277.948 139.225,276.718 138.295,275.188C137.367,273.658 136.903,271.974 136.903,270.137L136.903,247.676C136.903,245.839 137.367,244.156 138.295,242.626C139.225,241.096 140.454,239.866 141.984,238.938C143.514,238.009 145.198,237.544 147.035,237.544L170.131,237.544C172.018,237.544 173.724,238.006 175.25,238.931C176.776,239.856 177.997,241.088 178.912,242.629C179.828,244.17 180.286,245.852 180.286,247.676L180.286,270.137C180.286,271.974 179.83,273.658 178.918,275.188C178.006,276.718 176.786,277.948 175.258,278.877C173.73,279.805 172.021,280.27 170.131,280.27L147.035,280.27ZM147.441,270.624L169.725,270.624C169.969,270.624 170.179,270.537 170.354,270.362C170.53,270.186 170.618,269.976 170.618,269.731L170.618,248.083C170.618,247.838 170.53,247.628 170.354,247.453C170.179,247.277 169.969,247.189 169.725,247.189L147.441,247.189C147.196,247.189 146.986,247.277 146.811,247.453C146.636,247.628 146.548,247.838 146.548,248.083L146.548,269.731C146.548,269.976 146.636,270.186 146.811,270.362C146.986,270.537 147.196,270.624 147.441,270.624ZM183.459,280.27L183.459,247.676C183.459,245.839 183.923,244.156 184.851,242.626C185.781,241.096 187.016,239.866 188.556,238.938C190.097,238.009 191.792,237.544 193.642,237.544L217.351,237.544L217.351,247.189L193.997,247.189C193.753,247.189 193.542,247.277 193.367,247.453C193.192,247.628 193.104,247.838 193.104,248.083L193.104,280.27L183.459,280.27ZM230.202,280.27C228.353,280.27 226.658,279.805 225.117,278.877C223.576,277.948 222.35,276.718 221.437,275.188C220.526,273.658 220.07,271.974 220.07,270.137L220.07,254.059L253.785,254.059L253.785,248.083C253.785,247.838 253.697,247.628 253.522,247.453C253.346,247.277 253.136,247.189 252.892,247.189L220.07,247.189L220.07,237.544L253.298,237.544C255.185,237.544 256.892,238.006 258.417,238.931C259.943,239.856 261.164,241.088 262.08,242.629C262.996,244.17 263.454,245.852 263.454,247.676L263.454,280.27L230.202,280.27ZM230.609,270.624L253.785,270.624L253.785,262.74L229.715,262.74L229.715,269.731C229.715,269.976 229.803,270.186 229.978,270.362C230.154,270.537 230.364,270.624 230.609,270.624ZM268.32,280.27L268.32,237.544L277.966,237.544L277.966,280.27L268.32,280.27ZM268.32,233.244L268.32,223.548L277.966,223.548L277.966,233.244L268.32,233.244ZM283.348,280.27L283.348,247.676C283.348,245.839 283.812,244.156 284.741,242.626C285.67,241.096 286.905,239.866 288.446,238.938C289.986,238.009 291.682,237.544 293.531,237.544L317.24,237.544L317.24,247.189L293.886,247.189C293.642,247.189 293.431,247.277 293.256,247.453C293.081,247.628 292.993,247.838 292.993,248.083L292.993,280.27L283.348,280.27ZM329.502,280.27C327.665,280.27 325.982,279.805 324.452,278.877C322.921,277.948 321.692,276.718 320.763,275.188C319.834,273.658 319.37,271.974 319.37,270.137L319.37,247.676C319.37,245.839 319.834,244.156 320.763,242.626C321.692,241.096 322.921,239.866 324.452,238.938C325.982,238.009 327.665,237.544 329.502,237.544L352.598,237.544C354.485,237.544 356.191,238.006 357.717,238.931C359.243,239.856 360.464,241.088 361.379,242.629C362.296,244.17 362.754,245.852 362.754,247.676L362.754,263.755L329.015,263.755L329.015,269.731C329.015,269.976 329.103,270.186 329.278,270.362C329.453,270.537 329.664,270.624 329.908,270.624L362.754,270.624L362.754,280.27L329.502,280.27ZM329.015,255.074L353.085,255.074L353.085,248.083C353.085,247.838 352.997,247.628 352.822,247.453C352.646,247.277 352.436,247.189 352.192,247.189L329.908,247.189C329.664,247.189 329.453,247.277 329.278,247.453C329.103,247.628 329.015,247.838 329.015,248.083L329.015,255.074ZM376.869,280.27C375.032,280.27 373.348,279.805 371.818,278.877C370.288,277.948 369.058,276.718 368.129,275.188C367.2,273.658 366.736,271.974 366.736,270.137L366.736,268.482L376.382,268.482L376.382,269.731C376.382,269.976 376.469,270.186 376.644,270.362C376.82,270.537 377.03,270.624 377.275,270.624L399.558,270.624C399.802,270.624 400.012,270.537 400.188,270.362C400.364,270.186 400.452,269.976 400.452,269.731L400.452,264.648C400.452,264.403 400.364,264.193 400.188,264.018C400.012,263.843 399.802,263.755 399.558,263.755L376.869,263.755C375.032,263.755 373.348,263.291 371.818,262.362C370.288,261.433 369.058,260.203 368.129,258.673C367.2,257.143 366.736,255.459 366.736,253.622L366.736,247.676C366.736,245.839 367.2,244.156 368.129,242.626C369.058,241.096 370.288,239.866 371.818,238.938C373.348,238.009 375.032,237.544 376.869,237.544L399.965,237.544C401.855,237.544 403.563,238.009 405.091,238.938C406.62,239.866 407.848,241.096 408.777,242.626C409.706,244.156 410.171,245.839 410.171,247.676L410.171,249.332L400.452,249.332L400.452,248.083C400.452,247.838 400.364,247.628 400.188,247.453C400.012,247.277 399.802,247.189 399.558,247.189L377.275,247.189C377.03,247.189 376.82,247.277 376.644,247.453C376.469,247.628 376.382,247.838 376.382,248.083L376.382,253.166C376.382,253.41 376.469,253.621 376.644,253.796C376.82,253.971 377.03,254.059 377.275,254.059L399.965,254.059C401.855,254.059 403.563,254.523 405.091,255.453C406.62,256.381 407.848,257.61 408.777,259.14C409.706,260.67 410.171,262.354 410.171,264.191L410.171,270.137C410.171,271.974 409.706,273.658 408.777,275.188C407.848,276.718 406.62,277.948 405.091,278.877C403.563,279.805 401.855,280.27 399.965,280.27L376.869,280.27Z" style="fill:white;"></path>
        <g transform="matrix(-0.923084,-0.384598,-0.384598,0.923084,318.306,239.468)">
            <path d="M59.124,100.929L67.169,100.929C38.718,39.225 20.404,-11.349 20.245,-11.799L12.942,-13.749C13.102,-13.296 30.55,38.958 59.124,100.929" style="fill:rgb(255,142,255);fill-rule:nonzero;"></path>
        </g>
        <g transform="matrix(-0.960304,0.278955,0.278955,0.960304,266.334,221.643)">
            <path d="M72.317,69.991L96.539,69.991C19.033,36.067 -25.879,8.246 -26.286,7.997L-33.527,12.548C-33.119,12.799 10.646,39.672 72.317,69.991" style="fill:rgb(0,222,221);fill-rule:nonzero;"></path>
        </g>
        <g transform="matrix(1,0,0,1,316.6,323.4)">
            <path d="M0,-103.92C-1.37,-102.44 -2.9,-100.78 -4.58,-98.97C-7.95,-95.35 -11.9,-91.12 -16.31,-86.42C-16.54,-86.17 -16.78,-85.93 -17.01,-85.68C-17.88,-84.75 -18.78,-83.8 -19.69,-82.84C-21.69,-80.72 -23.77,-78.52 -25.92,-76.25C-28.03,-74.03 -30.21,-71.74 -32.45,-69.39C-32.57,-69.26 -32.7,-69.13 -32.83,-69C-33.05,-68.76 -33.29,-68.52 -33.52,-68.27C-33.75,-68.04 -33.98,-67.8 -34.21,-67.55C-34.45,-67.3 -34.69,-67.05 -34.94,-66.79C-35.17,-66.55 -35.41,-66.3 -35.65,-66.05C-36.11,-65.57 -36.57,-65.09 -37.03,-64.6C-37.8,-63.82 -38.56,-63.02 -39.32,-62.23C-39.78,-61.75 -40.25,-61.27 -40.71,-60.79C-40.77,-60.73 -40.83,-60.66 -40.89,-60.6C-41.51,-59.96 -42.14,-59.31 -42.77,-58.66C-45.22,-56.12 -47.73,-53.54 -50.28,-50.93C-50.74,-50.45 -51.2,-49.98 -51.67,-49.5C-51.68,-49.49 -51.69,-49.47 -51.7,-49.46C-52.46,-48.69 -53.22,-47.91 -53.98,-47.13C-54.44,-46.66 -54.91,-46.19 -55.38,-45.72C-56.48,-44.59 -57.59,-43.46 -58.7,-42.33C-58.95,-42.08 -59.19,-41.83 -59.44,-41.58C-59.68,-41.35 -59.91,-41.11 -60.14,-40.87C-60.37,-40.64 -60.6,-40.4 -60.84,-40.17C-63.98,-36.99 -67.16,-33.79 -70.36,-30.6C-73.12,-27.85 -75.9,-25.1 -78.67,-22.37C-80.47,-20.6 -82.26,-18.85 -84.05,-17.1C-89.53,-11.76 -94.99,-6.54 -100.33,-1.53C-101.33,-1.57 -102.22,-1.62 -103.01,-1.67C-103.7,-1.06 -104.38,-0.46 -105.05,0.14C-100.71,-3.89 -96.29,-8.07 -91.82,-12.36C-90.18,-13.92 -88.54,-15.5 -86.9,-17.1C-85.1,-18.84 -83.29,-20.6 -81.49,-22.37C-78.7,-25.09 -75.91,-27.84 -73.13,-30.6C-69.47,-34.23 -65.83,-37.87 -62.24,-41.49C-62,-41.73 -61.77,-41.97 -61.54,-42.2C-61.3,-42.44 -61.06,-42.68 -60.83,-42.91C-60.58,-43.16 -60.33,-43.41 -60.09,-43.66C-58.98,-44.78 -57.87,-45.9 -56.77,-47.02C-56.3,-47.49 -55.83,-47.97 -55.37,-48.44C-54.6,-49.22 -53.84,-49.99 -53.08,-50.76C-52.83,-51.02 -52.58,-51.28 -52.32,-51.54C-52.11,-51.76 -51.9,-51.98 -51.68,-52.19C-48.37,-55.58 -45.11,-58.92 -41.95,-62.18C-41.48,-62.66 -41.02,-63.14 -40.56,-63.62C-39.8,-64.4 -39.05,-65.18 -38.3,-65.95C-37.84,-66.43 -37.37,-66.91 -36.91,-67.39C-36.68,-67.63 -36.44,-67.88 -36.21,-68.12C-35.96,-68.37 -35.72,-68.63 -35.48,-68.88C-35.31,-69.05 -35.15,-69.22 -34.98,-69.39C-34.92,-69.46 -34.85,-69.53 -34.78,-69.6C-34.55,-69.84 -34.32,-70.08 -34.09,-70.32C-32.15,-72.34 -30.25,-74.32 -28.41,-76.25C-26.11,-78.65 -23.9,-80.97 -21.78,-83.21C-20.91,-84.12 -20.05,-85.02 -19.22,-85.91L-19.21,-85.91L-18.67,-86.48C-14.56,-90.82 -10.83,-94.78 -7.59,-98.25C-6.87,-99.02 -6.17,-99.76 -5.5,-100.47C-4.31,-101.75 -3.19,-102.95 -2.15,-104.06C-2.18,-104.01 -2.23,-103.97 -2.27,-103.92L0,-103.92Z" style="fill:white;fill-rule:nonzero;"></path>
        </g>
        <g transform="matrix(-0.595909,-0.803052,-0.803052,0.595909,311.663,280.915)">
            <path d="M42.586,117.253L44.585,117.253C44.585,116.532 45.517,41.234 60.228,-19.112L58.291,-22.385C43.522,38.199 42.586,116.53 42.586,117.253" style="fill:white;fill-rule:nonzero;"></path>
        </g>
    </g>
</svg>