<?xml version="1.0"?>

<svg width="100%" height="100%" viewBox="0 0 2084 2084" version="1.1" xmlns="http://www.w3.org/2000/svg" xmlns:xlink="http://www.w3.org/1999/xlink" xml:space="preserve" xmlns:serif="http://www.serif.com/" style="fill-rule:evenodd;clip-rule:evenodd;stroke-linejoin:round;stroke-miterlimit:2;">
    <g id="OBJECTS" transform="matrix(4.16667,0,0,4.16667,0,0)">
        <g transform="matrix(1,0,0,1,431.674,314.173)">
            <path d="M0,0.737L13.619,3.355L-0.239,2.828C-6.336,2.596 -11.69,6.85 -12.841,12.842L-15.459,26.461L-14.932,12.603C-14.7,6.505 -18.954,1.152 -24.946,0.001L-38.565,-2.617L-24.707,-2.09C-18.61,-1.859 -13.256,-6.112 -12.105,-12.104L-9.487,-25.724L-10.014,-11.865C-10.246,-5.768 -5.992,-0.415 0,0.737" style="fill:rgb(0,174,234);fill-rule:nonzero;"></path>
        </g>
        <g transform="matrix(1,0,0,1,431.699,314.257)">
            <path d="M0,0.672L13.516,3.237L-0.232,2.747C-6.281,2.531 -11.581,6.763 -12.71,12.71L-15.274,26.226L-14.784,12.477C-14.569,6.429 -18.801,1.128 -24.747,-0L-38.264,-2.564L-24.515,-2.074C-18.466,-1.859 -13.166,-6.091 -12.038,-12.038L-9.473,-25.554L-9.963,-11.805C-10.179,-5.756 -5.946,-0.456 0,0.672" style="fill:rgb(0,174,234);fill-rule:nonzero;"></path>
        </g>
        <g transform="matrix(1,0,0,1,431.725,314.341)">
            <path d="M0,0.607L13.413,3.118L-0.226,2.665C-6.226,2.466 -11.473,6.677 -12.578,12.578L-15.089,25.991L-14.636,12.352C-14.437,6.352 -18.648,1.105 -24.549,-0L-37.962,-2.511L-24.323,-2.058C-18.323,-1.859 -13.076,-6.07 -11.971,-11.971L-9.46,-25.384L-9.913,-11.745C-10.112,-5.745 -5.901,-0.498 0,0.607" style="fill:rgb(0,174,234);fill-rule:nonzero;"></path>
        </g>
        <g transform="matrix(1,0,0,1,431.75,314.425)">
            <path d="M0,0.542L13.31,3L-0.219,2.584C-6.171,2.401 -11.365,6.59 -12.446,12.446L-14.905,25.756L-14.489,12.227C-14.305,6.275 -18.495,1.081 -24.35,-0L-37.66,-2.459L-24.132,-2.043C-18.18,-1.859 -12.986,-6.049 -11.904,-11.904L-9.446,-25.214L-9.862,-11.686C-10.045,-5.734 -5.856,-0.54 0,0.542" style="fill:rgb(0,174,234);fill-rule:nonzero;"></path>
        </g>
        <g transform="matrix(1,0,0,1,431.776,314.509)">
            <path d="M0,0.477L13.207,2.882L-0.212,2.503C-6.115,2.336 -11.257,6.504 -12.315,12.314L-14.72,25.521L-14.341,12.102C-14.174,6.199 -18.342,1.057 -24.152,-0.001L-37.359,-2.406L-23.94,-2.027C-18.036,-1.86 -12.895,-6.027 -11.837,-11.838L-9.432,-25.044L-9.811,-11.626C-9.978,-5.722 -5.81,-0.581 0,0.477" style="fill:rgb(0,174,234);fill-rule:nonzero;"></path>
        </g>
        <g transform="matrix(1,0,0,1,431.801,314.591)">
            <path d="M0,0.413L13.104,2.765L-0.205,2.423C-6.06,2.272 -11.148,6.418 -12.183,12.183L-14.535,25.287L-14.193,11.978C-14.042,6.123 -18.188,1.035 -23.953,-0L-37.057,-2.352L-23.748,-2.01C-17.893,-1.859 -12.805,-6.005 -11.77,-11.77L-9.418,-24.874L-9.76,-11.565C-9.911,-5.71 -5.765,-0.622 0,0.413" style="fill:rgb(0,174,234);fill-rule:nonzero;"></path>
        </g>
        <g transform="matrix(1,0,0,1,431.826,314.675)">
            <path d="M0,0.348L13,2.647L-0.198,2.341C-6.005,2.207 -11.04,6.332 -12.052,12.051L-14.351,25.052L-14.045,11.853C-13.911,6.046 -18.035,1.011 -23.755,-0L-36.755,-2.299L-23.557,-1.994C-17.75,-1.859 -12.715,-5.984 -11.703,-11.704L-9.404,-24.704L-9.71,-11.505C-9.844,-5.699 -5.719,-0.663 0,0.348" style="fill:rgb(0,174,234);fill-rule:nonzero;"></path>
        </g>
        <g transform="matrix(1,0,0,1,431.852,314.758)">
            <path d="M0,0.284L12.897,2.53L-0.191,2.261C-5.95,2.143 -10.932,6.246 -11.92,11.92L-14.166,24.817L-13.897,11.729C-13.779,5.971 -17.882,0.988 -23.556,0L-36.453,-2.245L-23.365,-1.977C-17.607,-1.859 -12.624,-5.962 -11.636,-11.636L-9.39,-24.533L-9.659,-11.445C-9.777,-5.686 -5.674,-0.704 0,0.284" style="fill:rgb(0,174,234);fill-rule:nonzero;"></path>
        </g>
        <g transform="matrix(1,0,0,1,431.877,314.842)">
            <path d="M0,0.219L12.794,2.412L-0.184,2.18C-5.894,2.078 -10.824,6.16 -11.788,11.788L-13.981,24.582L-13.749,11.604C-13.647,5.894 -17.729,0.965 -23.358,-0L-36.152,-2.193L-23.173,-1.961C-17.463,-1.859 -12.534,-5.941 -11.569,-11.569L-9.377,-24.363L-9.608,-11.385C-9.71,-5.675 -5.629,-0.746 0,0.219" style="fill:rgb(0,174,234);fill-rule:nonzero;"></path>
        </g>
        <g transform="matrix(1,0,0,1,431.903,314.925)">
            <path d="M0,0.154L12.691,2.294L-0.178,2.099C-5.839,2.013 -10.715,6.073 -11.657,11.656L-13.796,24.347L-13.602,11.479C-13.516,5.817 -17.576,0.941 -23.159,0L-35.85,-2.14L-22.982,-1.945C-17.32,-1.859 -12.444,-5.919 -11.502,-11.503L-9.363,-24.193L-9.558,-11.325C-9.643,-5.664 -5.583,-0.787 0,0.154" style="fill:rgb(0,174,234);fill-rule:nonzero;"></path>
        </g>
        <g transform="matrix(1,0,0,1,431.928,315.008)">
            <path d="M0,0.09L12.588,2.177L-0.171,2.019C-5.784,1.949 -10.607,5.988 -11.525,11.526L-13.612,24.113L-13.454,11.355C-13.384,5.742 -17.423,0.918 -22.961,0L-35.548,-2.086L-22.79,-1.928C-17.177,-1.859 -12.354,-5.897 -11.436,-11.435L-9.349,-24.023L-9.507,-11.264C-9.576,-5.651 -5.538,-0.828 0,0.09" style="fill:rgb(0,174,234);fill-rule:nonzero;"></path>
        </g>
        <g transform="matrix(1,0,0,1,431.953,315.092)">
            <path d="M0,0.025L12.484,2.058L-0.164,1.937C-5.729,1.884 -10.499,5.901 -11.393,11.394L-13.427,23.878L-13.306,11.23C-13.253,5.665 -17.27,0.895 -22.762,-0L-35.247,-2.033L-22.598,-1.912C-17.033,-1.859 -12.263,-5.876 -11.369,-11.368L-9.335,-23.853L-9.456,-11.205C-9.509,-5.64 -5.493,-0.87 0,0.025" style="fill:rgb(0,174,234);fill-rule:nonzero;"></path>
        </g>
        <g transform="matrix(1,0,0,1,431.979,315.176)">
            <path d="M0,-0.04L12.381,1.94L-0.157,1.856C-5.673,1.819 -10.391,5.815 -11.262,11.262L-13.242,23.643L-13.158,11.105C-13.121,5.588 -17.116,0.871 -22.564,0L-34.945,-1.98L-22.406,-1.896C-16.89,-1.859 -12.173,-5.855 -11.302,-11.302L-9.321,-23.683L-9.406,-11.145C-9.443,-5.628 -5.447,-0.911 0,-0.04" style="fill:rgb(0,174,234);fill-rule:nonzero;"></path>
        </g>
        <g transform="matrix(1,0,0,1,432.004,315.26)">
            <path d="M0,-0.105L12.278,1.822L-0.15,1.775C-5.618,1.754 -10.282,5.728 -11.13,11.13L-13.057,23.408L-13.01,10.98C-12.989,5.512 -16.963,0.847 -22.365,-0L-34.643,-1.928L-22.215,-1.88C-16.747,-1.86 -12.083,-5.833 -11.235,-11.235L-9.308,-23.513L-9.355,-11.085C-9.376,-5.617 -5.402,-0.953 0,-0.105" style="fill:rgb(0,174,234);fill-rule:nonzero;"></path>
        </g>
        <g transform="matrix(1,0,0,1,432.03,315.342)">
            <path d="M0,-0.169L12.175,1.705L-0.143,1.695C-5.563,1.69 -10.174,5.642 -10.999,10.999L-12.873,23.174L-12.862,10.855C-12.858,5.436 -16.81,0.825 -22.166,0L-34.341,-1.874L-22.023,-1.863C-16.604,-1.859 -11.992,-5.811 -11.168,-11.168L-9.294,-23.343L-9.304,-11.024C-9.309,-5.605 -5.356,-0.994 0,-0.169" style="fill:rgb(0,174,234);fill-rule:nonzero;"></path>
        </g>
        <g transform="matrix(1,0,0,1,432.055,315.426)">
            <path d="M0,-0.234L12.072,1.587L-0.137,1.613C-5.508,1.625 -10.066,5.556 -10.867,10.867L-12.688,22.939L-12.714,10.73C-12.726,5.359 -16.657,0.801 -21.968,-0L-34.04,-1.821L-21.831,-1.848C-16.46,-1.859 -11.902,-5.79 -11.101,-11.101L-9.28,-23.173L-9.253,-10.964C-9.242,-5.593 -5.311,-1.035 0,-0.234" style="fill:rgb(0,174,234);fill-rule:nonzero;"></path>
        </g>
        <g transform="matrix(1,0,0,1,432.081,315.51)">
            <path d="M0,-0.299L11.969,1.469L-0.13,1.532C-5.452,1.56 -9.958,5.469 -10.735,10.735L-12.503,22.704L-12.567,10.605C-12.595,5.283 -16.504,0.777 -21.769,0L-33.738,-1.768L-21.64,-1.832C-16.317,-1.86 -11.812,-5.769 -11.034,-11.034L-9.266,-23.003L-9.203,-10.905C-9.175,-5.582 -5.266,-1.077 0,-0.299" style="fill:rgb(0,174,234);fill-rule:nonzero;"></path>
        </g>
        <g transform="matrix(1,0,0,1,432.106,315.594)">
            <path d="M0,-0.364L11.865,1.351L-0.123,1.451C-5.397,1.495 -9.849,5.383 -10.604,10.603L-12.319,22.469L-12.419,10.48C-12.463,5.206 -16.351,0.754 -21.571,-0.001L-33.436,-1.715L-21.448,-1.816C-16.174,-1.86 -11.722,-5.748 -10.967,-10.968L-9.252,-22.833L-9.152,-10.845C-9.108,-5.571 -5.22,-1.118 0,-0.364" style="fill:rgb(0,174,234);fill-rule:nonzero;"></path>
        </g>
        <g transform="matrix(1,0,0,1,432.131,315.677)">
            <path d="M0,-0.428L11.762,1.234L-0.116,1.371C-5.342,1.431 -9.741,5.297 -10.472,10.472L-12.134,22.234L-12.271,10.356C-12.331,5.13 -16.198,0.731 -21.372,0L-33.135,-1.662L-21.256,-1.799C-16.03,-1.859 -11.631,-5.725 -10.9,-10.9L-9.238,-22.662L-9.101,-10.784C-9.041,-5.558 -5.175,-1.159 0,-0.428" style="fill:rgb(0,174,234);fill-rule:nonzero;"></path>
        </g>
        <g transform="matrix(1,0,0,1,432.157,315.76)">
            <path d="M0,-0.492L11.659,1.117L-0.109,1.291C-5.287,1.367 -9.633,5.212 -10.341,10.341L-11.949,22L-12.123,10.232C-12.2,5.055 -16.044,0.708 -21.174,0.001L-32.833,-1.608L-21.065,-1.782C-15.887,-1.858 -11.541,-5.703 -10.833,-10.833L-9.225,-22.492L-9.051,-10.723C-8.974,-5.546 -5.129,-1.2 0,-0.492" style="fill:rgb(0,174,234);fill-rule:nonzero;"></path>
        </g>
        <g transform="matrix(1,0,0,1,432.182,315.843)">
            <path d="M0,-0.557L11.556,0.998L-0.102,1.209C-5.231,1.302 -9.525,5.125 -10.209,10.209L-11.764,21.765L-11.975,10.107C-12.068,4.978 -15.891,0.685 -20.975,-0L-32.531,-1.555L-20.873,-1.766C-15.744,-1.859 -11.451,-5.682 -10.766,-10.766L-9.211,-22.322L-9,-10.664C-8.907,-5.535 -5.084,-1.241 0,-0.557" style="fill:rgb(0,174,234);fill-rule:nonzero;"></path>
        </g>
        <g transform="matrix(1,0,0,1,432.208,315.927)">
            <path d="M0,-0.622L11.453,0.88L-0.095,1.128C-5.176,1.237 -9.416,5.039 -10.077,10.077L-11.58,21.53L-11.827,9.982C-11.936,4.901 -15.738,0.661 -20.777,0L-32.229,-1.502L-20.681,-1.75C-15.601,-1.859 -11.36,-5.661 -10.699,-10.699L-9.197,-22.152L-8.949,-10.604C-8.84,-5.523 -5.039,-1.283 0,-0.622" style="fill:rgb(0,174,234);fill-rule:nonzero;"></path>
        </g>
        <g transform="matrix(1,0,0,1,432.233,316.011)">
            <path d="M0,-0.687L11.35,0.762L-0.089,1.047C-5.121,1.172 -9.308,4.952 -9.946,9.945L-11.395,21.295L-11.68,9.857C-11.805,4.825 -15.585,0.637 -20.578,0L-31.928,-1.449L-20.49,-1.734C-15.457,-1.859 -11.27,-5.639 -10.632,-10.633L-9.183,-21.982L-8.899,-10.544C-8.773,-5.512 -4.993,-1.325 0,-0.687" style="fill:rgb(0,174,234);fill-rule:nonzero;"></path>
        </g>
        <g transform="matrix(1,0,0,1,432.258,316.095)">
            <path d="M0,-0.752L11.246,0.644L-0.082,0.966C-5.066,1.107 -9.2,4.866 -9.814,9.814L-11.21,21.06L-11.532,9.732C-11.673,4.748 -15.432,0.614 -20.38,-0L-31.626,-1.397L-20.298,-1.718C-15.314,-1.86 -11.18,-5.618 -10.566,-10.566L-9.169,-21.812L-8.848,-10.484C-8.706,-5.5 -4.948,-1.366 0,-0.752" style="fill:rgb(0,174,234);fill-rule:nonzero;"></path>
        </g>
        <g transform="matrix(1,0,0,1,432.284,316.178)">
            <path d="M0,-0.816L11.143,0.527L-0.075,0.886C-5.01,1.043 -9.092,4.78 -9.682,9.683L-11.025,20.826L-11.384,9.608C-11.542,4.672 -15.279,0.591 -20.181,0L-31.324,-1.343L-20.106,-1.701C-15.171,-1.859 -11.09,-5.596 -10.499,-10.498L-9.156,-21.642L-8.797,-10.424C-8.639,-5.488 -4.902,-1.407 0,-0.816" style="fill:rgb(0,174,234);fill-rule:nonzero;"></path>
        </g>
        <g transform="matrix(1,0,0,1,432.309,316.261)">
            <path d="M0,-0.881L11.04,0.409L-0.068,0.804C-4.955,0.978 -8.983,4.694 -9.551,9.551L-10.841,20.591L-11.236,9.483C-11.41,4.596 -15.125,0.567 -19.983,0L-31.023,-1.29L-19.914,-1.685C-15.027,-1.859 -10.999,-5.575 -10.432,-10.432L-9.142,-21.472L-8.746,-10.364C-8.573,-5.477 -4.857,-1.449 0,-0.881" style="fill:rgb(0,174,234);fill-rule:nonzero;"></path>
        </g>
        <g transform="matrix(1,0,0,1,432.335,316.345)">
            <path d="M0,-0.946L10.937,0.291L-0.061,0.723C-4.9,0.913 -8.875,4.607 -9.419,9.419L-10.656,20.356L-11.088,9.358C-11.278,4.519 -14.972,0.544 -19.784,0L-30.721,-1.237L-19.723,-1.669C-14.884,-1.86 -10.909,-5.554 -10.365,-10.365L-9.128,-21.302L-8.696,-10.304C-8.506,-5.465 -4.812,-1.49 0,-0.946" style="fill:rgb(0,174,234);fill-rule:nonzero;"></path>
        </g>
        <g transform="matrix(1,0,0,1,432.36,316.429)">
            <path d="M0,-1.011L10.834,0.173L-0.054,0.642C-4.845,0.848 -8.767,4.521 -9.288,9.287L-10.471,20.121L-10.94,9.232C-11.147,4.442 -14.819,0.52 -19.585,-0.001L-30.419,-1.184L-19.531,-1.654C-14.741,-1.86 -10.819,-5.532 -10.298,-10.299L-9.114,-21.132L-8.645,-10.244C-8.439,-5.454 -4.766,-1.532 0,-1.011" style="fill:rgb(0,174,234);fill-rule:nonzero;"></path>
        </g>
        <g transform="matrix(1,0,0,1,432.385,316.512)">
            <path d="M0,-1.075L10.731,0.056L-0.048,0.562C-4.789,0.784 -8.659,4.435 -9.156,9.156L-10.287,19.887L-10.793,9.108C-11.015,4.367 -14.666,0.497 -19.387,0L-30.117,-1.131L-19.339,-1.637C-14.598,-1.859 -10.728,-5.51 -10.231,-10.231L-9.1,-20.962L-8.594,-10.183C-8.372,-5.442 -4.721,-1.572 0,-1.075" style="fill:rgb(0,174,234);fill-rule:nonzero;"></path>
        </g>
        <g transform="matrix(1,0,0,1,432.411,316.595)">
            <path d="M0,-1.139L10.627,-0.062L-0.041,0.481C-4.734,0.72 -8.55,4.35 -9.024,9.025L-10.102,19.652L-10.645,8.984C-10.884,4.291 -14.513,0.475 -19.188,0.001L-29.816,-1.077L-19.148,-1.62C-14.454,-1.859 -10.638,-5.488 -10.164,-10.163L-9.087,-20.791L-8.544,-10.123C-8.305,-5.429 -4.676,-1.613 0,-1.139" style="fill:rgb(0,174,234);fill-rule:nonzero;"></path>
        </g>
        <g transform="matrix(1,0,0,1,432.436,316.678)">
            <path d="M0,-1.204L10.524,-0.18L-0.034,0.4C-4.679,0.655 -8.442,4.263 -8.893,8.893L-9.917,19.417L-10.497,8.859C-10.752,4.214 -14.36,0.451 -18.99,-0L-29.514,-1.024L-18.956,-1.604C-14.311,-1.859 -10.548,-5.467 -10.097,-10.097L-9.073,-20.621L-8.493,-10.063C-8.238,-5.418 -4.63,-1.655 0,-1.204" style="fill:rgb(0,174,234);fill-rule:nonzero;"></path>
        </g>
        <g transform="matrix(1,0,0,1,432.462,316.762)">
            <path d="M0,-1.269L10.421,-0.298L-0.027,0.319C-4.624,0.59 -8.334,4.176 -8.761,8.761L-9.732,19.182L-10.349,8.734C-10.62,4.138 -14.207,0.427 -18.791,-0L-29.212,-0.971L-18.764,-1.588C-14.168,-1.859 -10.457,-5.445 -10.03,-10.03L-9.059,-20.451L-8.442,-10.003C-8.171,-5.407 -4.585,-1.696 0,-1.269" style="fill:rgb(0,174,234);fill-rule:nonzero;"></path>
        </g>
        <g transform="matrix(1,0,0,1,432.487,316.846)">
            <path d="M0,-1.334L10.318,-0.416L-0.02,0.238C-4.568,0.525 -8.226,4.09 -8.629,8.629L-9.548,18.947L-10.201,8.609C-10.489,4.061 -14.053,0.404 -18.593,-0L-28.911,-0.918L-18.573,-1.572C-14.024,-1.859 -10.367,-5.424 -9.963,-9.964L-9.045,-20.281L-8.392,-9.943C-8.104,-5.395 -4.539,-1.738 0,-1.334" style="fill:rgb(0,174,234);fill-rule:nonzero;"></path>
        </g>
        <g transform="matrix(1,0,0,1,432.513,316.929)">
            <path d="M0,-1.398L10.215,-0.533L-0.013,0.157C-4.513,0.461 -8.117,4.004 -8.498,8.498L-9.363,18.713L-10.053,8.485C-10.357,3.985 -13.9,0.381 -18.394,-0L-28.609,-0.865L-18.381,-1.555C-13.881,-1.859 -10.277,-5.402 -9.896,-9.896L-9.031,-20.111L-8.341,-9.883C-8.037,-5.383 -4.494,-1.779 0,-1.398" style="fill:rgb(0,174,234);fill-rule:nonzero;"></path>
        </g>
        <g transform="matrix(1,0,0,1,432.538,317.013)">
            <path d="M0,-1.463L10.112,-0.651L-0.006,0.076C-4.458,0.396 -8.009,3.918 -8.366,8.366L-9.178,18.478L-9.906,8.36C-10.226,3.909 -13.747,0.357 -18.196,-0L-28.307,-0.812L-18.189,-1.539C-13.738,-1.859 -10.187,-5.381 -9.829,-9.829L-9.017,-19.941L-8.29,-9.823C-7.97,-5.371 -4.449,-1.82 0,-1.463" style="fill:rgb(0,174,234);fill-rule:nonzero;"></path>
        </g>
        <g transform="matrix(1,0,0,1,432.563,317.096)">
            <path d="M0,-1.528L10.008,-0.769L0,-0.005C-4.403,0.331 -7.901,3.831 -8.235,8.235L-8.993,18.243L-9.758,8.235C-10.094,3.832 -13.594,0.334 -17.997,-0L-28.005,-0.759L-17.998,-1.523C-13.595,-1.859 -10.096,-5.359 -9.763,-9.763L-9.004,-19.771L-8.239,-9.763C-7.903,-5.36 -4.403,-1.862 0,-1.528" style="fill:rgb(0,174,234);fill-rule:nonzero;"></path>
        </g>
        <g transform="matrix(1,0,0,1,432.589,317.18)">
            <path d="M0,-1.593L9.905,-0.887L0.007,-0.086C-4.347,0.266 -7.793,3.745 -8.103,8.103L-8.809,18.008L-9.61,8.11C-9.962,3.755 -13.441,0.31 -17.799,-0L-27.704,-0.706L-17.806,-1.507C-13.451,-1.86 -10.006,-5.338 -9.696,-9.696L-8.99,-19.601L-8.189,-9.703C-7.836,-5.349 -4.358,-1.904 0,-1.593" style="fill:rgb(0,174,234);fill-rule:nonzero;"></path>
        </g>
        <g transform="matrix(1,0,0,1,432.614,317.264)">
            <path d="M0,-1.658L9.802,-1.005L0.014,-0.167C-4.292,0.201 -7.684,3.658 -7.971,7.971L-8.624,17.773L-9.462,7.985C-9.831,3.679 -13.288,0.286 -17.6,-0.001L-27.402,-0.653L-17.614,-1.491C-13.308,-1.86 -9.916,-5.317 -9.629,-9.629L-8.976,-19.431L-8.138,-9.644C-7.769,-5.337 -4.312,-1.945 0,-1.658" style="fill:rgb(0,174,234);fill-rule:nonzero;"></path>
        </g>
        <g transform="matrix(1,0,0,1,432.64,317.347)">
            <path d="M0,-1.722L9.699,-1.122L0.021,-0.248C-4.237,0.137 -7.576,3.573 -7.84,7.84L-8.439,17.539L-9.314,7.861C-9.699,3.603 -13.135,0.264 -17.402,-0L-27.1,-0.6L-17.422,-1.474C-13.165,-1.859 -9.826,-5.295 -9.562,-9.562L-8.962,-19.261L-8.087,-9.583C-7.702,-5.325 -4.267,-1.986 0,-1.722" style="fill:rgb(0,174,234);fill-rule:nonzero;"></path>
        </g>
        <g transform="matrix(1,0,0,1,432.665,317.43)">
            <path d="M0,-1.786L9.596,-1.24L0.028,-0.328C-4.182,0.073 -7.468,3.487 -7.708,7.709L-8.255,17.304L-9.166,7.737C-9.567,3.527 -12.981,0.241 -17.203,0.001L-26.799,-0.546L-17.231,-1.458C-13.021,-1.859 -9.735,-5.273 -9.495,-9.494L-8.948,-19.09L-8.037,-9.522C-7.636,-5.313 -4.222,-2.026 0,-1.786" style="fill:rgb(0,174,234);fill-rule:nonzero;"></path>
        </g>
        <g transform="matrix(1,0,0,1,432.69,317.513)">
            <path d="M0,-1.851L9.492,-1.358L0.035,-0.409C-4.126,0.008 -7.36,3.401 -7.577,7.577L-8.07,17.069L-9.018,7.612C-9.436,3.451 -12.828,0.217 -17.004,0L-26.497,-0.493L-17.039,-1.442C-12.878,-1.859 -9.645,-5.251 -9.428,-9.428L-8.935,-18.92L-7.986,-9.462C-7.569,-5.301 -4.176,-2.068 0,-1.851" style="fill:rgb(0,174,234);fill-rule:nonzero;"></path>
        </g>
        <g transform="matrix(1,0,0,1,432.716,317.597)">
            <path d="M0,-1.916L9.389,-1.476L0.041,-0.49C-4.071,-0.057 -7.251,3.314 -7.445,7.445L-7.885,16.834L-8.871,7.486C-9.304,3.374 -12.675,0.194 -16.806,0L-26.195,-0.44L-16.847,-1.426C-12.735,-1.859 -9.555,-5.23 -9.361,-9.361L-8.921,-18.75L-7.935,-9.402C-7.502,-5.29 -4.131,-2.11 0,-1.916" style="fill:rgb(0,174,234);fill-rule:nonzero;"></path>
        </g>
        <g transform="matrix(1,0,0,1,432.741,317.681)">
            <path d="M0,-1.981L9.286,-1.594L0.048,-0.571C-4.016,-0.122 -7.143,3.228 -7.313,7.313L-7.7,16.599L-8.723,7.361C-9.173,3.297 -12.522,0.17 -16.607,0L-25.893,-0.387L-16.656,-1.41C-12.592,-1.86 -9.464,-5.209 -9.294,-9.294L-8.907,-18.58L-7.885,-9.343C-7.435,-5.279 -4.085,-2.151 0,-1.981" style="fill:rgb(0,174,234);fill-rule:nonzero;"></path>
        </g>
        <g transform="matrix(1,0,0,1,432.767,317.764)">
            <path d="M0,-2.045L9.183,-1.711L0.055,-0.652C-3.961,-0.186 -7.035,3.142 -7.182,7.182L-7.516,16.365L-8.575,7.237C-9.041,3.222 -12.369,0.147 -16.409,-0L-25.592,-0.334L-16.464,-1.393C-12.448,-1.859 -9.374,-5.187 -9.227,-9.227L-8.893,-18.41L-7.834,-9.282C-7.368,-5.266 -4.04,-2.192 0,-2.045" style="fill:rgb(0,174,234);fill-rule:nonzero;"></path>
        </g>
        <g transform="matrix(1,0,0,1,432.792,317.848)">
            <path d="M0,-2.11L9.08,-1.829L0.062,-0.733C-3.905,-0.251 -6.927,3.056 -7.05,7.05L-7.331,16.13L-8.427,7.112C-8.909,3.145 -12.216,0.124 -16.21,0L-25.29,-0.281L-16.272,-1.377C-12.305,-1.859 -9.284,-5.165 -9.16,-9.16L-8.879,-18.24L-7.783,-9.222C-7.301,-5.255 -3.995,-2.234 0,-2.11" style="fill:rgb(0,174,234);fill-rule:nonzero;"></path>
        </g>
        <g transform="matrix(1,0,0,1,432.817,317.931)">
            <path d="M0,-2.175L8.977,-1.947L0.069,-0.814C-3.85,-0.316 -6.818,2.969 -6.918,6.918L-7.146,15.895L-8.279,6.987C-8.778,3.068 -12.063,0.1 -16.012,0L-24.988,-0.228L-16.081,-1.361C-12.162,-1.86 -9.193,-5.144 -9.093,-9.093L-8.865,-18.07L-7.732,-9.162C-7.234,-5.243 -3.949,-2.275 0,-2.175" style="fill:rgb(0,174,234);fill-rule:nonzero;"></path>
        </g>
        <g transform="matrix(1,0,0,1,432.843,318.015)">
            <path d="M0,-2.24L8.873,-2.065L0.076,-0.895C-3.795,-0.381 -6.71,2.882 -6.787,6.786L-6.962,15.66L-8.131,6.862C-8.646,2.992 -11.909,0.076 -15.813,-0.001L-24.687,-0.175L-15.889,-1.345C-12.018,-1.86 -9.103,-5.123 -9.026,-9.027L-8.852,-17.9L-7.682,-9.103C-7.167,-5.232 -3.904,-2.317 0,-2.24" style="fill:rgb(0,174,234);fill-rule:nonzero;"></path>
        </g>
        <g transform="matrix(1,0,0,1,432.868,318.098)">
            <path d="M0,-2.304L8.77,-2.182L0.083,-0.976C-3.74,-0.445 -6.602,2.797 -6.655,6.655L-6.777,15.426L-7.984,6.738C-8.515,2.916 -11.756,0.054 -15.615,-0L-24.385,-0.121L-15.697,-1.328C-11.875,-1.859 -9.013,-5.101 -8.959,-8.959L-8.838,-17.73L-7.631,-9.042C-7.1,-5.22 -3.858,-2.357 0,-2.304" style="fill:rgb(0,174,234);fill-rule:nonzero;"></path>
        </g>
        <g transform="matrix(1,0,0,1,432.894,318.182)">
            <path d="M0,-2.369L8.667,-2.301L0.089,-1.057C-3.684,-0.51 -6.493,2.71 -6.524,6.524L-6.592,15.191L-7.836,6.613C-8.383,2.839 -11.603,0.03 -15.416,0L-24.083,-0.069L-15.506,-1.312C-11.732,-1.859 -8.923,-5.08 -8.893,-8.893L-8.824,-17.56L-7.58,-8.982C-7.033,-5.208 -3.813,-2.399 0,-2.369" style="fill:rgb(0,174,234);fill-rule:nonzero;"></path>
        </g>
        <g transform="matrix(1,0,0,1,432.919,318.266)">
            <path d="M0,-2.434L8.564,-2.419L0.096,-1.138C-3.629,-0.575 -6.385,2.624 -6.392,6.392L-6.407,14.956L-7.688,6.488C-8.251,2.763 -11.45,0.006 -15.218,0L-23.782,-0.016L-15.314,-1.296C-11.589,-1.86 -8.832,-5.058 -8.826,-8.826L-8.81,-17.39L-7.53,-8.922C-6.966,-5.197 -3.768,-2.441 0,-2.434" style="fill:rgb(0,174,234);fill-rule:nonzero;"></path>
        </g>
        <g transform="matrix(1,0,0,1,432.945,318.349)">
            <path d="M0,-2.498L8.461,-2.536L0.103,-1.218C-3.574,-0.639 -6.277,2.538 -6.26,6.261L-6.223,14.721L-7.54,6.364C-8.12,2.687 -11.297,-0.016 -15.019,-0L-23.48,0.038L-15.122,-1.279C-11.445,-1.859 -8.742,-5.036 -8.759,-8.758L-8.796,-17.219L-7.479,-8.862C-6.899,-5.185 -3.722,-2.481 0,-2.498" style="fill:rgb(0,174,234);fill-rule:nonzero;"></path>
        </g>
        <g transform="matrix(1,0,0,1,432.97,318.432)">
            <path d="M0,-2.563L8.358,-2.654L0.11,-1.299C-3.519,-0.704 -6.169,2.452 -6.129,6.129L-6.038,14.486L-7.392,6.239C-7.988,2.61 -11.144,-0.04 -14.821,0L-23.178,0.091L-14.93,-1.264C-11.302,-1.859 -8.652,-5.015 -8.692,-8.692L-8.783,-17.049L-7.428,-8.802C-6.832,-5.173 -3.677,-2.523 0,-2.563" style="fill:rgb(0,174,234);fill-rule:nonzero;"></path>
        </g>
        <g>
            <g transform="matrix(1,0,0,1,129.346,186.857)">
                <path d="M0,1.35L24.963,6.148L-0.439,5.182C-11.614,4.758 -21.426,12.554 -23.537,23.537L-28.335,48.5L-27.369,23.098C-26.944,11.923 -34.741,2.111 -45.724,0L-70.686,-4.798L-45.285,-3.832C-34.11,-3.407 -24.298,-11.204 -22.187,-22.187L-17.389,-47.15L-18.355,-21.748C-18.779,-10.573 -10.982,-0.761 0,1.35" style="fill:rgb(0,174,234);fill-rule:nonzero;"></path>
            </g>
            <g transform="matrix(1,0,0,1,129.011,187.186)">
                <path d="M0,1.248L24.877,5.975L-0.429,5.067C-11.562,4.667 -21.32,12.455 -23.4,23.399L-28.126,48.277L-27.218,22.971C-26.818,11.837 -34.606,2.079 -45.551,0L-70.428,-4.727L-45.122,-3.819C-33.989,-3.419 -24.231,-11.207 -22.151,-22.152L-17.425,-47.029L-18.333,-21.723C-18.732,-10.589 -10.945,-0.831 0,1.248" style="fill:rgb(0,174,234);fill-rule:nonzero;"></path>
            </g>
            <g transform="matrix(1,0,0,1,128.675,187.516)">
                <path d="M0,1.146L24.792,5.802L-0.419,4.951C-11.51,4.576 -21.214,12.355 -23.262,23.262L-27.918,48.054L-27.067,22.843C-26.693,11.752 -34.471,2.048 -45.379,-0L-70.17,-4.656L-44.96,-3.805C-33.868,-3.431 -24.164,-11.209 -22.116,-22.116L-17.461,-46.908L-18.311,-21.697C-18.686,-10.606 -10.907,-0.902 0,1.146" style="fill:rgb(0,174,234);fill-rule:nonzero;"></path>
            </g>
            <g transform="matrix(1,0,0,1,128.34,187.845)">
                <path d="M0,1.044L24.706,5.628L-0.409,4.835C-11.459,4.486 -21.108,12.255 -23.125,23.125L-27.71,47.831L-26.916,22.716C-26.567,11.666 -34.337,2.016 -45.206,-0L-69.912,-4.585L-44.797,-3.791C-33.747,-3.442 -24.098,-11.212 -22.081,-22.081L-17.496,-46.787L-18.29,-21.672C-18.639,-10.623 -10.869,-0.973 0,1.044" style="fill:rgb(0,174,234);fill-rule:nonzero;"></path>
            </g>
            <g transform="matrix(1,0,0,1,128.004,188.173)">
                <path d="M0,0.943L24.621,5.456L-0.399,4.72C-11.407,4.396 -21.003,12.157 -22.988,22.988L-27.501,47.609L-26.765,22.589C-26.441,11.581 -34.202,1.986 -45.034,-0L-69.654,-4.513L-44.634,-3.777C-33.627,-3.453 -24.031,-11.213 -22.045,-22.045L-17.532,-46.666L-18.268,-21.646C-18.592,-10.638 -10.832,-1.043 0,0.943" style="fill:rgb(0,174,234);fill-rule:nonzero;"></path>
            </g>
            <g transform="matrix(1,0,0,1,127.668,188.503)">
                <path d="M0,0.841L24.535,5.283L-0.39,4.604C-11.355,4.306 -20.897,12.057 -22.851,22.851L-27.293,47.386L-26.614,22.461C-26.316,11.496 -34.067,1.954 -44.861,-0L-69.396,-4.442L-44.471,-3.763C-33.506,-3.465 -23.964,-11.216 -22.01,-22.01L-17.568,-46.545L-18.247,-21.62C-18.545,-10.655 -10.794,-1.113 0,0.841" style="fill:rgb(0,174,234);fill-rule:nonzero;"></path>
            </g>
            <g transform="matrix(1,0,0,1,127.333,188.832)">
                <path d="M0,0.739L24.449,5.11L-0.38,4.489C-11.303,4.215 -20.791,11.957 -22.714,22.714L-27.085,47.163L-26.463,22.334C-26.19,11.41 -33.932,1.923 -44.689,0L-69.138,-4.371L-44.309,-3.75C-33.385,-3.476 -23.898,-11.218 -21.975,-21.975L-17.604,-46.424L-18.225,-21.595C-18.498,-10.671 -10.756,-1.184 0,0.739" style="fill:rgb(0,174,234);fill-rule:nonzero;"></path>
            </g>
            <g transform="matrix(1,0,0,1,126.997,189.162)">
                <path d="M0,0.637L24.364,4.937L-0.37,4.373C-11.252,4.125 -20.685,11.858 -22.577,22.576L-26.876,46.94L-26.313,22.206C-26.064,11.325 -33.797,1.891 -44.516,0L-68.88,-4.3L-44.146,-3.736C-33.264,-3.488 -23.831,-11.221 -21.939,-21.94L-17.64,-46.303L-18.203,-21.57C-18.452,-10.688 -10.719,-1.255 0,0.637" style="fill:rgb(0,174,234);fill-rule:nonzero;"></path>
            </g>
            <g transform="matrix(1,0,0,1,126.662,189.49)">
                <path d="M0,0.536L24.278,4.765L-0.36,4.258C-11.2,4.035 -20.579,11.759 -22.44,22.44L-26.668,46.718L-26.162,22.08C-25.939,11.24 -33.662,1.861 -44.344,0L-68.622,-4.228L-43.983,-3.722C-33.144,-3.499 -23.764,-11.222 -21.904,-21.904L-17.675,-46.182L-18.182,-21.543C-18.405,-10.704 -10.681,-1.324 0,0.536" style="fill:rgb(0,174,234);fill-rule:nonzero;"></path>
            </g>
            <g transform="matrix(1,0,0,1,126.326,189.82)">
                <path d="M0,0.434L24.193,4.592L-0.351,4.142C-11.148,3.945 -20.473,11.659 -22.302,22.303L-26.46,46.495L-26.011,21.952C-25.813,11.154 -33.528,1.829 -44.171,0L-68.364,-4.157L-43.821,-3.708C-33.023,-3.51 -23.698,-11.225 -21.869,-21.868L-17.711,-46.061L-18.16,-21.518C-18.358,-10.72 -10.644,-1.395 0,0.434" style="fill:rgb(0,174,234);fill-rule:nonzero;"></path>
            </g>
            <g transform="matrix(1,0,0,1,125.99,190.149)">
                <path d="M0,0.332L24.107,4.418L-0.341,4.027C-11.097,3.854 -20.367,11.559 -22.165,22.165L-26.252,46.272L-25.86,21.825C-25.687,11.069 -33.393,1.798 -43.999,0L-68.106,-4.086L-43.658,-3.695C-32.902,-3.522 -23.631,-11.227 -21.833,-21.833L-17.747,-45.94L-18.139,-21.492C-18.311,-10.737 -10.606,-1.466 0,0.332" style="fill:rgb(0,174,234);fill-rule:nonzero;"></path>
            </g>
            <g transform="matrix(1,0,0,1,125.655,190.479)">
                <path d="M0,0.23L24.021,4.245L-0.331,3.911C-11.045,3.764 -20.262,11.46 -22.028,22.028L-26.043,46.049L-25.709,21.697C-25.562,10.983 -33.258,1.766 -43.826,0L-67.847,-4.015L-43.495,-3.681C-32.781,-3.534 -23.564,-11.23 -21.798,-21.798L-17.783,-45.819L-18.117,-21.467C-18.264,-10.753 -10.568,-1.537 0,0.23" style="fill:rgb(0,174,234);fill-rule:nonzero;"></path>
            </g>
            <g transform="matrix(1,0,0,1,125.319,190.807)">
                <path d="M0,0.129L23.936,4.073L-0.321,3.796C-10.993,3.674 -20.156,11.361 -21.891,21.892L-25.835,45.827L-25.558,21.57C-25.436,10.899 -33.123,1.736 -43.654,0.001L-67.589,-3.943L-43.332,-3.666C-32.661,-3.545 -23.498,-11.231 -21.763,-21.762L-17.818,-45.698L-18.096,-21.441C-18.217,-10.769 -10.531,-1.606 0,0.129" style="fill:rgb(0,174,234);fill-rule:nonzero;"></path>
            </g>
            <g transform="matrix(1,0,0,1,124.984,191.137)">
                <path d="M0,0.027L23.85,3.9L-0.311,3.68C-10.941,3.584 -20.05,11.261 -21.754,21.754L-25.627,45.604L-25.407,21.443C-25.31,10.813 -32.988,1.704 -43.481,0L-67.331,-3.873L-43.17,-3.653C-32.54,-3.556 -23.431,-11.234 -21.727,-21.727L-17.854,-45.577L-18.074,-21.415C-18.171,-10.786 -10.493,-1.677 0,0.027" style="fill:rgb(0,174,234);fill-rule:nonzero;"></path>
            </g>
            <g transform="matrix(1,0,0,1,124.648,191.466)">
                <path d="M0,-0.075L23.765,3.727L-0.302,3.564C-10.89,3.493 -19.944,11.162 -21.617,21.617L-25.418,45.381L-25.256,21.315C-25.185,10.727 -32.853,1.673 -43.309,-0L-67.073,-3.802L-43.007,-3.639C-32.419,-3.568 -23.364,-11.236 -21.692,-21.692L-17.89,-45.456L-18.052,-21.39C-18.124,-10.802 -10.455,-1.748 0,-0.075" style="fill:rgb(0,174,234);fill-rule:nonzero;"></path>
            </g>
            <g transform="matrix(1,0,0,1,124.312,191.796)">
                <path d="M0,-0.177L23.679,3.554L-0.292,3.449C-10.838,3.403 -19.838,11.062 -21.48,21.48L-25.21,45.159L-25.105,21.188C-25.059,10.642 -32.718,1.641 -43.136,0L-66.815,-3.731L-42.844,-3.626C-32.298,-3.58 -23.298,-11.239 -21.657,-21.657L-17.926,-45.336L-18.031,-21.365C-18.077,-10.819 -10.418,-1.818 0,-0.177" style="fill:rgb(0,174,234);fill-rule:nonzero;"></path>
            </g>
            <g transform="matrix(1,0,0,1,123.977,192.125)">
                <path d="M0,-0.279L23.593,3.381L-0.282,3.333C-10.786,3.312 -19.732,10.962 -21.342,21.342L-25.002,44.936L-24.954,21.06C-24.933,10.556 -32.584,1.61 -42.964,0L-66.557,-3.66L-42.681,-3.612C-32.177,-3.591 -23.231,-11.241 -21.621,-21.621L-17.962,-45.215L-18.009,-21.339C-18.03,-10.835 -10.38,-1.889 0,-0.279" style="fill:rgb(0,174,234);fill-rule:nonzero;"></path>
            </g>
            <g transform="matrix(1,0,0,1,123.641,192.455)">
                <path d="M0,-0.381L23.508,3.207L-0.272,3.217C-10.734,3.222 -19.627,10.863 -21.205,21.205L-24.794,44.713L-24.803,20.933C-24.808,10.47 -32.449,1.578 -42.791,-0L-66.299,-3.589L-42.519,-3.599C-32.057,-3.603 -23.165,-11.244 -21.586,-21.586L-17.997,-45.094L-17.988,-21.314C-17.983,-10.852 -10.342,-1.96 0,-0.381" style="fill:rgb(0,174,234);fill-rule:nonzero;"></path>
            </g>
            <g transform="matrix(1,0,0,1,123.305,192.784)">
                <path d="M0,-0.483L23.422,3.034L-0.263,3.101C-10.683,3.131 -19.521,10.763 -21.068,21.067L-24.585,44.49L-24.653,20.805C-24.682,10.385 -32.314,1.547 -42.619,-0.001L-66.041,-3.518L-42.356,-3.585C-31.936,-3.615 -23.098,-11.247 -21.55,-21.551L-18.033,-44.973L-17.966,-21.289C-17.936,-10.868 -10.305,-2.03 0,-0.483" style="fill:rgb(0,174,234);fill-rule:nonzero;"></path>
            </g>
            <g transform="matrix(1,0,0,1,122.97,193.112)">
                <path d="M0,-0.584L23.337,2.862L-0.253,2.987C-10.631,3.041 -19.415,10.664 -20.931,20.931L-24.377,44.268L-24.502,20.678C-24.556,10.3 -32.179,1.516 -42.446,0L-65.783,-3.446L-42.193,-3.57C-31.815,-3.625 -23.031,-11.248 -21.515,-21.515L-18.069,-44.852L-17.944,-21.262C-17.89,-10.884 -10.267,-2.1 0,-0.584" style="fill:rgb(0,174,234);fill-rule:nonzero;"></path>
            </g>
            <g transform="matrix(1,0,0,1,122.634,193.442)">
                <path d="M0,-0.686L23.251,2.689L-0.243,2.871C-10.579,2.951 -19.309,10.564 -20.794,20.794L-24.169,44.045L-24.351,20.551C-24.431,10.215 -32.044,1.485 -42.274,0L-65.525,-3.375L-42.031,-3.557C-31.694,-3.637 -22.965,-11.251 -21.48,-21.48L-18.105,-44.731L-17.923,-21.237C-17.843,-10.901 -10.229,-2.171 0,-0.686" style="fill:rgb(0,174,234);fill-rule:nonzero;"></path>
            </g>
            <g transform="matrix(1,0,0,1,122.299,193.771)">
                <path d="M0,-0.788L23.165,2.516L-0.233,2.755C-10.527,2.86 -19.203,10.465 -20.657,20.656L-23.96,43.822L-24.2,20.423C-24.305,10.129 -31.909,1.453 -42.101,0L-65.267,-3.304L-41.868,-3.543C-31.574,-3.649 -22.898,-11.253 -21.444,-21.445L-18.141,-44.61L-17.901,-21.211C-17.796,-10.917 -10.192,-2.241 0,-0.788" style="fill:rgb(0,174,234);fill-rule:nonzero;"></path>
            </g>
            <g transform="matrix(1,0,0,1,121.963,194.101)">
                <path d="M0,-0.89L23.08,2.343L-0.223,2.639C-10.476,2.77 -19.097,10.365 -20.52,20.519L-23.752,43.599L-24.049,20.296C-24.179,10.043 -31.775,1.422 -41.929,-0L-65.008,-3.233L-41.705,-3.53C-31.453,-3.66 -22.831,-11.256 -21.409,-21.41L-18.176,-44.489L-17.88,-21.186C-17.749,-10.934 -10.154,-2.312 0,-0.89" style="fill:rgb(0,174,234);fill-rule:nonzero;"></path>
            </g>
            <g transform="matrix(1,0,0,1,121.627,194.429)">
                <path d="M0,-0.991L22.994,2.17L-0.214,2.525C-10.424,2.68 -18.992,10.266 -20.382,20.383L-23.544,43.377L-23.898,20.169C-24.054,9.959 -31.64,1.391 -41.756,0L-64.75,-3.161L-41.542,-3.515C-31.332,-3.671 -22.765,-11.257 -21.374,-21.373L-18.212,-44.368L-17.858,-21.16C-17.702,-10.949 -10.116,-2.382 0,-0.991" style="fill:rgb(0,174,234);fill-rule:nonzero;"></path>
            </g>
            <g transform="matrix(1,0,0,1,121.292,194.759)">
                <path d="M0,-1.093L22.909,1.997L-0.204,2.409C-10.372,2.59 -18.886,10.167 -20.245,20.245L-23.336,43.154L-23.747,20.041C-23.928,9.873 -31.505,1.36 -41.584,-0L-64.492,-3.09L-41.38,-3.502C-31.211,-3.683 -22.698,-11.26 -21.338,-21.338L-18.248,-44.247L-17.837,-21.134C-17.656,-10.966 -10.079,-2.453 0,-1.093" style="fill:rgb(0,174,234);fill-rule:nonzero;"></path>
            </g>
            <g transform="matrix(1,0,0,1,120.956,195.088)">
                <path d="M0,-1.195L22.823,1.824L-0.194,2.293C-10.32,2.499 -18.78,10.067 -20.108,20.108L-23.127,42.931L-23.596,19.914C-23.802,9.788 -31.37,1.328 -41.411,-0L-64.234,-3.019L-41.217,-3.488C-31.091,-3.694 -22.631,-11.262 -21.303,-21.303L-18.284,-44.126L-17.815,-21.109C-17.609,-10.983 -10.041,-2.523 0,-1.195" style="fill:rgb(0,174,234);fill-rule:nonzero;"></path>
            </g>
            <g transform="matrix(1,0,0,1,120.621,195.418)">
                <path d="M0,-1.297L22.737,1.651L-0.184,2.177C-10.269,2.409 -18.674,9.967 -19.971,19.971L-22.919,42.708L-23.445,19.786C-23.677,9.702 -31.235,1.297 -41.239,0L-63.976,-2.948L-41.054,-3.475C-30.97,-3.706 -22.565,-11.265 -21.268,-21.268L-18.32,-44.005L-17.793,-21.084C-17.562,-10.999 -10.003,-2.594 0,-1.297" style="fill:rgb(0,174,234);fill-rule:nonzero;"></path>
            </g>
            <g transform="matrix(1,0,0,1,120.285,195.746)">
                <path d="M0,-1.398L22.652,1.479L-0.174,2.062C-10.217,2.319 -18.568,9.869 -19.834,19.834L-22.711,42.486L-23.294,19.66C-23.551,9.617 -31.1,1.266 -41.066,0L-63.718,-2.876L-40.892,-3.46C-30.849,-3.717 -22.498,-11.266 -21.232,-21.232L-18.355,-43.884L-17.772,-21.057C-17.515,-11.015 -9.966,-2.664 0,-1.398" style="fill:rgb(0,174,234);fill-rule:nonzero;"></path>
            </g>
            <g transform="matrix(1,0,0,1,119.949,196.076)">
                <path d="M0,-1.5L22.566,1.306L-0.165,1.947C-10.165,2.229 -18.462,9.769 -19.697,19.697L-22.502,42.263L-23.143,19.532C-23.425,9.532 -30.966,1.235 -40.894,0L-63.46,-2.805L-40.729,-3.446C-30.728,-3.728 -22.431,-11.269 -21.197,-21.197L-18.391,-43.763L-17.75,-21.032C-17.468,-11.031 -9.928,-2.734 0,-1.5" style="fill:rgb(0,174,234);fill-rule:nonzero;"></path>
            </g>
            <g transform="matrix(1,0,0,1,119.614,196.405)">
                <path d="M0,-1.602L22.481,1.133L-0.155,1.831C-10.113,2.138 -18.356,9.669 -19.56,19.56L-22.294,42.04L-22.992,19.405C-23.3,9.446 -30.831,1.203 -40.721,-0L-63.202,-2.735L-40.566,-3.433C-30.608,-3.74 -22.365,-11.271 -21.162,-21.162L-18.427,-43.642L-17.729,-21.007C-17.421,-11.048 -9.89,-2.805 0,-1.602" style="fill:rgb(0,174,234);fill-rule:nonzero;"></path>
            </g>
            <g transform="matrix(1,0,0,1,119.278,196.735)">
                <path d="M0,-1.704L22.395,0.959L-0.145,1.715C-10.062,2.048 -18.251,9.57 -19.422,19.422L-22.086,41.817L-22.842,19.277C-23.174,9.36 -30.696,1.172 -40.549,-0L-62.944,-2.664L-40.403,-3.419C-30.487,-3.752 -22.298,-11.274 -21.126,-21.126L-18.463,-43.521L-17.707,-20.981C-17.375,-11.065 -9.853,-2.876 0,-1.704" style="fill:rgb(0,174,234);fill-rule:nonzero;"></path>
            </g>
            <g transform="matrix(1,0,0,1,118.943,197.063)">
                <path d="M0,-1.805L22.309,0.787L-0.135,1.6C-10.01,1.958 -18.145,9.471 -19.285,19.286L-21.878,41.595L-22.691,19.151C-23.048,9.276 -30.561,1.141 -40.376,0.001L-62.686,-2.592L-40.241,-3.405C-30.366,-3.762 -22.231,-11.275 -21.091,-21.09L-18.499,-43.4L-17.685,-20.955C-17.328,-11.08 -9.815,-2.945 0,-1.805" style="fill:rgb(0,174,234);fill-rule:nonzero;"></path>
            </g>
            <g transform="matrix(1,0,0,1,118.607,197.392)">
                <path d="M0,-1.907L22.224,0.614L-0.126,1.485C-9.958,1.868 -18.039,9.371 -19.148,19.149L-21.669,41.372L-22.54,19.023C-22.923,9.19 -30.426,1.11 -40.204,0L-62.428,-2.521L-40.078,-3.391C-30.245,-3.774 -22.165,-11.278 -21.056,-21.055L-18.534,-43.279L-17.664,-20.929C-17.281,-11.097 -9.777,-3.016 0,-1.907" style="fill:rgb(0,174,234);fill-rule:nonzero;"></path>
            </g>
            <g transform="matrix(1,0,0,1,118.271,197.722)">
                <path d="M0,-2.009L22.138,0.441L-0.116,1.369C-9.907,1.777 -17.933,9.271 -19.011,19.011L-21.461,41.149L-22.389,18.895C-22.797,9.105 -30.291,1.078 -40.031,-0L-62.169,-2.45L-39.915,-3.378C-30.125,-3.786 -22.098,-11.28 -21.02,-21.02L-18.57,-43.158L-17.642,-20.904C-17.234,-11.113 -9.74,-3.087 0,-2.009" style="fill:rgb(0,174,234);fill-rule:nonzero;"></path>
            </g>
            <g transform="matrix(1,0,0,1,117.936,198.051)">
                <path d="M0,-2.111L22.053,0.268L-0.106,1.253C-9.855,1.687 -17.827,9.172 -18.874,18.874L-21.253,40.927L-22.238,18.768C-22.671,9.019 -30.157,1.047 -39.859,-0L-61.911,-2.379L-39.753,-3.364C-30.004,-3.798 -22.031,-11.283 -20.985,-20.985L-18.606,-43.038L-17.621,-20.879C-17.187,-11.13 -9.702,-3.158 0,-2.111" style="fill:rgb(0,174,234);fill-rule:nonzero;"></path>
            </g>
            <g transform="matrix(1,0,0,1,117.6,198.381)">
                <path d="M0,-2.213L21.967,0.095L-0.096,1.137C-9.803,1.596 -17.721,9.072 -18.737,18.736L-21.044,40.704L-22.087,18.64C-22.546,8.933 -30.022,1.015 -39.686,0L-61.653,-2.308L-39.59,-3.351C-29.883,-3.809 -21.965,-11.285 -20.949,-20.95L-18.642,-42.917L-17.599,-20.853C-17.14,-11.147 -9.664,-3.228 0,-2.213" style="fill:rgb(0,174,234);fill-rule:nonzero;"></path>
            </g>
            <g transform="matrix(1,0,0,1,117.265,198.71)">
                <path d="M0,-2.315L21.882,-0.078L-0.086,1.022C-9.751,1.505 -17.616,8.972 -18.6,18.599L-20.836,40.481L-21.936,18.513C-22.42,8.848 -29.887,0.984 -39.514,-0L-61.395,-2.237L-39.427,-3.337C-29.762,-3.821 -21.898,-11.288 -20.914,-20.915L-18.678,-42.796L-17.578,-20.828C-17.094,-11.163 -9.627,-3.299 0,-2.315" style="fill:rgb(0,174,234);fill-rule:nonzero;"></path>
            </g>
            <g transform="matrix(1,0,0,1,116.929,199.04)">
                <path d="M0,-2.417L21.796,-0.252L-0.077,0.906C-9.7,1.415 -17.51,8.873 -18.462,18.462L-20.628,40.258L-21.785,18.385C-22.294,8.762 -29.752,0.952 -39.341,-0.001L-61.137,-2.166L-39.264,-3.323C-29.642,-3.833 -21.831,-11.29 -20.879,-20.879L-18.713,-42.675L-17.556,-20.803C-17.047,-11.18 -9.589,-3.37 0,-2.417" style="fill:rgb(0,174,234);fill-rule:nonzero;"></path>
            </g>
            <g transform="matrix(1,0,0,1,116.593,199.368)">
                <path d="M0,-2.518L21.71,-0.424L-0.067,0.791C-9.648,1.325 -17.404,8.774 -18.325,18.325L-20.42,40.036L-21.634,18.258C-22.169,8.678 -29.617,0.922 -39.169,0L-60.879,-2.094L-39.102,-3.309C-29.521,-3.843 -21.765,-11.292 -20.843,-20.843L-18.749,-42.554L-17.534,-20.776C-17,-11.195 -9.551,-3.439 0,-2.518" style="fill:rgb(0,174,234);fill-rule:nonzero;"></path>
            </g>
            <g transform="matrix(1,0,0,1,116.258,199.698)">
                <path d="M0,-2.62L21.625,-0.597L-0.057,0.675C-9.596,1.235 -17.298,8.674 -18.188,18.188L-20.211,39.813L-21.483,18.131C-22.043,8.592 -29.482,0.89 -38.996,-0L-60.621,-2.023L-38.939,-3.295C-29.4,-3.855 -21.698,-11.294 -20.808,-20.808L-18.785,-42.433L-17.513,-20.751C-16.953,-11.212 -9.514,-3.51 0,-2.62" style="fill:rgb(0,174,234);fill-rule:nonzero;"></path>
            </g>
            <g transform="matrix(1,0,0,1,115.922,200.027)">
                <path d="M0,-2.722L21.539,-0.77L-0.047,0.559C-9.544,1.144 -17.192,8.575 -18.051,18.051L-20.003,39.59L-21.332,18.003C-21.917,8.506 -29.348,0.859 -38.824,0L-60.363,-1.952L-38.776,-3.282C-29.279,-3.867 -21.631,-11.297 -20.773,-20.773L-18.821,-42.312L-17.491,-20.726C-16.906,-11.229 -9.476,-3.581 0,-2.722" style="fill:rgb(0,174,234);fill-rule:nonzero;"></path>
            </g>
            <g transform="matrix(1,0,0,1,115.587,200.357)">
                <path d="M0,-2.824L21.454,-0.943L-0.038,0.444C-9.493,1.054 -17.086,8.475 -17.914,17.913L-19.795,39.367L-21.182,17.876C-21.792,8.421 -29.213,0.827 -38.651,-0L-60.105,-1.881L-38.614,-3.268C-29.159,-3.878 -21.565,-11.299 -20.737,-20.738L-18.857,-42.191L-17.47,-20.7C-16.859,-11.245 -9.438,-3.651 0,-2.824" style="fill:rgb(0,174,234);fill-rule:nonzero;"></path>
            </g>
            <g transform="matrix(1,0,0,1,115.251,200.685)">
                <path d="M0,-2.925L21.368,-1.115L-0.028,0.329C-9.441,0.964 -16.98,8.376 -17.777,17.777L-19.586,39.145L-21.031,17.749C-21.666,8.336 -29.078,0.797 -38.479,0L-59.847,-1.809L-38.451,-3.254C-29.038,-3.889 -21.498,-11.301 -20.702,-20.702L-18.892,-42.07L-17.448,-20.674C-16.813,-11.261 -9.401,-3.721 0,-2.925" style="fill:rgb(0,174,234);fill-rule:nonzero;"></path>
            </g>
            <g transform="matrix(1,0,0,1,114.915,201.015)">
                <path d="M0,-3.027L21.282,-1.288L-0.018,0.213C-9.389,0.874 -16.875,8.276 -17.64,17.64L-19.378,38.922L-20.88,17.622C-21.54,8.251 -28.943,0.765 -38.306,0L-59.589,-1.738L-38.288,-3.24C-28.917,-3.901 -21.432,-11.303 -20.667,-20.666L-18.928,-41.949L-17.426,-20.648C-16.766,-11.277 -9.363,-3.792 0,-3.027" style="fill:rgb(0,174,234);fill-rule:nonzero;"></path>
            </g>
            <g transform="matrix(1,0,0,1,114.58,201.344)">
                <path d="M0,-3.129L21.197,-1.462L-0.008,0.097C-9.337,0.783 -16.769,8.177 -17.502,17.502L-19.17,38.699L-20.729,17.494C-21.415,8.165 -28.808,0.734 -38.134,0L-59.33,-1.667L-38.125,-3.226C-28.796,-3.912 -21.365,-11.306 -20.631,-20.631L-18.964,-41.828L-17.405,-20.623C-16.719,-11.294 -9.326,-3.863 0,-3.129" style="fill:rgb(0,174,234);fill-rule:nonzero;"></path>
            </g>
            <g transform="matrix(1,0,0,1,114.244,201.674)">
                <path d="M0,-3.231L21.111,-1.635L0.002,-0.018C-9.286,0.693 -16.663,8.077 -17.365,17.365L-18.961,38.476L-20.578,17.366C-21.289,8.079 -28.673,0.702 -37.961,-0L-59.072,-1.597L-37.963,-3.213C-28.676,-3.924 -21.298,-11.308 -20.596,-20.596L-19,-41.707L-17.383,-20.598C-16.672,-11.311 -9.288,-3.933 0,-3.231" style="fill:rgb(0,174,234);fill-rule:nonzero;"></path>
            </g>
            <g transform="matrix(1,0,0,1,113.909,202.002)">
                <path d="M0,-3.332L21.026,-1.807L0.011,-0.133C-9.234,0.603 -16.557,7.978 -17.228,17.229L-18.753,38.254L-20.427,17.24C-21.163,7.995 -28.538,0.672 -37.789,0.001L-58.814,-1.525L-37.8,-3.198C-28.555,-3.935 -21.232,-11.31 -20.561,-20.56L-19.036,-41.586L-17.362,-20.571C-16.625,-11.326 -9.25,-4.003 0,-3.332" style="fill:rgb(0,174,234);fill-rule:nonzero;"></path>
            </g>
            <g transform="matrix(1,0,0,1,113.573,202.332)">
                <path d="M0,-3.434L20.94,-1.98L0.021,-0.249C-9.182,0.513 -16.451,7.879 -17.091,17.091L-18.545,38.031L-20.276,17.112C-21.038,7.909 -28.404,0.64 -37.616,0L-58.556,-1.454L-37.637,-3.185C-28.434,-3.946 -21.165,-11.312 -20.525,-20.525L-19.071,-41.465L-17.34,-20.546C-16.579,-11.343 -9.213,-4.074 0,-3.434" style="fill:rgb(0,174,234);fill-rule:nonzero;"></path>
            </g>
            <g transform="matrix(1,0,0,1,113.237,202.661)">
                <path d="M0,-3.536L20.854,-2.153L0.031,-0.365C-9.13,0.422 -16.345,7.779 -16.954,16.954L-18.337,37.808L-20.125,16.985C-20.912,7.823 -28.269,0.608 -37.444,-0L-58.298,-1.383L-37.475,-3.171C-28.313,-3.958 -21.098,-11.315 -20.49,-20.49L-19.107,-41.344L-17.319,-20.521C-16.532,-11.359 -9.175,-4.144 0,-3.536" style="fill:rgb(0,174,234);fill-rule:nonzero;"></path>
            </g>
            <g transform="matrix(1,0,0,1,112.902,202.99)">
                <path d="M0,-3.638L20.769,-2.326L0.041,-0.48C-9.079,0.332 -16.24,7.679 -16.817,16.817L-18.128,37.585L-19.974,16.857C-20.786,7.738 -28.134,0.577 -37.271,-0L-58.04,-1.312L-37.312,-3.158C-28.192,-3.97 -21.032,-11.317 -20.455,-20.455L-19.143,-41.223L-17.297,-20.495C-16.485,-11.376 -9.137,-4.215 0,-3.638" style="fill:rgb(0,174,234);fill-rule:nonzero;"></path>
            </g>
            <g transform="matrix(1,0,0,1,112.566,203.319)">
                <path d="M0,-3.739L20.683,-2.498L0.05,-0.595C-9.027,0.242 -16.134,7.581 -16.68,16.68L-17.92,37.363L-19.823,16.731C-20.661,7.653 -27.999,0.546 -37.099,0.001L-57.782,-1.24L-37.149,-3.143C-28.072,-3.98 -20.965,-11.319 -20.419,-20.419L-19.179,-41.102L-17.275,-20.469C-16.438,-11.392 -9.1,-4.285 0,-3.739" style="fill:rgb(0,174,234);fill-rule:nonzero;"></path>
            </g>
            <g transform="matrix(1,0,0,1,112.23,203.648)">
                <path d="M0,-3.841L20.598,-2.672L0.06,-0.711C-8.975,0.152 -16.028,7.481 -16.542,16.543L-17.712,37.14L-19.672,16.603C-20.535,7.568 -27.864,0.515 -36.926,0L-57.524,-1.169L-36.986,-3.13C-27.951,-3.992 -20.898,-11.321 -20.384,-20.383L-19.214,-40.981L-17.254,-20.444C-16.391,-11.408 -9.062,-4.355 0,-3.841" style="fill:rgb(0,174,234);fill-rule:nonzero;"></path>
            </g>
        </g>
        <g transform="matrix(1,0,0,1,129.346,186.857)">
            <path d="M0,1.35L24.963,6.148L-0.439,5.182C-11.614,4.758 -21.426,12.554 -23.537,23.537L-28.335,48.5L-27.369,23.098C-26.944,11.923 -34.741,2.111 -45.724,0L-70.686,-4.798L-45.285,-3.832C-34.11,-3.407 -24.298,-11.204 -22.187,-22.187L-17.389,-47.15L-18.355,-21.748C-18.779,-10.573 -10.982,-0.761 0,1.35" style="fill:rgb(8,4,146);fill-rule:nonzero;"></path>
        </g>
        <g transform="matrix(1,0,0,1,431.674,314.173)">
            <path d="M0,0.737L13.619,3.355L-0.239,2.828C-6.336,2.596 -11.69,6.85 -12.841,12.842L-15.459,26.461L-14.932,12.603C-14.7,6.505 -18.954,1.152 -24.946,0.001L-38.565,-2.617L-24.707,-2.09C-18.61,-1.859 -13.256,-6.112 -12.105,-12.104L-9.487,-25.724L-10.014,-11.865C-10.246,-5.768 -5.992,-0.415 0,0.737" style="fill:rgb(8,4,146);fill-rule:nonzero;"></path>
        </g>
    </g>
</svg>