<?xml version="1.0"?>

<svg width="100%" height="100%" viewBox="0 0 2084 2084" version="1.1" xmlns="http://www.w3.org/2000/svg" xmlns:xlink="http://www.w3.org/1999/xlink" xml:space="preserve" xmlns:serif="http://www.serif.com/" style="fill-rule:evenodd;clip-rule:evenodd;stroke-linejoin:round;stroke-miterlimit:2;">
    <g transform="matrix(4.16667,0,0,4.16667,1684.17,1619.8)">
        <path d="M0,-64.686C0,-64.686 -47.196,-30.638 -148.261,-35.618C-203.072,-38.319 -231.721,-59.172 -238.716,-65.004C-239.88,-65.975 -241.453,-66.515 -243.11,-66.515L-309.312,-66.515C-315.301,-66.515 -317.782,-60.226 -312.945,-57.321C-281.069,-38.181 -196.304,1.829 -81.049,-27.334L-117.735,-14.318C-117.735,-14.318 -30.641,-32.569 0,-64.686" style="fill:rgb(8,4,146);fill-rule:nonzero;"></path>
    </g>
    <g transform="matrix(4.16667,0,0,4.16667,525.253,461.165)">
        <path d="M0,64.587C0,64.587 46.7,30.99 146.703,35.904C202.724,38.657 231.125,60.522 236.821,65.42C237.558,66.054 238.481,66.392 239.448,66.392L309.898,66.392C314.008,66.392 315.548,60.932 312.04,58.769C282.516,40.563 197.247,-1.805 80.197,27.731L116.497,14.887C116.497,14.887 30.319,32.896 0,64.587" style="fill:rgb(8,4,146);fill-rule:nonzero;"></path>
    </g>
</svg>