<?xml version="1.0"?>

<svg width="100%" height="100%" viewBox="0 0 2084 2084" version="1.1" xmlns="http://www.w3.org/2000/svg" xmlns:xlink="http://www.w3.org/1999/xlink" xml:space="preserve" xmlns:serif="http://www.serif.com/" style="fill-rule:evenodd;clip-rule:evenodd;stroke-miterlimit:10;">
    <g id="Calque3">
            <g transform="matrix(0,-4.16667,-4.16667,0,974.638,648.519)">
                <path d="M-8.76,-8.76C-13.598,-8.76 -17.519,-4.838 -17.519,-0.001C-17.519,4.837 -13.598,8.76 -8.76,8.76C-3.922,8.76 -0.001,4.837 -0.001,-0.001C-0.001,-4.838 -3.922,-8.76 -8.76,-8.76" style="fill:rgb(8,4,146);fill-rule:nonzero;"></path>
            </g>
            <g transform="matrix(0,-4.16667,-4.16667,0,975.269,649.51)">
                <path d="M-8.716,-8.716C-13.529,-8.716 -17.432,-4.814 -17.432,0C-17.432,4.813 -13.529,8.716 -8.716,8.716C-3.903,8.716 0,4.813 0,0C0,-4.814 -3.903,-8.716 -8.716,-8.716" style="fill:rgb(8,4,146);fill-rule:nonzero;"></path>
            </g>
            <g transform="matrix(0,-4.16667,-4.16667,0,975.9,650.502)">
                <path d="M-8.672,-8.672C-13.461,-8.672 -17.344,-4.79 -17.344,0.001C-17.344,4.79 -13.461,8.672 -8.672,8.672C-3.882,8.672 0.001,4.79 0.001,0.001C0.001,-4.79 -3.882,-8.672 -8.672,-8.672" style="fill:rgb(8,4,146);fill-rule:nonzero;"></path>
            </g>
            <g transform="matrix(0,-4.16667,-4.16667,0,976.528,651.491)">
                <path d="M-8.628,-8.628C-13.393,-8.628 -17.256,-4.765 -17.256,-0C-17.256,4.765 -13.393,8.628 -8.628,8.628C-3.863,8.628 -0,4.765 -0,-0C-0,-4.765 -3.863,-8.628 -8.628,-8.628" style="fill:rgb(8,4,146);fill-rule:nonzero;"></path>
            </g>
            <g transform="matrix(0,-4.16667,-4.16667,0,977.159,652.483)">
                <path d="M-8.584,-8.584C-13.325,-8.584 -17.168,-4.741 -17.168,0C-17.168,4.741 -13.325,8.584 -8.584,8.584C-3.843,8.584 0,4.741 0,0C0,-4.741 -3.843,-8.584 -8.584,-8.584" style="fill:rgb(8,4,146);fill-rule:nonzero;"></path>
            </g>
            <g transform="matrix(0,-4.16667,-4.16667,0,977.789,653.474)">
                <path d="M-8.54,-8.54C-13.257,-8.54 -17.08,-4.716 -17.08,0C-17.08,4.717 -13.257,8.54 -8.54,8.54C-3.823,8.54 0,4.717 0,0C0,-4.716 -3.823,-8.54 -8.54,-8.54" style="fill:rgb(8,4,146);fill-rule:nonzero;"></path>
            </g>
            <g transform="matrix(0,-4.16667,-4.16667,0,978.418,654.464)">
                <path d="M-8.497,-8.497C-13.188,-8.497 -16.993,-4.692 -16.993,-0C-16.993,4.693 -13.188,8.497 -8.497,8.497C-3.805,8.497 -0,4.693 -0,-0C-0,-4.692 -3.805,-8.497 -8.497,-8.497" style="fill:rgb(8,4,146);fill-rule:nonzero;"></path>
            </g>
            <g transform="matrix(0,-4.16667,-4.16667,0,979.048,655.455)">
                <path d="M-8.452,-8.452C-13.12,-8.452 -16.906,-4.668 -16.906,0.001C-16.906,4.669 -13.12,8.452 -8.452,8.452C-3.784,8.452 0.001,4.669 0.001,0.001C0.001,-4.668 -3.784,-8.452 -8.452,-8.452" style="fill:rgb(8,4,146);fill-rule:nonzero;"></path>
            </g>
            <g transform="matrix(0,-4.16667,-4.16667,0,979.679,656.447)">
                <path d="M-8.409,-8.409C-13.053,-8.409 -16.818,-4.644 -16.818,0C-16.818,4.644 -13.053,8.409 -8.409,8.409C-3.765,8.409 0,4.644 0,0C0,-4.644 -3.765,-8.409 -8.409,-8.409" style="fill:rgb(8,4,146);fill-rule:nonzero;"></path>
            </g>
            <g transform="matrix(0,-4.16667,-4.16667,0,980.307,657.436)">
                <path d="M-8.365,-8.365C-12.985,-8.365 -16.73,-4.62 -16.73,0C-16.73,4.62 -12.985,8.365 -8.365,8.365C-3.745,8.365 0,4.62 0,0C0,-4.62 -3.745,-8.365 -8.365,-8.365" style="fill:rgb(8,4,146);fill-rule:nonzero;"></path>
            </g>
            <g transform="matrix(0,-4.16667,-4.16667,0,980.938,658.428)">
                <path d="M-8.321,-8.321C-12.917,-8.321 -16.642,-4.596 -16.642,0C-16.642,4.596 -12.917,8.321 -8.321,8.321C-3.725,8.321 0,4.596 0,0C0,-4.596 -3.725,-8.321 -8.321,-8.321" style="fill:rgb(8,4,146);fill-rule:nonzero;"></path>
            </g>
            <g transform="matrix(0,-4.16667,-4.16667,0,981.568,659.419)">
                <path d="M-8.277,-8.277C-12.848,-8.277 -16.554,-4.571 -16.554,-0C-16.554,4.572 -12.848,8.277 -8.277,8.277C-3.706,8.277 -0,4.572 -0,-0C-0,-4.571 -3.706,-8.277 -8.277,-8.277" style="fill:rgb(8,4,146);fill-rule:nonzero;"></path>
            </g>
            <g transform="matrix(0,-4.16667,-4.16667,0,982.197,660.409)">
                <path d="M-8.234,-8.234C-12.781,-8.234 -16.466,-4.547 -16.466,-0.001C-16.466,4.547 -12.781,8.234 -8.234,8.234C-3.686,8.234 -0.001,4.547 -0.001,-0.001C-0.001,-4.547 -3.686,-8.234 -8.234,-8.234" style="fill:rgb(8,4,146);fill-rule:nonzero;"></path>
            </g>
            <g transform="matrix(0,-4.16667,-4.16667,0,982.825,661.402)">
                <path d="M-8.189,-8.19C-12.712,-8.19 -16.379,-4.523 -16.379,-0.001C-16.379,4.522 -12.712,8.189 -8.189,8.189C-3.666,8.189 0,4.522 0,-0.001C0,-4.523 -3.666,-8.19 -8.189,-8.19" style="fill:rgb(8,4,146);fill-rule:nonzero;"></path>
            </g>
            <g transform="matrix(0,-4.16667,-4.16667,0,983.458,662.392)">
                <path d="M-8.146,-8.146C-12.645,-8.146 -16.291,-4.499 -16.291,0C-16.291,4.498 -12.645,8.146 -8.146,8.146C-3.646,8.146 0,4.498 0,0C0,-4.499 -3.646,-8.146 -8.146,-8.146" style="fill:rgb(8,4,146);fill-rule:nonzero;"></path>
            </g>
            <g transform="matrix(0,-4.16667,-4.16667,0,984.086,663.381)">
                <path d="M-8.102,-8.102C-12.577,-8.102 -16.204,-4.475 -16.204,0C-16.204,4.474 -12.577,8.102 -8.102,8.102C-3.627,8.102 0,4.474 0,0C0,-4.475 -3.627,-8.102 -8.102,-8.102" style="fill:rgb(8,4,146);fill-rule:nonzero;"></path>
            </g>
            <g transform="matrix(0,-4.16667,-4.16667,0,984.717,664.373)">
                <path d="M-8.058,-8.058C-12.508,-8.058 -16.116,-4.45 -16.116,-0C-16.116,4.45 -12.508,8.058 -8.058,8.058C-3.608,8.058 -0,4.45 -0,-0C-0,-4.45 -3.608,-8.058 -8.058,-8.058" style="fill:rgb(8,4,146);fill-rule:nonzero;"></path>
            </g>
            <g transform="matrix(0,-4.16667,-4.16667,0,985.347,665.364)">
                <path d="M-8.014,-8.014C-12.44,-8.014 -16.028,-4.426 -16.028,0C-16.028,4.426 -12.44,8.014 -8.014,8.014C-3.588,8.014 0,4.426 0,0C0,-4.426 -3.588,-8.014 -8.014,-8.014" style="fill:rgb(8,4,146);fill-rule:nonzero;"></path>
            </g>
            <g transform="matrix(0,-4.16667,-4.16667,0,985.976,666.354)">
                <path d="M-7.97,-7.97C-12.372,-7.97 -15.941,-4.403 -15.941,-0C-15.941,4.402 -12.372,7.97 -7.97,7.97C-3.568,7.97 -0,4.402 -0,-0C-0,-4.403 -3.568,-7.97 -7.97,-7.97" style="fill:rgb(8,4,146);fill-rule:nonzero;"></path>
            </g>
            <g transform="matrix(0,-4.16667,-4.16667,0,986.606,667.345)">
                <path d="M-7.927,-7.927C-12.305,-7.927 -15.853,-4.378 -15.853,-0.001C-15.853,4.377 -12.305,7.927 -7.927,7.927C-3.549,7.927 -0.001,4.377 -0.001,-0.001C-0.001,-4.378 -3.549,-7.927 -7.927,-7.927" style="fill:rgb(8,4,146);fill-rule:nonzero;"></path>
            </g>
            <g transform="matrix(0,-4.16667,-4.16667,0,987.237,668.337)">
                <path d="M-7.883,-7.883C-12.236,-7.883 -15.765,-4.354 -15.765,0C-15.765,4.353 -12.236,7.883 -7.883,7.883C-3.53,7.883 0,4.353 0,0C0,-4.354 -3.53,-7.883 -7.883,-7.883" style="fill:rgb(8,4,146);fill-rule:nonzero;"></path>
            </g>
            <g transform="matrix(0,-4.16667,-4.16667,0,987.865,669.326)">
                <path d="M-7.839,-7.839C-12.168,-7.839 -15.678,-4.329 -15.678,0C-15.678,4.329 -12.168,7.839 -7.839,7.839C-3.51,7.839 0,4.329 0,0C0,-4.329 -3.51,-7.839 -7.839,-7.839" style="fill:rgb(8,4,146);fill-rule:nonzero;"></path>
            </g>
            <g transform="matrix(0,-4.16667,-4.16667,0,988.496,670.318)">
                <path d="M-7.795,-7.795C-12.1,-7.795 -15.59,-4.305 -15.59,0C-15.59,4.305 -12.1,7.795 -7.795,7.795C-3.49,7.795 0,4.305 0,0C0,-4.305 -3.49,-7.795 -7.795,-7.795" style="fill:rgb(8,4,146);fill-rule:nonzero;"></path>
            </g>
            <g transform="matrix(0,-4.16667,-4.16667,0,989.126,671.309)">
                <path d="M-7.751,-7.751C-12.032,-7.751 -15.502,-4.281 -15.502,0C-15.502,4.281 -12.032,7.751 -7.751,7.751C-3.47,7.751 0,4.281 0,0C0,-4.281 -3.47,-7.751 -7.751,-7.751" style="fill:rgb(8,4,146);fill-rule:nonzero;"></path>
            </g>
            <g transform="matrix(0,-4.16667,-4.16667,0,989.755,672.299)">
                <path d="M-7.708,-7.708C-11.965,-7.708 -15.415,-4.257 -15.415,-0.001C-15.415,4.257 -11.965,7.708 -7.708,7.708C-3.451,7.708 -0.001,4.257 -0.001,-0.001C-0.001,-4.257 -3.451,-7.708 -7.708,-7.708" style="fill:rgb(8,4,146);fill-rule:nonzero;"></path>
            </g>
            <g transform="matrix(0,-4.16667,-4.16667,0,990.385,673.29)">
                <path d="M-7.664,-7.664C-11.896,-7.664 -15.326,-4.233 -15.326,-0.001C-15.326,4.233 -11.896,7.664 -7.664,7.664C-3.431,7.664 -0.001,4.233 -0.001,-0.001C-0.001,-4.233 -3.431,-7.664 -7.664,-7.664" style="fill:rgb(8,4,146);fill-rule:nonzero;"></path>
            </g>
            <g transform="matrix(0,-4.16667,-4.16667,0,991.016,674.282)">
                <path d="M-7.619,-7.619C-11.828,-7.619 -15.24,-4.209 -15.24,0C-15.24,4.209 -11.828,7.619 -7.619,7.619C-3.411,7.619 0,4.209 0,0C0,-4.209 -3.411,-7.619 -7.619,-7.619" style="fill:rgb(8,4,146);fill-rule:nonzero;"></path>
            </g>
            <g transform="matrix(0,-4.16667,-4.16667,0,991.644,675.271)">
                <path d="M-7.576,-7.576C-11.76,-7.576 -15.152,-4.184 -15.152,0C-15.152,4.184 -11.76,7.576 -7.576,7.576C-3.392,7.576 0,4.184 0,0C0,-4.184 -3.392,-7.576 -7.576,-7.576" style="fill:rgb(8,4,146);fill-rule:nonzero;"></path>
            </g>
            <g transform="matrix(0,-4.16667,-4.16667,0,992.275,676.263)">
                <path d="M-7.532,-7.532C-11.692,-7.532 -15.064,-4.16 -15.064,0C-15.064,4.16 -11.692,7.532 -7.532,7.532C-3.372,7.532 0,4.16 0,0C0,-4.16 -3.372,-7.532 -7.532,-7.532" style="fill:rgb(8,4,146);fill-rule:nonzero;"></path>
            </g>
            <g transform="matrix(0,-4.16667,-4.16667,0,992.905,677.254)">
                <path d="M-7.488,-7.488C-11.624,-7.488 -14.976,-4.135 -14.976,0C-14.976,4.136 -11.624,7.488 -7.488,7.488C-3.352,7.488 0,4.136 0,0C0,-4.135 -3.352,-7.488 -7.488,-7.488" style="fill:rgb(8,4,146);fill-rule:nonzero;"></path>
            </g>
            <g transform="matrix(0,-4.16667,-4.16667,0,993.536,678.246)">
                <path d="M-7.444,-7.444C-11.555,-7.444 -14.888,-4.111 -14.888,0C-14.888,4.112 -11.555,7.444 -7.444,7.444C-3.333,7.444 0,4.112 0,0C0,-4.111 -3.333,-7.444 -7.444,-7.444" style="fill:rgb(8,4,146);fill-rule:nonzero;"></path>
            </g>
            <g transform="matrix(0,-4.16667,-4.16667,0,994.165,679.235)">
                <path d="M-7.401,-7.401C-11.488,-7.401 -14.801,-4.088 -14.801,-0C-14.801,4.087 -11.488,7.401 -7.401,7.401C-3.314,7.401 -0,4.087 -0,-0C-0,-4.088 -3.314,-7.401 -7.401,-7.401" style="fill:rgb(8,4,146);fill-rule:nonzero;"></path>
            </g>
            <g transform="matrix(0,-4.16667,-4.16667,0,994.795,680.227)">
                <path d="M-7.356,-7.356C-11.419,-7.356 -14.714,-4.063 -14.714,0C-14.714,4.063 -11.419,7.356 -7.356,7.356C-3.294,7.356 0,4.063 0,0C0,-4.063 -3.294,-7.356 -7.356,-7.356" style="fill:rgb(8,4,146);fill-rule:nonzero;"></path>
            </g>
            <g transform="matrix(0,-4.16667,-4.16667,0,995.425,681.218)">
                <path d="M-7.313,-7.313C-11.352,-7.313 -14.625,-4.039 -14.625,0C-14.625,4.039 -11.352,7.313 -7.313,7.313C-3.273,7.313 0,4.039 0,0C0,-4.039 -3.273,-7.313 -7.313,-7.313" style="fill:rgb(8,4,146);fill-rule:nonzero;"></path>
            </g>
            <g transform="matrix(0,-4.16667,-4.16667,0,996.054,682.208)">
                <path d="M-7.269,-7.269C-11.283,-7.269 -14.538,-4.015 -14.538,0C-14.538,4.014 -11.283,7.269 -7.269,7.269C-3.254,7.269 0,4.014 0,0C0,-4.015 -3.255,-7.269 -7.269,-7.269" style="fill:rgb(8,4,146);fill-rule:nonzero;"></path>
            </g>
            <g transform="matrix(0,-4.16667,-4.16667,0,996.685,683.199)">
                <path d="M-7.225,-7.225C-11.215,-7.225 -14.45,-3.99 -14.45,-0C-14.45,3.99 -11.215,7.225 -7.225,7.225C-3.235,7.225 -0,3.99 -0,-0C-0,-3.99 -3.235,-7.225 -7.225,-7.225" style="fill:rgb(8,4,146);fill-rule:nonzero;"></path>
            </g>
            <g transform="matrix(0,-4.16667,-4.16667,0,997.315,684.191)">
                <path d="M-7.181,-7.181C-11.147,-7.181 -14.362,-3.966 -14.362,-0C-14.362,3.966 -11.147,7.181 -7.181,7.181C-3.215,7.181 -0,3.966 -0,-0C-0,-3.966 -3.215,-7.181 -7.181,-7.181" style="fill:rgb(8,4,146);fill-rule:nonzero;"></path>
            </g>
            <g transform="matrix(0,-4.16667,-4.16667,0,997.943,685.18)">
                <path d="M-7.138,-7.138C-11.08,-7.138 -14.275,-3.942 -14.275,-0.001C-14.275,3.942 -11.08,7.138 -7.138,7.138C-3.196,7.138 -0.001,3.942 -0.001,-0.001C-0.001,-3.943 -3.196,-7.138 -7.138,-7.138" style="fill:rgb(8,4,146);fill-rule:nonzero;"></path>
            </g>
            <g transform="matrix(0,-4.16667,-4.16667,0,998.574,686.172)">
                <path d="M-7.094,-7.094C-11.012,-7.094 -14.188,-3.918 -14.188,0C-14.188,3.917 -11.012,7.094 -7.094,7.094C-3.176,7.094 0,3.917 0,0C0,-3.918 -3.176,-7.094 -7.094,-7.094" style="fill:rgb(8,4,146);fill-rule:nonzero;"></path>
            </g>
            <g transform="matrix(0,-4.16667,-4.16667,0,999.205,687.163)">
                <path d="M-7.05,-7.05C-10.942,-7.05 -14.099,-3.894 -14.099,0C-14.099,3.893 -10.942,7.05 -7.05,7.05C-3.157,7.05 0,3.893 0,0C0,-3.894 -3.157,-7.05 -7.05,-7.05" style="fill:rgb(8,4,146);fill-rule:nonzero;"></path>
            </g>
            <g transform="matrix(0,-4.16667,-4.16667,0,999.833,688.153)">
                <path d="M-7.006,-7.006C-10.875,-7.006 -14.012,-3.869 -14.012,0C-14.012,3.869 -10.875,7.006 -7.006,7.006C-3.137,7.006 0,3.869 0,0C0,-3.869 -3.137,-7.006 -7.006,-7.006" style="fill:rgb(8,4,146);fill-rule:nonzero;"></path>
            </g>
            <g transform="matrix(0,-4.16667,-4.16667,0,1000.46,689.144)">
                <path d="M-6.962,-6.962C-10.807,-6.962 -13.924,-3.845 -13.924,0C-13.924,3.845 -10.807,6.962 -6.962,6.962C-3.117,6.962 0,3.845 0,0C0,-3.845 -3.117,-6.962 -6.962,-6.962" style="fill:rgb(8,4,146);fill-rule:nonzero;"></path>
            </g>
            <g transform="matrix(0,-4.16667,-4.16667,0,1001.09,690.136)">
                <path d="M-6.918,-6.918C-10.739,-6.918 -13.836,-3.821 -13.836,0C-13.836,3.821 -10.739,6.918 -6.918,6.918C-3.097,6.918 0,3.821 0,0C0,-3.821 -3.097,-6.918 -6.918,-6.918" style="fill:rgb(8,4,146);fill-rule:nonzero;"></path>
            </g>
            <g transform="matrix(0,-4.16667,-4.16667,0,1001.72,691.125)">
                <path d="M-6.874,-6.874C-10.672,-6.874 -13.749,-3.796 -13.749,-0C-13.749,3.797 -10.672,6.874 -6.874,6.874C-3.077,6.874 -0,3.797 -0,-0C-0,-3.796 -3.077,-6.874 -6.874,-6.874" style="fill:rgb(8,4,146);fill-rule:nonzero;"></path>
            </g>
            <g transform="matrix(0,-4.16667,-4.16667,0,1002.36,692.115)">
                <path d="M-6.831,-6.83C-10.603,-6.83 -13.661,-3.772 -13.661,0.001C-13.661,3.773 -10.603,6.831 -6.831,6.831C-3.059,6.831 0,3.773 0,0C0,-3.772 -3.059,-6.83 -6.831,-6.83" style="fill:rgb(8,4,146);fill-rule:nonzero;"></path>
            </g>
            <g transform="matrix(0,-4.16667,-4.16667,0,1002.98,693.108)">
                <path d="M-6.787,-6.787C-10.535,-6.787 -13.573,-3.749 -13.573,0C-13.573,3.749 -10.535,6.787 -6.787,6.787C-3.039,6.787 0,3.749 0,0C0,-3.749 -3.039,-6.787 -6.787,-6.787" style="fill:rgb(8,4,146);fill-rule:nonzero;"></path>
            </g>
            <g transform="matrix(0,-4.16667,-4.16667,0,1003.61,694.098)">
                <path d="M-6.743,-6.743C-10.467,-6.743 -13.486,-3.724 -13.486,0C-13.486,3.724 -10.467,6.743 -6.743,6.743C-3.019,6.743 0,3.724 0,0C0,-3.724 -3.019,-6.743 -6.743,-6.743" style="fill:rgb(8,4,146);fill-rule:nonzero;"></path>
            </g>
            <g transform="matrix(0,-4.16667,-4.16667,0,1004.24,695.089)">
                <path d="M-6.699,-6.699C-10.399,-6.699 -13.398,-3.7 -13.398,0C-13.398,3.7 -10.399,6.699 -6.699,6.699C-2.999,6.699 0,3.7 0,0C0,-3.7 -2.999,-6.699 -6.699,-6.699" style="fill:rgb(8,4,146);fill-rule:nonzero;"></path>
            </g>
            <g transform="matrix(0,-4.16667,-4.16667,0,1004.87,696.081)">
                <path d="M-6.655,-6.655C-10.331,-6.655 -13.31,-3.675 -13.31,-0C-13.31,3.676 -10.331,6.655 -6.655,6.655C-2.979,6.655 -0,3.676 -0,-0C-0,-3.675 -2.979,-6.655 -6.655,-6.655" style="fill:rgb(8,4,146);fill-rule:nonzero;"></path>
            </g>
            <g transform="matrix(0,-4.16667,-4.16667,0,1005.5,697.07)">
                <path d="M-6.611,-6.611C-10.262,-6.611 -13.223,-3.651 -13.223,-0C-13.223,3.652 -10.262,6.611 -6.611,6.611C-2.96,6.611 -0,3.652 -0,-0C-0,-3.651 -2.96,-6.611 -6.611,-6.611" style="fill:rgb(8,4,146);fill-rule:nonzero;"></path>
            </g>
            <g transform="matrix(0,-4.16667,-4.16667,0,1006.13,698.062)">
                <path d="M-6.568,-6.568C-10.195,-6.568 -13.134,-3.628 -13.134,-0.001C-13.134,3.628 -10.195,6.568 -6.568,6.568C-2.94,6.568 -0.001,3.628 -0.001,-0.001C-0.001,-3.628 -2.94,-6.568 -6.568,-6.568" style="fill:rgb(8,4,146);fill-rule:nonzero;"></path>
            </g>
        <g transform="matrix(0,-4.16667,-4.16667,0,1006.76,699.053)">
            <path d="M-6.523,-6.523C-10.127,-6.523 -13.048,-3.602 -13.048,0C-13.048,3.603 -10.127,6.523 -6.523,6.523C-2.92,6.523 0,3.603 0,0C0,-3.602 -2.92,-6.523 -6.523,-6.523" style="fill:rgb(8,4,146);fill-rule:nonzero;"></path>
        </g>
        <g transform="matrix(0,-4.16667,-4.16667,0,974.631,648.519)">
            <path d="M-8.76,-8.76C-13.598,-8.76 -17.519,-4.838 -17.519,-0.001C-17.519,4.837 -13.598,8.76 -8.76,8.76C-3.922,8.76 -0.001,4.837 -0.001,-0.001C-0.001,-4.838 -3.922,-8.76 -8.76,-8.76" style="fill:rgb(0,174,234);fill-rule:nonzero;"></path>
        </g>
        <g transform="matrix(0,-4.16667,-4.16667,0,974.631,648.519)">
            <ellipse cx="-8.76" cy="0" rx="8.759" ry="8.76" style="fill:none;stroke:rgb(0,174,234);stroke-width:1px;"></ellipse>
        </g>
</g>
</svg>