<?xml version="1.0"?>

<svg width="100%" height="100%" viewBox="0 0 2084 2084" version="1.1" xmlns="http://www.w3.org/2000/svg" xmlns:xlink="http://www.w3.org/1999/xlink" xml:space="preserve" xmlns:serif="http://www.serif.com/" style="fill-rule:evenodd;clip-rule:evenodd;stroke-linejoin:round;stroke-miterlimit:2;">
    <g id="TEXT" transform="matrix(4.16667,0,0,4.16667,0,0)">
        <g>
            <g>
                <g transform="matrix(0.24,-0,-0,0.24,0,0)">
                </g>
                <g transform="matrix(0.24,0,0,0.189743,0,48.1661)">
                    <g transform="matrix(0.971548,0,0,0.971548,25.0154,340.059)">
                        <path d="M584.776,614.813C582.341,621.538 579.906,628.263 577.471,634.988C541.219,634.986 504.968,634.984 468.717,634.982L460.388,634.543C459.391,634.469 454.452,634.104 447.982,633.082C441.512,632.06 438.163,630.409 437.371,630.019C436.948,629.811 433.236,627.981 434.676,624.785C458.869,571.077 483.062,517.369 507.254,463.661C508.502,460.891 513.204,459.364 513.808,459.168C514.73,458.869 519.102,457.449 525.652,456.624C532.193,455.799 536.823,455.527 537.797,455.47L545.526,455.159C577.738,455.428 609.95,455.698 642.162,455.968C640.052,461.819 637.942,467.67 635.832,473.521C614.777,473.362 593.722,473.204 572.666,473.046C553.591,520.279 534.516,567.513 515.441,614.746C538.553,614.768 561.664,614.79 584.776,614.813ZM669.746,634.994C644.272,634.993 618.799,634.991 593.326,634.989C613.281,578.266 633.236,521.543 653.192,464.82C654.158,462.068 658.675,460.547 659.245,460.356C660.136,460.056 664.321,458.647 670.727,457.827C677.125,457.007 681.688,456.737 682.644,456.68L690.268,456.37C721.421,456.631 752.574,456.892 783.727,457.153L791.085,457.586C791.977,457.656 796.345,458.001 802.185,458.917C808.026,459.833 811.287,461.273 812.034,461.603C812.445,461.785 816.048,463.376 815.392,466.109C810.059,488.261 804.726,510.414 799.392,532.566C798.945,534.419 795.075,536.305 794.63,536.522C793.842,536.906 790.302,538.631 784.575,540.87L773.854,544.701L766.927,547.085C771.608,574.681 777.071,605.57 782.226,633.563C756.85,634.523 731.475,635.482 706.1,636.442L704.791,626.358C704.711,625.755 702.516,609.733 702.369,608.682C700.933,598.398 699.751,589.432 699.531,587.757C699.318,586.144 698.163,577.381 696.94,567.583L695.088,552.192C686.64,579.793 678.193,607.394 669.746,634.994ZM729.042,529.577C734.329,511.165 739.616,492.753 744.904,474.341C736.232,474.276 727.56,474.21 718.888,474.145C712.104,496.396 705.321,518.646 698.538,540.896C699.258,540.501 702.406,538.772 707.949,536.792L719.319,532.982L729.042,529.577ZM960.762,533.598C959.919,539.776 959.077,545.953 958.234,552.131C934.887,552.04 911.54,551.95 888.192,551.859C884.348,572.937 880.504,594.015 876.659,615.093C901.817,615.118 926.975,615.142 952.133,615.166C951.229,621.782 950.325,628.397 949.421,635.012C911.388,635.01 873.354,635.008 835.32,635.005L827.081,634.574C826.082,634.5 821.183,634.142 814.636,633.136C808.089,632.13 804.436,630.496 803.6,630.122C803.135,629.914 799.119,628.117 799.84,624.972C811.881,572.072 823.922,519.173 835.962,466.273C836.58,463.542 840.867,462.029 841.396,461.843C842.249,461.542 846.201,460.148 852.429,459.334C858.65,458.52 863.128,458.251 864.061,458.195L871.554,457.888C905.432,458.171 939.31,458.455 973.188,458.738C972.422,464.506 971.656,470.274 970.889,476.041C947.926,475.868 924.963,475.695 901.999,475.523C898.522,494.771 895.044,514.02 891.567,533.269C914.632,533.378 937.697,533.488 960.762,533.598ZM1039.61,635.018C1014.71,635.017 989.815,635.015 964.918,635.013C971.924,579.164 978.931,523.314 985.937,467.465C986.271,464.751 990.371,463.246 990.867,463.063C991.69,462.761 995.452,461.379 1001.53,460.57C1007.61,459.762 1012.02,459.494 1012.94,459.439L1020.32,459.133C1053.13,459.408 1085.93,459.682 1118.74,459.957L1126.02,460.383C1126.92,460.453 1131.26,460.792 1137.17,461.695C1143.09,462.597 1146.62,464.025 1147.4,464.342C1147.86,464.527 1151.73,466.089 1151.7,468.782C1151.04,524.197 1150.38,579.611 1149.71,635.025C1124.99,635.024 1100.26,635.022 1075.54,635.021C1077,610.123 1078.46,585.226 1079.93,560.329C1068.5,560.289 1057.08,560.249 1045.65,560.208C1043.64,585.145 1041.62,610.082 1039.61,635.018ZM1047.13,541.624C1058.42,541.674 1069.71,541.723 1081,541.773C1082.22,520.148 1083.44,498.523 1084.66,476.897C1073.86,476.816 1063.05,476.735 1052.24,476.653C1050.54,498.31 1048.84,519.967 1047.13,541.624ZM1275.52,635.034C1250.99,635.032 1226.46,635.03 1201.93,635.029C1200.88,582.605 1199.83,530.18 1198.77,477.756C1186.89,477.667 1175.01,477.577 1163.13,477.488C1163.14,471.768 1163.15,466.048 1163.16,460.329C1208.47,460.708 1253.78,461.087 1299.08,461.467C1299.61,467.152 1300.13,472.838 1300.65,478.523C1288.85,478.434 1277.05,478.346 1265.24,478.257C1268.67,530.516 1272.09,582.775 1275.52,635.034ZM1310.36,461.561C1332.1,461.743 1353.84,461.925 1375.59,462.107C1383.83,519.752 1392.07,577.397 1400.32,635.042C1375.98,635.04 1351.65,635.038 1327.32,635.037C1321.67,577.212 1316.01,519.386 1310.36,461.561ZM1559.2,635.052C1523.37,635.05 1487.54,635.047 1451.71,635.045L1443.62,634.625C1442.62,634.553 1437.79,634.206 1431.13,633.228C1424.46,632.25 1420.31,630.646 1419.41,630.297C1418.86,630.083 1414.37,628.348 1413.9,625.289C1406.05,573.753 1398.2,522.217 1390.35,470.68C1389.94,468.014 1393.53,466.527 1393.95,466.355C1394.69,466.05 1397.95,464.7 1403.65,463.905C1409.34,463.11 1413.56,462.846 1414.43,462.792L1421.53,462.491C1453.58,462.76 1485.63,463.028 1517.68,463.296L1524.88,463.715L1536.08,465.003C1542.07,465.89 1545.92,467.301 1546.74,467.603C1547.26,467.794 1551.42,469.32 1552.12,471.967C1565.63,523.105 1579.13,574.244 1592.64,625.382C1593.44,628.415 1589.69,630.145 1589.25,630.346C1588.47,630.707 1585.05,632.281 1578.86,633.25C1572.65,634.22 1567.99,634.565 1567.04,634.636L1559.2,635.052ZM1484.16,615.681C1495.74,615.693 1507.32,615.704 1518.9,615.715C1508.98,570.458 1499.05,525.2 1489.13,479.943C1478.52,479.863 1467.92,479.783 1457.31,479.703C1466.26,525.029 1475.21,570.355 1484.16,615.681ZM1681.72,635.06C1657.83,635.058 1633.94,635.057 1610.06,635.055C1595.21,580.728 1580.36,526.4 1565.5,472.073C1564.78,469.428 1568.15,467.95 1568.54,467.781C1569.24,467.474 1572.29,466.139 1577.82,465.349C1583.35,464.561 1587.49,464.298 1588.34,464.245L1595.32,463.946C1622.75,464.176 1650.19,464.406 1677.62,464.635L1689.67,465.21C1690.9,465.298 1697.1,465.746 1704.85,467.707C1712.6,469.671 1718,473.212 1719.04,473.891C1720.02,474.536 1725.51,478.129 1728.28,485.356C1747.4,535.259 1766.52,585.163 1785.64,635.067C1761.92,635.065 1738.2,635.064 1714.47,635.062C1702.93,600.949 1691.38,566.835 1679.84,532.722L1677.3,524.898L1673.18,512.392L1668.53,498.673L1664.52,487.188C1664.34,486.701 1662.8,482.458 1661.95,481.245C1652.21,481.171 1642.47,481.098 1632.72,481.025C1649.06,532.37 1665.39,583.715 1681.72,635.06Z" style="fill:rgb(0,174,234);stroke:rgb(0,174,234);stroke-width:95.85px;"></path>
                    </g>
                    <g transform="matrix(0.971548,0,0,0.971548,25.0154,340.059)">
                        <path d="M584.776,614.813C582.341,621.538 579.906,628.263 577.471,634.988C541.219,634.986 504.968,634.984 468.717,634.982L460.388,634.543C459.391,634.469 454.452,634.104 447.982,633.082C441.512,632.06 438.163,630.409 437.371,630.019C436.948,629.811 433.236,627.981 434.676,624.785C458.869,571.077 483.062,517.369 507.254,463.661C508.502,460.891 513.204,459.364 513.808,459.168C514.73,458.869 519.102,457.449 525.652,456.624C532.193,455.799 536.823,455.527 537.797,455.47L545.526,455.159C577.738,455.428 609.95,455.698 642.162,455.968C640.052,461.819 637.942,467.67 635.832,473.521C614.777,473.362 593.722,473.204 572.666,473.046C553.591,520.279 534.516,567.513 515.441,614.746C538.553,614.768 561.664,614.79 584.776,614.813ZM669.746,634.994C644.272,634.993 618.799,634.991 593.326,634.989C613.281,578.266 633.236,521.543 653.192,464.82C654.158,462.068 658.675,460.547 659.245,460.356C660.136,460.056 664.321,458.647 670.727,457.827C677.125,457.007 681.688,456.737 682.644,456.68L690.268,456.37C721.421,456.631 752.574,456.892 783.727,457.153L791.085,457.586C791.977,457.656 796.345,458.001 802.185,458.917C808.026,459.833 811.287,461.273 812.034,461.603C812.445,461.785 816.048,463.376 815.392,466.109C810.059,488.261 804.726,510.414 799.392,532.566C798.945,534.419 795.075,536.305 794.63,536.522C793.842,536.906 790.302,538.631 784.575,540.87L773.854,544.701L766.927,547.085C771.608,574.681 777.071,605.57 782.226,633.563C756.85,634.523 731.475,635.482 706.1,636.442L704.791,626.358C704.711,625.755 702.516,609.733 702.369,608.682C700.933,598.398 699.751,589.432 699.531,587.757C699.318,586.144 698.163,577.381 696.94,567.583L695.088,552.192C686.64,579.793 678.193,607.394 669.746,634.994ZM729.042,529.577C734.329,511.165 739.616,492.753 744.904,474.341C736.232,474.276 727.56,474.21 718.888,474.145C712.104,496.396 705.321,518.646 698.538,540.896C699.258,540.501 702.406,538.772 707.949,536.792L719.319,532.982L729.042,529.577ZM960.762,533.598C959.919,539.776 959.077,545.953 958.234,552.131C934.887,552.04 911.54,551.95 888.192,551.859C884.348,572.937 880.504,594.015 876.659,615.093C901.817,615.118 926.975,615.142 952.133,615.166C951.229,621.782 950.325,628.397 949.421,635.012C911.388,635.01 873.354,635.008 835.32,635.005L827.081,634.574C826.082,634.5 821.183,634.142 814.636,633.136C808.089,632.13 804.436,630.496 803.6,630.122C803.135,629.914 799.119,628.117 799.84,624.972C811.881,572.072 823.922,519.173 835.962,466.273C836.58,463.542 840.867,462.029 841.396,461.843C842.249,461.542 846.201,460.148 852.429,459.334C858.65,458.52 863.128,458.251 864.061,458.195L871.554,457.888C905.432,458.171 939.31,458.455 973.188,458.738C972.422,464.506 971.656,470.274 970.889,476.041C947.926,475.868 924.963,475.695 901.999,475.523C898.522,494.771 895.044,514.02 891.567,533.269C914.632,533.378 937.697,533.488 960.762,533.598ZM1039.61,635.018C1014.71,635.017 989.815,635.015 964.918,635.013C971.924,579.164 978.931,523.314 985.937,467.465C986.271,464.751 990.371,463.246 990.867,463.063C991.69,462.761 995.452,461.379 1001.53,460.57C1007.61,459.762 1012.02,459.494 1012.94,459.439L1020.32,459.133C1053.13,459.408 1085.93,459.682 1118.74,459.957L1126.02,460.383C1126.92,460.453 1131.26,460.792 1137.17,461.695C1143.09,462.597 1146.62,464.025 1147.4,464.342C1147.86,464.527 1151.73,466.089 1151.7,468.782C1151.04,524.197 1150.38,579.611 1149.71,635.025C1124.99,635.024 1100.26,635.022 1075.54,635.021C1077,610.123 1078.46,585.226 1079.93,560.329C1068.5,560.289 1057.08,560.249 1045.65,560.208C1043.64,585.145 1041.62,610.082 1039.61,635.018ZM1047.13,541.624C1058.42,541.674 1069.71,541.723 1081,541.773C1082.22,520.148 1083.44,498.523 1084.66,476.897C1073.86,476.816 1063.05,476.735 1052.24,476.653C1050.54,498.31 1048.84,519.967 1047.13,541.624ZM1275.52,635.034C1250.99,635.032 1226.46,635.03 1201.93,635.029C1200.88,582.605 1199.83,530.18 1198.77,477.756C1186.89,477.667 1175.01,477.577 1163.13,477.488C1163.14,471.768 1163.15,466.048 1163.16,460.329C1208.47,460.708 1253.78,461.087 1299.08,461.467C1299.61,467.152 1300.13,472.838 1300.65,478.523C1288.85,478.434 1277.05,478.346 1265.24,478.257C1268.67,530.516 1272.09,582.775 1275.52,635.034ZM1310.36,461.561C1332.1,461.743 1353.84,461.925 1375.59,462.107C1383.83,519.752 1392.07,577.397 1400.32,635.042C1375.98,635.04 1351.65,635.038 1327.32,635.037C1321.67,577.212 1316.01,519.386 1310.36,461.561ZM1559.2,635.052C1523.37,635.05 1487.54,635.047 1451.71,635.045L1443.62,634.625C1442.62,634.553 1437.79,634.206 1431.13,633.228C1424.46,632.25 1420.31,630.646 1419.41,630.297C1418.86,630.083 1414.37,628.348 1413.9,625.289C1406.05,573.753 1398.2,522.217 1390.35,470.68C1389.94,468.014 1393.53,466.527 1393.95,466.355C1394.69,466.05 1397.95,464.7 1403.65,463.905C1409.34,463.11 1413.56,462.846 1414.43,462.792L1421.53,462.491C1453.58,462.76 1485.63,463.028 1517.68,463.296L1524.88,463.715L1536.08,465.003C1542.07,465.89 1545.92,467.301 1546.74,467.603C1547.26,467.794 1551.42,469.32 1552.12,471.967C1565.63,523.105 1579.13,574.244 1592.64,625.382C1593.44,628.415 1589.69,630.145 1589.25,630.346C1588.47,630.707 1585.05,632.281 1578.86,633.25C1572.65,634.22 1567.99,634.565 1567.04,634.636L1559.2,635.052ZM1484.16,615.681C1495.74,615.693 1507.32,615.704 1518.9,615.715C1508.98,570.458 1499.05,525.2 1489.13,479.943C1478.52,479.863 1467.92,479.783 1457.31,479.703C1466.26,525.029 1475.21,570.355 1484.16,615.681ZM1681.72,635.06C1657.83,635.058 1633.94,635.057 1610.06,635.055C1595.21,580.728 1580.36,526.4 1565.5,472.073C1564.78,469.428 1568.15,467.95 1568.54,467.781C1569.24,467.474 1572.29,466.139 1577.82,465.349C1583.35,464.561 1587.49,464.298 1588.34,464.245L1595.32,463.946C1622.75,464.176 1650.19,464.406 1677.62,464.635L1689.67,465.21C1690.9,465.298 1697.1,465.746 1704.85,467.707C1712.6,469.671 1718,473.212 1719.04,473.891C1720.02,474.536 1725.51,478.129 1728.28,485.356C1747.4,535.259 1766.52,585.163 1785.64,635.067C1761.92,635.065 1738.2,635.064 1714.47,635.062C1702.93,600.949 1691.38,566.835 1679.84,532.722L1677.3,524.898L1673.18,512.392L1668.53,498.673L1664.52,487.188C1664.34,486.701 1662.8,482.458 1661.95,481.245C1652.21,481.171 1642.47,481.098 1632.72,481.025C1649.06,532.37 1665.39,583.715 1681.72,635.06Z" style="fill:rgb(7,4,146);"></path>
                    </g>
                </g>
                <g transform="matrix(0.253411,0,0,0.24,-15.8725,0)">
                    <g transform="matrix(0.989083,0,0,0.989083,5.58952,545.881)">
                        <path d="M607.146,422.484C609.854,421.894 612.638,421.588 615.459,421.588L768.995,421.588C775.524,421.588 781.768,423.213 787.331,426.143L790.154,425.215C798.813,423.252 805.367,422.566 806.702,422.423C807.094,422.381 807.487,422.345 807.88,422.315L815.931,421.701C816.917,421.626 817.905,421.588 818.894,421.588L928.928,421.588C929.89,421.588 930.852,421.624 931.812,421.695L940.083,422.309C940.451,422.337 940.82,422.369 941.188,422.407C942.542,422.547 949.031,423.199 957.997,425.08C964.981,426.545 970.569,428.56 974.525,430.266L976.867,429.081C980.238,427.722 984.497,426.285 989.63,425.157C998.408,423.229 1004.93,422.558 1006.27,422.417C1006.65,422.376 1007.04,422.342 1007.42,422.313L1015.56,421.699C1016.53,421.625 1017.51,421.588 1018.49,421.588L1120.85,421.588C1121.82,421.588 1122.79,421.624 1123.76,421.697L1131.95,422.312C1132.33,422.34 1132.7,422.374 1133.08,422.413C1134.43,422.554 1140.93,423.218 1149.78,425.128L1156.71,427.8C1162.91,423.853 1170.17,421.588 1177.91,421.588L1331.45,421.588C1343.46,421.588 1354.88,427.141 1362.69,436.785C1365.2,439.882 1367.25,443.301 1368.83,446.931L1374.78,440.561L1385.66,433.091C1387.37,432.189 1395.64,427.697 1408.48,425.051C1417.52,423.188 1424,422.543 1425.36,422.404C1425.73,422.367 1426.09,422.335 1426.45,422.308L1434.78,421.694C1435.73,421.623 1436.69,421.588 1437.64,421.588L1575.83,421.588C1582.74,421.588 1589.44,423.427 1595.36,426.804C1597.64,426.159 1600.13,425.544 1602.8,425.008C1611.97,423.171 1618.44,422.536 1619.81,422.398C1620.17,422.363 1620.52,422.332 1620.88,422.306L1629.28,421.692C1630.23,421.623 1631.17,421.588 1632.12,421.588L1770.3,421.588C1784.49,421.588 1797.67,429.308 1805.18,442.013C1812.69,454.717 1813.46,470.612 1807.23,484.065L1703.92,714.014L1692.41,729.936L1676.16,740.683C1674.64,741.354 1667.1,744.747 1656.31,746.747C1648.42,748.212 1642.91,748.714 1641.74,748.825C1641.41,748.856 1641.08,748.882 1640.76,748.905L1633.77,749.382C1632.88,749.443 1632,749.473 1631.11,749.473L1544.31,749.473C1543.37,749.473 1542.44,749.439 1541.5,749.372L1534.9,748.894C1534.52,748.867 1534.14,748.834 1533.77,748.796C1532.62,748.68 1526.98,748.118 1519.58,746.506L1508.74,743.044C1505.32,744.281 1500.75,745.676 1495.31,746.713C1487.5,748.198 1481.99,748.709 1480.82,748.82C1480.49,748.852 1480.15,748.88 1479.81,748.903L1472.89,749.381C1472,749.442 1471.11,749.473 1470.21,749.473L1383.41,749.473C1382.48,749.473 1381.56,749.44 1380.63,749.374L1373.96,748.896C1373.59,748.87 1373.22,748.838 1372.86,748.801C1371.71,748.686 1366.1,748.138 1358.62,746.556L1351.88,743.899L1348.76,745.339C1341.12,747.809 1334.43,748.587 1333.16,748.735C1332.77,748.781 1332.37,748.82 1331.98,748.854L1326.39,749.332C1325.29,749.426 1324.18,749.473 1323.07,749.473L1306.14,749.473C1298.38,749.473 1290.88,747.162 1284.44,742.934C1278.11,747.091 1270.66,749.473 1262.74,749.473L1201.34,749.473C1193.12,749.473 1185.16,746.873 1178.45,742.121C1172.89,745.491 1166.59,747.484 1160.02,747.827L1099.03,751.01C1092.41,751.356 1085.99,750.01 1080.22,747.283C1076.1,748.72 1071.75,749.473 1067.33,749.473L1005.93,749.473C1003.77,749.473 1001.64,749.296 999.566,748.954C997.483,749.297 995.365,749.473 993.228,749.473L931.832,749.473C926.63,749.473 921.625,748.445 917.005,746.557C912.335,748.462 907.32,749.473 902.192,749.473L840.796,749.473C832.912,749.473 825.447,747.104 819.095,742.933C812.664,747.153 805.167,749.473 797.396,749.473L736,749.473C725.264,749.473 715.246,745.07 707.78,737.631L699.184,742.431L686.624,746.492C679.243,748.113 673.584,748.678 672.44,748.794C672.062,748.833 671.683,748.866 671.304,748.894L664.717,749.371C663.78,749.439 662.84,749.473 661.901,749.473L560.28,749.473C544.884,749.473 530.778,740.389 523.731,725.936L512.718,703.351C506.157,689.895 411.876,499.138 411.876,499.138L406.851,482.014L408.082,463.597L413.277,450.842L424.377,437.727L435.722,430.447L449.984,425.328C458.452,423.295 465.079,422.581 466.405,422.435C466.815,422.39 467.225,422.352 467.636,422.32L475.537,421.705C476.542,421.627 477.549,421.588 478.556,421.588L598.826,421.588C601.659,421.588 604.444,421.895 607.146,422.484Z" style="fill:rgb(0,174,234);"></path>
                    </g>
                    <g transform="matrix(0.87793,0,0,0.991711,129.002,570.527)">
                        <path d="M598.826,464.994C602.158,474.438 605.49,483.882 608.822,493.326L527.238,493.326C539.024,522.169 550.81,551.012 562.596,579.855L608.649,579.855L616.411,580.409C617.396,580.506 622.046,580.963 628.645,582.255C635.238,583.545 639.712,585.684 640.62,586.119C641.303,586.445 645.986,588.686 647.396,592.71C659.517,627.319 671.638,661.927 683.76,696.535C683.924,697.005 685.019,700.131 681.731,702.414C678.453,704.69 673.995,705.669 673.283,705.826C668.117,706.96 664.169,707.364 663.369,707.446L656.695,707.931L553.89,707.931C550.392,700.285 546.893,692.639 543.395,684.994L616.463,684.994C605.851,658.465 595.238,631.935 584.626,605.406L539.428,605.406L531.774,604.866C530.794,604.77 526.204,604.325 519.604,603.06C512.999,601.795 508.355,599.682 507.426,599.259C506.705,598.931 501.836,596.716 499.999,592.71C482.661,554.889 465.323,517.067 447.985,479.245C445.939,474.783 449.009,472.312 449.474,471.938C453.02,469.084 458.205,467.848 459.019,467.654C465.022,466.222 469.699,465.711 470.637,465.608L478.556,464.994L598.826,464.994ZM793.768,707.931L731.657,707.931C709.121,636.396 686.584,564.861 664.048,493.326L625.139,493.326C621.912,483.882 618.685,474.438 615.459,464.994L768.995,464.994C771.248,474.438 773.502,483.882 775.755,493.326L736.846,493.326C755.82,564.861 774.794,636.396 793.768,707.931ZM899.786,707.931L837.675,707.931C820.139,631.703 802.603,555.474 785.068,479.245C784.925,478.625 784.041,474.783 788.226,471.938C792.423,469.084 797.862,467.854 798.749,467.654C805.079,466.222 809.859,465.712 810.834,465.608L818.894,464.994L928.928,464.994L937.193,465.608C938.223,465.714 943.155,466.222 949.967,467.654C956.774,469.084 961.042,471.445 961.932,471.938C962.577,472.295 967.074,474.783 967.548,479.245C975.66,555.474 983.771,631.703 991.882,707.931L929.771,707.931C924.974,677.223 920.178,646.515 915.381,615.807L883.181,615.807C888.716,646.515 894.251,677.223 899.786,707.931ZM878.623,590.518L911.431,590.518C906.37,558.12 901.309,525.723 896.249,493.326L861.105,493.326C866.944,525.723 872.784,558.12 878.623,590.518ZM1066.85,707.931L1004.73,707.931C997.407,631.703 990.081,555.474 982.755,479.245C982.326,474.783 986.322,472.293 986.892,471.938C987.7,471.434 991.472,469.084 997.989,467.654C1004.51,466.222 1009.35,465.713 1010.35,465.608L1018.49,464.994L1120.85,464.994L1129.03,465.608C1130.04,465.713 1134.92,466.222 1141.54,467.654C1148.17,469.084 1152.12,471.438 1152.96,471.938C1153.55,472.293 1157.73,474.783 1157.63,479.245C1156.88,512.659 1156.14,546.072 1155.39,579.485C1155.33,582.068 1152.04,584.683 1151.62,585.016C1150.96,585.542 1147.92,587.951 1142.95,591.066C1137.99,594.173 1134.42,595.969 1133.66,596.354L1127.7,599.622C1138.05,634.462 1148.76,671.479 1158.56,706.312C1137.99,707.39 1117.43,708.469 1096.87,709.547L1093.16,698.172C1090.17,689.095 1086.84,679.302 1086.28,677.663C1083.42,669.243 1080.56,660.822 1077.7,652.402C1074.81,643.929 1071.92,635.456 1069.03,626.983C1066.74,620.271 1064.45,613.559 1062.16,606.847C1063.72,640.542 1065.28,674.236 1066.85,707.931ZM1086.78,575.782C1086.03,548.297 1085.27,520.811 1084.52,493.326L1056.91,493.326C1058.42,526.089 1059.94,558.852 1061.46,591.615C1061.99,591.081 1064.37,588.686 1068.95,585.935L1078.53,580.594C1083.53,578.003 1086.15,576.213 1086.78,575.782ZM1264.53,707.931L1202.42,707.931C1206.88,636.396 1211.34,564.861 1215.81,493.326L1176.9,493.326C1177.24,483.882 1177.57,474.438 1177.91,464.994L1331.45,464.994C1330.14,474.438 1328.83,483.882 1327.52,493.326L1288.61,493.326C1280.58,564.861 1272.56,636.396 1264.53,707.931ZM1350.12,665.541C1348.01,677.615 1345.89,689.689 1343.78,701.763C1343.33,704.365 1339.8,705.517 1339.35,705.664C1335.37,706.96 1331.88,707.368 1331.22,707.446L1325.57,707.931L1308.44,707.931C1310.2,695.94 1311.97,683.95 1313.74,671.959C1314.14,669.262 1317.75,668.063 1318.2,667.911C1318.86,667.692 1322.28,666.558 1326.67,666.05L1332.4,665.541L1350.12,665.541ZM1575.83,464.994C1572.97,474.438 1570.11,483.882 1567.25,493.326L1468.09,493.326C1453.08,557.215 1438.07,621.104 1423.06,684.994L1449.23,684.994C1457.87,651.177 1466.52,617.361 1475.16,583.544L1543.46,583.544C1531.96,621.208 1520.46,658.872 1508.96,696.535C1507.86,700.131 1503.68,702.128 1503.08,702.414C1502.27,702.801 1498.31,704.69 1492.39,705.826C1486.48,706.96 1482.3,707.361 1481.42,707.446L1474.42,707.931L1386.61,707.931L1379.86,707.446C1379.04,707.363 1375.03,706.96 1369.68,705.826C1364.32,704.69 1361.32,702.822 1360.66,702.414C1357,700.131 1357.57,697.055 1357.67,696.535C1371.08,624.105 1384.49,551.675 1397.9,479.245C1398.73,474.783 1403.41,472.297 1404.09,471.938C1405.01,471.449 1409.47,469.084 1416.39,467.654C1423.32,466.222 1428.29,465.715 1429.33,465.608L1437.64,464.994L1575.83,464.994ZM1770.3,464.994C1766.21,474.438 1762.12,483.882 1758.03,493.326L1658.87,493.326C1635.52,557.215 1612.17,621.104 1588.82,684.994L1615,684.994C1628.05,651.177 1641.11,617.361 1654.16,583.544L1722.47,583.544C1706.05,621.208 1689.64,658.872 1673.22,696.535C1671.65,700.131 1667.22,702.123 1666.57,702.414C1665.72,702.796 1661.5,704.69 1655.44,705.826C1649.38,706.96 1645.15,707.36 1644.25,707.446L1637.2,707.931L1549.39,707.931L1542.69,707.446C1541.89,707.364 1537.93,706.96 1532.73,705.826C1532.01,705.669 1527.52,704.69 1524.16,702.414C1520.79,700.131 1521.78,697.015 1521.93,696.535C1544.79,624.105 1567.65,551.675 1590.52,479.245C1591.93,474.783 1596.93,472.301 1597.66,471.938C1598.64,471.456 1603.42,469.084 1610.53,467.654C1617.64,466.222 1622.66,465.715 1623.73,465.608L1632.12,464.994L1770.3,464.994Z" style="fill:rgb(7,4,146);"></path>
                    </g>
                    <g transform="matrix(0.989083,0,0,0.989083,5.58952,545.881)">
                        <path d="M598.826,464.994C602.372,474.43 605.918,483.867 609.465,493.303L527.986,493.303C540.489,522.023 552.993,550.743 565.497,579.463L611.305,579.463L619.039,580.013C620.022,580.109 624.658,580.563 631.25,581.845C637.837,583.126 642.335,585.251 643.246,585.681C643.933,586.006 648.638,588.229 650.128,592.222C662.89,626.432 675.652,660.642 688.415,694.852C688.585,695.308 689.735,698.392 686.532,700.639C683.339,702.879 678.95,703.843 678.252,703.996C673.17,705.112 669.275,705.509 668.488,705.59L661.901,706.067L560.28,706.067C556.609,698.539 552.938,691.01 549.267,683.482L621.577,683.482C610.4,657.259 599.224,631.036 588.047,604.813L543.145,604.813L535.526,604.277C534.549,604.183 529.977,603.741 523.385,602.487C516.786,601.233 512.108,599.137 511.175,598.718C510.447,598.392 505.547,596.196 503.605,592.222C485.207,554.561 466.809,516.901 448.411,479.24C446.232,474.78 449.223,472.313 449.681,471.936C453.141,469.083 458.292,467.847 459.097,467.653C465.058,466.222 469.722,465.711 470.655,465.608L478.556,464.994L598.826,464.994ZM797.396,706.067L736,706.067C712.206,635.146 688.413,564.224 664.62,493.303L625.76,493.303C622.327,483.867 618.893,474.43 615.459,464.994L768.995,464.994C771.391,474.43 773.787,483.867 776.183,493.303L737.324,493.303C757.348,564.224 777.372,635.146 797.396,706.067ZM902.192,706.067L840.796,706.067C822.29,630.458 803.783,554.849 785.276,479.24C785.126,478.625 784.185,474.78 788.326,471.936C792.481,469.083 797.904,467.853 798.786,467.653C805.096,466.222 809.87,465.712 810.843,465.608L818.894,464.994L928.928,464.994L937.198,465.608C938.229,465.714 943.165,466.222 949.986,467.653C956.802,469.083 961.085,471.444 961.977,471.936C962.625,472.293 967.136,474.78 967.639,479.24C976.169,554.849 984.698,630.458 993.228,706.067L931.832,706.067C926.801,675.751 921.769,645.435 916.738,615.119L884.765,615.119C890.574,645.435 896.383,675.751 902.192,706.067ZM879.961,590.047L912.577,590.047C907.225,557.799 901.873,525.551 896.521,493.303L861.423,493.303C867.602,525.551 873.781,557.799 879.961,590.047ZM1067.33,706.067L1005.93,706.067C998.232,630.458 990.534,554.849 982.836,479.24C982.768,478.573 982.382,474.78 986.93,471.936C987.735,471.433 991.493,469.083 998.002,467.653C1004.52,466.222 1009.36,465.713 1010.35,465.608L1018.49,464.994L1120.85,464.994L1129.03,465.608C1130.04,465.713 1134.91,466.222 1141.54,467.653C1148.16,469.083 1152.11,471.437 1152.94,471.936C1153.54,472.291 1157.71,474.78 1157.6,479.24C1156.78,512.525 1155.96,545.81 1155.14,579.096C1155.08,581.66 1151.8,584.256 1151.38,584.587C1150.72,585.109 1147.7,587.499 1142.75,590.591C1137.81,593.674 1134.27,595.455 1133.51,595.837L1127.58,599.078C1137.78,633.442 1148.33,670.006 1157.99,704.474C1137.66,705.535 1117.33,706.596 1097,707.657L1093.33,696.463C1090.36,687.505 1087.06,677.87 1086.51,676.255C1083.66,667.944 1080.81,659.633 1077.97,651.322C1075.09,642.943 1072.2,634.564 1069.32,626.185C1067.04,619.537 1064.75,612.889 1062.47,606.241C1064.09,639.517 1065.71,672.792 1067.33,706.067ZM1086.89,575.418C1086.11,548.046 1085.33,520.674 1084.55,493.303L1056.97,493.303C1058.56,525.914 1060.15,558.524 1061.73,591.135C1062.26,590.606 1064.62,588.229 1069.17,585.499L1078.69,580.196C1083.66,577.623 1086.26,575.846 1086.89,575.418ZM1262.74,706.067L1201.34,706.067C1206.12,635.146 1210.89,564.224 1215.67,493.303L1176.81,493.303C1177.18,483.867 1177.54,474.43 1177.91,464.994L1331.45,464.994C1330.04,474.43 1328.64,483.867 1327.23,493.303L1288.37,493.303C1279.83,564.224 1271.28,635.146 1262.74,706.067ZM1347.84,664.297C1345.61,676.197 1343.38,688.097 1341.15,699.998C1340.67,702.558 1337.16,703.692 1336.72,703.836C1332.77,705.112 1329.32,705.514 1328.66,705.59L1323.07,706.067L1306.14,706.067C1308,694.254 1309.87,682.442 1311.74,670.629C1312.16,667.968 1315.75,666.785 1316.2,666.635C1316.86,666.419 1320.25,665.3 1324.61,664.798L1330.29,664.297L1347.84,664.297ZM1575.83,464.994C1572.77,474.43 1569.71,483.867 1566.65,493.303L1467.63,493.303C1451.68,556.696 1435.74,620.089 1419.79,683.482L1445.69,683.482C1454.84,650.03 1463.99,616.578 1473.14,583.126L1541.07,583.126C1528.91,620.368 1516.74,657.61 1504.57,694.852C1503.42,698.392 1499.24,700.356 1498.64,700.639C1497.84,701.018 1493.88,702.879 1488.01,703.996C1482.15,705.112 1478.01,705.506 1477.13,705.59L1470.21,706.067L1383.41,706.067L1376.74,705.59C1375.93,705.509 1371.97,705.112 1366.7,703.996C1361.41,702.879 1358.47,701.041 1357.83,700.639C1354.24,698.392 1354.84,695.359 1354.94,694.852C1369.2,622.981 1383.45,551.11 1397.71,479.24C1398.6,474.78 1403.32,472.295 1404,471.936C1404.92,471.449 1409.42,469.083 1416.36,467.653C1423.3,466.222 1428.28,465.715 1429.32,465.608L1437.64,464.994L1575.83,464.994ZM1770.3,464.994C1765.93,474.43 1761.56,483.867 1757.19,493.303L1658.16,493.303C1633.39,556.696 1608.61,620.089 1583.84,683.482L1609.74,683.482C1623.55,650.03 1637.36,616.578 1651.17,583.126L1719.1,583.126C1701.74,620.368 1684.39,657.61 1667.04,694.852C1665.39,698.392 1660.95,700.352 1660.3,700.639C1659.45,701.013 1655.23,702.879 1649.2,703.996C1643.18,705.112 1638.99,705.506 1638.1,705.59L1631.11,706.067L1544.31,706.067L1537.71,705.59C1536.91,705.509 1533.01,705.112 1527.89,703.996C1527.18,703.842 1522.76,702.879 1519.49,700.639C1516.2,698.392 1517.24,695.318 1517.4,694.852C1541.67,622.981 1565.94,551.11 1590.21,479.24C1591.71,474.78 1596.77,472.3 1597.51,471.936C1598.49,471.456 1603.33,469.083 1610.47,467.653C1617.61,466.222 1622.64,465.716 1623.71,465.608L1632.12,464.994L1770.3,464.994Z" style="fill:white;"></path>
                    </g>
                </g>
            </g>
        </g>
    </g>
</svg>