<?xml version="1.0"?>

<svg width="100%" height="100%" viewBox="0 0 2084 2084" version="1.1" xmlns="http://www.w3.org/2000/svg" xmlns:xlink="http://www.w3.org/1999/xlink" xml:space="preserve" xmlns:serif="http://www.serif.com/" style="fill-rule:evenodd;clip-rule:evenodd;stroke-miterlimit:10;">
    <g id="Calque3">
        <g transform="matrix(0,4.16667,4.16667,0,1226.34,1353.67)">
            <path d="M8.76,-8.76C3.922,-8.76 0.001,-4.838 0.001,-0.001C0.001,4.837 3.922,8.76 8.76,8.76C13.598,8.76 17.519,4.837 17.519,-0.001C17.519,-4.838 13.598,-8.76 8.76,-8.76" style="fill:rgb(8,4,146);fill-rule:nonzero;"></path>
        </g>
        <g transform="matrix(0,4.16667,4.16667,0,1225.71,1353.04)">
            <path d="M8.716,-8.716C3.903,-8.716 -0,-4.814 -0,0C-0,4.813 3.903,8.716 8.716,8.716C13.529,8.716 17.432,4.813 17.432,0C17.432,-4.814 13.529,-8.716 8.716,-8.716" style="fill:rgb(8,4,146);fill-rule:nonzero;"></path>
        </g>
        <g transform="matrix(0,4.16667,4.16667,0,1225.08,1352.42)">
            <path d="M8.672,-8.672C3.882,-8.672 -0.001,-4.79 -0.001,0.001C-0.001,4.79 3.882,8.672 8.672,8.672C13.461,8.672 17.344,4.79 17.344,0.001C17.344,-4.79 13.461,-8.672 8.672,-8.672" style="fill:rgb(8,4,146);fill-rule:nonzero;"></path>
        </g>
        <g transform="matrix(0,4.16667,4.16667,0,1224.45,1351.79)">
            <path d="M8.628,-8.628C3.863,-8.628 0,-4.765 0,-0C0,4.765 3.863,8.628 8.628,8.628C13.393,8.628 17.256,4.765 17.256,-0C17.256,-4.765 13.393,-8.628 8.628,-8.628" style="fill:rgb(8,4,146);fill-rule:nonzero;"></path>
        </g>
        <g transform="matrix(0,4.16667,4.16667,0,1223.82,1351.16)">
            <path d="M8.584,-8.584C3.843,-8.584 0,-4.741 0,0C0,4.741 3.843,8.584 8.584,8.584C13.325,8.584 17.168,4.741 17.168,0C17.168,-4.741 13.325,-8.584 8.584,-8.584" style="fill:rgb(8,4,146);fill-rule:nonzero;"></path>
        </g>
        <g transform="matrix(0,4.16667,4.16667,0,1223.19,1350.54)">
            <path d="M8.54,-8.54C3.823,-8.54 0,-4.716 0,0C0,4.717 3.823,8.54 8.54,8.54C13.257,8.54 17.08,4.717 17.08,0C17.08,-4.716 13.257,-8.54 8.54,-8.54" style="fill:rgb(8,4,146);fill-rule:nonzero;"></path>
        </g>
        <g transform="matrix(0,4.16667,4.16667,0,1222.56,1349.91)">
            <path d="M8.497,-8.497C3.805,-8.497 0,-4.692 0,-0C0,4.693 3.805,8.497 8.497,8.497C13.188,8.497 16.993,4.693 16.993,-0C16.993,-4.692 13.188,-8.497 8.497,-8.497" style="fill:rgb(8,4,146);fill-rule:nonzero;"></path>
        </g>
        <g transform="matrix(0,4.16667,4.16667,0,1221.93,1349.29)">
            <path d="M8.452,-8.452C3.784,-8.452 -0.001,-4.668 -0.001,0.001C-0.001,4.669 3.784,8.452 8.452,8.452C13.12,8.452 16.906,4.669 16.906,0.001C16.906,-4.668 13.12,-8.452 8.452,-8.452" style="fill:rgb(8,4,146);fill-rule:nonzero;"></path>
        </g>
        <g transform="matrix(0,4.16667,4.16667,0,1221.3,1348.66)">
            <path d="M8.409,-8.409C3.765,-8.409 -0,-4.644 -0,0C-0,4.644 3.765,8.409 8.409,8.409C13.053,8.409 16.818,4.644 16.818,0C16.818,-4.644 13.053,-8.409 8.409,-8.409" style="fill:rgb(8,4,146);fill-rule:nonzero;"></path>
        </g>
        <g transform="matrix(0,4.16667,4.16667,0,1220.67,1348.04)">
            <path d="M8.365,-8.365C3.745,-8.365 -0,-4.62 -0,0C-0,4.62 3.745,8.365 8.365,8.365C12.985,8.365 16.73,4.62 16.73,0C16.73,-4.62 12.985,-8.365 8.365,-8.365" style="fill:rgb(8,4,146);fill-rule:nonzero;"></path>
        </g>
        <g transform="matrix(0,4.16667,4.16667,0,1220.04,1347.41)">
            <path d="M8.321,-8.321C3.725,-8.321 0,-4.596 0,0C0,4.596 3.725,8.321 8.321,8.321C12.917,8.321 16.642,4.596 16.642,0C16.642,-4.596 12.917,-8.321 8.321,-8.321" style="fill:rgb(8,4,146);fill-rule:nonzero;"></path>
        </g>
        <g transform="matrix(0,4.16667,4.16667,0,1219.41,1346.79)">
            <path d="M8.277,-8.277C3.706,-8.277 0,-4.571 0,-0C0,4.572 3.706,8.277 8.277,8.277C12.848,8.277 16.554,4.572 16.554,-0C16.554,-4.571 12.848,-8.277 8.277,-8.277" style="fill:rgb(8,4,146);fill-rule:nonzero;"></path>
        </g>
        <g transform="matrix(0,4.16667,4.16667,0,1218.78,1346.16)">
            <path d="M8.234,-8.234C3.686,-8.234 0.001,-4.547 0.001,-0.001C0.001,4.547 3.686,8.234 8.234,8.234C12.781,8.234 16.466,4.547 16.466,-0.001C16.466,-4.547 12.781,-8.234 8.234,-8.234" style="fill:rgb(8,4,146);fill-rule:nonzero;"></path>
        </g>
        <g transform="matrix(0,4.16667,4.16667,0,1218.15,1345.53)">
            <path d="M8.19,-8.19C3.667,-8.19 0.001,-4.523 0.001,-0.001C0.001,4.522 3.667,8.19 8.19,8.19C12.713,8.19 16.379,4.522 16.379,-0.001C16.379,-4.523 12.713,-8.19 8.19,-8.19" style="fill:rgb(8,4,146);fill-rule:nonzero;"></path>
        </g>
        <g transform="matrix(0,4.16667,4.16667,0,1217.52,1344.91)">
            <path d="M8.146,-8.146C3.646,-8.146 -0,-4.499 -0,0C-0,4.498 3.646,8.146 8.146,8.146C12.645,8.146 16.291,4.498 16.291,0C16.291,-4.499 12.645,-8.146 8.146,-8.146" style="fill:rgb(8,4,146);fill-rule:nonzero;"></path>
        </g>
        <g transform="matrix(0,4.16667,4.16667,0,1216.89,1344.28)">
            <path d="M8.102,-8.102C3.627,-8.102 0,-4.475 0,0C0,4.474 3.627,8.102 8.102,8.102C12.577,8.102 16.204,4.474 16.204,0C16.204,-4.475 12.577,-8.102 8.102,-8.102" style="fill:rgb(8,4,146);fill-rule:nonzero;"></path>
        </g>
        <g transform="matrix(0,4.16667,4.16667,0,1216.26,1343.66)">
            <path d="M8.058,-8.058C3.608,-8.058 0,-4.45 0,-0C0,4.45 3.608,8.058 8.058,8.058C12.508,8.058 16.116,4.45 16.116,-0C16.116,-4.45 12.508,-8.058 8.058,-8.058" style="fill:rgb(8,4,146);fill-rule:nonzero;"></path>
        </g>
        <g transform="matrix(0,4.16667,4.16667,0,1215.63,1343.03)">
            <path d="M8.014,-8.014C3.588,-8.014 0,-4.426 0,0C0,4.426 3.588,8.014 8.014,8.014C12.44,8.014 16.028,4.426 16.028,0C16.028,-4.426 12.44,-8.014 8.014,-8.014" style="fill:rgb(8,4,146);fill-rule:nonzero;"></path>
        </g>
        <g transform="matrix(0,4.16667,4.16667,0,1215,1342.41)">
            <path d="M7.97,-7.97C3.568,-7.97 0,-4.403 0,-0C0,4.402 3.568,7.97 7.97,7.97C12.372,7.97 15.941,4.402 15.941,-0C15.941,-4.403 12.372,-7.97 7.97,-7.97" style="fill:rgb(8,4,146);fill-rule:nonzero;"></path>
        </g>
        <g transform="matrix(0,4.16667,4.16667,0,1214.37,1341.78)">
            <path d="M7.927,-7.927C3.549,-7.927 0.001,-4.378 0.001,-0.001C0.001,4.377 3.549,7.927 7.927,7.927C12.305,7.927 15.853,4.377 15.853,-0.001C15.853,-4.378 12.305,-7.927 7.927,-7.927" style="fill:rgb(8,4,146);fill-rule:nonzero;"></path>
        </g>
        <g transform="matrix(0,4.16667,4.16667,0,1213.74,1341.16)">
            <path d="M7.883,-7.883C3.53,-7.883 -0,-4.354 -0,0C-0,4.353 3.53,7.883 7.883,7.883C12.236,7.883 15.765,4.353 15.765,0C15.765,-4.354 12.236,-7.883 7.883,-7.883" style="fill:rgb(8,4,146);fill-rule:nonzero;"></path>
        </g>
        <g transform="matrix(0,4.16667,4.16667,0,1213.11,1340.53)">
            <path d="M7.839,-7.839C3.51,-7.839 -0,-4.329 -0,0C-0,4.329 3.51,7.839 7.839,7.839C12.168,7.839 15.678,4.329 15.678,0C15.678,-4.329 12.168,-7.839 7.839,-7.839" style="fill:rgb(8,4,146);fill-rule:nonzero;"></path>
        </g>
        <g transform="matrix(0,4.16667,4.16667,0,1212.48,1339.9)">
            <path d="M7.795,-7.795C3.49,-7.795 0,-4.305 0,0C0,4.305 3.49,7.795 7.795,7.795C12.1,7.795 15.59,4.305 15.59,0C15.59,-4.305 12.1,-7.795 7.795,-7.795" style="fill:rgb(8,4,146);fill-rule:nonzero;"></path>
        </g>
        <g transform="matrix(0,4.16667,4.16667,0,1211.85,1339.28)">
            <path d="M7.751,-7.751C3.47,-7.751 0,-4.281 0,0C0,4.281 3.47,7.751 7.751,7.751C12.032,7.751 15.502,4.281 15.502,0C15.502,-4.281 12.032,-7.751 7.751,-7.751" style="fill:rgb(8,4,146);fill-rule:nonzero;"></path>
        </g>
        <g transform="matrix(0,4.16667,4.16667,0,1211.22,1338.65)">
            <path d="M7.708,-7.708C3.451,-7.708 0.001,-4.257 0.001,-0.001C0.001,4.257 3.451,7.708 7.708,7.708C11.965,7.708 15.415,4.257 15.415,-0.001C15.415,-4.257 11.965,-7.708 7.708,-7.708" style="fill:rgb(8,4,146);fill-rule:nonzero;"></path>
        </g>
        <g transform="matrix(0,4.16667,4.16667,0,1210.59,1338.03)">
            <path d="M7.664,-7.664C3.431,-7.664 0.001,-4.233 0.001,-0.001C0.001,4.233 3.431,7.664 7.664,7.664C11.896,7.664 15.326,4.233 15.326,-0.001C15.326,-4.233 11.896,-7.664 7.664,-7.664" style="fill:rgb(8,4,146);fill-rule:nonzero;"></path>
        </g>
        <g transform="matrix(0,4.16667,4.16667,0,1209.96,1337.4)">
            <path d="M7.619,-7.619C3.411,-7.619 -0,-4.209 -0,0C-0,4.209 3.411,7.619 7.619,7.619C11.828,7.619 15.24,4.209 15.24,0C15.24,-4.209 11.828,-7.619 7.619,-7.619" style="fill:rgb(8,4,146);fill-rule:nonzero;"></path>
        </g>
        <g transform="matrix(0,4.16667,4.16667,0,1209.33,1336.78)">
            <path d="M7.576,-7.576C3.392,-7.576 0,-4.184 0,0C0,4.184 3.392,7.576 7.576,7.576C11.76,7.576 15.152,4.184 15.152,0C15.152,-4.184 11.76,-7.576 7.576,-7.576" style="fill:rgb(8,4,146);fill-rule:nonzero;"></path>
        </g>
        <g transform="matrix(0,4.16667,4.16667,0,1208.7,1336.15)">
            <path d="M7.532,-7.532C3.372,-7.532 0,-4.16 0,0C0,4.16 3.372,7.532 7.532,7.532C11.692,7.532 15.064,4.16 15.064,0C15.064,-4.16 11.692,-7.532 7.532,-7.532" style="fill:rgb(8,4,146);fill-rule:nonzero;"></path>
        </g>
        <g transform="matrix(0,4.16667,4.16667,0,1208.07,1335.53)">
            <path d="M7.488,-7.488C3.352,-7.488 0,-4.135 0,0C0,4.136 3.352,7.488 7.488,7.488C11.624,7.488 14.976,4.136 14.976,0C14.976,-4.135 11.624,-7.488 7.488,-7.488" style="fill:rgb(8,4,146);fill-rule:nonzero;"></path>
        </g>
        <g transform="matrix(0,4.16667,4.16667,0,1207.44,1334.9)">
            <path d="M7.444,-7.444C3.333,-7.444 0,-4.111 0,0C0,4.112 3.333,7.444 7.444,7.444C11.555,7.444 14.888,4.112 14.888,0C14.888,-4.111 11.555,-7.444 7.444,-7.444" style="fill:rgb(8,4,146);fill-rule:nonzero;"></path>
        </g>
        <g transform="matrix(0,4.16667,4.16667,0,1206.81,1334.27)">
            <path d="M7.401,-7.401C3.314,-7.401 0,-4.088 0,-0C0,4.087 3.314,7.401 7.401,7.401C11.488,7.401 14.801,4.087 14.801,-0C14.801,-4.088 11.488,-7.401 7.401,-7.401" style="fill:rgb(8,4,146);fill-rule:nonzero;"></path>
        </g>
        <g transform="matrix(0,4.16667,4.16667,0,1206.18,1333.65)">
            <path d="M7.356,-7.356C3.294,-7.356 -0,-4.063 -0,0C-0,4.063 3.294,7.356 7.356,7.356C11.419,7.356 14.714,4.063 14.714,0C14.714,-4.063 11.419,-7.356 7.356,-7.356" style="fill:rgb(8,4,146);fill-rule:nonzero;"></path>
        </g>
        <g transform="matrix(0,4.16667,4.16667,0,1205.55,1333.02)">
            <path d="M7.313,-7.313C3.273,-7.313 -0,-4.039 -0,0C-0,4.039 3.273,7.313 7.313,7.313C11.352,7.313 14.625,4.039 14.625,0C14.625,-4.039 11.352,-7.313 7.313,-7.313" style="fill:rgb(8,4,146);fill-rule:nonzero;"></path>
        </g>
        <g transform="matrix(0,4.16667,4.16667,0,1204.92,1332.4)">
            <path d="M7.269,-7.269C3.255,-7.269 -0,-4.015 -0,0C-0,4.014 3.255,7.269 7.269,7.269C11.283,7.269 14.538,4.014 14.538,0C14.538,-4.015 11.283,-7.269 7.269,-7.269" style="fill:rgb(8,4,146);fill-rule:nonzero;"></path>
        </g>
        <g transform="matrix(0,4.16667,4.16667,0,1204.29,1331.77)">
            <path d="M7.225,-7.225C3.235,-7.225 0,-3.99 0,-0C0,3.99 3.235,7.225 7.225,7.225C11.215,7.225 14.45,3.99 14.45,-0C14.45,-3.99 11.215,-7.225 7.225,-7.225" style="fill:rgb(8,4,146);fill-rule:nonzero;"></path>
        </g>
        <g transform="matrix(0,4.16667,4.16667,0,1203.66,1331.15)">
            <path d="M7.181,-7.181C3.215,-7.181 0,-3.966 0,-0C0,3.966 3.215,7.181 7.181,7.181C11.147,7.181 14.362,3.966 14.362,-0C14.362,-3.966 11.147,-7.181 7.181,-7.181" style="fill:rgb(8,4,146);fill-rule:nonzero;"></path>
        </g>
        <g transform="matrix(0,4.16667,4.16667,0,1203.03,1330.52)">
            <path d="M7.138,-7.138C3.196,-7.138 0.001,-3.942 0.001,-0.001C0.001,3.942 3.196,7.138 7.138,7.138C11.08,7.138 14.275,3.942 14.275,-0.001C14.275,-3.942 11.08,-7.138 7.138,-7.138" style="fill:rgb(8,4,146);fill-rule:nonzero;"></path>
        </g>
        <g transform="matrix(0,4.16667,4.16667,0,1202.4,1329.9)">
            <path d="M7.094,-7.094C3.176,-7.094 -0,-3.918 -0,0C-0,3.917 3.176,7.094 7.094,7.094C11.012,7.094 14.188,3.917 14.188,0C14.188,-3.918 11.012,-7.094 7.094,-7.094" style="fill:rgb(8,4,146);fill-rule:nonzero;"></path>
        </g>
        <g transform="matrix(0,4.16667,4.16667,0,1201.77,1329.27)">
            <path d="M7.05,-7.05C3.157,-7.05 -0,-3.894 -0,0C-0,3.893 3.157,7.05 7.05,7.05C10.942,7.05 14.099,3.893 14.099,0C14.099,-3.894 10.942,-7.05 7.05,-7.05" style="fill:rgb(8,4,146);fill-rule:nonzero;"></path>
        </g>
        <g transform="matrix(0,4.16667,4.16667,0,1201.14,1328.64)">
            <path d="M7.006,-7.006C3.137,-7.006 0,-3.869 0,0C0,3.869 3.137,7.006 7.006,7.006C10.875,7.006 14.012,3.869 14.012,0C14.012,-3.869 10.875,-7.006 7.006,-7.006" style="fill:rgb(8,4,146);fill-rule:nonzero;"></path>
        </g>
        <g transform="matrix(0,4.16667,4.16667,0,1200.51,1328.02)">
            <path d="M6.962,-6.962C3.117,-6.962 0,-3.845 0,0C0,3.845 3.117,6.962 6.962,6.962C10.807,6.962 13.924,3.845 13.924,0C13.924,-3.845 10.807,-6.962 6.962,-6.962" style="fill:rgb(8,4,146);fill-rule:nonzero;"></path>
        </g>
        <g transform="matrix(0,4.16667,4.16667,0,1199.88,1327.39)">
            <path d="M6.918,-6.918C3.097,-6.918 0,-3.821 0,0C0,3.821 3.097,6.918 6.918,6.918C10.739,6.918 13.836,3.821 13.836,0C13.836,-3.821 10.739,-6.918 6.918,-6.918" style="fill:rgb(8,4,146);fill-rule:nonzero;"></path>
        </g>
        <g transform="matrix(0,4.16667,4.16667,0,1199.25,1326.77)">
            <path d="M6.874,-6.874C3.077,-6.874 0,-3.796 0,-0C0,3.797 3.077,6.874 6.874,6.874C10.672,6.874 13.749,3.797 13.749,-0C13.749,-3.796 10.672,-6.874 6.874,-6.874" style="fill:rgb(8,4,146);fill-rule:nonzero;"></path>
        </g>
        <g transform="matrix(0,4.16667,4.16667,0,1198.62,1326.14)">
            <path d="M6.831,-6.831C3.059,-6.831 0,-3.773 0,-0C0,3.773 3.059,6.831 6.831,6.831C10.602,6.831 13.66,3.773 13.66,-0C13.66,-3.773 10.602,-6.831 6.831,-6.831" style="fill:rgb(8,4,146);fill-rule:nonzero;"></path>
        </g>
        <g transform="matrix(0,4.16667,4.16667,0,1197.99,1325.52)">
            <path d="M6.787,-6.787C3.039,-6.787 -0,-3.749 -0,0C-0,3.749 3.039,6.787 6.787,6.787C10.535,6.787 13.573,3.749 13.573,0C13.573,-3.749 10.535,-6.787 6.787,-6.787" style="fill:rgb(8,4,146);fill-rule:nonzero;"></path>
        </g>
        <g transform="matrix(0,4.16667,4.16667,0,1197.37,1324.89)">
            <path d="M6.743,-6.743C3.019,-6.743 0,-3.724 0,0C0,3.724 3.019,6.743 6.743,6.743C10.467,6.743 13.486,3.724 13.486,0C13.486,-3.724 10.467,-6.743 6.743,-6.743" style="fill:rgb(8,4,146);fill-rule:nonzero;"></path>
        </g>
        <g transform="matrix(0,4.16667,4.16667,0,1196.74,1324.27)">
            <path d="M6.699,-6.699C2.999,-6.699 0,-3.7 0,0C0,3.7 2.999,6.699 6.699,6.699C10.399,6.699 13.398,3.7 13.398,0C13.398,-3.7 10.399,-6.699 6.699,-6.699" style="fill:rgb(8,4,146);fill-rule:nonzero;"></path>
        </g>
        <g transform="matrix(0,4.16667,4.16667,0,1196.1,1323.64)">
            <path d="M6.655,-6.655C2.979,-6.655 0,-3.675 0,-0C0,3.676 2.979,6.655 6.655,6.655C10.331,6.655 13.31,3.676 13.31,-0C13.31,-3.675 10.331,-6.655 6.655,-6.655" style="fill:rgb(8,4,146);fill-rule:nonzero;"></path>
        </g>
        <g transform="matrix(0,4.16667,4.16667,0,1195.48,1323.01)">
            <path d="M6.611,-6.611C2.96,-6.611 0,-3.651 0,-0C0,3.652 2.96,6.611 6.611,6.611C10.262,6.611 13.223,3.652 13.223,-0C13.223,-3.651 10.262,-6.611 6.611,-6.611" style="fill:rgb(8,4,146);fill-rule:nonzero;"></path>
        </g>
        <g transform="matrix(0,4.16667,4.16667,0,1194.85,1322.39)">
            <path d="M6.568,-6.568C2.94,-6.568 0.001,-3.628 0.001,-0.001C0.001,3.628 2.94,6.568 6.568,6.568C10.195,6.568 13.134,3.628 13.134,-0.001C13.134,-3.628 10.195,-6.568 6.568,-6.568" style="fill:rgb(8,4,146);fill-rule:nonzero;"></path>
        </g>
        <g transform="matrix(0,4.16667,4.16667,0,1194.21,1321.76)">
            <path d="M6.523,-6.523C2.92,-6.523 -0,-3.602 -0,0C-0,3.603 2.92,6.523 6.523,6.523C10.127,6.523 13.048,3.603 13.048,0C13.048,-3.602 10.127,-6.523 6.523,-6.523" style="fill:rgb(8,4,146);fill-rule:nonzero;"></path>
        </g>
        <g transform="matrix(0,4.16667,4.16667,0,1226.35,1353.67)">
            <path d="M8.76,-8.76C3.922,-8.76 0.001,-4.838 0.001,-0.001C0.001,4.837 3.922,8.76 8.76,8.76C13.598,8.76 17.519,4.837 17.519,-0.001C17.519,-4.838 13.598,-8.76 8.76,-8.76" style="fill:rgb(0,174,234);fill-rule:nonzero;"></path>
        </g>
        <g transform="matrix(0,4.16667,4.16667,0,1226.35,1353.67)">
            <ellipse cx="8.76" cy="0" rx="8.759" ry="8.76" style="fill:none;stroke:rgb(0,174,234);stroke-width:1px;"></ellipse>
        </g>
</g>
</svg>